<?xml version="1.0" encoding="UTF-8" standalone="no"?>
<svg
   xmlns:dc="http://purl.org/dc/elements/1.1/"
   xmlns:cc="http://creativecommons.org/ns#"
   xmlns:rdf="http://www.w3.org/1999/02/22-rdf-syntax-ns#"
   xmlns:svg="http://www.w3.org/2000/svg"
   xmlns="http://www.w3.org/2000/svg"
   xmlns:sodipodi="http://sodipodi.sourceforge.net/DTD/sodipodi-0.dtd"
   xmlns:inkscape="http://www.inkscape.org/namespaces/inkscape"
   width="210mm"
   height="297mm"
   viewBox="0 0 210 297"
   version="1.1"
   id="svg8"
   inkscape:version="1.0.2 (e86c870879, 2021-01-15, custom)"
   sodipodi:docname="africa.svg">
  <defs
     id="defs2" />
  <sodipodi:namedview
     id="base"
     pagecolor="#ffffff"
     bordercolor="#666666"
     borderopacity="1.0"
     inkscape:pageopacity="0.0"
     inkscape:pageshadow="2"
     inkscape:zoom="0.33173887"
     inkscape:cx="647.18065"
     inkscape:cy="997.79615"
     inkscape:document-units="mm"
     inkscape:current-layer="layer1"
     inkscape:document-rotation="0"
     showgrid="false"
     inkscape:window-width="1920"
     inkscape:window-height="1017"
     inkscape:window-x="-8"
     inkscape:window-y="-8"
     inkscape:window-maximized="1" />
  <metadata
     id="metadata5">
    <rdf:RDF>
      <cc:Work
         rdf:about="">
        <dc:format>image/svg+xml</dc:format>
        <dc:type
           rdf:resource="http://purl.org/dc/dcmitype/StillImage" />
        <dc:title />
      </cc:Work>
    </rdf:RDF>
  </metadata>
  <g
     inkscape:label="Layer 1"
     inkscape:groupmode="layer"
     id="layer1">
    <g
       id="g853"
       transform="matrix(1,0,0,0.90302245,0,25.40559)">
      <path
         style="fill:#ffeeaa;stroke:#000000;stroke-width:1.265;stroke-linecap:butt;stroke-linejoin:miter;stroke-miterlimit:4;stroke-dasharray:none;stroke-opacity:1"
         d="m 132.0016,51.83004 -2.32944,0.87354 -1.84414,1.747081 -5.43536,-1.9412 c 0,0 -1.16472,-0.388242 -1.84414,-0.485302 -0.67942,-0.09706 -1.84414,-0.485299 -2.23238,-0.77648 -0.38824,-0.29118 0.0971,-0.485299 -0.87354,-0.582359 -0.9706,-0.09706 -2.32944,0.09706 -2.71768,-0.09706 -0.38824,-0.194119 -1.74708,-2.426501 -1.74708,-2.426501 0,0 -0.67942,-0.9706 -3.49416,0.09706 -2.81474,1.06766 -3.00886,1.455902 -3.00886,2.135323 0,0.679418 -0.19412,1.552958 -0.0971,2.03826 0.0971,0.485299 0.4853,2.13532 0.4853,2.13532 l -0.87354,1.650018 c 0,0 -1.55296,0.776481 -2.13532,0.09706 -0.58236,-0.679418 -1.9412,-2.23238 -1.9412,-2.23238 0,0 -1.84414,-0.582358 -2.717682,-0.582358 -0.87354,0 -2.62062,0.194119 -2.9118,-0.194122 -0.29118,-0.388239 -0.19412,-1.941201 -0.19412,-1.941201 l 0.0971,-1.552958 -4.07652,-1.941201 c 0,0 -1.35884,-0.291179 -1.9412,-0.09706 -0.58236,0.194119 -1.65002,-0.19412 -1.65002,-0.19412 l -1.26178,-2.13532 -1.84414,-0.485301 -0.38824,-1.747081 0.67942,-0.873537 c 0,0 0.58236,-0.388242 0.67942,-0.776481 0.0971,-0.388242 0.0971,-1.455902 0.0971,-1.455902 l -0.77648,-2.911797 1.06766,-2.717681 -0.19412,-0.582361 -1.55296,0.485301 -1.16472,-1.844141 -2.9118,1.455899 h -4.17358 l -2.4265,0.388242 h -2.52356 l -5.14418,0.194119 -3.78534,2.13532 -3.10592,2.620621 -1.74708,0.970601 -3.30004,-0.776481 -2.81474,-0.485301 c 0,0 -0.67942,-1.06766 -1.26178,-0.776478 -0.58236,0.291179 -1.74708,1.067659 -2.13532,2.135319 -0.38824,1.06766 -1.74708,4.27064 -1.74708,4.27064 0,0 -2.9118,2.329439 -3.20298,2.717681 -0.29118,0.388239 -1.06766,1.552958 -1.06766,2.523558 0,0.970601 0.19412,1.16472 -0.29118,1.941201 -0.4853,0.77648 -0.9706,1.261779 -1.06766,2.03826 -0.0971,0.77648 -0.0971,2.426499 -0.0971,3.10592 0,0.679421 -4.17358,6.794199 -4.17358,6.794199 0,0 -0.87354,-0.9706 -1.9412,1.06766 -1.06766,2.03826 -1.4559,2.52356 -1.55296,2.9118 -0.0971,0.38824 -0.67942,0.87354 -1.26178,1.26178 -0.58236,0.38824 -1.06766,0.4853 -1.55296,1.26178 -0.4853,0.77648 -2.4265,3.68828 -2.4265,4.07652 0,0.38824 -0.87354,3.00886 -0.87354,3.00886 l -2.4265,5.14418 -0.29118,2.4265 0.4853,2.9118 0.77648,1.06766 -0.0971,1.26178 0.67942,4.46476 0.58236,4.27064 c 0,0 -1.74708,2.135321 -1.84414,2.717681 -0.0971,0.58236 0,1.74708 -0.38824,2.32944 -0.38824,0.58236 -1.26178,1.84414 -1.26178,1.84414 0,0 0.4853,1.84414 0.58236,2.23238 0.0971,0.38824 0.38824,1.16472 0.38824,1.16472 0,0 0.87354,3.78534 0.87354,4.46476 0,0.67942 0.58236,1.06766 0.9706,1.65002 0.38824,0.58236 1.26178,0.19412 1.4559,0.58236 0.19412,0.38824 0.19412,1.84414 0.19412,1.84414 l 0.77648,1.26178 1.26178,1.65002 c 0,0 1.26178,-0.29118 1.65002,0.0971 0.38824,0.38824 1.26178,2.4265 1.26178,2.4265 l -0.0971,1.4559 1.16472,3.10592 1.16472,2.52356 1.65002,0.58236 5.62948,5.8236 1.84414,1.74708 c 0,0 0.87354,0.58236 1.55296,0.29118 0.67942,-0.29118 0.9706,-0.67942 2.03826,-1.26178 1.06766,-0.58236 2.32944,-1.06766 2.9118,-1.16472 0.58236,-0.0971 3.00886,-0.0971 3.00886,-0.0971 0,0 1.55296,0 2.03826,0.38824 0.4853,0.38824 1.4559,0.77648 1.9412,0.9706 0.4853,0.19412 0.67942,0.29118 1.74708,-0.29118 1.06766,-0.58236 3.78534,-2.03826 3.78534,-2.03826 l 1.84414,-1.4559 2.03826,-1.16472 c 0,0 1.4559,-0.0971 1.84414,-0.19412 0.38824,-0.0971 1.16472,-0.4853 1.16472,-0.4853 0,0 0.19412,-1.06766 0.58236,-0.77648 0.38824,0.29118 2.71768,1.65002 2.71768,1.65002 0,0 0.67942,1.35884 0.67942,1.74708 0,0.38824 0.0971,1.55296 0.19412,2.03826 0.0971,0.4853 0.29118,1.16472 0.67942,1.65002 0.38824,0.4853 1.65002,1.06766 2.4265,0.9706 0.77648,-0.0971 3.59122,-0.77648 3.59122,-0.77648 l 1.74708,-0.77648 1.55296,2.4265 c 0,0 0.4853,1.9412 0.4853,2.52356 0,0.58236 0.0971,1.9412 -0.0971,3.20298 -0.19412,1.26178 -1.26178,5.62948 -1.26178,5.62948 0,0 0.29118,1.16472 0,1.74708 -0.29118,0.58236 -0.9706,3.3971 -0.9706,3.3971 l 3.49416,5.24124 c 0,0 1.9412,1.9412 2.23238,2.32944 0.29118,0.38824 1.16472,2.23238 1.16472,2.23238 0,0 0.4853,0.58236 0.58236,1.06766 0.0971,0.4853 2.03826,-2.03826 2.03826,-2.03826 l 0.43689,0.87354 -0.14559,0.87354 c 0,0 -0.53383,0.75222 -0.72795,0.94634 -0.19412,0.19412 -0.92207,0.84927 -0.94633,0.99486 -0.0243,0.14559 1.18898,3.22725 1.18898,3.22725 l 0.77648,3.30004 c 0,0 0.24265,0.55809 0.38824,0.82501 0.14559,0.26691 0.43677,0.77648 0.38824,1.01913 -0.0485,0.24265 -0.36397,0.92207 -0.4853,1.11619 -0.12132,0.19412 0.39509,4.47893 0.53236,5.50841 0.13726,1.02948 0.27452,2.88253 0.27452,3.36296 0,0.48042 -1.09811,3.0198 -1.37263,3.50022 -0.27453,0.48042 -1.57853,1.78442 -1.7158,2.12758 -0.13726,0.34316 -0.54905,1.92169 -0.54905,2.47075 0,0.54905 0.0686,1.5099 0.0686,1.78442 0,0.27453 -1.37264,5.69644 -1.304,6.31413 0.0686,0.61768 0,1.71579 0.27452,2.67664 0.27453,0.96084 1.16674,2.8139 1.37264,3.15706 0.20589,0.34316 2.33348,4.39243 2.53938,4.87286 0.20589,0.48042 1.78442,7.96128 1.78442,7.96128 l 0.0686,8.16719 2.60801,9.05939 c 0,0 1.7158,1.99032 1.99032,2.53938 0.27453,0.54905 1.715802,3.70611 1.715802,3.70611 0,0 -0.2059,2.67664 -0.2059,3.0198 0,0.34316 0.0686,1.85306 0.0686,1.85306 l 1.30401,1.85306 -0.34316,1.304 -0.54906,1.7158 -0.0686,0.68632 1.1668,1.37263 c 0,0 -0.13726,0.41179 -0.13726,1.02948 0,0.61768 -0.54905,0.75495 0.41179,1.44127 0.96085,0.68631 1.09811,0.54905 1.5099,0.96084 0.41179,0.41179 0.41179,0.68632 0.82358,0.89221 0.41179,0.2059 1.09811,-0.0686 1.5099,-0.41179 0.41179,-0.34316 0.89221,-1.16674 1.37264,-1.16674 0.48042,0 1.57853,0.13727 1.85305,0.34316 0.27453,0.2059 0.61769,-0.0686 0.89222,-0.41179 0.27452,-0.34316 0.27452,-0.61768 0.54905,-0.75495 0.27453,-0.13726 2.33348,0 2.81391,0.0686 0.48042,0.0686 1.50989,0.13727 2.05895,0.48043 0.54905,0.34316 1.02948,0.82358 1.44127,0.41179 0.41179,-0.41179 0.82358,-0.61769 1.304,-0.68632 0.48042,-0.0686 1.44127,0.0686 1.44127,-0.27453 0,-0.34316 1.02947,-1.44127 1.304,-1.64716 0.27453,-0.2059 5.01012,-4.5297 5.01012,-4.5297 0,0 2.81391,-2.95117 3.36296,-4.46106 0.54905,-1.5099 1.57853,-3.91202 1.57853,-3.91202 l 3.15706,-4.87285 1.44127,-5.35328 c 0,0 0.41179,-0.41179 0.41179,-0.82358 0,-0.41179 -0.13726,-1.23538 -0.13726,-1.23538 0,0 -0.41179,-0.54905 -0.27453,-1.16674 0.13726,-0.61768 1.44127,-1.78442 1.44127,-1.78442 l 1.78442,-0.48043 2.26485,-1.0981 0.89222,-2.19622 0.20589,-7.41223 -0.68632,-3.56886 -0.34316,-2.40211 c 0,0 3.36296,-2.12758 3.56886,-2.47074 0.20589,-0.34316 1.44126,-1.99033 1.71579,-2.33348 0.27453,-0.34316 2.67664,-2.47075 2.67664,-2.47075 l 4.39244,-3.36296 2.12758,-3.70611 -0.68632,-7.06908 -0.0686,-6.72591 -1.02948,-2.74527 -0.54905,-3.15706 -0.27453,-2.19622 0.96085,-0.75495 0.0686,-0.54906 -1.16674,-0.20589 v -1.99032 c 0,0 0.41179,-0.82358 0.41179,-1.23538 0,-0.41179 -0.68632,-1.23537 -0.68632,-1.23537 0,0 -0.96084,0 -1.09811,-0.48042 -0.13726,-0.48042 0.27453,-2.95117 0.27453,-2.95117 l 0.96085,-1.37263 2.19621,-3.15706 0.34316,-2.53938 c 0,0 2.53938,-1.44127 2.95117,-2.12759 0.41179,-0.68631 1.44127,-3.22569 1.44127,-3.22569 l 5.76507,-8.09855 5.8337,-5.35328 c 0,0 2.60801,-4.87286 2.95117,-5.35328 0.34315,-0.48042 1.44126,-2.60801 1.57853,-2.95117 0.13726,-0.34315 3.08843,-7.61812 3.08843,-7.61812 l 0.61768,-4.04928 c 0,0 0.27453,-3.56885 0.27453,-3.91201 0,-0.34316 -0.0686,-1.85306 -0.0686,-1.85306 0,0 -0.41179,-0.0686 -0.75495,0.27453 -0.34316,0.34316 -0.75495,0.75495 -1.09811,0.96084 -0.34316,0.2059 0.2059,0.2059 -0.89221,0.27453 -1.09811,0.0686 -3.0198,0.0686 -3.29433,0.2059 -0.27453,0.13726 -1.64716,0.75494 -2.19622,1.02947 -0.54905,0.27453 -1.85305,0.48042 -2.67664,0.68632 -0.82358,0.2059 -3.43159,1.09811 -3.43159,1.09811 0,0 -1.71579,0.13726 -1.99032,-0.13727 -0.27452,-0.27452 -1.78442,-1.99032 -1.78442,-1.99032 0,0 0.61768,-3.15706 0.61768,-3.63748 0,-0.48042 -4.46106,-7.00044 -4.46106,-7.00044 0,0 -1.92169,-1.30401 -2.26485,-1.57853 -0.34316,-0.27453 -1.64717,-1.57854 -1.99032,-2.05896 -0.34316,-0.48042 -1.09811,-2.74527 -1.23538,-3.637481 -0.13726,-0.89222 -1.0981,-5.21602 -1.0981,-5.21602 l -2.88254,-2.26485 c 0,0 -1.304,-2.12758 -1.37264,-2.47074 -0.0686,-0.34316 0.4118,-4.46107 0.4118,-4.46107 l -1.57854,-3.29432 -1.99032,-1.64717 c 0,0 -0.48042,-0.27452 -0.61768,-0.61768 -0.13727,-0.34316 -0.34316,-1.64717 -0.34316,-2.19622 0,-0.54905 -1.5099,-3.77475 -2.12759,-5.21602 -0.61768,-1.44126 -0.75495,-2.74527 -0.82358,-3.01979 -0.0686,-0.27453 -0.41179,-2.26485 -0.75495,-2.74528 -0.34316,-0.48042 -1.71579,-2.8139 -1.71579,-2.8139 0,0 -1.7158,-1.64716 -1.85306,-1.99032 -0.13727,-0.34316 -0.0686,-3.22569 -0.0686,-3.22569 l 1.5099,2.40211 0.89221,1.44127 c 0,0 0.61768,1.23537 1.09811,0.82358 0.48042,-0.41179 1.23537,-1.09811 1.44126,-1.92169 0.2059,-0.82358 0.2059,-5.078755 0.2059,-5.078755 l -2.12759,-2.745271 c 0,0 -1.78442,-0.137264 -2.19621,-0.137264 -0.41179,0 -2.81391,0.205895 -2.81391,0.205895 l -0.75495,-1.098108 -0.48042,-0.686318 z"
         id="path847" />
      <path
         style="fill:#ff8080;stroke:#000000;stroke-width:1.265;stroke-linecap:butt;stroke-linejoin:miter;stroke-miterlimit:4;stroke-dasharray:none;stroke-opacity:1"
         d="m 152.648,165.81849 -2.67663,-2.64232 c 0,0 -0.13727,-0.8579 -0.30885,-1.37264 -0.17158,-0.51474 -2.77959,-2.95116 -2.77959,-2.95116 0,0 -3.74043,-3.08843 -3.98064,-3.15707 -0.24021,-0.0686 -1.44127,-0.652 -1.78443,-0.41179 -0.34315,0.24021 -1.20105,0.652 -1.23537,1.13243 -0.0343,0.48042 0.41179,1.20105 0.41179,1.20105 0,0 0.0686,0.41179 0.0686,0.58337 0,0.17158 -0.34315,1.13243 -0.34315,1.13243 l -0.44611,0.34316 -3.91201,0.0686 c 0,0 -0.10295,-1.44127 -0.10295,-1.57853 0,-0.13727 -0.10295,-2.02464 -0.10295,-2.02464 l -0.51474,-0.92653 c 0,0 -1.68147,-0.4461 -1.61284,-0.27452 0.0686,0.17157 0.4461,0.89221 0.48042,1.37263 0.0343,0.48042 0.0343,1.13242 0.0686,1.54422 0.0343,0.41179 0,0.82358 -0.20589,0.99516 -0.2059,0.17157 -0.51474,0.72063 -0.51474,0.72063 0,0 0.89221,1.5099 0.89221,1.78443 0,0.27452 -0.58337,2.09327 -0.58337,2.09327 0,0 -0.48042,0.61768 -0.82358,0.92653 -0.34316,0.30884 -1.06379,0.68631 -1.06379,0.68631 l 0.10294,4.90718 c 0,0 -0.0686,0.51473 -0.0686,0.652 0,0.13726 0.27453,0.652 0.58337,0.96084 0.30884,0.30884 0.89222,0.68632 0.99516,0.96085 0.10295,0.27452 0.37748,1.71579 0.37748,1.88737 0,0.17158 0.13726,1.26969 0.41179,1.61285 0.27452,0.34316 3.19138,2.33348 3.19138,2.33348 l 0.82358,0.75495 0.54905,1.37263 c 0,0 0.41179,0.30885 0.72064,0.30885 0.30884,0 1.85305,-0.2059 1.85305,-0.2059 l 0.8579,0.8579 c 0,0 0.10295,1.37264 0.17158,1.68148 0.0686,0.30884 0.27453,1.23537 0.27453,1.40695 0,0.17158 0.41179,1.81874 0.54905,1.92169 0.13726,0.10295 0.78927,0.24021 0.92653,0.10295 0.13727,-0.13727 0.89221,-0.48042 1.23537,-0.51474 0.34316,-0.0343 1.23538,0.34316 1.37264,0.51474 0.13726,0.17158 0.51474,0.54905 1.09811,0.20589 0.58337,-0.34316 0.54905,-0.51473 0.92653,-0.51473 0.37747,0 1.06379,0.20589 1.47558,0.20589 0.41179,0 1.81874,-0.75495 1.81874,-0.75495 0,0 0.37748,-0.54906 0.89221,-0.72064 0.51474,-0.17157 2.81394,-0.58339 2.81394,-0.58339 l -1.85306,-8.09855 0.96085,-0.75495 0.0686,-0.54906 -1.16674,-0.20589 v -1.99032 l 0.41179,-1.26966 c 0,0 0.27453,-0.0343 -0.2059,-0.61769 -0.48042,-0.5834 -0.48042,-0.5834 -0.48042,-0.5834 l -1.16674,-0.51471 0.34316,-2.91688 0.54905,-0.82355 z"
         id="path849" />
    </g>
  </g>
</svg>
