<?xml version="1.0" encoding="UTF-8" standalone="no"?>
<svg
   xmlns:dc="http://purl.org/dc/elements/1.1/"
   xmlns:cc="http://creativecommons.org/ns#"
   xmlns:rdf="http://www.w3.org/1999/02/22-rdf-syntax-ns#"
   xmlns:svg="http://www.w3.org/2000/svg"
   xmlns="http://www.w3.org/2000/svg"
   xmlns:sodipodi="http://sodipodi.sourceforge.net/DTD/sodipodi-0.dtd"
   xmlns:inkscape="http://www.inkscape.org/namespaces/inkscape"
   width="210mm"
   height="297mm"
   viewBox="0 0 210 297"
   version="1.1"
   id="svg8"
   inkscape:version="1.0.2 (e86c870879, 2021-01-15, custom)"
   sodipodi:docname="brainregions.svg">
  <defs
     id="defs2" />
  <sodipodi:namedview
     id="base"
     pagecolor="#ffffff"
     bordercolor="#666666"
     borderopacity="1.0"
     inkscape:pageopacity="0.0"
     inkscape:pageshadow="2"
     inkscape:zoom="0.66347772"
     inkscape:cx="248.66813"
     inkscape:cy="548.29088"
     inkscape:document-units="mm"
     inkscape:current-layer="layer1"
     inkscape:document-rotation="0"
     showgrid="false"
     inkscape:window-width="1920"
     inkscape:window-height="1017"
     inkscape:window-x="-8"
     inkscape:window-y="-8"
     inkscape:window-maximized="1" />
  <metadata
     id="metadata5">
    <rdf:RDF>
      <cc:Work
         rdf:about="">
        <dc:format>image/svg+xml</dc:format>
        <dc:type
           rdf:resource="http://purl.org/dc/dcmitype/StillImage" />
        <dc:title />
      </cc:Work>
    </rdf:RDF>
  </metadata>
  <g
     inkscape:label="Layer 1"
     inkscape:groupmode="layer"
     id="layer1">
    <g
       id="g1071"
       transform="translate(27.117214,24.325735)">
      <g
         id="g1027"
         transform="matrix(0.61251625,0,0,0.41643308,-160.91135,-14.975248)">
        <path
           style="fill:#ffaaaa;stroke:#000000;stroke-width:2.265;stroke-linecap:butt;stroke-linejoin:miter;stroke-miterlimit:4;stroke-dasharray:none;stroke-opacity:1"
           d="m 346.31008,145.59 -1.55295,-5.62948 c 0,0 0,-2.9118 0.38823,-3.8824 0.38825,-0.9706 2.91181,-6.7942 2.91181,-6.7942 l 1.74707,-3.49416 1.16473,-2.32944 c 0,0 0.77647,-0.19412 0.97059,-2.71768 0.19413,-2.52356 1.16473,-1.16472 0.19413,-3.10592 -0.9706,-1.9412 -4.07652,-4.853 -4.07652,-4.853 0,0 -0.58237,-4.65888 -0.58237,-5.8236 0,-1.16472 3.10592,-9.706 3.10592,-9.706 0,0 4.46476,-3.10592 5.24123,-4.852998 0.7765,-1.747081 5.24124,-10.094241 5.04714,-11.25896 -0.19412,-1.164723 -1.74709,-4.658882 -2.13532,-5.435362 -0.38825,-0.776481 -5.04714,-4.07652 -5.04714,-4.07652 0,0 -3.88239,-0.582359 -6.01771,0.194119 -2.13531,0.776481 -8.7354,2.717681 -8.7354,2.717681 l -3.68829,1.9412 c 0,0 -5.24124,-0.388239 -6.21183,-0.388239 -0.9706,0 -10.09423,3.494159 -10.09423,3.494159 0,0 -2.32944,2.523562 -3.10592,3.30004 -0.7765,0.77648 0.58235,0.388241 -2.91182,0.9706 -3.49414,0.582361 -7.76478,1.358842 -7.76478,1.358842 l -6.60008,7.764798 c 0,0 -1.16472,0.9706 -2.91182,2.13532 -1.74707,1.164719 -6.60006,3.494161 -7.37656,4.464762 -0.77647,0.970598 -5.24123,6.211838 -5.82358,7.182438 -0.58237,0.9706 -4.27064,7.7648 -4.65889,8.92952 -0.38825,1.16472 -4.27064,8.54128 -4.27064,8.54128 l -4.46476,16.5002 c 0,0 -0.19413,7.18244 -0.38823,8.54128 -0.19412,1.35884 -1.35884,7.18244 -1.35884,7.95892 0,0.77648 0.38822,8.54128 0.38822,9.31776 0,0.77648 1.55297,6.98832 2.32944,8.34716 0.7765,1.35884 2.52357,6.60008 3.30005,6.7942 0.77647,0.19412 2.32944,1.74708 3.49416,2.13532 1.16473,0.38824 3.88239,5.8236 3.88239,5.8236 l 6.01774,6.98832 c 0,0 4.07651,2.9118 4.85299,3.30004 0.77647,0.38824 2.32944,0.77648 2.32944,0.77648 l -6.01771,1.74708 -2.32944,-0.19412 v 3.30004 l 9.90012,1.35884 9.12363,-0.9706 5.24124,-2.13532 2.52357,-15.91784 3.49416,-14.75312 c 0,0 5.43534,-8.15304 6.21184,-9.12364 0.77647,-0.9706 10.09422,-11.06484 10.09422,-11.06484 l 9.706,-5.62948 z"
           id="path847" />
        <path
           style="fill:#ffccaa;stroke:#000000;stroke-width:2.265;stroke-linecap:butt;stroke-linejoin:miter;stroke-miterlimit:4;stroke-dasharray:none;stroke-opacity:1"
           d="m 346.31008,145.59 8.34715,-4.07652 13.58842,-7.95892 c 0,0 13.78252,-3.10592 14.55899,-3.30004 0.77647,-0.19412 12.22957,0.38824 12.22957,0.38824 l 6.98831,3.68828 4.85301,4.65888 3.49414,5.43536 c 0,0 3.88242,5.62948 4.85301,6.21184 0.9706,0.58236 2.52357,1.74708 2.52357,1.74708 l 2.9118,1.55296 c 0,0 5.82358,4.07652 6.60008,4.46476 0.77647,0.38824 7.18243,1.55296 7.95891,1.55296 0.77649,0 8.7354,-1.55296 8.7354,-1.55296 l 5.62949,-3.30004 3.10591,-6.40596 c 0,0 -0.19412,-7.95892 -0.19412,-8.7354 0,-0.77648 0,-14.17076 0,-14.17076 l -0.38822,-9.51188 v -3.10592 l 3.49414,-4.46476 -6.60009,-7.18244 -12.81192,-8.34716 -8.54128,-6.40596 c 0,0 -0.77647,-1.9412 -1.94119,-2.9118 -1.16472,-0.9706 -7.57068,-3.300039 -8.54128,-3.494159 -0.9706,-0.194119 -5.62949,0 -5.62949,0 L 404.35196,73.7656 c 0,0 -5.24124,-1.552959 -7.76481,-1.552959 -2.52354,0 -5.43536,0.582358 -5.43536,0.582358 l -4.46473,0.776481 c 0,0 -2.7177,-1.747081 -3.49417,-2.329439 -0.7765,-0.582361 -14.55902,-1.358839 -14.55902,-1.358839 l -5.62946,1.164719 -5.24126,3.494159 3.10594,6.794201 -4.27064,11.45308 -6.01773,4.464759 -2.9118,9.706 0.38825,5.8236 3.88239,4.65888 -0.97059,6.01772 -6.21184,16.5002 z"
           id="path849" />
        <path
           style="fill:#e5ff80;stroke:#000000;stroke-width:2.265;stroke-linecap:butt;stroke-linejoin:miter;stroke-miterlimit:4;stroke-dasharray:none;stroke-opacity:1"
           d="m 455.59964,108.7072 8.05598,8.05598 6.50303,15.5296 7.95891,20.18848 1.55297,26.2062 -0.0971,13.39428 c 0,0 -3.78534,10.87072 -3.97944,11.35602 -0.19412,0.4853 -6.21186,6.50302 -6.98833,6.69714 -0.77647,0.19412 -4.95006,1.16472 -4.95006,1.16472 l -1.65003,3.78534 c 0,0 -4.27063,1.4559 -4.95006,1.4559 -0.6794,0 -7.66773,-0.0971 -8.73538,-0.67942 -1.06767,-0.58236 -16.59726,-5.92066 -16.59726,-5.92066 l -11.06484,-10.96778 -1.65002,-1.84414 c 0,0 7.66773,-6.89126 7.9589,-7.2795 0.2912,-0.38824 6.40596,-8.7354 6.40596,-8.7354 l 0.0971,-4.3677 -2.03828,-6.01772 c 0,0 6.89126,-2.4265 7.37656,-3.20298 0.4853,-0.77648 3.20299,-3.78534 3.39712,-5.04712 0.19412,-1.26178 0.38822,-2.62062 0.38822,-2.62062 l 6.50304,-1.65002 4.27064,-5.53242 -0.67943,-3.97946 -0.58234,-35.52396 z"
           id="path851" />
        <path
           style="fill:#ffeeaa;stroke:#000000;stroke-width:2.265;stroke-linecap:butt;stroke-linejoin:miter;stroke-miterlimit:4;stroke-dasharray:none;stroke-opacity:1"
           d="m 309.81552,203.826 4.46476,7.86186 6.55156,5.58095 c 0,0 2.62062,0.67942 3.20297,0.67942 0.58237,0 1.79562,0.33971 1.79562,0.33971 l 2.81474,3.44563 c 0,0 3.68827,3.83387 3.93092,4.07652 0.24265,0.24265 5.09566,2.76621 5.09566,2.76621 0,0 2.81474,0.67942 3.63974,0.67942 0.82502,0 2.62062,0.0971 4.07652,-0.19412 1.45589,-0.29118 1.60149,-0.0485 3.10591,-0.63089 1.50445,-0.58236 4.70742,-1.9412 4.70742,-1.9412 0,0 1.60149,-0.4853 1.79562,-0.58236 0.19412,-0.0971 0.29117,-0.14559 0.82499,-0.38824 0.53385,-0.24265 1.69855,-0.67942 1.89267,-0.77648 0.19413,-0.0971 0.38825,-0.33971 0.38825,-0.33971 l 12.18102,-8.97805 10.14278,-7.13391 3.30004,-2.76621 12.7634,-3.93093 20.28552,-3.20298 2.23237,-1.26178 7.95893,-7.47362 6.40593,-8.54128 0.0971,-4.3677 -2.03828,-6.01772 6.89126,-2.52356 3.97947,-5.3383 0.29117,-3.00886 -6.98831,0.0971 -8.34715,-1.55296 -9.51188,-6.01772 -5.72656,-5.43536 -5.14416,-7.95892 -4.85301,-4.65888 -6.98831,-3.68828 -12.4237,-0.67942 -14.36486,3.59122 -21.93557,12.03544 -4.46477,1.74708 -9.706,5.62948 -9.99717,11.25896 -6.30889,8.92952 -3.49416,14.75312 z"
           id="path853" />
        <path
           style="fill:#afe9dd;stroke:#000000;stroke-width:1.165;stroke-linecap:butt;stroke-linejoin:miter;stroke-miterlimit:4;stroke-dasharray:none;stroke-opacity:1"
           d="m 370.67214,216.4438 4.95007,0.67942 c 0,0 1.06764,0.67942 2.42649,2.03826 1.35885,1.35884 1.35885,1.9412 3.00887,2.62062 1.65002,0.67942 3.97946,1.16472 4.56181,1.4559 0.58235,0.29118 -0.9706,1.74708 -0.9706,1.74708 l 0.38825,4.75594 c 0,0 0.4853,1.84414 1.1647,2.23238 0.67942,0.38824 1.94122,0.77648 2.2324,1.16472 0.29117,0.38824 0.48529,1.55296 0.58234,2.52356 0.0971,0.9706 0,2.23238 0.19413,3.30004 0.19412,1.06766 1.06767,3.10592 2.32944,5.04712 1.26177,1.9412 5.14419,5.8236 5.14419,5.8236 l 9.80305,3.10592 10.1913,0.9706 c 0,0 11.25897,-1.74708 11.74427,-2.03826 0.4853,-0.29118 9.4148,-3.20298 10.6766,-3.78534 1.26177,-0.58236 7.18243,-4.3677 7.18243,-4.3677 l 4.36769,-5.72654 1.45593,-8.2501 -0.0971,-8.63834 -0.4853,-4.65888 -3.00887,-0.29118 -16.79138,-6.21184 -12.71487,-12.81192 -2.23237,1.26178 -20.28552,3.20298 -12.7634,3.93093 z"
           id="path855" />
        <path
           style="fill:#e6e6e6;stroke:#000000;stroke-width:1.965;stroke-linecap:butt;stroke-linejoin:miter;stroke-miterlimit:4;stroke-dasharray:none;stroke-opacity:1"
           d="m 386.29881,290.01529 -3.6883,-21.54732 -4.07651,-15.91785 -1.74707,-3.10592 c 0,0 -2.32945,-3.49416 -2.32945,-4.46476 0,-0.9706 -0.58237,-4.65888 -0.58237,-4.65888 0,0 0.97062,0.58236 -2.13532,-0.58236 -3.10592,-1.16472 -7.9589,-5.04712 -7.9589,-5.04712 0,0 -1.7471,-2.32944 -1.9412,-3.30004 -0.19412,-0.9706 1.79562,-1.16472 -0.9706,-4.07652 -2.76622,-2.9118 -2.76622,-2.9118 -2.76622,-2.9118 l 12.56927,-7.95892 4.95007,0.67942 3.97946,3.93093 1.40737,0.82501 4.27064,1.21325 c 0,0 0.38823,-0.24265 0.38823,0.19412 0,0.43677 -0.24265,1.01913 -0.24265,1.01913 l -0.77648,0.67942 0.38825,4.75594 1.06765,1.84414 1.65002,0.9706 0.77647,0.72795 c 0,0 0.33973,0.82501 0.33973,1.4559 0,0.63089 0,2.57209 0,2.81474 0,0.24265 0.53382,2.32944 0.53382,2.32944 l 4.22212,6.64861 c 0,0 -0.38825,14.75312 -0.38825,15.48107 0,0.72795 1.06767,22.56646 1.06767,22.56646 l 0.14558,3.05739 c 0,0 -1.55295,0.92208 -2.13532,1.21325 -0.58235,0.29117 -4.31917,1.4559 -4.31917,1.4559 z"
           id="path857" />
        <path
           style="fill:none;stroke:#000000;stroke-width:2.265;stroke-linecap:butt;stroke-linejoin:miter;stroke-miterlimit:4;stroke-dasharray:none;stroke-opacity:1"
           d="m 280.98871,115.40434 c 1.54919,-1.1567 3.42482,-1.88248 5.24124,-2.52356 0.96557,-0.34079 2.11468,-0.77235 3.10592,-0.9706 0.19034,-0.0381 0.38904,0.0176 0.58235,0 0.36023,-0.0327 0.70874,-0.14925 1.06767,-0.19412 0.68183,-0.0852 1.44775,0 2.13532,0 0.72072,0 1.31014,0.0727 1.94119,0.38824 0.0748,0.0374 0.35595,0.0648 0.38825,0.0971 0.0323,0.0324 0.0685,0.13279 0.0971,0.0971 0.62209,-0.7776 1.03571,-1.71512 1.74707,-2.4265 0.24797,-0.24797 0.62558,-0.43145 0.87355,-0.67942 0.6422,-0.64219 1.26106,-1.55223 1.9412,-2.23238 0.30779,-0.30778 0.67175,-0.55709 0.97059,-0.87354 0.77431,-0.81985 1.39491,-1.75897 2.32945,-2.4265 0.28808,-0.20577 0.68617,-0.29567 0.9706,-0.4853 0.38208,-0.25471 0.52294,-0.58463 0.97059,-0.77648 0.38841,-0.16646 0.7624,-0.14383 1.16473,-0.19412 0.73855,-0.0923 1.62684,-0.50429 2.32944,-0.58236 1.24119,-0.13791 2.53145,-0.0971 3.78534,-0.0971 0.29117,0 0.59105,-0.0706 0.87355,0 0.17899,0.0447 0.8437,0.53754 1.06765,0.38824 0.25643,-0.17095 0.34186,-0.48701 0.58237,-0.67942 0.82018,-0.65614 1.63155,-1.13701 2.23237,-2.03826 0.48831,-0.732473 0.88117,-1.538169 1.55297,-2.13532 0.34875,-0.309996 0.78245,-0.508899 1.16472,-0.776481 3.12719,-2.189046 5.134,-1.844137 8.92951,-1.844137"
           id="path859" />
        <path
           style="fill:none;stroke:#000000;stroke-width:2.265;stroke-linecap:butt;stroke-linejoin:miter;stroke-miterlimit:4;stroke-dasharray:none;stroke-opacity:1"
           d="m 339.2247,80.75392 c 1.14617,1.901105 2.10687,3.879868 2.71769,6.01772 0.34311,1.20096 0.34023,2.552385 0.4853,3.785341 0.11451,0.973392 0.23654,2.129518 0.0971,3.10592 -0.0333,0.233169 -0.15539,0.447088 -0.19413,0.679421 -0.0266,0.159565 0.0392,0.328361 0,0.485299 -0.0283,0.113167 -0.14816,0.183959 -0.1941,0.291179 -0.62574,1.460055 -1.30582,2.751106 -2.32944,3.97946 -0.0879,0.10545 -0.19413,0.19412 -0.2912,0.291179 -0.12941,0.09706 -0.2817,0.16944 -0.38822,0.291182 -0.0982,0.11221 -1.13605,1.552959 -1.16473,1.552959"
           id="path861" />
        <path
           style="fill:none;stroke:#000000;stroke-width:2.265;stroke-linecap:butt;stroke-linejoin:miter;stroke-miterlimit:4;stroke-dasharray:none;stroke-opacity:1"
           d="m 334.37171,108.51308 c 0,0.38824 0.086,0.78613 0,1.16472 -0.32925,1.44872 -2.57072,4.12322 -3.49417,5.3383 -1.96091,2.58015 -0.41418,0.73257 -1.94119,2.71768 -1.06889,1.38957 -2.25021,2.67674 -3.30005,4.07652 -0.78171,1.04229 -1.82377,1.88728 -2.62061,2.9118 -0.55277,0.71071 -0.88033,1.57749 -1.35885,2.32944 -0.46731,0.73436 -0.93104,1.53258 -1.4559,2.23238 -0.371,0.49467 -0.38528,0.14006 -0.77647,0.87354 -0.51753,0.97035 -0.58238,2.03869 -0.58238,3.10592"
           id="path863" />
        <path
           style="fill:none;stroke:#000000;stroke-width:2.265;stroke-linecap:butt;stroke-linejoin:miter;stroke-miterlimit:4;stroke-dasharray:none;stroke-opacity:1"
           d="m 329.71282,134.9134 c 1.02534,0.5747 1.64018,1.59102 2.42649,2.4265 0.26406,0.28054 0.62553,0.46645 0.87355,0.77648 2.25523,2.81902 2.23237,4.46457 2.23237,7.86186 0,0.79548 0.15536,1.74686 0,2.52356 -0.0342,0.17085 -0.15994,0.31446 -0.1941,0.4853 -0.0819,0.40953 -0.11253,0.8538 -0.19412,1.26178 -0.0577,0.28821 -0.29118,0.59612 -0.29118,0.87354"
           id="path865" />
        <path
           style="fill:none;stroke:#000000;stroke-width:2.265;stroke-linecap:butt;stroke-linejoin:miter;stroke-miterlimit:4;stroke-dasharray:none;stroke-opacity:1"
           d="m 336.70115,128.41038 c -0.19952,1.53205 -0.68754,3.13835 -1.06767,4.65888 -0.37542,1.50168 -0.10017,0.42856 -0.19413,1.65002 -0.0427,0.55544 -0.22987,1.09828 -0.29117,1.65002 -0.0566,0.50927 0.0724,1.04586 0,1.55296 -0.0377,0.26411 -0.15639,0.51237 -0.19412,0.77648 -0.0448,0.3138 0.0621,0.66007 0,0.9706 -0.18106,0.90528 -0.23204,2.54931 -0.0971,3.49416 0.0596,0.41705 0.22177,0.84542 0.29117,1.26178 0.13412,0.80467 0.63503,1.61389 0.87355,2.32944 0.13335,0.40006 1.06122,1.3524 1.35882,1.65002 0.21003,0.21002 0.68601,0.48749 0.97062,0.58236 0.23786,0.0793 0.43199,-0.0266 0.6794,0.0971"
           id="path867" />
        <path
           style="fill:none;stroke:#000000;stroke-width:2.265;stroke-linecap:butt;stroke-linejoin:miter;stroke-miterlimit:4;stroke-dasharray:none;stroke-opacity:1"
           d="m 298.07127,126.56624 c 0,0.64707 0.0151,1.29431 0,1.9412 -0.0595,2.55805 -0.0971,5.10787 -0.0971,7.66774 0,4.20243 -0.18897,7.47877 3.00886,10.6766 0.32354,0.32353 0.64707,0.64707 0.9706,0.9706 0.1261,0.1261 0.18534,0.38824 0.29118,0.38824"
           id="path869" />
        <path
           style="fill:none;stroke:#000000;stroke-width:2.265;stroke-linecap:butt;stroke-linejoin:miter;stroke-miterlimit:4;stroke-dasharray:none;stroke-opacity:1"
           d="m 298.26537,137.04872 c 1.22484,-0.6039 2.62895,-0.64859 3.88242,-1.16472 0.99171,-0.40836 2.61172,-2.36173 3.30004,-3.20298 0.31962,-0.39064 0.7185,-0.64798 0.87352,-1.16472 0.56401,-1.88002 0.38825,-3.8794 0.38825,-5.8236"
           id="path871" />
        <path
           style="fill:none;stroke:#000000;stroke-width:2.265;stroke-linecap:butt;stroke-linejoin:miter;stroke-miterlimit:4;stroke-dasharray:none;stroke-opacity:1"
           d="m 280.89164,132.9722 c 0.31001,1.49657 0.12343,3.06121 0.38825,4.56182 0.0356,0.20151 0.12941,0.38824 0.19412,0.58236 0.0647,0.29118 0.14507,0.57932 0.1941,0.87354 0.0963,0.57797 0.10504,1.16795 0.19413,1.74708 0.36216,2.35393 1.37752,5.56976 2.42649,7.66774 0.2372,0.47435 2.03827,2.15643 2.03827,2.32944"
           id="path873" />
        <path
           style="fill:none;stroke:#000000;stroke-width:2.265;stroke-linecap:butt;stroke-linejoin:miter;stroke-miterlimit:4;stroke-dasharray:none;stroke-opacity:1"
           d="m 282.15341,146.36648 c -1.05622,1.50765 -2.60961,2.68024 -3.39709,4.3677 -0.0865,0.18542 -0.12941,0.38824 -0.19413,0.58236 -0.16176,0.35589 -0.31046,0.71801 -0.4853,1.06766 -0.40835,0.81673 -0.94699,1.56087 -1.26177,2.4265 -0.44391,1.2208 -0.52411,2.52351 -0.77647,3.78534 -0.16145,0.80724 -0.42222,1.47789 -0.4853,2.32944 -0.10551,1.42449 -0.10954,3.13808 0,4.56182 0.0277,0.36066 0.16407,0.70719 0.1941,1.06766 0.17611,2.11309 0.37809,3.85702 1.16472,5.8236 0.2453,0.61322 1.88362,2.85421 2.32945,3.30004 0.0825,0.0825 0.21526,0.10555 0.29117,0.19412 0.12279,0.14323 0.18153,0.33179 0.2912,0.4853 0.90382,1.26534 2.61612,2.3272 3.97944,3.00886 1.37104,0.68552 3.46742,0.55408 4.95006,0.77648 0.20236,0.0304 0.38825,0.12942 0.58238,0.19412 0.38822,0.0324 0.77613,0.0693 1.16472,0.0971 0.77113,0.0551 1.56051,-0.0769 2.32944,0 0.84154,0.0842 1.68469,0.20729 2.52355,0.29118 1.61237,0.16124 3.32996,0 4.95006,0 1.26934,0 2.53519,-0.0378 3.78534,-0.19412 0.20304,-0.0254 0.37981,-0.16518 0.58235,-0.19412 0.22421,-0.032 0.45604,0.0372 0.67942,0 0.10094,-0.0168 0.19413,-0.0647 0.2912,-0.0971 0.12941,-0.0324 0.25617,-0.0782 0.38823,-0.0971 0.21706,-0.031 1.90161,-0.27139 1.94119,-0.29118 0.41691,-0.20844 0.96245,-0.459 1.45592,-0.58236 0.64448,-0.16112 1.32308,-0.0851 1.9412,-0.29118 0.15444,-0.0515 0.93771,-0.25828 1.06765,-0.38824 0.0492,-0.0492 0.2513,-0.27124 0.29117,-0.29118 0.19068,-0.0953 0.39224,-0.10104 0.58237,-0.29118"
           id="path875" />
        <path
           style="fill:none;stroke:#000000;stroke-width:2.265;stroke-linecap:butt;stroke-linejoin:miter;stroke-miterlimit:4;stroke-dasharray:none;stroke-opacity:1"
           d="m 305.83605,156.94602 c 1.78327,-0.0959 3.55121,-0.19412 5.33831,-0.19412 0.1229,0 0.97047,-0.0777 1.16473,0 1.17035,0.46814 2.3061,1.09248 3.39709,1.74708 0.31705,0.19023 0.72641,0.26027 1.06767,0.38824 0.83566,0.31337 2.07171,1.15133 2.42649,2.03826 0.0241,0.0601 -0.0289,0.13625 0,0.19412 0.1383,0.27659 0.30361,0.34089 0.38825,0.67942 0.14489,0.57964 0.0849,2.76024 -0.0971,3.3971 -0.1774,0.62091 -0.67943,1.06262 -0.67943,1.55296"
           id="path877" />
        <path
           style="fill:none;stroke:#000000;stroke-width:2.265;stroke-linecap:butt;stroke-linejoin:miter;stroke-miterlimit:4;stroke-dasharray:none;stroke-opacity:1"
           d="m 314.28028,150.05476 c 0.71422,0.61213 1.06924,1.52797 1.26177,2.4265 0.19153,0.89381 0.43072,1.7501 0.67943,2.62062 0.20582,0.72033 0.24093,1.64658 0.58237,2.32944 0.11708,0.23418 0.79724,1.42115 0.87352,1.65002 0.12711,0.38132 0.27054,0.75582 0.58238,1.06766 0.33528,0.33529 0.74165,0.31773 1.16472,0.38824 0.40394,0.0673 0.16846,0.0885 0.4853,0.19412 0.28323,0.0944 2.5681,0.35854 2.81474,0.19412 0.0761,-0.0508 0.10914,-0.16013 0.1941,-0.19412 0.33237,-0.13294 0.79269,0.0269 1.16472,-0.0971 0.26906,-0.0897 0.67943,-0.22015 0.67943,-0.4853"
           id="path879" />
        <path
           style="fill:none;stroke:#000000;stroke-width:2.265;stroke-linecap:butt;stroke-linejoin:miter;stroke-miterlimit:4;stroke-dasharray:none;stroke-opacity:1"
           d="m 287.68585,163.74022 c 1.0406,1.66201 3.22757,2.47511 5.04711,2.9118 0.81423,0.19542 0.63296,-0.0549 1.4559,0.38824 0.58787,0.31654 1.16726,0.80138 1.84414,0.9706 0.97798,0.24449 2.10365,0.23404 3.10592,0.38824 0.40185,0.0618 0.94631,0.31199 1.35885,0.19412 0.55599,-0.15885 1.03785,-0.42187 1.55294,-0.67942"
           id="path881" />
        <path
           style="fill:none;stroke:#000000;stroke-width:2.265;stroke-linecap:butt;stroke-linejoin:miter;stroke-miterlimit:4;stroke-dasharray:none;stroke-opacity:1"
           d="m 294.86828,167.04026 c 0,-0.59378 0.0317,-0.77836 -0.19413,-1.4559 -0.45582,-1.36753 -1.24547,-2.58605 -1.65002,-3.97946 -0.11864,-0.40867 -0.0835,-0.85087 -0.1941,-1.26178 -0.36644,-1.36109 -0.6337,-1.66684 -0.87354,-3.10592 -0.11698,-0.70182 -0.26107,-1.74774 0,-2.4265 0.0837,-0.21775 0.27492,-0.37842 0.38822,-0.58236 0.80052,-1.44091 1.62322,-2.8257 2.71769,-4.07652 0.45757,-0.52293 1.05765,-0.96059 1.55295,-1.4559 0.39595,-0.39594 0.89651,-0.75379 1.2618,-1.16472 0.62283,-0.70068 -0.0728,-0.30637 0.67942,-0.77648 0.52157,-0.32599 0.37499,-0.11117 1.06765,-0.38824 1.01814,-0.40726 2.03104,-1.30511 2.91179,-1.9412 1.16985,-0.84489 2.36191,-2.16778 3.39712,-3.20298 0.90617,-0.90617 2.07565,-3.3924 2.42649,-4.56182 0.27154,-0.90512 -0.11179,-0.87354 0.29117,-0.87354"
           id="path883" />
        <path
           style="fill:none;stroke:#000000;stroke-width:2.265;stroke-linecap:butt;stroke-linejoin:miter;stroke-miterlimit:4;stroke-dasharray:none;stroke-opacity:1"
           d="m 280.69751,189.65524 c 0.90588,0.25882 1.82608,0.47203 2.7177,0.77648 1.43909,0.4914 2.83014,1.23594 4.27064,1.74708 1.09251,0.38767 2.13907,0.69187 3.20296,1.16472 2.57482,1.14436 -1.83004,-0.76944 1.2618,0.77648 0.56277,0.2814 2.06592,0.59795 2.71767,0.67942 1.91048,0.23881 4.3081,0.57862 6.21183,0.38824 0.94438,-0.0944 1.87344,-0.28365 2.81475,-0.38824 0.84156,-0.0935 1.61038,-0.70813 2.32944,-1.06766 0.29988,-0.14994 1.00121,-0.26903 1.35885,-0.38824 0.27993,-0.0933 0.55189,-0.33558 0.77647,-0.4853 0.20818,-0.13878 0.63881,-0.15034 0.87355,-0.29118 0.45977,-0.27586 0.87902,-0.53658 1.35882,-0.77648"
           id="path885" />
        <path
           style="fill:none;stroke:#000000;stroke-width:2.265;stroke-linecap:butt;stroke-linejoin:miter;stroke-miterlimit:4;stroke-dasharray:none;stroke-opacity:1"
           d="m 368.73095,93.1776 c 0.45294,0.323535 0.90284,0.651396 1.35882,0.9706 0.51885,0.363191 2.15088,1.512202 2.81474,1.84414 1.52646,0.763225 3.54587,1.296252 4.95007,2.23238 0.56231,0.374883 0.85611,1.045882 1.26179,1.552961 0.3297,0.412139 0.71263,0.788829 0.9706,1.261779 0.43217,0.79233 0.36166,1.10501 0.4853,2.13532 0.31168,2.59736 -0.39939,3.94765 -1.84415,6.11478 -0.53596,0.80394 -0.958,1.73448 -1.65002,2.4265 -0.61187,0.61188 -1.42589,0.98295 -2.13532,1.4559 -0.0761,0.0508 -0.10731,0.16518 -0.19412,0.19412 -0.12277,0.0409 -0.26379,-0.0356 -0.38822,0 -0.30377,0.0868 -0.57997,0.26241 -0.87355,0.38824 -0.3715,0.15921 -0.7774,0.0779 -1.16473,0.19412 -1.06052,0.31816 -2.45295,0.55085 -3.59121,0.38824 -0.41175,-0.0588 -0.78065,-0.26021 -1.16472,-0.38824 -0.62667,-0.20888 -0.36328,0.0462 -0.9706,-0.29118 -0.44638,-0.24798 -0.37375,-0.3499 -0.7765,-0.67942 -1.31781,-1.07821 -2.62599,-2.14028 -3.88239,-3.30004 -0.23535,-0.21724 -0.46665,-0.44004 -0.67942,-0.67942 -0.25191,-0.2834 0.0971,-0.46859 0.0971,-0.0971"
           id="path887" />
        <path
           style="fill:none;stroke:#000000;stroke-width:2.265;stroke-linecap:butt;stroke-linejoin:miter;stroke-miterlimit:4;stroke-dasharray:none;stroke-opacity:1"
           d="m 379.0193,98.22472 c 0.52864,-1.233456 -0.009,-0.211815 1.16472,-1.552959 0.92837,-1.061003 1.63007,-2.652839 2.03827,-3.97946 0.0579,-0.188095 0.0348,-0.395661 0.0971,-0.582361 0.0686,-0.205894 0.23408,-0.372973 0.29117,-0.582359 0.0426,-0.156067 -0.0351,-0.327385 0,-0.485301 0.21278,-0.957419 0.19685,0.166883 0.2912,-0.776478 0.0322,-0.321929 -0.0458,-0.65032 0,-0.9706 0.0526,-0.368401 0.77611,-2.207961 1.06765,-2.329442 0.29083,-0.121177 1.66717,-0.525267 2.03827,-0.582359 0.47964,-0.0738 0.97166,0.03228 1.4559,0 1.86872,-0.124581 -0.28477,-0.04917 1.16472,-0.194119 1.03823,-0.103823 2.16125,0 3.20297,0 2.3437,0 5.33543,-0.356844 7.57068,0.388239 0.60097,0.200321 1.09603,0.596548 1.65002,0.87354 1.14067,0.570333 2.46414,1.008243 3.39709,1.9412 0.3057,0.305687 0.53671,0.675852 0.87355,0.970601 0.68461,0.599022 1.40697,1.193292 1.94119,1.9412 1.2146,1.700424 1.6365,3.731183 2.13532,5.726538 0.22469,0.898705 0.59402,1.805316 0.7765,2.71768 0.10197,0.50988 0.14023,1.49212 0.1941,1.9412 0.41537,3.46132 0.3655,6.8139 0.4853,10.28836 0.0909,2.63527 0.18333,4.66981 -0.29117,7.2795 -0.0196,0.10756 -0.14616,0.92381 -0.19413,1.06766 -0.13769,0.41309 -0.47395,0.78805 -0.6794,1.16472 -0.22182,0.40667 -0.33366,0.87097 -0.58237,1.26178 -0.0983,0.15441 -0.27842,0.24183 -0.38825,0.38824 -0.31745,0.42329 -0.42458,0.93656 -0.77647,1.35884 -0.60571,0.72685 -1.42751,1.43816 -2.23237,1.9412 -0.6408,0.40049 -1.47019,0.34685 -2.13532,0.67942"
           id="path889" />
        <path
           style="fill:none;stroke:#000000;stroke-width:2.265;stroke-linecap:butt;stroke-linejoin:miter;stroke-miterlimit:4;stroke-dasharray:none;stroke-opacity:1"
           d="m 411.53439,80.365681 c -0.67942,0.06471 -1.36567,0.07816 -2.03824,0.19412 -1.4723,0.253843 -2.63761,1.318797 -3.88242,1.9412 -0.19899,0.0995 -0.187,0.381151 -0.29117,0.485299 -0.12941,0.129415 -0.0931,-0.205894 -0.19413,0.09706 -0.0308,0.09238 0,0.387586 0,0.485302"
           id="path891" />
        <path
           style="fill:none;stroke:#000000;stroke-width:2.265;stroke-linecap:butt;stroke-linejoin:miter;stroke-miterlimit:4;stroke-dasharray:none;stroke-opacity:1"
           d="m 466.66448,129.5751 c -0.3742,0.87932 -0.60467,1.80358 -0.87354,2.71768 -0.59992,2.03971 -1.24744,4.08054 -2.13532,6.01772 -1.04069,2.27058 -2.44274,4.30329 -3.00885,6.7942 -0.30519,1.34283 -0.19412,2.71262 -0.19412,4.07652"
           id="path893" />
        <path
           style="fill:none;stroke:#000000;stroke-width:2.265;stroke-linecap:butt;stroke-linejoin:miter;stroke-miterlimit:4;stroke-dasharray:none;stroke-opacity:1"
           d="m 435.21704,125.49858 c -0.0259,3.22125 -0.9493,6.32314 -2.03825,9.31776 -0.59584,1.63851 -0.99269,3.41744 -1.84414,4.95006 -1.87233,3.37019 -0.0209,0.0877 -2.03828,2.9118 -0.66923,0.93693 -0.79451,2.92082 -1.94119,3.49416"
           id="path895" />
        <path
           style="fill:none;stroke:#000000;stroke-width:2.265;stroke-linecap:butt;stroke-linejoin:miter;stroke-miterlimit:4;stroke-dasharray:none;stroke-opacity:1"
           d="m 421.91982,117.24848 c -0.34145,2.72931 -1.13866,5.41049 -1.84415,8.05598 -0.12136,0.45517 -0.2105,0.92258 -0.38822,1.35884 -0.18024,0.44239 -0.48175,0.82691 -0.67942,1.26178 -0.93652,2.06033 -0.50015,2.2988 -2.13532,3.78534 -0.58497,0.53178 -1.45619,1.55296 -2.32945,1.55296"
           id="path897" />
        <path
           style="fill:none;stroke:#000000;stroke-width:2.265;stroke-linecap:butt;stroke-linejoin:miter;stroke-miterlimit:4;stroke-dasharray:none;stroke-opacity:1"
           d="m 469.38215,154.3254 c 0.35139,2.49855 -0.10398,4.90094 -0.87352,7.2795 -0.0981,0.30317 -0.25884,0.58236 -0.38825,0.87354 -0.12941,0.35589 -0.27686,0.70572 -0.38825,1.06766 -0.14769,0.48005 -0.21011,0.98629 -0.38822,1.4559 -0.38402,1.01241 -1.11993,2.40412 -1.7471,3.30004 -0.19722,0.28175 -0.48218,0.49473 -0.6794,0.77648 -0.60605,0.86579 -1.04156,1.84844 -1.65002,2.71768 -0.21529,0.30756 -0.51363,0.54194 -0.67942,0.87354"
           id="path899" />
        <path
           style="fill:none;stroke:#000000;stroke-width:2.265;stroke-linecap:butt;stroke-linejoin:miter;stroke-miterlimit:4;stroke-dasharray:none;stroke-opacity:1"
           d="m 455.50259,165.87554 c 1.52159,0.97306 2.90509,2.12618 3.97946,3.59122 0.45315,0.61795 0.55282,0.94106 1.06765,1.4559 0.30586,0.30585 0.76912,0.7728 1.16472,0.9706 0.30369,0.15184 0.60992,0.0807 0.87355,0.38824 0.0842,0.0983 0,0.25882 0,0.38824"
           id="path901" />
        <path
           style="fill:none;stroke:#000000;stroke-width:2.265;stroke-linecap:butt;stroke-linejoin:miter;stroke-miterlimit:4;stroke-dasharray:none;stroke-opacity:1"
           d="m 445.31129,192.85822 c 1.42634,0.85047 3.08713,1.39463 4.46476,2.32944 0.63161,0.42861 1.53604,1.48024 2.03824,2.03826 1.79417,1.9935 2.47666,3.40363 3.10592,5.92066 0.13772,0.55079 0.2912,0.98692 0.2912,1.55296"
           id="path903" />
        <path
           style="fill:none;stroke:#000000;stroke-width:2.265;stroke-linecap:butt;stroke-linejoin:miter;stroke-miterlimit:4;stroke-dasharray:none;stroke-opacity:1"
           d="m 463.17032,175.96978 c 0.18206,2.3313 -0.79291,4.45407 -1.55295,6.60008 -0.19473,0.5498 -0.32152,1.12834 -0.58237,1.65002 -0.0337,0.0674 -1.80369,2.77136 -1.9412,3.00886 -0.67566,1.16706 -1.20729,2.44959 -1.94119,3.59122 -1.36001,2.11556 -3.37757,4.01822 -5.62949,5.14418"
           id="path905" />
        <path
           style="fill:none;stroke:#000000;stroke-width:2.265;stroke-linecap:butt;stroke-linejoin:miter;stroke-miterlimit:4;stroke-dasharray:none;stroke-opacity:1"
           d="m 465.20859,203.72894 c 1.69071,-0.84536 -1.11422,0.5901 2.42649,-1.55296 1.9117,-1.15707 2.77403,-1.00878 3.68829,-3.20298 0.13912,-0.3339 0.12317,-0.71296 0.1941,-1.06766 0.29962,-1.49797 0.47734,-2.9416 0.58238,-4.46476 0.13258,-1.92246 0.39875,-2.53628 -0.67943,-4.07652 -0.80282,-1.14689 -0.9706,-2.19379 -0.9706,-3.59122 0,-0.0971 -0.0868,-0.24777 0,-0.29118 0.18442,-0.0922 1.40698,0.35732 1.74707,0.38824 0.4522,0.0411 1.00476,0.0564 1.4559,0 0.57356,-0.0717 0.99219,-0.37027 1.45592,-0.67942 0.5565,-0.371 1.20277,-0.58181 1.74707,-0.9706 0.55608,-0.39719 1.22079,-1.65107 1.55298,-2.23238 0.21698,-0.37974 0.19409,-0.0451 0.19409,-0.29118"
           id="path907" />
        <path
           style="fill:none;stroke:#000000;stroke-width:2.265;stroke-linecap:butt;stroke-linejoin:miter;stroke-miterlimit:4;stroke-dasharray:none;stroke-opacity:1"
           d="m 440.84652,178.29922 c 0.4013,4.55053 -0.78398,6.12842 -2.91179,9.99718 -0.78589,1.42889 -1.40354,3.00925 -2.81474,3.97946 -0.80783,0.55538 -1.11329,0.52662 -2.03827,0.9706 -1.31038,0.62898 -2.50037,1.26869 -3.88239,1.74708 -0.84477,0.29242 -1.6795,0.4262 -2.52357,0.67942 -0.38706,0.11612 -1.49776,0.58236 -1.84415,0.58236"
           id="path909" />
        <path
           style="fill:none;stroke:#000000;stroke-width:2.265;stroke-linecap:butt;stroke-linejoin:miter;stroke-miterlimit:4;stroke-dasharray:none;stroke-opacity:1"
           d="m 344.07771,149.76358 c -0.27591,1.51873 -0.0209,3.05735 0.58235,4.46476 0.16613,0.38763 0.1842,0.16436 0.29117,0.4853 0.11562,0.3468 -0.37579,-0.39984 0.0971,0.38824 0.36674,0.61125 2.20477,1.4467 2.81474,1.65002 0.77361,0.25787 1.47005,0.81356 2.23237,1.06766 0.75949,0.25316 1.64388,0.44425 2.42649,0.58236 2.63258,0.46457 5.29064,0.64942 7.95893,0.77648 1.03413,0.0492 2.07174,-0.0481 3.10592,0 1.26415,0.0588 2.52526,0.17396 3.78534,0.29118 2.25277,0.20956 2.47129,0.4789 4.46477,0.19412"
           id="path911" />
        <path
           style="fill:none;stroke:#000000;stroke-width:2.265;stroke-linecap:butt;stroke-linejoin:miter;stroke-miterlimit:4;stroke-dasharray:none;stroke-opacity:1"
           d="m 377.17515,142.96938 c 0.0494,0.67859 0.60799,1.51729 1.06768,2.03826 0.30271,0.34309 0.65926,0.63532 0.97059,0.9706 0.40685,0.43816 0.7076,0.95886 1.16472,1.35884 0.3895,0.3408 0.82183,0.57057 1.16473,0.9706 0.69265,0.80809 -0.65683,-0.46271 0.67942,0.87354 0.18746,0.18748 0.50284,0.21168 0.67942,0.38824 0.71689,0.71691 1.19378,1.67909 1.9412,2.4265 0.37751,0.37753 0.32131,0.15901 0.58235,0.4853 0.29567,0.36958 0.48265,0.78693 0.77647,1.16472 0.16857,0.2167 0.43008,0.35394 0.58237,0.58236 0.33706,0.50559 0.62535,2.21024 0.77648,2.81474 0.2958,1.18324 0.88767,2.27932 1.06767,3.49416 0.13764,0.9291 0.19317,2.24173 0.0971,3.20298 -0.11668,1.16683 -0.25548,0.8615 -0.58235,2.03826 -0.33681,1.21252 0.0872,0.22363 -0.19412,1.06766 -0.52195,1.56579 -1.55102,3.58927 -2.7177,4.75594 -0.44825,0.44828 -1.00761,0.8135 -1.45589,1.26178 -0.14648,0.14649 -0.22908,0.35268 -0.38823,0.4853 -0.79499,0.66249 -1.80882,1.09763 -2.62062,1.74708 -0.42875,0.34299 -0.75662,0.79742 -1.16472,1.16472 -1.21174,1.09057 -2.5628,1.83783 -4.07654,2.4265 -2.37286,0.92278 -4.91421,1.14257 -7.37656,1.55296 -0.38295,0.0638 -0.77647,0 -1.16472,0 -2.74987,0 -5.30272,-0.69479 -7.9589,-1.35884 -0.3201,-0.08 -0.66167,-0.0783 -0.9706,-0.19412 -0.29303,-0.10988 -0.45699,-0.30836 -0.7765,-0.38824 -0.77724,-0.19431 -1.63163,-0.37175 -2.42649,-0.4853 -0.46421,-0.0663 -1.00201,0.11347 -1.4559,0 -0.14811,-0.037 -0.19997,-0.0971 -0.38825,-0.0971"
           id="path913" />
        <path
           style="fill:none;stroke:#000000;stroke-width:2.265;stroke-linecap:butt;stroke-linejoin:miter;stroke-miterlimit:4;stroke-dasharray:none;stroke-opacity:1"
           d="m 345.43653,163.0608 c -1.23148,0.54681 -2.12307,1.5904 -3.30002,2.23238 -3.01953,1.64702 1.92138,-1.60446 -2.52357,1.35884 -1.26711,0.84475 -3.42632,3.41485 -3.97946,4.853 -0.21828,0.56755 -0.61508,2.07415 -0.67942,2.71768 -0.0576,0.57632 0.0639,1.17153 0,1.74708 -0.0766,0.68898 -0.3473,1.34247 -0.38823,2.03826 -0.0769,1.30703 -0.0971,2.67272 -0.0971,3.97946 0,1.03737 -0.13462,2.17084 0,3.20298 0.2323,1.7809 0.98859,3.29746 1.84414,4.853 0.17402,0.3164 0.65479,1.35233 0.9706,1.74708 0.28207,0.35259 0.59076,0.4937 0.87355,0.77648 0.0825,0.0825 0.10078,0.22119 0.19412,0.29118 0.9669,0.72518 2.36197,0.58778 3.49414,0.77648 2.66087,0.44348 3.93655,-0.14026 6.50304,-0.87354 0.64132,-0.18323 1.31437,-0.25736 1.94119,-0.4853 1.00325,-0.36481 1.84219,-1.10417 2.9118,-1.35884 0.28326,-0.0674 0.58883,0.061 0.87354,0 0.18447,-0.0395 0.31356,-0.21311 0.4853,-0.29118 0.39444,-0.17929 0.83093,-0.29118 1.26177,-0.29118 0.93049,0 3.7664,-0.49477 4.36772,-0.19412 0.51766,0.25883 0.29117,0.29118 0.67942,0.67942 0.22305,0.22306 0.1941,-0.0252 0.1941,0.19412"
           id="path915" />
        <path
           style="fill:none;stroke:#000000;stroke-width:2.265;stroke-linecap:butt;stroke-linejoin:miter;stroke-miterlimit:4;stroke-dasharray:none;stroke-opacity:1"
           d="m 375.91338,179.17276 c 1.29077,0.54027 2.32209,2.66627 2.52357,4.07652 0.13653,0.95581 0.097,2.32604 0.097,3.30004 0,1.53063 0.40222,5.13548 0,6.50302 -0.27752,0.94357 -0.89704,1.56737 -1.4559,2.32944 -1.07966,1.47227 -2.13137,2.84759 -3.39709,4.17358 -0.96636,1.01237 -2.19085,2.68431 -3.39712,3.3971 -1.79474,1.06054 -4.12406,1.57198 -6.01771,2.32944 -0.63153,0.25262 -1.21396,0.61753 -1.84414,0.87354 -1.13983,0.46305 -2.31341,0.67542 -3.49417,0.9706 -0.18224,0.0456 -0.9706,0.17478 -0.9706,0.38824"
           id="path917" />
        <path
           style="fill:none;stroke:#000000;stroke-width:2.265;stroke-linecap:butt;stroke-linejoin:miter;stroke-miterlimit:4;stroke-dasharray:none;stroke-opacity:1"
           d="m 341.84531,198.0024 c -0.1711,0.86261 -0.74612,1.58478 -0.97059,2.4265 -0.20283,0.76061 -0.13931,1.58265 -0.38823,2.32944 -0.0686,0.2059 -0.21058,0.38085 -0.2912,0.58236 -0.20375,0.50938 -0.122,1.04544 -0.29117,1.55296 -0.45032,1.35101 -0.69705,2.56759 -0.87355,3.97946 -0.13137,1.05112 -0.5847,2.14637 -0.0971,3.20298 0.97766,2.11826 3.85085,5.05844 5.72654,6.3089 0.18439,0.12292 0.30612,0.35987 0.4853,0.4853 0.60893,0.42625 3.05128,1.35201 3.88241,1.4559 0.54152,0.0677 1.10847,-0.0677 1.65002,0 1.52747,0.19094 3.19815,0.4859 4.75594,0.29118 0.41923,-0.0524 0.74708,-0.38824 1.16472,-0.38824"
           id="path919" />
        <path
           style="fill:none;stroke:#000000;stroke-width:2.265;stroke-linecap:butt;stroke-linejoin:miter;stroke-miterlimit:4;stroke-dasharray:none;stroke-opacity:1"
           d="m 392.02534,179.85218 c -1.79435,1.70217 -4.27085,2.03836 -6.40596,3.10592 -0.78983,0.39493 -1.54847,0.8496 -2.32944,1.26178 -1.35041,0.71271 -2.41771,1.0942 -3.30004,2.32944 -0.0798,0.1117 -0.2298,0.16841 -0.29118,0.29118 -0.0738,0.14756 -0.0449,0.3288 -0.097,0.4853 -0.17333,0.51996 -0.7765,1.37807 -0.7765,1.9412"
           id="path921" />
        <path
           style="fill:none;stroke:#000000;stroke-width:2.265;stroke-linecap:butt;stroke-linejoin:miter;stroke-miterlimit:4;stroke-dasharray:none;stroke-opacity:1"
           d="m 411.63147,183.05516 c -1.15467,2.60776 -3.52269,4.43565 -5.72654,6.11478 -1.01581,0.77394 -0.56123,0.67229 -1.74709,1.35884 -1.17168,0.67835 -0.60153,0.0716 -1.74707,0.87354 -0.26506,0.18554 -0.34055,0.56154 -0.58238,0.77648 -1.17372,1.04332 -4.36843,1.4559 -5.92066,1.4559"
           id="path923" />
        <path
           style="fill:none;stroke:#000000;stroke-width:2.265;stroke-linecap:butt;stroke-linejoin:miter;stroke-miterlimit:4;stroke-dasharray:none;stroke-opacity:1"
           d="m 450.70492,219.07266 c -0.55737,0.73816 -1.29735,1.25908 -1.99032,1.85306 -0.29972,0.2569 -0.38794,0.53474 -0.75494,0.75494 -0.91358,0.54815 0.68011,-0.81798 -0.68633,0.4118 -0.54123,0.4871 -1.09955,1.03112 -1.57853,1.57853 -0.20217,0.23106 -0.34761,0.48487 -0.54904,0.68631 -0.46474,0.46474 -0.77983,1.14287 -1.09812,1.7158 -0.49348,0.88827 -0.95645,1.74025 -1.37264,2.67664 -0.10472,0.23566 -0.31517,0.46086 -0.41177,0.68632 -0.0656,0.15308 -0.0717,0.32734 -0.13726,0.48042 -0.082,0.19126 -0.22662,0.49466 -0.27453,0.68632 -0.0948,0.37919 -0.1528,1.58956 0.0686,1.92169 0.0457,0.0686 0.14756,0.0789 0.2059,0.13726 0.13919,0.13921 0.2042,0.42853 0.41177,0.48042 0.42719,0.1068 1.05944,0.24988 1.5099,0.13727 0.26051,-0.0651 0.50413,-0.2491 0.75496,-0.34316 0.77883,-0.29207 1.52233,-0.49357 2.26486,-0.82358 0.50863,-0.22606 1.11765,-0.18628 1.64714,-0.27453 0.10093,-0.0168 0.17528,-0.11245 0.27453,-0.13726 0.58753,-0.14688 1.24245,-0.13727 1.85306,-0.13727"
           id="path925" />
        <path
           style="fill:none;stroke:#000000;stroke-width:1.165;stroke-linecap:butt;stroke-linejoin:miter;stroke-miterlimit:4;stroke-dasharray:none;stroke-opacity:1"
           d="m 447.34196,216.94507 c -0.24423,0.44777 -0.72152,1.36584 -1.02946,1.7158 -0.33253,0.37786 -1.17708,0.93745 -1.57853,1.304 -0.82394,0.75229 -0.79722,0.91179 -1.64717,1.5099 -0.57406,0.40398 -1.22579,0.73224 -1.78443,1.16674 -0.35478,0.27593 -0.60608,0.68491 -0.96083,0.96084 -1.13345,0.88157 -2.13453,1.92862 -3.15706,2.95117 -0.35478,0.35478 -0.75909,0.65962 -1.09813,1.02948 -0.35168,0.38367 -0.58446,0.89367 -0.8922,1.304 -0.11647,0.1553 -0.29054,0.26021 -0.4118,0.41179 -0.35491,0.44366 -1.20719,1.61718 -1.37263,2.19622 -0.5175,1.81124 -0.26329,4.13718 0.68633,5.76507 0.12806,0.21957 0.72183,1.23606 0.96083,1.37263 1.01984,0.58277 2.07952,0.52258 3.2257,0.68632 0.68918,0.0985 1.37014,0.24476 2.05896,0.34316 0.79272,0.11325 1.60607,0.0709 2.4021,0.13726 1.05936,0.0883 2.16217,0 3.22569,0 0.32115,0 0.713,-0.0633 1.0295,0 0.48204,0.0964 1.0048,0.13727 1.50989,0.13727"
           id="path927" />
        <path
           style="fill:none;stroke:#000000;stroke-width:1.165;stroke-linecap:butt;stroke-linejoin:miter;stroke-miterlimit:4;stroke-dasharray:none;stroke-opacity:1"
           d="m 444.45943,215.5038 c -0.0457,0.22878 -0.0415,0.47357 -0.13726,0.68632 -0.66969,1.4882 -2.60874,2.73805 -3.98063,3.50022 -0.25583,0.14213 -0.50104,0.38748 -0.75496,0.54906 -0.57825,0.36798 -1.19039,0.69003 -1.78443,1.02947 -0.2753,0.15732 -0.47604,0.38172 -0.75494,0.54906 -0.72946,0.43768 -1.40589,0.92851 -2.12759,1.37263 -0.46183,0.28421 -0.98642,0.46552 -1.44127,0.75495 -0.40881,0.26016 -0.71866,0.62119 -1.0981,0.89222 -0.52647,0.37604 -0.84455,1.11017 -1.16676,1.64716 -0.16764,0.27939 -0.39097,0.53907 -0.54903,0.82358 -0.55994,1.00788 -1.05567,2.67698 -1.16676,3.84338 -0.0217,0.22774 0.0206,0.45849 0,0.68632 -0.19429,2.13717 -0.067,-0.35756 -0.27451,1.5099 -0.0769,0.69189 -0.0919,1.50666 0,2.19622 0.0475,0.35615 0.23381,0.63283 0.34314,0.96084 0.46114,1.38339 1.64311,2.3375 2.81392,3.15706 0.18741,0.1312 0.34444,0.30948 0.54904,0.41179 0.51363,0.25681 1.13194,0.40008 1.64716,0.68632 0.10002,0.0556 0.17,0.15944 0.27453,0.2059 0.93763,0.41672 2.10114,0.45313 3.08843,0.61768 1.7263,0.28772 3.44488,0.68411 5.21602,0.75495 0.19696,0.008 3.30833,0.10973 3.6375,0 0.13149,-0.0438 0.1158,-0.11582 0.2059,-0.20589"
           id="path929" />
        <path
           style="fill:none;stroke:#000000;stroke-width:1.165;stroke-linecap:butt;stroke-linejoin:miter;stroke-miterlimit:4;stroke-dasharray:none;stroke-opacity:1"
           d="m 442.26323,214.1998 c -0.18351,0.41122 -0.51496,0.83874 -0.89222,1.09811 -1.48823,1.02316 -0.13875,-0.022 -1.23537,0.61768 -0.4009,0.23386 -0.78811,0.50254 -1.16673,0.75495 -0.24861,0.16572 -0.92978,0.25982 -1.2354,0.34316 -0.82187,0.22415 -1.71823,0.49088 -2.47073,0.89222 -0.91498,0.48799 -1.76953,1.07457 -2.67663,1.57853 -0.26831,0.14906 -0.54906,0.27452 -0.82359,0.41179 -0.36603,0.22877 -0.7265,0.46673 -1.0981,0.68632 -0.13214,0.0781 -0.29303,0.10871 -0.4118,0.20589 -0.37978,0.31073 -0.71422,0.78843 -1.02947,1.16674 -0.38634,0.46361 -0.81034,0.81033 -1.23539,1.23537 -0.36685,0.36687 -0.64072,0.81688 -1.02947,1.16674 -0.22876,0.2059 -0.44598,0.42542 -0.68633,0.61769 -0.1121,0.0897 -0.55359,0.3477 -0.6863,0.48042 -0.91226,0.91226 -1.77789,1.77399 -2.47076,2.88254 -1.4664,2.34626 -2.3836,6.61406 -1.64716,9.26529 0.0717,0.258 0.19468,0.49937 0.27453,0.75495 0.0696,0.22268 0.0329,0.47764 0.13726,0.68632 0.0655,0.13102 0.19691,0.21894 0.27454,0.34316 0.27823,0.44518 -0.2144,-0.06 0.2059,0.48042 0.20878,0.26845 0.46664,0.49532 0.6863,0.75495 0.40814,0.48234 0.82375,0.97467 1.37266,1.304 2.10955,1.26574 4.73501,1.41835 7.13769,1.57853 0.55856,0.0372 1.09159,0.22402 1.64716,0.27453 0.64021,0.0582 1.2755,0.1542 1.9217,0.20589 1.18387,0.0947 0.0373,-0.12624 1.30399,0.0686 0.92316,0.14202 1.87712,0.24647 2.8139,0.41179 0.54996,0.097 1.09215,0.27378 1.64717,0.34316 0.19759,0.0247 0.425,-0.0482 0.61769,0 0.4567,0.11417 0.0909,0.0542 0.75496,0.13726 0.27104,0.0339 0.50094,0.27453 0.82357,0.27453"
           id="path931" />
        <path
           style="fill:none;stroke:#000000;stroke-width:1.165;stroke-linecap:butt;stroke-linejoin:miter;stroke-miterlimit:4;stroke-dasharray:none;stroke-opacity:1"
           d="m 434.98825,212.14085 c -0.63317,0.85852 -1.58319,1.29774 -2.4021,1.92169 -0.28427,0.21657 -0.53083,0.48139 -0.82359,0.68631 -0.46175,0.32323 -0.97941,0.38154 -1.5099,0.54906 -0.87019,0.27479 0.19902,-0.0214 -0.68633,0.34316 -0.46826,0.19281 -0.97298,0.28761 -1.44127,0.48042 -0.27223,0.1121 -0.75472,0.31557 -1.02946,0.48042 -0.0832,0.0499 -0.11383,0.1752 -0.2059,0.2059 -0.29221,0.0974 -0.5347,0.26734 -0.82357,0.41179 -1.11437,0.55718 0.29975,-0.1873 -0.6177,0.20589 -0.57531,0.24656 -1.13736,0.58257 -1.71579,0.82358 -1.12229,0.46762 -2.383,0.79215 -3.4316,1.44127 -2.22559,1.37775 -3.86958,3.76956 -4.94149,6.10823 -0.0629,0.13727 -0.26307,0.82358 -0.34316,1.02948 -0.37492,0.96411 -0.80494,1.97254 -0.8922,3.0198 -0.079,0.94813 -0.11354,2.30611 0.13726,3.22569 0.24773,0.90839 0.77603,1.76143 1.16674,2.60801 0.24172,0.52375 0.31811,1.14784 0.61769,1.64716 0.75592,1.25988 1.77001,2.38769 2.8139,3.43159 0.41725,0.41726 0.67926,0.9538 1.0981,1.37264 0.44103,0.44103 1.22534,1.16979 1.7158,1.57853 0.42846,0.35703 0.97324,0.60248 1.44126,0.89221 0.23744,0.14699 0.4459,0.33836 0.68633,0.48042 0.36796,0.34093 0.88855,0.37534 1.304,0.61769 0.12652,0.0738 0.21458,0.20438 0.34316,0.27453 0.43506,0.2373 0.97732,0.32577 1.44127,0.48042 0.2536,0.0845 0.46696,0.23348 0.68633,0.34316 0.34073,0.17037 0.80216,0.153 1.16673,0.27452 0.92742,0.30914 1.8397,0.64671 2.8139,0.75495 0.50511,0.0561 1.01031,0.054 1.50989,0.13727 0.40077,0.0668 0.83302,-0.0575 1.23537,0 0.21585,0.0308 0.45757,0.11438 0.68633,0.13726 0.41304,0.0413 2.05923,-0.0342 2.26486,0.0686 0.0987,0.0493 0.20426,0.13727 0.27451,0.13727"
           id="path933" />
        <path
           style="fill:none;stroke:#000000;stroke-width:1.165;stroke-linecap:butt;stroke-linejoin:miter;stroke-miterlimit:4;stroke-dasharray:none;stroke-opacity:1"
           d="m 430.38992,250.43738 c -0.92083,-0.0461 -1.47238,-0.69927 -2.26486,-1.02948 -0.19899,-0.0829 -0.47341,-0.0876 -0.6863,-0.20589 -0.63071,-0.35039 -1.24481,-0.71795 -1.85306,-1.09811 -0.0868,-0.0542 -0.18301,-0.0915 -0.27453,-0.13726 -0.11438,-0.0458 -0.23868,-0.072 -0.34317,-0.13727 -0.25577,-0.15986 -0.49186,-0.3912 -0.75493,-0.54905 -0.28443,-0.17065 -0.624,-0.26584 -0.89223,-0.48042 -0.34036,-0.27229 -0.67366,-0.56942 -1.02947,-0.82358 -0.20815,-0.14867 -0.4735,-0.20128 -0.68633,-0.34316 -0.65979,-0.43987 -1.15289,-1.12092 -1.85303,-1.5099 -0.0825,-0.0458 -0.18786,-0.0315 -0.27453,-0.0686 -0.39921,-0.17109 -0.73732,-0.65168 -1.09813,-0.89222 -0.36732,-0.24489 -0.73157,-0.41143 -1.0981,-0.68631 -0.74779,-0.56084 -1.47153,-1.1915 -2.19623,-1.78443 -0.41926,-0.34305 -0.77335,-0.79652 -1.16673,-1.16674 -0.69533,-0.65443 -1.67537,-1.05769 -2.33347,-1.7158 -0.60518,-0.60516 -1.00893,-1.54663 -1.30402,-2.33348 -0.041,-0.10922 -0.0228,-0.23594 -0.0686,-0.34316 -0.0254,-0.0595 -0.10136,-0.0834 -0.13723,-0.13726 -0.28565,-0.42844 -0.0228,-0.11438 -0.2059,-0.48042 -0.15407,-0.3081 -0.38111,-0.54367 -0.54907,-0.82358 -0.0605,-0.10091 -0.15287,-0.42533 -0.2059,-0.54906 -0.75332,-1.75776 -0.45934,-4.93859 -0.0686,-6.79454 0.25437,-1.20819 0.53949,-2.39307 0.89223,-3.56886 0.12441,-0.41468 0.19222,-1.12565 0.4804,-1.5099 0.36346,-0.4846 0.67466,-1.09983 1.16676,-1.5099 0.36084,-0.3007 0.7892,-0.48529 1.16674,-0.75494 0.42732,-0.30524 0.84558,-0.70618 1.30399,-0.96085 0.27856,-0.15475 0.60164,-0.2124 0.89223,-0.34316 1.71635,-0.77236 3.61191,-1.77771 5.07873,-2.95117 0.35536,-0.28427 0.64376,-0.64375 0.96086,-0.96084 0.44427,-0.44426 0.23175,-0.13163 0.75494,-0.48042 0.14867,-0.0991 0.25199,-0.26326 0.4118,-0.34316 0.21362,-0.10682 0.46545,-0.11496 0.68633,-0.2059 0.17055,-0.0702 0.31326,-0.19653 0.4804,-0.27453 0.59055,-0.27558 1.30532,-0.43277 1.92169,-0.61768 0.37182,-0.11155 0.81775,-0.16866 1.16674,-0.34316 0.32562,-0.1628 0.58973,-0.42518 0.89223,-0.61769 0.5352,-0.34058 1.12672,-0.48996 1.71579,-0.68631 0.28922,-0.0964 0.53793,-0.34038 0.82357,-0.41179 0.0958,-0.024 0.41505,-0.0719 0.48043,-0.13727 0.142,-0.142 -0.21701,0.006 0.0686,-0.13726 0.41559,-0.2078 0.89072,0.26526 1.33292,0.40794"
           id="path935" />
        <path
           style="fill:none;stroke:#000000;stroke-width:1.165;stroke-linecap:butt;stroke-linejoin:miter;stroke-miterlimit:4;stroke-dasharray:none;stroke-opacity:1"
           d="m 426.272,205.82672 c -0.11438,0.16014 -0.19124,0.35532 -0.34314,0.48043 -0.39629,0.32635 -1.26698,0.67611 -1.71579,0.89221 -0.74211,0.35731 -1.48789,0.6889 -2.26486,0.96084 -0.63635,0.22273 -1.29561,0.34938 -1.9217,0.61769 -0.58846,0.2522 -1.07772,0.74476 -1.64716,1.02948 -0.33909,0.16955 -0.69189,0.29288 -1.02947,0.48042 -0.2441,0.13562 -0.44045,0.34803 -0.68633,0.48042 -0.17208,0.0927 -0.37422,0.11848 -0.54903,0.2059 -0.52655,0.26327 -1.04093,0.55477 -1.57853,0.82358 -0.47512,0.23755 -0.84011,0.63706 -1.304,0.89221 -1.16565,0.6411 -2.67169,1.30814 -3.56886,2.33348 -0.37463,0.42813 -0.68845,0.98655 -1.0295,1.44127 -0.35589,0.47454 -0.87542,0.77966 -1.16673,1.304 -0.21251,0.38255 -0.35507,0.80564 -0.61767,1.16674 -0.41685,0.57317 -0.36139,0.30291 -0.75496,1.02948 -0.71086,1.31233 -1.27622,2.6517 -1.78443,4.04928 -0.53552,1.47267 -1.08127,2.90195 -1.304,4.46106 -0.0841,0.58882 -0.0201,1.13406 -0.0686,1.7158 -0.0671,0.80572 -0.20976,2.72407 -0.0686,3.50022 0.1156,0.63582 0.15079,0.0666 0.2059,0.61768 0.0228,0.22764 -0.0628,0.46635 0,0.68632 0.0228,0.0793 0.11118,0.12764 0.13727,0.2059 0.0809,0.24265 0.0564,0.5123 0.13727,0.75495 0.65643,1.96929 1.7414,3.73398 3.01979,5.35328 0.31475,0.39868 0.5693,0.84326 0.8922,1.23537 0.38063,0.46219 0.85027,0.84553 1.23539,1.304 1.00635,1.19805 2.00399,2.31697 3.2257,3.29433 0.65714,0.52572 1.23566,1.15714 1.92167,1.64716 1.06997,0.76426 2.27851,1.29274 3.43159,1.92169 0.83497,0.45544 1.66198,0.88441 2.53939,1.23537 0.0601,0.024 0.0794,0.10833 0.13727,0.13727 0.18764,0.0938 0.47291,0.12054 0.6863,0.20589 0.31882,0.12753 1.11466,0.68632 1.304,0.68632"
           id="path937" />
        <path
           style="fill:none;stroke:#000000;stroke-width:1.165;stroke-linecap:butt;stroke-linejoin:miter;stroke-miterlimit:4;stroke-dasharray:none;stroke-opacity:1"
           d="m 423.25221,202.12061 c -1.3361,1.47851 -3.52177,1.98992 -5.35326,2.53937 -1.01648,0.30494 -2.09715,0.64397 -3.08843,1.02948 -2.05449,0.79897 -0.0476,0.0748 -1.37266,0.68632 -0.63466,0.29292 -1.31559,0.52856 -1.92167,0.89221 -1.65269,0.99161 -2.79942,2.55533 -4.18656,3.84338 -0.47191,0.43821 -0.87,0.59919 -1.30399,0.96084 -0.39802,0.33169 -0.71721,0.76482 -1.0981,1.09811 -0.40982,0.35859 -0.87178,0.60528 -1.23537,1.02948 -1.00981,1.17809 -1.65529,2.43852 -2.33349,3.84338 -0.35036,0.72573 -0.73245,1.48172 -0.96084,2.26485 -0.48096,1.64898 -0.51165,3.38205 -0.61769,5.07875 -0.0185,0.29683 0.0269,0.59603 0,0.89221 -0.10301,1.13298 -0.2059,2.08317 -0.2059,3.2257 0,0.18908 -0.0607,0.50405 0,0.68632 0.083,0.24901 0.0817,0.47704 0.13726,0.75494 0.16762,0.83801 0.54475,1.59544 0.6177,2.47075 0.0889,1.06737 -0.11023,2.16038 0,3.22569 0.0337,0.32582 0.16163,0.6363 0.20587,0.96085 0.10636,0.77986 -0.11985,0.30685 0.0686,1.02947 0.29602,1.13467 0.86824,2.21355 1.09813,3.36296 0.15632,0.78156 0.48054,1.49316 0.6863,2.26485 0.29314,1.09923 0.69356,2.04449 1.2354,3.0198 0.43624,0.78524 1.08725,1.3907 1.57853,2.12758 0.22976,0.34468 0.32337,0.7596 0.54903,1.09812 0.20667,0.30997 0.46371,0.59537 0.68633,0.89221 0.32055,0.4274 0.49925,0.91855 0.82357,1.37263 0.0665,0.0931 0.3202,0.27935 0.2059,0.27453 -0.32819,-0.0138 -0.65307,-0.0713 -0.97962,-0.10703"
           id="path939" />
        <path
           style="fill:none;stroke:#000000;stroke-width:2.265;stroke-linecap:butt;stroke-linejoin:miter;stroke-miterlimit:4;stroke-dasharray:none;stroke-opacity:1"
           d="m 395.31909,220.51392 c -0.087,-0.758 0.12464,-1.46514 0.2059,-2.19621 0.0442,-0.3982 -0.0784,-0.84335 0,-1.23537 0.0594,-0.29725 0.17176,-0.58524 0.20587,-0.89222 0.0748,-0.67275 -0.11115,-1.39202 0,-2.05895 0.3067,-1.8402 1.29934,-4.38777 2.60802,-5.69644 0.20476,-0.20476 0.18934,-0.60113 0.4118,-0.82358 0.45021,-0.45022 0.91443,-0.92085 1.44126,-1.304 0.57375,-0.41728 1.1321,-0.55926 1.78443,-0.75495 0.69337,-0.20802 1.22714,-0.72934 1.92167,-0.96085 0.44744,-0.14914 0.91988,-0.2111 1.37266,-0.34316 0.4821,-0.14062 0.93559,-0.36582 1.44127,-0.41179 0.50027,-0.0455 1.01319,-0.0327 1.50989,-0.13726 0.83511,-0.17582 1.64391,-0.47961 2.47073,-0.68632 0.13828,-0.0346 0.60109,-0.086 0.75497,-0.13727 0.097,-0.0324 0.17465,-0.11507 0.27453,-0.13726 0.11165,-0.0248 0.23217,0.0277 0.34314,0 0.99173,-0.42503 0.0818,-0.10973 0.75496,-0.20589 0.16094,-0.023 0.342,-0.14658 0.48043,-0.2059 0.36161,-0.15498 0.83153,-0.21067 1.16673,-0.41179 0.32094,-0.19257 0.65069,-0.4228 1.02947,-0.54905 0.76793,-0.25597 1.60282,-0.32099 2.33349,-0.68632 0.11795,-0.059 0.50464,-0.54097 0.6863,-0.68632 0.3419,-0.27352 0.71367,-0.42546 1.09813,-0.61769 0.11682,-0.0584 0.1405,-0.27452 0.27451,-0.27452"
           id="path941" />
        <path
           style="fill:none;stroke:#000000;stroke-width:1.165;stroke-linecap:butt;stroke-linejoin:miter;stroke-miterlimit:4;stroke-dasharray:none;stroke-opacity:1"
           d="m 397.51529,231.42638 c 0.44603,1.4745 1.26203,2.834 1.99032,4.18654 0.13222,0.24551 0.0963,0.39855 0.2059,0.61768 0.15145,0.30292 0.6177,1.01972 0.6177,1.30401"
           id="path943" />
        <path
           style="fill:none;stroke:#000000;stroke-width:1.165;stroke-linecap:butt;stroke-linejoin:miter;stroke-miterlimit:4;stroke-dasharray:none;stroke-opacity:1"
           d="m 394.97592,233.07354 c -0.20169,2.51787 0.40381,4.93036 1.02947,7.3436 0.17359,0.6695 0.52006,1.37547 0.6177,2.05896 0.053,0.37135 -0.003,0.71552 0.0686,1.0981 0.19709,1.05118 0.52004,2.11866 0.96083,3.08843 0.0268,0.0589 0.11179,0.0778 0.13727,0.13727 0.046,0.10722 0.0212,0.23656 0.0686,0.34316 0.0799,0.17983 0.24892,0.30765 0.34317,0.48042 0.21164,0.38803 0.63452,1.38947 0.96083,1.71579 0.0351,0.035 0.32401,0.33358 0.34316,0.34316 0.0416,0.0208 0.17714,0.0399 0.2059,0.0686 0.15947,0.15947 0.25578,0.32441 0.4118,0.48043"
           id="path945" />
        <path
           style="fill:none;stroke:#000000;stroke-width:1.165;stroke-linecap:butt;stroke-linejoin:miter;stroke-miterlimit:4;stroke-dasharray:none;stroke-opacity:1"
           d="m 391.61296,234.51481 c -0.0182,1.4403 0.0339,2.88808 -0.0686,4.3238 -0.0509,0.71313 -0.20355,1.41767 -0.27453,2.12759 -0.0602,0.60224 0,1.24921 0,1.85305"
           id="path947" />
        <path
           style="fill:none;stroke:#000000;stroke-width:2.265;stroke-linecap:butt;stroke-linejoin:miter;stroke-miterlimit:4;stroke-dasharray:none;stroke-opacity:1"
           d="m 384.81841,221.3375 c -0.13957,-0.83739 0.053,-0.0128 -0.54904,-1.16674 -0.13758,-0.26367 -0.22111,-0.55237 -0.34316,-0.82358 -0.14695,-0.32654 -0.36719,-0.62113 -0.48043,-0.96084 -0.12206,-0.36615 -0.12285,-0.84777 -0.2059,-1.23537 -0.17926,-0.83657 -0.3714,-1.66747 -0.27453,-2.53938 0.0418,-0.37622 0.10022,-0.36746 0.2059,-0.75495 0.15565,-0.57074 0.21283,-1.1983 0.27453,-1.78443 0.11657,-1.10735 -0.0879,-2.26748 0.0686,-3.36295 0.0549,-0.38407 0.47125,-1.56631 0.68633,-1.85306 0.0302,-0.0403 0.31805,-0.34849 0.2745,-0.41179 -0.22402,-0.32571 -0.49903,-0.61324 -0.74853,-0.91986"
           id="path949" />
        <path
           style="fill:none;stroke:#000000;stroke-width:2.265;stroke-linecap:butt;stroke-linejoin:miter;stroke-miterlimit:4;stroke-dasharray:none;stroke-opacity:1"
           d="m 379.60167,221.05415 c 0.18325,-0.20295 0.48292,-0.34371 0.54978,-0.60886 0.0421,-0.16695 -0.44365,-1.37862 -0.48043,-1.5099 -0.24162,-0.86298 -0.35653,-1.80944 -0.4804,-2.67664 -0.18871,-1.32078 0.14488,-2.68416 0.27453,-3.98064 0.0539,-0.53871 -0.0686,-1.06229 -0.0686,-1.57853"
           id="path951" />
        <path
           style="fill:none;stroke:#000000;stroke-width:2.265;stroke-linecap:butt;stroke-linejoin:miter;stroke-miterlimit:4;stroke-dasharray:none;stroke-opacity:1"
           d="m 387.49507,220.65119 c -0.10221,-0.25547 -0.18736,-0.40794 -0.2059,-0.68632 -0.0843,-1.26412 0,-2.57288 0,-3.84338 0,-1.27998 0.0793,-2.50846 0.2059,-3.77475 0.0915,-0.91558 -0.009,-1.59492 0.2745,-2.53937 0.4159,-1.38629 1.2813,-2.60259 1.99033,-3.84338 0.1892,-0.33108 0.33763,-0.71233 0.54906,-1.02948 0.17611,-0.26417 0.53753,-0.3692 0.75494,-0.61769 0.29001,-0.33142 0.50808,-0.71397 0.82359,-1.02947"
           id="path953" />
        <path
           style="fill:none;stroke:#000000;stroke-width:2.265;stroke-linecap:butt;stroke-linejoin:miter;stroke-miterlimit:4;stroke-dasharray:none;stroke-opacity:1"
           d="m 391.0639,219.62171 c -0.43178,-2.68188 -0.0122,-5.56854 0.96086,-8.09855 0.16735,-0.4351 0.4182,-0.77741 0.54904,-1.23537 0.28022,-0.98069 0.53173,-1.98985 0.89222,-2.95117 0.35785,-0.95427 0.29332,-0.55995 0.75494,-1.44127 0.12827,-0.24486 0.18984,-0.52494 0.34316,-0.75495 0.41749,-0.62623 0.51928,-0.57446 0.96087,-0.96084 0.33297,-0.29137 0.61661,-0.68498 0.8922,-1.02948 0.41164,-0.51456 1.52508,-1.99032 2.33349,-1.99032"
           id="path955" />
        <path
           style="fill:none;stroke:#000000;stroke-width:2.265;stroke-linecap:butt;stroke-linejoin:miter;stroke-miterlimit:4;stroke-dasharray:none;stroke-opacity:1"
           d="m 386.87737,223.53372 c 0.60388,0.21838 1.10985,0.69806 1.57853,1.16674 0.18317,0.18317 0.4005,0.52646 0.48043,0.68632 0.0274,0.0549 -0.0275,0.15099 0,0.2059 0.0289,0.0579 0.10832,0.0794 0.13727,0.13726 0.0443,0.0885 0.0284,0.26265 0.0686,0.34316 0.0183,0.10499 0.16248,0.11908 0.20587,0.20589 0.0827,0.16531 0.20418,0.61597 0.34317,0.75495 0.27008,0.27009 1.00483,-0.65901 1.09812,-0.89221 0.14687,-0.3672 -0.0337,0.17047 0.27451,-0.34316 0.16311,-0.27182 -0.2028,-0.003 0.0686,-0.27453 0.0362,-0.0362 0.11441,-0.0229 0.13727,-0.0686 0.0307,-0.0614 -0.0135,-0.13859 0,-0.20589 0.0855,-0.42752 0.27045,-0.86769 0.34316,-1.30401 0.054,-0.32389 0,-0.70216 0,-1.02947 0,-0.18302 0.0444,-0.3715 0,-0.54906 -0.0249,-0.0993 -0.10917,-0.17615 -0.13726,-0.27452 -0.0953,-0.33355 0.0934,-0.11245 -0.0686,-0.27453"
           id="path957" />
        <path
           style="fill:none;stroke:#000000;stroke-width:2.265;stroke-linecap:butt;stroke-linejoin:miter;stroke-miterlimit:4;stroke-dasharray:none;stroke-opacity:1"
           d="m 390.1717,227.03394 c 0.71789,-0.0107 1.40628,-0.16704 2.05896,-0.41179 0.27913,-0.10468 0.62222,-0.0902 0.8922,-0.20589 0.47445,-0.20333 0.88559,-0.74833 1.23537,-1.09811 0.0584,-0.0584 0.27453,-0.19535 0.27453,-0.34316"
           id="path959" />
        <path
           style="fill:none;stroke:#000000;stroke-width:2.265;stroke-linecap:butt;stroke-linejoin:miter;stroke-miterlimit:4;stroke-dasharray:none;stroke-opacity:1"
           d="m 390.1717,227.03394 c -0.13727,0.0915 -0.4282,0.11038 -0.4118,0.27453 0.0434,0.43443 1.27267,0.78607 1.57853,0.96085 0.32549,0.18598 0.50194,0.6306 0.8236,0.82358 0.24881,0.14928 1.11252,0.39738 1.37263,0.13726"
           id="path961" />
        <path
           style="fill:none;stroke:#000000;stroke-width:2.265;stroke-linecap:butt;stroke-linejoin:miter;stroke-miterlimit:4;stroke-dasharray:none;stroke-opacity:1"
           d="m 390.1717,227.03394 c -0.32028,0.25165 -0.70192,0.44053 -0.96084,0.75495 -0.0773,0.0939 0.0243,2.27118 0,2.53938 -0.0146,0.1611 -0.0175,0.32696 -0.0686,0.48042 -0.0471,0.14121 -0.2059,0.23692 -0.2059,0.41179"
           id="path963" />
        <path
           style="fill:none;stroke:#000000;stroke-width:2.265;stroke-linecap:butt;stroke-linejoin:miter;stroke-miterlimit:4;stroke-dasharray:none;stroke-opacity:1"
           d="m 390.1717,227.03394 c -1.0436,0.30263 -2.30696,0.54357 -2.95117,1.5099 -0.24394,0.36592 -0.48043,0.16308 -0.48043,0.75495"
           id="path965" />
      </g>
      <ellipse
         style="fill:#e6e6e6;fill-opacity:1;stroke:#000000;stroke-width:0.65584;stroke-linecap:round;stroke-linejoin:round;stroke-miterlimit:4;stroke-dasharray:0.65584, 1.31167;stroke-dashoffset:0;paint-order:markers fill stroke"
         id="path1155"
         cx="110.56477"
         cy="10.454881"
         rx="11.672462"
         ry="6.4825082"
         transform="matrix(0.93349291,0.35859587,-0.64542262,0.76382566,0,0)" />
    </g>
  </g>
</svg>
