<?xml version="1.0" encoding="UTF-8" standalone="no"?>
<svg
   xmlns:dc="http://purl.org/dc/elements/1.1/"
   xmlns:cc="http://creativecommons.org/ns#"
   xmlns:rdf="http://www.w3.org/1999/02/22-rdf-syntax-ns#"
   xmlns:svg="http://www.w3.org/2000/svg"
   xmlns="http://www.w3.org/2000/svg"
   width="210mm"
   height="297mm"
   viewBox="0 0 210 297"
   version="1.1"
   id="svg8">
  <defs
     id="defs2" />
  <metadata
     id="metadata5">
    <rdf:RDF>
      <cc:Work
         rdf:about="">
        <dc:format>image/svg+xml</dc:format>
        <dc:type
           rdf:resource="http://purl.org/dc/dcmitype/StillImage" />
        <dc:title></dc:title>
      </cc:Work>
    </rdf:RDF>
  </metadata>
  <g
     id="layer1">
    <g
       id="g1085"
       transform="translate(-87.848685,-16.471629)">
      <path
         style="fill:#abc837;stroke:#000000;stroke-width:0.965;stroke-linecap:butt;stroke-linejoin:miter;stroke-miterlimit:4;stroke-dasharray:none;stroke-opacity:1"
         d="m 230.33756,274.70411 v 7.96129 c 7.63695,5.5612 15.33562,8.65398 23.33481,-0.27453 l -0.54906,-18.25604 c 9.1348,-1.36471 8.91221,-4.38073 12.49099,-6.72592 2.52235,-5.43699 4.42457,-11.70081 2.608,-22.92302 -1.58576,-1.6333 -3.03887,-3.73084 -6.03959,-0.41179 -3.20366,6.45041 -5.2445,14.25743 -10.43203,18.39332 l -2.33348,-32.66873 c -4.95237,-7.20927 -9.6888,-6.6444 -14.27541,-0.68632 l -3.84339,43.10076 c -4.19424,-5.34175 -1.27978,-5.72797 -8.6476,-20.45227 -1.94756,-2.10673 -2.99592,-0.16706 -4.25517,0.82358 -3.87639,5.47734 -1.97758,13.26476 -2.60801,20.04049 3.83545,7.23908 8.52086,11.78661 14.54994,12.07918 z"
         id="path847" />
      <path
         style="fill:#ffffff;stroke:#000000;stroke-width:0.4;stroke-linecap:butt;stroke-linejoin:miter;stroke-miterlimit:4;stroke-dasharray:none;stroke-opacity:1"
         d="m 238.67054,224.96082 -1.4559,-2.20812 c 0,0 -0.72795,-0.82501 -0.82501,-0.75221 -0.0971,0.0728 -0.43719,0.10295 -0.24265,0.36397 0.18803,0.25228 0.81977,1.53862 0.22089,1.10063 -0.15964,-0.11675 1.01663,0.74351 1.01663,0.74351 l 0.70368,0.99487 z"
         id="path849" />
      <path
         style="fill:#ffffff;stroke:#000000;stroke-width:0.4;stroke-linecap:butt;stroke-linejoin:miter;stroke-miterlimit:4;stroke-dasharray:none;stroke-opacity:1"
         d="m 244.58982,222.00692 0.65696,-2.562 c 0,0 0.12183,-1.09348 0.003,-1.11645 -0.11916,-0.023 -0.37002,-0.25459 -0.4326,0.0649 -0.0605,0.30878 -0.58861,1.64101 -0.66667,0.90318 -0.0208,-0.19668 0.13251,1.25251 0.13251,1.25251 l -0.26392,1.18965 z"
         id="path849-5" />
      <path
         style="fill:#ffffff;stroke:#000000;stroke-width:0.4;stroke-linecap:butt;stroke-linejoin:miter;stroke-miterlimit:4;stroke-dasharray:none;stroke-opacity:1"
         d="m 246.90144,227.05251 0.97128,-2.4601 c 0,0 0.25721,-1.06976 0.14187,-1.10739 -0.11537,-0.0377 -0.3354,-0.29875 -0.43732,0.0104 -0.0985,0.29882 -0.78862,1.55481 -0.77408,0.813 0.004,-0.19774 -0.0247,1.25926 -0.0247,1.25926 l -0.4102,1.14746 z"
         id="path849-8" />
      <path
         style="fill:#ffffff;stroke:#000000;stroke-width:0.4;stroke-linecap:butt;stroke-linejoin:miter;stroke-miterlimit:4;stroke-dasharray:none;stroke-opacity:1"
         d="m 244.14615,235.51742 -1.4559,-2.20812 c 0,0 -0.72795,-0.82501 -0.82501,-0.75221 -0.0971,0.0728 -0.43719,0.10295 -0.24265,0.36397 0.18803,0.25228 0.81977,1.53862 0.22089,1.10063 -0.15964,-0.11675 1.01663,0.74351 1.01663,0.74351 l 0.70368,0.99487 z"
         id="path849-0" />
      <path
         style="fill:#ffffff;stroke:#000000;stroke-width:0.4;stroke-linecap:butt;stroke-linejoin:miter;stroke-miterlimit:4;stroke-dasharray:none;stroke-opacity:1"
         d="m 241.24923,248.39054 -2.43501,-1.03254 c 0,0 -1.06299,-0.28391 -1.1035,-0.16954 -0.0405,0.11438 -0.30705,0.32781 -5.2e-4,0.43744 0.29627,0.10595 1.53459,0.82728 0.79338,0.79418 -0.19758,-0.009 1.25825,0.0562 1.25825,0.0562 l 1.13683,0.43879 z"
         id="path849-7" />
      <path
         style="fill:#ffffff;stroke:#000000;stroke-width:0.4;stroke-linecap:butt;stroke-linejoin:miter;stroke-miterlimit:4;stroke-dasharray:none;stroke-opacity:1"
         d="m 247.21889,249.52373 0.72319,-2.5441 c 0,0 0.15014,-1.08995 0.0316,-1.116 -0.11853,-0.0261 -0.36329,-0.2641 -0.43414,0.0536 -0.0685,0.3071 -0.63097,1.62519 -0.68987,0.88558 -0.0157,-0.19715 0.1,1.25553 0.1,1.25553 l -0.29469,1.1824 z"
         id="path849-72" />
      <path
         style="fill:#ffffff;stroke:#000000;stroke-width:0.4;stroke-linecap:butt;stroke-linejoin:miter;stroke-miterlimit:4;stroke-dasharray:none;stroke-opacity:1"
         d="m 241.06377,256.26678 -2.58738,0.54853 c 0,0 -1.03393,0.37621 -1.00162,0.49316 0.0323,0.11696 -0.0639,0.44459 0.25015,0.35886 0.30354,-0.0829 1.73176,-0.20098 1.10525,0.19648 -0.16711,0.10581 1.06354,-0.67471 1.06354,-0.67471 l 1.18318,-0.29155 z"
         id="path849-7-5" />
      <path
         style="fill:#ffffff;stroke:#000000;stroke-width:0.4;stroke-linecap:butt;stroke-linejoin:miter;stroke-miterlimit:4;stroke-dasharray:none;stroke-opacity:1"
         d="m 223.8326,262.78576 -2.43501,-1.03254 c 0,0 -1.06299,-0.28391 -1.1035,-0.16954 -0.0405,0.11438 -0.30705,0.32781 -5.2e-4,0.43744 0.29627,0.10595 1.53459,0.82728 0.79338,0.79418 -0.19758,-0.009 1.25825,0.0562 1.25825,0.0562 l 1.13683,0.43879 z"
         id="path849-7-54" />
      <path
         style="fill:#ffffff;stroke:#000000;stroke-width:0.4;stroke-linecap:butt;stroke-linejoin:miter;stroke-miterlimit:4;stroke-dasharray:none;stroke-opacity:1"
         d="m 224.66186,257.80977 0.99927,-2.44885 c 0,0 0.2694,-1.06676 0.15448,-1.10571 -0.11492,-0.0389 -0.33196,-0.30255 -0.4374,0.005 -0.10191,0.29769 -0.80629,1.54572 -0.7833,0.80413 0.006,-0.19768 -0.0391,1.2589 -0.0391,1.2589 l -0.42325,1.1427 z"
         id="path849-7-8" />
      <path
         style="fill:#ffffff;stroke:#000000;stroke-width:0.4;stroke-linecap:butt;stroke-linejoin:miter;stroke-miterlimit:4;stroke-dasharray:none;stroke-opacity:1"
         d="m 229.73494,266.7664 -2.43501,-1.03254 c 0,0 -1.06299,-0.28391 -1.1035,-0.16954 -0.0405,0.11438 -0.30705,0.32781 -5.2e-4,0.43744 0.29627,0.10595 1.53459,0.82728 0.79338,0.79418 -0.19758,-0.009 1.25825,0.0562 1.25825,0.0562 l 1.13683,0.43879 z"
         id="path849-7-1" />
      <path
         style="fill:#ffffff;stroke:#000000;stroke-width:0.4;stroke-linecap:butt;stroke-linejoin:miter;stroke-miterlimit:4;stroke-dasharray:none;stroke-opacity:1"
         d="m 237.2158,273.49231 -2.43501,-1.03254 c 0,0 -1.06299,-0.28391 -1.1035,-0.16954 -0.0405,0.11438 -0.30705,0.32781 -5.2e-4,0.43744 0.29627,0.10595 1.53459,0.82728 0.79338,0.79418 -0.19758,-0.009 1.25825,0.0562 1.25825,0.0562 l 1.13683,0.43879 z"
         id="path849-7-4" />
      <path
         style="fill:#ffffff;stroke:#000000;stroke-width:0.4;stroke-linecap:butt;stroke-linejoin:miter;stroke-miterlimit:4;stroke-dasharray:none;stroke-opacity:1"
         d="m 242.48294,266.77912 -0.0347,-2.64466 c 0,0 -0.16785,-1.08737 -0.28886,-1.07843 -0.121,0.009 -0.42366,-0.14918 -0.40066,0.17556 0.0222,0.31385 -0.1398,1.73776 -0.40777,1.04589 -0.0713,-0.1845 0.45489,1.17449 0.45489,1.17449 l 0.0558,1.2173 z"
         id="path849-7-9" />
      <path
         style="fill:#ffffff;stroke:#000000;stroke-width:0.4;stroke-linecap:butt;stroke-linejoin:miter;stroke-miterlimit:4;stroke-dasharray:none;stroke-opacity:1"
         d="m 243.96103,273.44354 0.0122,-2.64485 c 0,0 -0.14857,-1.09018 -0.26971,-1.08338 -0.12114,0.007 -0.42095,-0.15666 -0.40371,0.16843 0.0167,0.3142 -0.17056,1.73501 -0.42623,1.03851 -0.068,-0.18573 0.43401,1.18236 0.43401,1.18236 l 0.0342,1.21809 z"
         id="path849-7-50" />
      <path
         style="fill:#ffffff;stroke:#000000;stroke-width:0.4;stroke-linecap:butt;stroke-linejoin:miter;stroke-miterlimit:4;stroke-dasharray:none;stroke-opacity:1"
         d="m 249.70679,261.13859 -2.43501,-1.03254 c 0,0 -1.06299,-0.28391 -1.1035,-0.16954 -0.0405,0.11438 -0.30705,0.32781 -5.2e-4,0.43744 0.29627,0.10595 1.53459,0.82728 0.79338,0.79418 -0.19758,-0.009 1.25825,0.0562 1.25825,0.0562 l 1.13683,0.43879 z"
         id="path849-7-3" />
      <path
         style="fill:#ffffff;stroke:#000000;stroke-width:0.4;stroke-linecap:butt;stroke-linejoin:miter;stroke-miterlimit:4;stroke-dasharray:none;stroke-opacity:1"
         d="m 255.89602,263.50643 2.19447,1.47638 c 0,0 0.98969,0.4807 1.05119,0.37611 0.0615,-0.1046 0.36374,-0.2635 0.0836,-0.42937 -0.27074,-0.16031 -1.34945,-1.10378 -0.62803,-0.93045 0.19227,0.0464 -1.22466,-0.29424 -1.22466,-0.29424 l -1.03275,-0.64679 z"
         id="path849-7-85" />
      <path
         style="fill:#ffffff;stroke:#000000;stroke-width:0.4;stroke-linecap:butt;stroke-linejoin:miter;stroke-miterlimit:4;stroke-dasharray:none;stroke-opacity:1"
         d="m 243.04939,286.55033 2.12785,-1.57088 c 0,0 0.78527,-0.77065 0.70742,-0.86372 -0.0779,-0.0931 -0.12597,-0.43112 -0.37632,-0.22302 -0.24195,0.20115 -1.493,0.90017 -1.08737,0.27892 0.10828,-0.16552 -0.68859,1.0546 -0.68859,1.0546 l -0.95618,0.75541 z"
         id="path849-7-7" />
      <path
         style="fill:#ffffff;stroke:#000000;stroke-width:0.4;stroke-linecap:butt;stroke-linejoin:miter;stroke-miterlimit:4;stroke-dasharray:none;stroke-opacity:1"
         d="m 250.94216,280.56139 -2.43501,-1.03254 c 0,0 -1.06299,-0.28391 -1.1035,-0.16954 -0.0405,0.11438 -0.30705,0.32781 -5.2e-4,0.43744 0.29627,0.10595 1.53459,0.82728 0.79338,0.79418 -0.19758,-0.009 1.25825,0.0562 1.25825,0.0562 l 1.13683,0.43879 z"
         id="path849-7-59" />
      <path
         style="fill:#ffffff;stroke:#000000;stroke-width:0.4;stroke-linecap:butt;stroke-linejoin:miter;stroke-miterlimit:4;stroke-dasharray:none;stroke-opacity:1"
         d="m 238.31391,282.41445 -2.43501,-1.03254 c 0,0 -1.06299,-0.28391 -1.1035,-0.16954 -0.0405,0.11438 -0.30705,0.32781 -5.2e-4,0.43744 0.29627,0.10595 1.53459,0.82728 0.79338,0.79418 -0.19758,-0.009 1.25825,0.0562 1.25825,0.0562 l 1.13683,0.43879 z"
         id="path849-7-0" />
      <path
         style="fill:#ffffff;stroke:#000000;stroke-width:0.4;stroke-linecap:butt;stroke-linejoin:miter;stroke-miterlimit:4;stroke-dasharray:none;stroke-opacity:1"
         d="m 264.44958,255.75889 -0.2457,-2.63345 c 0,0 -0.25415,-1.07049 -0.37405,-1.05192 -0.11991,0.0186 -0.43422,-0.11487 -0.38537,0.20699 0.0472,0.31108 -5.9e-4,1.74337 -0.32295,1.07512 -0.0858,-0.17822 0.54722,1.13441 0.54722,1.13441 l 0.1528,1.20896 z"
         id="path849-7-2" />
      <path
         style="fill:#ffffff;stroke:#000000;stroke-width:0.4;stroke-linecap:butt;stroke-linejoin:miter;stroke-miterlimit:4;stroke-dasharray:none;stroke-opacity:1"
         d="m 262.67819,244.3238 -2.43501,-1.03254 c 0,0 -1.06299,-0.28391 -1.1035,-0.16954 -0.0405,0.11438 -0.30705,0.32781 -5.2e-4,0.43744 0.29627,0.10595 1.53459,0.82728 0.79338,0.79418 -0.19758,-0.009 1.25825,0.0562 1.25825,0.0562 l 1.13683,0.43879 z"
         id="path849-7-49" />
      <path
         style="fill:#ffffff;stroke:#000000;stroke-width:0.4;stroke-linecap:butt;stroke-linejoin:miter;stroke-miterlimit:4;stroke-dasharray:none;stroke-opacity:1"
         d="m 268.37758,244.74806 1.8,-1.93789 c 0,0 0.62891,-0.90279 0.53517,-0.97982 -0.0937,-0.077 -0.20366,-0.40032 -0.41112,-0.14944 -0.20051,0.24248 -1.3004,1.16117 -1.01688,0.47553 0.0757,-0.18271 -0.4813,1.16392 -0.4813,1.16392 l -0.79968,0.91947 z"
         id="path849-7-02" />
      <path
         style="fill:#ffffff;stroke:#000000;stroke-width:0.4;stroke-linecap:butt;stroke-linejoin:miter;stroke-miterlimit:4;stroke-dasharray:none;stroke-opacity:1"
         d="m 219.5088,250.91246 -2.43501,-1.03254 c 0,0 -1.06299,-0.28391 -1.1035,-0.16954 -0.0405,0.11438 -0.30705,0.32781 -5.2e-4,0.43744 0.29627,0.10595 1.53459,0.82728 0.79338,0.79418 -0.19758,-0.009 1.25825,0.0562 1.25825,0.0562 l 1.13683,0.43879 z"
         id="path849-7-35" />
    </g>
  </g>
</svg>
