<?xml version="1.0" encoding="UTF-8" standalone="no"?>
<svg
   xmlns:dc="http://purl.org/dc/elements/1.1/"
   xmlns:cc="http://creativecommons.org/ns#"
   xmlns:rdf="http://www.w3.org/1999/02/22-rdf-syntax-ns#"
   xmlns:svg="http://www.w3.org/2000/svg"
   xmlns="http://www.w3.org/2000/svg"
   xmlns:sodipodi="http://sodipodi.sourceforge.net/DTD/sodipodi-0.dtd"
   xmlns:inkscape="http://www.inkscape.org/namespaces/inkscape"
   width="210mm"
   height="297mm"
   viewBox="0 0 210 297"
   version="1.1"
   id="svg8"
   inkscape:version="1.0.2 (e86c870879, 2021-01-15, custom)"
   sodipodi:docname="digestion.svg">
  <defs
     id="defs2" />
  <sodipodi:namedview
     id="base"
     pagecolor="#ffffff"
     bordercolor="#666666"
     borderopacity="1.0"
     inkscape:pageopacity="0.0"
     inkscape:pageshadow="2"
     inkscape:zoom="0.16273612"
     inkscape:cx="-1710.0985"
     inkscape:cy="-155.37807"
     inkscape:document-units="mm"
     inkscape:current-layer="layer1"
     inkscape:document-rotation="0"
     showgrid="false"
     inkscape:window-width="1904"
     inkscape:window-height="1001"
     inkscape:window-x="12"
     inkscape:window-y="25"
     inkscape:window-maximized="0" />
  <metadata
     id="metadata5">
    <rdf:RDF>
      <cc:Work
         rdf:about="">
        <dc:format>image/svg+xml</dc:format>
        <dc:type
           rdf:resource="http://purl.org/dc/dcmitype/StillImage" />
        <dc:title />
      </cc:Work>
    </rdf:RDF>
  </metadata>
  <g
     inkscape:label="Layer 1"
     inkscape:groupmode="layer"
     id="layer1">
    <g
       id="g1183"
       transform="translate(-6.3805207,1.5951302)">
      <path
         style="fill:#ff8080;stroke:#000000;stroke-width:3.86335;stroke-linecap:butt;stroke-linejoin:miter;stroke-miterlimit:4;stroke-dasharray:none;stroke-opacity:1"
         d="m 178.75846,0.83243817 c 1.77077,-0.8785899 4.42908,-3.06078157 4.99627,-4.95361967 3.16922,-10.5767675 17.53352,-13.2810035 28.36283,-18.1601875 5.23237,-10.543285 11.73547,-10.449029 17.95018,-11.255116 -1.86188,-11.558303 10.66957,-8.135158 17.86894,-10.261945 7.16984,1.244443 13.75944,0.229369 22.86639,9.017257 3.12709,4.497489 5.21138,10.287057 4.2453,19.856182 3.96593,15.47524507 13.19567,30.144666 -0.77188,48.365288 4.31958,15.874207 4.81706,30.25067 -4.43825,40.805366 9.71528,17.468401 7.05839,27.521057 0.67542,35.340357 9.19384,20.8524 -0.37631,25.17179 -1.44724,36.97988 6.12776,24.54121 -3.88985,25.03418 -8.29754,33.88301 11.5798,20.53018 4.5498,27.54623 0.0964,36.43338 5.88379,10.69418 3.77893,20.33255 -3.18389,29.32886 3.15285,23.7036 -5.65817,32.85855 -17.55991,38.25503 -9.61851,19.43419 -24.56268,19.91817 -40.81216,15.75741 -21.31744,22.05844 -41.42709,25.16083 -60.68767,14.9377 -0.92328,1.92161 -4.20695,2.55825 -4.75434,4.4006 -5.1887,17.4639 -14.26559,20.81309 -22.64677,28.8448 4.57684,9.68435 -3.91473,18.26779 -8.68672,19.48018 -0.937,0.23804 -2.00889,1.41792 -2.50528,0.9225 -2.433401,-2.4286 -6.049641,25.03471 -4.631171,25.50339 -8.66867,2.34751 -16.5332,2.96968 -22.384,-0.72868 -1.02811,-8.1321 0.19007,-15.87147 -7.332686,-25.13898 -8.161233,-6.54072 -10.632825,-14.17334 -4.920621,-26.0499 -20.731048,-10.45374 -23.21111,-32.89214 -16.498551,-59.56854 -3.846586,-3.71263 -7.55313,-9.96559 -5.402915,-16.03078 -7.258433,4.25634 -14.934528,5.35842 -22.421097,7.89189 10.068283,26.86449 -5.920299,23.47545 -17.13695227,25.62688 -9.05510403,7.07266 -17.82105773,15.08115 -29.33075673,14.20901 -2.567618,-0.8101 -16.247076,0.13195 -23.927723,-9.83699 -2.382029,-7.85438 -8.00612,-14.72936 -1.929655,-25.139 -9.581376,-7.31923 -15.583884,-17.67919 -14.279448,-34.24736 -5.286889,-10.11682 -14.369071,-20.16055 -2.701517,-30.60402 -8.114233,-6.4236 -10.581273,-17.78349 -8.876413,-32.79005 -9.31666,-9.71649 -11.883741,-21.63862 -2.315587,-37.52634 -11.843859,-20.65059 -7.195609,-31.72017 -0.385931,-41.53405 -12.869284,-7.123291 -14.114792,-21.286057 -7.71862,-40.076696 -1.739314,-8.915401 -11.407766,-12.987278 3.903168,-32.317793 l -1.587582,-3.386902 c -1.765298,-4.893654 -2.160056,-9.701068 1.50092,-14.253211 0.988626,-6.9223389 1.125626,-13.07181073 8.919218,-19.9941495 6.529793,-4.0867975 15.303023,-2.455273 23.541792,-2.1860017 6.78429,3.0347121 15.440143,2.6716923 19.217046,11.1661911 L -31.76687,1.014605 c 7.625736,0.5375103 11.562662,2.8991099 13.8027,6.0998104 l 5.905946,6.4136386 17.0171877,3.118419 c -1.149622,9.330822 11.3998563,18.353728 17.2522023,27.527158 13.611067,3.425303 27.785443,14.082662 39.691828,-4.378347 3.521889,-1.027311 5.728249,-9.001098 6.290644,-9.263725 1.219246,-0.56936 2.819211,0.782646 4.806181,1.028025 3.04735,0.376307 6.72825,-0.282823 9.17937,-2.21804 2.31663,1.738355 3.45526,3.839542 6.99164,3.788116 3.83341,-0.05574 5.56034,-0.28331 9.53498,-2.263196 2.862951,-1.426123 7.408161,0.817949 9.100091,-4.057838 0.41043,-1.182733 2.25424,2.295234 3.27563,2.45013 1.95369,0.296298 3.9105,-0.94244 7.46617,-2.892935 1.0015,-0.549391 1.30014,-2.309873 2.73565,-2.815534 2.20934,-0.778234 8.31835,2.893649 10.77016,-2.802302 0.2038,-0.473491 1.17454,-0.960026 1.17454,-0.960026 0.6139,-0.767311 1.72861,-0.468367 2.4301,-0.168353 2.02649,0.866465 2.98667,-1.77135 7.29239,-2.451163 10.70089,-1.689519 28.58217,-7.9748371 35.80792,-16.33592983 z"
         id="path859"
         sodipodi:nodetypes="cscccccccccccccccscsscccccccccccccccccccccccccccccsscssssssssssc" />
      <path
         style="fill:#ffaaaa;stroke:#000000;stroke-width:3.86335;stroke-linecap:butt;stroke-linejoin:miter;stroke-miterlimit:4;stroke-dasharray:none;stroke-opacity:1"
         d="m 89.608479,-284.80512 c 7.37388,-5.56016 14.495111,-4.20318 21.506471,0.16175 1.18165,32.44768 5.78276,54.03723 10.91577,73.93773 l -23.196021,-1.67455 c -3.82212,-22.69655 -11.92114,-37.1161 -9.22622,-72.42493 z"
         id="path847"
         sodipodi:nodetypes="ccccc" />
      <path
         style="fill:#d35f5f;stroke:#000000;stroke-width:3.86335;stroke-linecap:butt;stroke-linejoin:miter;stroke-miterlimit:4;stroke-dasharray:none;stroke-opacity:1"
         d="m 203.07222,-204.10522 c -21.96431,-9.61818 -52.43412,-10.16707 -81.0415,-6.60042 -3.08604,18.70783 3.25781,39.22005 -4.47811,56.48783 -4.92692,10.99768 -4.57344,25.06518 -4.20938,38.82782 9.57852,5.18905 25.73694,-4.39972 41.47739,-16.40701 3.0714,-11.02632 7.95258,-18.20853 13.05193,-24.92731 21.15408,0.17924 26.69952,-13.74252 29.47309,-28.02322 12.02778,-2.90188 5.52228,-19.25969 5.72658,-19.35769 z"
         id="path849"
         sodipodi:nodetypes="ccsccccc" />
      <path
         style="fill:#c83737;stroke:#000000;stroke-width:3.86335;stroke-linecap:butt;stroke-linejoin:miter;stroke-miterlimit:4;stroke-dasharray:none;stroke-opacity:1"
         d="m 98.834699,-212.38019 c -3.39974,-6.16152 -22.03185,-3.61267 -43.939041,-5.225 -24.497017,-1.80293 -53.5716073,-4.20323 -75.042946,-2.50368 -22.319962,7.81843 -22.380301,17.13785 -25.106292,26.27753 -12.738268,40.96356 -13.093503,52.53973 -12.553136,75.99871 l 1.364476,61.571858 c 1.986654,-1.16601 2.608832,-5.384769 4.595466,-6.509433 12.476753,-7.063177 21.132984,-9.127728 33.609737,-24.920573 33.513592,-25.652682 70.118211,-17.261572 105.610166,-21.125042 21.730831,-14.01865 17.743541,-33.43259 21.285771,-51.26694 4.13922,-21.86521 7.42514,-43.22024 -9.824201,-52.29743 z"
         id="path851"
         sodipodi:nodetypes="csccccscccc" />
      <path
         style="fill:#ff5555;stroke:#000000;stroke-width:3.86335;stroke-linecap:butt;stroke-linejoin:miter;stroke-miterlimit:4;stroke-dasharray:none;stroke-opacity:1"
         d="m 203.89907,-187.13316 c 43.67738,17.00119 36.02646,77.98594 27.01652,103.821987 -15.90357,37.531843 -46.64616,57.903126 -76.68333,79.0901995 -22.37734,11.1776774 -44.7547,9.666834 -67.132041,7.72867 C 64.813223,-1.9547366 44.747792,-9.8815266 29.792408,-37.969562 24.675363,-38.433011 17.239252,-55.316155 10.962684,-63.989461 c 1.160279,19.92694 -0.002,37.295361 -1.9102713,53.843149 L 4.9590037,16.646473 -12.058184,13.528054 -17.96413,7.1144154 c 6.349094,-5.2462015 7.857351,-22.1914494 7.814626,-42.8850254 5.0679587,-13.179166 -9.881421,-26.930996 5.4578857,-56.677019 4.59447203,-5.631537 13.876757,-7.093639 22.8323173,-5.217636 8.163559,7.755809 15.168608,16.126793 27.206686,21.825145 2.939036,-11.194944 8.169184,-21.760694 25.106294,-29.11137 15.93317,-2.66184 27.74709,6.965284 47.892981,-9.40323 13.41057,2.50874 24.80647,-8.90437 36.33752,-17.05583 3.57704,-8.74729 7.11805,-17.97872 13.18837,-25.31376 5.89972,-0.4364 11.87981,-1.32804 18.28836,-4.64656 7.59471,-7.33865 10.50086,-23.63041 17.73816,-25.76229 z"
         id="path853"
         sodipodi:nodetypes="cccccccccccccccccccc" />
      <path
         style="fill:#ff5555;fill-opacity:1;stroke:#000000;stroke-width:3.86335;stroke-linecap:butt;stroke-linejoin:miter;stroke-miterlimit:4;stroke-dasharray:none;stroke-opacity:1"
         d="m -30.03014,64.408655 c 0,0 -1.543725,2.368169 -2.122621,3.096836 -0.578897,0.728667 -3.087448,2.732502 -3.666345,3.461169 -0.578896,0.728667 -0.964827,2.914669 -1.157793,4.372004 -0.193045,1.457334 -0.385931,2.914669 -0.385931,4.736337 0,1.821668 0.964828,9.837007 0.964828,9.837007 0,0 0.578896,0.728668 0.578896,1.639502 0,0.910834 0,0.728667 -1.543724,2.186002 -1.543724,1.457334 -2.508551,1.821668 -3.087448,2.732502 -0.578896,0.910834 -1.543724,3.096839 -1.543724,3.096839 l -1.929655,4.371997 c 0,0 -0.385931,2.55034 -0.771862,4.55417 -0.385931,2.00384 0.385931,5.10067 0.385931,7.83317 0,2.73251 0,6.55801 0.193045,8.19751 0.193045,1.6395 0.771862,5.28284 1.73669,8.56184 0.964827,3.279 0.771862,6.558 2.12262,10.93001 1.350759,4.37202 6.174896,10.01919 6.174896,10.01919 0,0 2.122621,2.7325 4.052276,3.64334 1.929655,0.91083 -0.193045,1.27517 4.052276,1.45731 4.245241,0.18206 5.210069,0.18206 6.560827,0.18206 h 3.47338 c 0,0 0.578896,7.1045 -1.543725,12.56955 -2.12262,5.46498 -2.315586,4.00766 -2.315586,6.19367 0,2.18596 -0.578896,6.74017 -0.578896,7.651 0,0.91084 2.701517,17.67015 2.508551,18.39883 -0.193045,0.72869 2.894483,8.01534 3.666345,9.47266 0.771862,1.45737 4.4382067,6.37587 5.5959997,7.46886 1.157793,1.09301 7.525655,4.73635 7.525655,4.73635 l 2.508551,0.72863 -4.438206,5.28284 c 0,0 -3.859311,14.57336 -4.631173,15.30205 -0.771862,0.72863 -3.0874477,6.37582 -2.315586,9.47265 0.771862,3.09684 2.508552,8.74403 3.666345,10.93003 1.157793,2.186 2.122621,4.9185 5.59600003,6.37582 3.47337897,1.45733 5.21006897,1.82167 5.21006897,1.82167 h 8.2975163 c 0.771862,0 0.964828,-1.27517 3.087449,-1.63952 2.12262,-0.3643 5.403034,-1.45732 5.403034,-1.45732 l 4.631172,-1.45731 c 0,0 6.753793,-1.09304 7.911586,-1.82167 1.157793,-0.72869 5.017103,-2.55036 5.017103,-2.55036 0,0 -0.578896,2.00388 -0.578896,2.91469 0,0.91084 0.578896,4.91851 1.157793,6.55797 0.578896,1.63952 2.12262,3.64334 3.85931,5.46504 1.736689,1.82167 3.087448,3.27899 5.210069,4.00767 2.12262,0.72865 6.174896,1.82167 8.104551,2.5503 1.929655,0.72869 4.824138,1.45737 6.174896,1.63952 1.350759,0.18205 2.894483,0.5465 2.894483,0.5465 l 2.122621,9.47269 c 0,0 -1.543725,3.82549 2.894486,7.83316 4.4382,4.00767 7.13972,6.01152 8.87641,7.1045 1.73669,1.09302 5.0171,2.00386 6.75379,2.36815 1.73669,0.36435 11.38497,1.09304 12.3498,0.91084 0.96482,-0.18225 10.034201,-1.45732 10.034201,-1.45732 0,0 15.43724,-3.27898 16.40207,-3.64334 0.96483,-0.36433 3.85931,-2.73248 5.78897,-3.82552 1.92965,-1.09298 9.45531,-6.9223 9.45531,-6.9223 0,0 3.66634,-7.83319 3.66634,-9.83701 0,-2.00385 0.19304,-5.28283 0,-7.46885 -0.19305,-2.18601 -0.5789,-5.10069 -0.5789,-5.10069 0,0 10.03421,2.3682 10.99904,2.55035 0.96482,0.18224 7.91158,0.91083 10.0342,0 2.12262,-0.91083 8.87642,-3.09684 9.45531,-4.00767 0.5789,-0.91083 3.08745,-2.18602 4.24524,-3.82548 1.1578,-1.63952 6.1749,-8.56188 6.1749,-8.56188 l 1.54373,-2.73248 10.80606,-5.82934 6.56083,-6.55803 c 0,0 2.31559,-2.36815 2.50853,-4.18981 0.19305,-1.82165 0.19305,-5.46499 0.19305,-7.28666 0,-1.8217 -1.15782,-10.93003 -1.15782,-10.93003 0,0 -0.77182,-0.54648 -1.73664,-3.82552 -0.96483,-3.27898 -4.82414,-10.74782 -4.82414,-10.74782 l 4.82414,-4.18982 c 0,0 0.57887,-2.9147 0.57887,-5.10071 0,-2.186 0,-3.64331 -0.38593,-4.7363 -0.38595,-1.09302 -0.96483,-3.09683 -0.96483,-3.09683 l 6.94678,-8.01534 c 0,0 0.77182,-3.82552 0.96481,-5.10071 0.19304,-1.27517 3.28043,-5.28284 3.28043,-7.28665 0,-2.00386 -1.15783,-14.20901 -1.15783,-14.20901 l 7.13976,-8.01534 c 0,0 1.15778,-6.74016 1.15778,-8.01534 0,-1.27517 -1.15778,-4.73634 -2.70154,-6.19368 -1.5437,-1.45733 -3.85929,-4.73633 -5.78895,-5.64717 -1.92965,-0.91083 -4.05229,-2.186 -4.05229,-2.186 l -1.92966,-2.36817 7.52566,-4.55417 4.63119,-3.09683 c 0,0 1.35076,-2.55034 1.73671,-3.46117 0.38593,-0.91084 1.15777,-4.18984 0.77182,-5.46501 -0.38589,-1.27516 -1.15777,-3.46117 -2.1226,-4.55417 -0.96481,-1.093 -5.01712,-5.64717 -5.01712,-5.64717 l -8.49046,-9.654836 -2.7015,-1.457334 4.05225,-8.561841 c 0,0 0.38594,-4.55417 0.38594,-5.647171 0,-1.093 0.38595,-6.558005 0.38595,-9.654841 0,-3.096835 0,-5.282837 -0.96483,-8.015339 -0.96483,-2.732502 -3.85931,-11.294342 -3.85931,-11.294342 l -0.77188,-3.096836 c 0,0 -1.54371,-0.728667 -3.28042,-0.728667 -1.73669,0 -13.12165,1.093 -14.47241,1.639501 -1.35076,0.5465 -9.06938,3.279002 -10.99903,4.55417 -1.92966,1.275168 -2.31559,1.457335 -5.596,3.461169 -3.28042,2.003835 -6.1749,2.914669 -8.49049,4.736338 -2.31558,1.821668 -3.66634,3.643336 -6.36786,4.918503 -2.70152,1.275168 -5.98193,2.368169 -10.99903,3.279003 -5.01711,0.910834 -7.52566,1.457334 -10.03421,1.821668 -2.50855,0.364334 -16.59503,2.368169 -17.36689,2.550335 -0.77187,0.182242 -4.63118,1.275168 -7.33269,2.368169 -2.70152,1.093001 -5.40304,1.639501 -6.56083,2.914669 -1.157791,1.275168 -2.701521,2.732502 -3.280411,3.825503 -0.5789,1.093001 -0.5789,1.821668 -0.96483,4.00767 -0.38593,2.186001 -1.1578,3.461169 -0.19305,7.104505 0.96483,3.643337 1.92966,16.030674 2.31559,16.759344 0.38593,0.72867 3.280411,2.7325 5.210071,3.8255 1.92965,1.093 1.92965,0.5465 4.24524,2.55034 2.31558,2.00383 -5.21007,1.6395 -5.98193,1.82167 -0.77186,0.18224 -6.560831,3.279 -7.525661,3.64333 -0.96482,0.36434 -5.21007,2.36817 -6.36786,3.82551 -1.15779,1.45733 -4.43821,6.74017 -4.82414,7.46883 -0.38593,0.72867 -5.21007,11.11218 -5.40303,12.38737 -0.19305,1.27516 -1.35076,5.64713 -0.96483,7.1045 0.38593,1.45732 -5.98193,-2.3682 -7.332688,-2.3682 -1.350758,0 -3.087448,0 -5.403034,0.54653 -2.315586,0.54649 -4.438207,1.63947 -4.438207,1.63947 l 0.385931,-7.83314 c 0,0 -0.964827,-6.55802 -1.736689,-7.65102 -0.771862,-1.093 -3.087448,-4.91851 -3.087448,-4.91851 0,0 2.508551,-0.36433 6.174896,0.5465 3.666345,0.91084 0.578896,2.73251 6.753793,1.27517 l 6.174896,-1.45733 7.52565,-8.19751 4.82414,-12.02301 -0.67253,-12.782917 -2.22195,-11.080931 -6.1749,-8.197506 -24.506616,-0.728667 c 0,0 -0.578897,0.182242 -2.701517,0.5465 -2.122621,0.364334 -5.981931,1.275168 -8.876414,2.003835 -2.894482,0.728667 -4.631172,0.728667 -6.174896,2.368169 -1.543724,1.639501 -4.052276,7.286672 -4.052276,7.286672 0,0 -1.929655,-5.100671 -2.508551,-6.011505 -0.578897,-0.910834 -5.835785,-1.556469 -7.76544,-2.831637 0,0 -8.843312,-2.160101 -10.7729673,-3.253102 -1.929655,-1.093001 -6.627031,-5.660121 -8.363721,-5.660121 -1.73668897,0 -15.4703617,-2.053403 -15.4703617,-2.053403 l -7.200242,-3.757617 z"
         id="path855"
         sodipodi:nodetypes="csssscsssccssssscssscsssssscccsssscssccscssssssccsssscsscsscssssccccsscsccssccssccsssccccsssccccsssccsssssssssssssssssssssssssccscsscccccccssscssssccc" />
      <path
         style="fill:#ffd42a;stroke:#000000;stroke-width:3.86335;stroke-linecap:butt;stroke-linejoin:miter;stroke-miterlimit:4;stroke-dasharray:none;stroke-opacity:1"
         d="m 43.007305,-18.295077 c -1.494896,-1.359025 -4.780777,0.239017 -6.799181,2.061398 -3.216655,2.90429 -8.234435,1.635466 -11.696919,5.443514 -2.381154,2.6188218 -7.213681,3.4667439 -9.396064,6.93848 -1.426227,2.2688457 -3.639565,4.61820827 -5.3775473,6.9008301 -3.687399,4.8428858 -3.624674,10.5946539 -4.77859,13.5973279 l 0.151891,5.12415 c 1.245031,3.042801 4.738908,4.239179 5.0451953,6.779455 0.689833,5.72155 3.895176,6.890695 6.600769,9.17859 0.986378,0.834109 1.571716,2.369764 2.419126,3.544802 l 3.035221,2.900161 3.30276,-0.404217 c 0.727766,2.24075 1.848719,3.88759 3.858415,4.192033 2.527956,0.760893 5.725406,-3.320443 7.197956,-1.362141 3.779587,5.026329 10.720997,5.026104 14.830888,1.323253 4.344249,-0.491659 9.441055,0.0655 8.595315,-7.658908 0.74381,-0.504159 2.350597,1.63449 2.725534,-0.876394 0.221853,-1.485787 2.884085,-1.002293 2.534158,-3.8103 2.527041,-0.366305 2.301908,-2.71364 3.029475,-5.506746 3.741852,2.170837 8.101032,2.666156 13.893512,-0.728667 2.1095,3.376899 5.19978,3.97612 8.58697,3.73442 2.81309,-0.124248 5.77119,-0.0019 7.3444,-2.233224 3.351411,0.133069 6.702821,0.783153 10.054251,-3.057215 3.12325,2.811011 7.34877,2.121907 13.29901,-4.043874 4.56159,0.713333 8.98345,1.104224 11.27212,-3.427537 3.15467,-0.89199 5.4764,0.378392 9.55201,-2.904496 2.94047,-0.996568 8.37253,1.73111 8.5516,-3.393021 3.61411,-0.647231 5.52264,4.267895 11.66634,-4.6288501 l 6.4113,-2.543804 c 1.61754,-0.4466146 3.23509,-0.8612665 4.85261,-2.9642177 1.66289,1.8062028 3.32576,-1.5531663 4.98863,-3.04728703 0.29575,-0.4786337 -0.6243,-6.84304197 -3.08745,-8.01533967 -0.55428,-0.2637909 -9.87682,-6.1279445 -10.42013,-3.7344195 l -11.0187,6.6963475 -16.76834,6.8750798 c -16.7879,2.9133551 -33.5758,2.2690522 -50.363701,0.8535902 L 54.102742,-9.1867364 Z"
         id="path857"
         sodipodi:nodetypes="cssssccssccccsccsccccccccccccccscccccc" />
      <path
         style="fill:none;stroke:#000000;stroke-width:3.86335;stroke-linecap:butt;stroke-linejoin:miter;stroke-miterlimit:4;stroke-dasharray:none;stroke-opacity:1"
         d="m 30.883978,101.66197 c 0,0 0,2.44743 3.411171,2.70505 3.411191,0.25761 6.958826,0.77286 8.732634,0.51525 1.773807,-0.25764 6.00368,-0.51525 7.368137,-1.28812 1.364476,-0.77287 5.321462,-2.44741 6.00368,-2.70505 0.682239,-0.25761 10.369998,-4.637195 10.369998,-4.637195 l 3.274728,-4.379586"
         id="path861" />
      <path
         style="fill:none;stroke:#000000;stroke-width:3.86335;stroke-linecap:butt;stroke-linejoin:miter;stroke-miterlimit:4;stroke-dasharray:none;stroke-opacity:1"
         d="m 57.49119,101.01791 c 1.965063,2.91486 0.681144,5.39155 0.272887,7.98633"
         id="path863"
         sodipodi:nodetypes="cc" />
      <path
         style="fill:none;stroke:#000000;stroke-width:3.86335;stroke-linecap:butt;stroke-linejoin:miter;stroke-miterlimit:4;stroke-dasharray:none;stroke-opacity:1"
         d="m 67.451836,117.11935 c -1.364476,-2.44743 -6.00368,-6.18296 -6.00368,-6.18296 0,0 -5.59433,-3.22027 -8.323283,-3.47791 -2.728953,-0.25761 -2.728953,-0.51523 -8.050376,-0.51523 -5.321442,0 -7.368157,0 -9.278428,-0.12875 -1.910251,-0.12875 -6.822343,0 -6.822343,0"
         id="path865" />
      <path
         style="fill:none;stroke:#000000;stroke-width:3.86335;stroke-linecap:butt;stroke-linejoin:miter;stroke-miterlimit:4;stroke-dasharray:none;stroke-opacity:1"
         d="m 27.063455,94.963787 c 0,0 0.545795,1.674542 0.545795,4.121966 0,2.447407 1.364476,7.728747 1.364476,7.728747 0,0 -3.00184,1.9321 -7.095269,5.41001 -4.09341,3.47791 -5.184999,3.86434 -5.867218,4.25078 -0.682238,0.38644 -4.912111,1.80335 -5.730793,1.93216 -0.8186823,0.12875 -2.1831583,0.12875 -2.1831583,0.12875"
         id="path867" />
      <path
         style="fill:none;stroke:#000000;stroke-width:3.86335;stroke-linecap:butt;stroke-linejoin:miter;stroke-miterlimit:4;stroke-dasharray:none;stroke-opacity:1"
         d="m -11.824005,86.848674 c 0,0 0.545794,1.932177 4.2298727,3.091468 3.684078,1.15931 4.50276,1.803369 6.276568,2.189793 1.77380703,0.386443 6.00368,0.644059 6.00368,0.644059 h 1.228013"
         id="path869" />
      <path
         style="fill:none;stroke:#000000;stroke-width:3.86335;stroke-linecap:butt;stroke-linejoin:miter;stroke-miterlimit:4;stroke-dasharray:none;stroke-opacity:1"
         d="m 4.6861157,92.773994 c 0,0 0.136384,3.220295 -1.228032,4.766029 -1.364477,1.54573 -1.773808,2.576217 -3.00184097,3.993137 -1.228013,1.41693 -2.31960203,3.2203 -2.59248903,4.25078 -0.272907,1.0305 -0.409351,1.93218 -0.545795,3.47791 -0.136384,1.54574 -0.272887,2.70505 -0.272887,4.5084 0,1.80336 -0.136384,4.37958 1.091569,6.6982 1.22803303,2.3186 1.36447703,2.57622 3.138284,4.6372 1.773828,2.06099 3.956966,3.99315 3.956966,3.99315"
         id="path871" />
      <path
         style="fill:none;stroke:#000000;stroke-width:3.86335;stroke-linecap:butt;stroke-linejoin:miter;stroke-miterlimit:4;stroke-dasharray:none;stroke-opacity:1"
         d="m -15.508084,92.001127 c 1.091589,0.386443 3.547635,1.030483 4.50276,2.705044 0.955146,1.674542 3.1382847,7.857499 3.1382847,7.857499 0,0 0.682238,2.70502 0.955145,5.92531 0.272887,3.22028 -0.818682,19.83695 -0.818682,19.83695 0,0 -1.228033,4.89484 -1.364476,6.18295 -0.136384,1.28812 2.183158,0.51524 -0.409351,5.02365 -2.5924897,4.50839 -2.5924897,4.50839 -2.5924897,4.50839"
         id="path873" />
      <path
         style="fill:none;stroke:#000000;stroke-width:3.86335;stroke-linecap:butt;stroke-linejoin:miter;stroke-miterlimit:4;stroke-dasharray:none;stroke-opacity:1"
         d="m -2.8184843,131.93265 13.3718183,-5.15245 9.551315,-2.70505 c 0,0 0.545795,-0.38642 2.865397,-0.25761 2.319602,0.12875 19.921293,2.3186 19.921293,2.3186 0,0 2.456046,0.38644 3.411171,1.0305 0.955126,0.64406 5.867237,2.83385 5.867237,2.83385"
         id="path875" />
      <path
         style="fill:none;stroke:#000000;stroke-width:3.86335;stroke-linecap:butt;stroke-linejoin:miter;stroke-miterlimit:4;stroke-dasharray:none;stroke-opacity:1"
         d="m 56.808951,153.57298 c 0,0 2.046715,-0.64408 -0.545794,1.80333 -2.59249,2.44741 -9.141965,6.82702 -9.141965,6.82702 l -1.773807,1.03052"
         id="path877" />
      <path
         style="fill:none;stroke:#000000;stroke-width:3.86335;stroke-linecap:butt;stroke-linejoin:miter;stroke-miterlimit:4;stroke-dasharray:none;stroke-opacity:1"
         d="m 35.250294,135.28175 c -0.545794,1.41693 -2.592509,4.37959 -3.684078,6.18296 -1.091569,1.80335 -2.183159,4.12193 -2.728953,6.56939 -0.545775,2.44741 -1.364477,8.50154 -1.364477,10.69131 0,2.1898 -0.136384,3.09149 0.136384,5.66771 0.272888,2.57622 -1.091589,1.80339 1.910252,6.56938 3.00184,4.76601 6.549475,4.25079 6.549475,4.25079 l 6.958806,-0.51525 1.364477,-0.51525"
         id="path879" />
      <path
         style="fill:none;stroke:#000000;stroke-width:3.86335;stroke-linecap:butt;stroke-linejoin:miter;stroke-miterlimit:4;stroke-dasharray:none;stroke-opacity:1"
         d="m 25.016741,148.5493 c 0,0 -8.050376,1.80339 -9.141965,2.18983 -1.091569,0.38644 -2.183158,-0.12875 -4.912092,2.44741 -2.7289533,2.57621 -6.4130113,5.28126 -7.3681573,7.21345 -0.955125,1.93216 -2.456046,8.50154 -2.456046,8.50154 0,0 2.046715,8.24392 3.001841,10.4337 0.955125,2.18979 4.50276,10.30494 4.775648,11.33539 0.272907,1.03052 2.4560653,11.97946 2.4560653,11.97946 0,0 0.682219,3.2203 0.682219,4.12199 0,0.90169 -0.272888,5.28124 -0.272888,5.28124"
         id="path881" />
      <path
         style="fill:none;stroke:#000000;stroke-width:3.86335;stroke-linecap:butt;stroke-linejoin:miter;stroke-miterlimit:4;stroke-dasharray:none;stroke-opacity:1"
         d="m 60.083679,174.05398 c 2.319602,0.25762 2.592509,0.25762 4.775648,1.15931 2.183158,0.90166 4.366317,1.41691 5.594352,2.70505 1.22801,1.28808 3.27473,2.18977 3.95696,4.37955 0.68224,2.18983 0.95513,3.73554 0.95513,3.73554"
         id="path883" />
      <path
         style="fill:none;stroke:#000000;stroke-width:3.86335;stroke-linecap:butt;stroke-linejoin:miter;stroke-miterlimit:4;stroke-dasharray:none;stroke-opacity:1"
         d="m 70.863009,188.35203 c 0,0 -1.091571,1.54576 -3.274729,2.70503 -2.183159,1.15933 -3.138284,1.41696 -4.502761,3.22029 -1.364476,1.80339 -2.456045,4.12199 -2.456045,4.12199 v 1.67452"
         id="path885" />
      <path
         style="fill:none;stroke:#000000;stroke-width:3.86335;stroke-linecap:butt;stroke-linejoin:miter;stroke-miterlimit:4;stroke-dasharray:none;stroke-opacity:1"
         d="m 68.543405,202.3925 c 0,0 -7.913931,-2.31864 -7.913931,-2.31864 0,0 -5.184999,0.25762 -5.867237,0.51526 -0.682239,0.25763 -3.001841,1.93219 -4.366317,2.4474 -1.364457,0.51526 -2.865377,1.28814 -4.09341,2.18984 -1.228013,0.90163 -3.411171,3.99312 -3.956966,5.28124 -0.545794,1.2881 -4.50276,8.50155 -4.50276,8.50155 0,0 0.272887,-0.12875 -0.545795,2.70503 -0.818682,2.83385 -1.364456,6.5694 -1.364456,6.5694 0,0 0.955125,3.47791 0.955125,4.89481 0,1.41695 0.818682,4.50842 0.682238,5.53894 -0.136384,1.03044 7.09525,17.77596 7.09525,17.77596"
         id="path887" />
      <path
         style="fill:none;stroke:#000000;stroke-width:3.86335;stroke-linecap:butt;stroke-linejoin:miter;stroke-miterlimit:4;stroke-dasharray:none;stroke-opacity:1"
         d="m 27.199899,217.46344 c 0,0 2.592509,6.95578 3.00184,8.11509 0.409351,1.15927 1.228033,1.67454 1.364477,4.12199 0.136384,2.44741 0.272887,5.02363 -0.136384,6.56934 -0.409351,1.54575 -1.228033,3.86436 -2.456046,5.02368 -1.228033,1.15928 -2.319602,2.70503 -4.093429,3.60669 -1.773808,0.90169 -5.730774,3.22027 -7.09525,3.60671 -1.364477,0.38645 -3.411192,1.28814 -3.956966,1.80339 -0.545795,0.51522 -1.50092,1.15927 -0.682239,1.28808 0.818682,0.12875 4.775648,-0.12875 5.867237,-0.64406 1.09157,-0.51521 6.685899,-3.34904 7.777489,-3.73549 1.091569,-0.38644 3.274727,-1.54577 4.50274,-1.54577 1.228033,0 0.955146,-1.54571 2.865397,0.25764 1.910271,1.80339 3.00184,2.83385 3.138284,3.99316 0.136384,1.15927 -0.682218,6.5694 -0.818682,7.08459 -0.136384,0.51527 -2.728933,8.11515 -2.728933,8.11515"
         id="path889" />
      <path
         style="fill:none;stroke:#000000;stroke-width:3.86335;stroke-linecap:butt;stroke-linejoin:miter;stroke-miterlimit:4;stroke-dasharray:none;stroke-opacity:1"
         d="m 30.61115,213.47028 c 0,0 5.048535,-1.54578 6.413012,-2.06097 1.364476,-0.51527 2.046714,-1.28814 3.138284,-2.31866 1.091589,-1.03044 2.592489,-3.09147 2.865396,-4.12193 0.272768,-1.0305 0.136384,-1.41694 0.136384,-1.9322 0,-0.51521 -1.091589,-6.82697 -1.091589,-6.82697 0.409351,0.90167 0.409351,2.44741 3.274748,3.34908 2.865396,0.9017 3.138284,1.0305 4.50276,1.0305 1.364477,0 2.319602,-0.25763 2.319602,-0.25763"
         id="path891" />
      <path
         style="fill:#ffffff;stroke:#000000;stroke-width:3.86335;stroke-linecap:butt;stroke-linejoin:miter;stroke-miterlimit:4;stroke-dasharray:none;stroke-opacity:1"
         d="m 133.7011,86.359756 c -0.5789,0.5465 -6.36787,1.639501 -7.62214,1.639501 -1.25428,0 -6.1749,-0.5465 -7.52566,-0.5465 -1.35076,0 -6.75379,-0.273251 -7.13972,-0.364334 -0.38593,-0.09103 -1.25428,-1.093001 -1.54372,-0.455417 -0.28945,0.637584 -0.77187,1.366251 -0.28945,3.187919 0.48241,1.821668 0.67538,3.005752 1.06131,4.098753 0.38593,1.093001 -1.64021,2.459252 1.06131,2.186002 2.70151,-0.27325 6.65731,-2.641419 8.10455,-3.552253 1.44724,-0.910834 12.34979,-5.10067 12.34979,-5.10067 z"
         id="path893" />
      <path
         style="fill:#ffffff;stroke:#000000;stroke-width:3.86335;stroke-linecap:butt;stroke-linejoin:miter;stroke-miterlimit:4;stroke-dasharray:none;stroke-opacity:1"
         d="m 152.41875,80.894751 13.60407,-6.102588 11.38496,-6.649088 4.82414,-3.370086 4.72768,11.931926 c 0,0 -11.38499,0.637584 -12.73575,0.81975 -1.35076,0.182242 -5.0171,-0.182241 -10.99903,1.093001 -5.98193,1.275168 -10.80607,2.277085 -10.80607,2.277085 z"
         id="path895" />
      <path
         style="fill:none;stroke:#000000;stroke-width:3.86335;stroke-linecap:butt;stroke-linejoin:miter;stroke-miterlimit:4;stroke-dasharray:none;stroke-opacity:1"
         d="m 118.74627,109.85927 c 0,0 -0.86835,1.27517 5.88545,-1.45733 6.75379,-2.73251 12.25331,-5.92042 17.65634,-7.01343 5.40303,-1.093 18.91062,-3.461157 21.12972,-4.007662 2.21911,-0.546501 9.16587,-1.457335 11.67442,-2.094919 2.50855,-0.637583 16.49853,-2.459252 16.49853,-2.459252 l 0.96483,-0.182241 h 0.0964"
         id="path897" />
      <path
         style="fill:none;stroke:#000000;stroke-width:3.86335;stroke-linecap:butt;stroke-linejoin:miter;stroke-miterlimit:4;stroke-dasharray:none;stroke-opacity:1"
         d="m 200.35143,108.36018 -16.10077,2.70502 c 0,0 -11.59803,2.70505 -13.09895,3.3491 -1.5009,0.64406 -12.41669,6.31177 -12.41669,6.31177 l -11.8709,9.01679 -11.46156,7.9863"
         id="path899" />
      <path
         style="fill:none;stroke:#000000;stroke-width:3.86335;stroke-linecap:butt;stroke-linejoin:miter;stroke-miterlimit:4;stroke-dasharray:none;stroke-opacity:1"
         d="m 128.71664,135.28175 c 0,0 3.27472,-1.41692 4.50276,-2.06098 1.22801,-0.64406 6.00368,-2.57622 8.45972,-3.34911 2.45605,-0.77286 10.23354,-3.99314 10.23354,-3.99314"
         id="path901" />
      <path
         style="fill:none;stroke:#000000;stroke-width:3.86335;stroke-linecap:butt;stroke-linejoin:miter;stroke-miterlimit:4;stroke-dasharray:none;stroke-opacity:1"
         d="m 170.74238,114.4143 c 0,0 4.36632,-2.70504 5.45789,-3.60671 1.09159,-0.90168 1.77381,-1.80335 3.54763,-2.70505 1.77381,-0.90167 1.77381,-1.15929 2.86538,-1.15929 1.09159,0 1.91027,-0.25763 2.59251,0.38643 0.68224,0.64405 1.09157,1.54573 1.09157,1.54573"
         id="path903" />
      <path
         style="fill:none;stroke:#000000;stroke-width:3.86335;stroke-linecap:butt;stroke-linejoin:miter;stroke-miterlimit:4;stroke-dasharray:none;stroke-opacity:1"
         d="m 198.85049,130.90217 c 0,0 -1.63734,2.3186 -7.36811,4.37958 -5.73082,2.06099 -10.23356,3.22028 -13.09895,3.34909 -2.8654,0.12875 -3.68408,0.12875 -6.41304,0.12875 -2.72893,0 -6.00366,-0.51525 -7.64104,-0.51525 -1.63734,0 -2.86538,0 -2.86538,0"
         id="path905" />
      <path
         style="fill:none;stroke:#000000;stroke-width:3.86335;stroke-linecap:butt;stroke-linejoin:miter;stroke-miterlimit:4;stroke-dasharray:none;stroke-opacity:1"
         d="m 108.79534,136.18343 c 0,0 6.00368,-0.38643 12.96249,-0.64406 6.95881,-0.25762 0.27289,-2.70503 6.95881,-0.25762 6.68592,2.44741 1.22803,-2e-5 6.68592,2.44741 5.45788,2.44743 10.64288,6.18296 12.55313,7.5999 1.91027,1.41691 11.87092,11.97947 12.6896,12.8811 0.81868,0.9017 2.72893,4.2508 4.3663,7.08465 1.63738,2.83385 3.00184,4.89482 3.27475,5.66769 0.27288,0.77288 0.95512,1.80335 0.95512,1.80335"
         id="path907" />
      <path
         style="fill:none;stroke:#000000;stroke-width:3.86335;stroke-linecap:butt;stroke-linejoin:miter;stroke-miterlimit:4;stroke-dasharray:none;stroke-opacity:1"
         d="m 151.91266,148.0341 c 0,0 2.72895,0 6.82236,0.25762 4.09343,0.25758 2.59251,0.38639 9.00552,0.64402 6.41301,0.25764 11.18868,0.38644 14.05406,0.25764 2.86539,-0.12876 7.77749,-1.03047 7.77749,-1.03047"
         id="path909" />
      <path
         style="fill:none;stroke:#000000;stroke-width:3.86335;stroke-linecap:butt;stroke-linejoin:miter;stroke-miterlimit:4;stroke-dasharray:none;stroke-opacity:1"
         d="m 75.638659,158.33897 c 0,0 -0.68222,3.09149 2.59251,5.28126 3.27472,2.18983 -1.22804,4.2508 6.82236,3.47791 8.05037,-0.77283 8.86906,-0.64406 13.91761,-2.31858 5.048561,-1.67452 9.141971,-3.47793 14.326961,-4.12199 5.185,-0.64402 13.37182,-2.70504 17.87458,-2.83385 4.50276,-0.12875 12.14381,1.67458 12.96249,2.31864 0.81868,0.64402 4.36632,5.15245 3.54763,7.34223 -0.81868,2.18977 -2.5925,4.25079 -3.95696,5.28126 -1.36448,1.0305 -2.72895,2.44744 -6.27659,2.96266 -3.54761,0.51525 -10.77933,1.54575 -10.77933,1.54575"
         id="path911" />
      <path
         style="fill:none;stroke:#000000;stroke-width:3.86335;stroke-linecap:butt;stroke-linejoin:miter;stroke-miterlimit:4;stroke-dasharray:none;stroke-opacity:1"
         d="m 99.516939,167.74222 c 0.27288,1.54575 -0.95515,4.76599 0.40933,8.1151 1.364471,3.3491 4.502761,9.27442 6.140121,10.69136 1.63738,1.41691 7.5046,6.18296 9.8242,6.69821 2.31961,0.51521 5.04856,1.80335 8.45973,1.93216 3.41119,0.12875 4.22987,0.25763 7.09525,0.12875 2.8654,-0.12875 5.32146,0 9.00552,-1.93214 3.68408,-1.93222 5.73079,-3.47793 8.32328,-5.66776 2.59251,-2.18978 0.5458,-4.25074 5.86724,-4.50838 5.32144,-0.25761 7.23169,-0.12875 9.14197,0.51527 1.91025,0.64406 9.55129,10.17606 9.55129,10.17606 0,0 1.63736,1.41695 4.77565,1.67458 3.1383,0.25762 4.91211,0.38645 6.68592,0.12876 1.77383,-0.25762 5.32144,-0.64406 5.32144,-0.64406"
         id="path913" />
      <path
         style="fill:none;stroke:#000000;stroke-width:3.86335;stroke-linecap:butt;stroke-linejoin:miter;stroke-miterlimit:4;stroke-dasharray:none;stroke-opacity:1"
         d="m 110.84206,195.6943 c 0,0 -0.95515,3.47791 -1.36448,6.31176 -0.40935,2.83385 -0.95514,3.09149 0.40933,8.75917 1.36448,5.66771 1.63737,7.59985 3.27475,10.94895 1.63736,3.3491 2.45605,5.41007 2.86538,6.31176 0.40935,0.9017 1.22803,2.83385 1.22803,2.83385"
         id="path915" />
      <path
         style="fill:none;stroke:#000000;stroke-width:3.86335;stroke-linecap:butt;stroke-linejoin:miter;stroke-miterlimit:4;stroke-dasharray:none;stroke-opacity:1"
         d="m 135.67544,201.87725 c 0.13639,1.03047 1.63737,11.07776 3.13829,14.16924 1.50092,3.09147 9.8242,13.3964 10.64288,13.91161 0.81868,0.51525 3.82052,2.31864 5.32144,5.2813 1.50092,2.96266 4.63921,7.47103 5.45789,10.30488 0.81868,2.83386 1.50092,5.79652 1.50092,7.85754 0,2.06097 0.68224,4.50836 0,5.92532 -0.68224,1.41689 -2.86538,4.76599 -4.22985,5.15243 -1.36448,0.38645 -7.23172,-0.25763 -9.00552,-1.41694 -1.77381,-1.15927 -4.77565,-4.89482 -5.04856,-5.92532 -0.27289,-1.03047 -0.95512,-3.34907 -2.18316,-6.82698 -1.22801,-3.47791 -1.09157,-5.4101 -2.72893,-8.24396 -1.63736,-2.83385 -2.04671,-4.25076 -3.68408,-6.44053 -1.63736,-2.18983 -1.09157,-4.3796 -4.50276,-4.63724 -3.41117,-0.25761 -4.09341,0.90169 -8.59617,0.38644 -4.50276,-0.51525 -6.00368,1.67453 -6.95881,4.50838 -0.95512,2.83391 -1.09158,6.18295 -0.54579,8.75923 0.54579,2.57621 1.91025,6.44051 2.59249,8.50153 0.68224,2.06097 0.95514,6.44058 0.95514,6.44058"
         id="path917" />
      <path
         style="fill:none;stroke:#000000;stroke-width:3.86335;stroke-linecap:butt;stroke-linejoin:miter;stroke-miterlimit:4;stroke-dasharray:none;stroke-opacity:1"
         d="m 144.81741,199.42984 c 0,0 4.22985,1.28808 6.27657,0.77283 2.04671,-0.51525 6.9588,-1.54571 6.9588,-1.54571 0,0 0,-2.06101 1.50092,0.90169 1.50092,2.96266 3.00184,5.02363 4.36632,7.08459 1.36448,2.06097 6.54947,5.92532 8.73261,6.5694 2.18316,0.64406 7.64105,0.64406 9.14197,0.77289 1.50092,0.12875 10.23357,-0.64408 10.23357,-0.64408"
         id="path919" />
      <path
         style="fill:none;stroke:#000000;stroke-width:3.86335;stroke-linecap:butt;stroke-linejoin:miter;stroke-miterlimit:4;stroke-dasharray:none;stroke-opacity:1"
         d="m 145.77253,215.40242 c 0,0 1.22804,3.22029 6.82237,3.86435 5.59435,0.64408 5.86723,0.12875 7.23171,0.90169 1.36446,0.77285 0.95513,-0.25761 3.13828,3.2203 2.18316,3.47787 3.68408,5.53888 5.86722,9.532 2.18316,3.99316 4.22987,7.47109 5.45791,8.6304 1.22801,1.15927 3.8205,2.44741 3.8205,2.44741"
         id="path921" />
      <path
         style="fill:none;stroke:#000000;stroke-width:3.86335;stroke-linecap:butt;stroke-linejoin:miter;stroke-miterlimit:4;stroke-dasharray:none;stroke-opacity:1"
         d="m 88.464699,202.52131 c 0,0 1.77383,3.34907 2.3196,5.5389 0.5458,2.18977 1.63739,3.3491 2.18316,6.82695 0.54579,3.47792 1.50092,6.69821 0.54579,9.78968 -0.95512,3.09149 -1.91027,6.18295 -3.41119,7.98634 -1.5009,1.80335 0.95515,2.83385 -4.63918,4.50838 -5.59435,1.67452 -9.14199,2.4474 -11.18868,2.57621 -2.04671,0.12875 -4.366317,0.25764 -8.186839,0.38645 -3.820523,0.12875 -7.231694,-0.25764 -7.913932,-0.38645 -0.682238,-0.12875 -1.228033,-0.51525 -1.228033,-0.51525"
         id="path923" />
      <path
         style="fill:none;stroke:#000000;stroke-width:3.86335;stroke-linecap:butt;stroke-linejoin:miter;stroke-miterlimit:4;stroke-dasharray:none;stroke-opacity:1"
         d="m 93.376809,230.60216 c 0,0 2.45605,3.86437 5.86722,5.15245 3.411191,1.28814 4.775671,2.31864 6.549471,3.47791 1.77381,1.15933 5.32145,3.47791 5.32145,3.47791"
         id="path925" />
      <path
         style="fill:none;stroke:#000000;stroke-width:3.86335;stroke-linecap:butt;stroke-linejoin:miter;stroke-miterlimit:4;stroke-dasharray:none;stroke-opacity:1"
         d="m 84.371289,269.11676 c 0,0 0.54579,-0.77283 4.36632,-1.41689 3.82052,-0.64408 6.27656,-1.93216 10.09709,-1.15933 3.820521,0.77289 6.822361,1.9322 6.822361,1.9322 l 0.68224,0.25763"
         id="path927" />
      <path
         style="fill:none;stroke:#000000;stroke-width:3.86335;stroke-linecap:butt;stroke-linejoin:miter;stroke-miterlimit:4;stroke-dasharray:none;stroke-opacity:1"
         d="m 85.189969,241.03591 c 1.63737,1.28808 2.45605,1.67452 4.91209,5.02363 2.45607,3.3491 4.09343,3.3491 4.09343,6.95584 0,3.60672 -1.09159,7.08459 -1.09159,7.08459"
         id="path929" />
      <path
         style="fill:none;stroke:#000000;stroke-width:3.86335;stroke-linecap:butt;stroke-linejoin:miter;stroke-miterlimit:4;stroke-dasharray:none;stroke-opacity:1"
         d="m 82.082819,185.73177 c 0,0 6.1749,-0.5465 7.91159,0 1.73669,0.54648 6.36786,4.372 7.52565,5.64713 1.1578,1.27517 3.666351,2.73254 4.824141,4.73636 1.15779,2.00385 4.24524,4.372 4.24524,4.372"
         id="path931" />
      <path
         style="fill:none;stroke:#000000;stroke-width:3.86335;stroke-linecap:butt;stroke-linejoin:miter;stroke-miterlimit:4;stroke-dasharray:none;stroke-opacity:1"
         d="m -83.095655,33.804631 c 0,0 2.508551,2.550335 4.631172,4.372003 2.122621,1.821668 3.087448,3.46117 5.210069,5.465005 2.12262,2.003835 10.420137,5.647171 10.420137,5.647171 l 6.367862,-2.186002 c 0,0 1.929655,3.096836 2.894483,4.918504 0.964827,1.821668 4.245241,4.55417 7.139724,6.375838 2.894482,1.821668 16.402068,6.011505 16.402068,6.011505"
         id="path933" />
      <path
         style="fill:none;stroke:#000000;stroke-width:3.86335;stroke-linecap:butt;stroke-linejoin:miter;stroke-miterlimit:4;stroke-dasharray:none;stroke-opacity:1"
         d="m -44.888484,62.860237 c 0,0 1.350758,1.821668 1.833172,3.187919 0.482414,1.366251 0.964827,2.368169 1.447241,3.73442 0.482414,1.366251 0.385931,2.186002 0.67538,3.916586 0.289448,1.730585 0.578896,3.643337 0.09642,5.829338 -0.482414,2.186002 -0.67538,2.914669 -1.061311,5.100671 -0.385931,2.186002 -2.701517,7.377756 -3.569862,8.28859 -0.868344,0.910834 -2.894482,3.825503 -2.894482,3.825503 l 3.087448,4.280916"
         id="path935" />
      <path
         style="fill:none;stroke:#000000;stroke-width:3.86335;stroke-linecap:butt;stroke-linejoin:miter;stroke-miterlimit:4;stroke-dasharray:none;stroke-opacity:1"
         d="m -29.065313,160.95706 c 0,1.09302 -1.447241,4.09874 -1.929655,5.73826 -0.482414,1.63952 -1.350759,4.09875 -1.350759,4.09875 0,0 3.666345,3.1879 4.631173,4.28094 0.964827,1.09296 1.350758,1.45731 2.605034,2.73248 1.254276,1.27519 1.833172,1.36625 2.315586,2.64142 0.482414,1.27519 0.675379,2.36817 0.675379,2.36817"
         id="path937" />
      <path
         style="fill:none;stroke:#000000;stroke-width:3.86335;stroke-linecap:butt;stroke-linejoin:miter;stroke-miterlimit:4;stroke-dasharray:none;stroke-opacity:1"
         d="m -8.2250383,223.53138 c 0,0 0.67538,2.09488 0.868345,3.82547 0.193045,1.7306 0.09642,-2.0038 0.193045,4.9185 0.09642,6.92236 0,8.65296 0,8.65296"
         id="path939" />
      <path
         style="fill:#ffd42a;stroke:#000000;stroke-width:2.263;stroke-linecap:butt;stroke-linejoin:miter;stroke-miterlimit:4;stroke-dasharray:none;stroke-opacity:1"
         d="m -71.421242,45.28114 c 0.378138,8.379035 -2.956651,13.545039 -5.494924,19.400296 3.534473,11.357911 8.706629,21.363009 6.414721,37.533694 6.035749,10.64456 3.811973,26.0681 2.117988,41.18511 7.593967,8.49951 12.673794,18.18575 8.019978,32.46646 6.336072,7.02934 13.572934,13.15512 7.94934,32.18048 4.418226,3.33782 9.456184,4.981 6.65731,28.05369 4.938215,1.80793 8.99395,6.55157 8.586965,26.14096 14.324041,4.57423 24.869389,17.9128 28.6553777,41.89838 l 3.569862,-1.8217 c -3.88935,-15.50062 -6.7896577,-34.01218 -24.8925507,-46.36144 -1.873412,-6.25397 -2.591953,-13.28667 -0.87409,-21.96228 -9.695254,-5.97514 -7.939976,-17.12016 -6.072668,-28.31576 -7.816535,-9.21838 -12.723059,-21.41284 -17.515368,-33.72413 1.641062,-26.4131 -6.150581,-20.76882 -9.294154,-30.92116 5.021875,-16.21157 0.722856,-27.87178 -1.243102,-40.6712 2.580481,-11.790601 -1.777068,-23.843189 -5.394108,-35.867813 1.411098,-4.216788 2.785375,-8.120799 4.694871,-16.572168 z"
         id="path941"
         sodipodi:nodetypes="ccccccccccccccccccc" />
      <path
         style="fill:none;stroke:#000000;stroke-width:3.86335;stroke-linecap:butt;stroke-linejoin:miter;stroke-miterlimit:4;stroke-dasharray:none;stroke-opacity:1"
         d="m 82.051689,80.279296 3.95696,-1.416926 c 0,0 3.00184,0.901675 4.22988,0.901675 1.22801,0 3.54761,-0.128752 3.54761,-0.128752"
         id="path943" />
      <path
         style="fill:none;stroke:#000000;stroke-width:3.86335;stroke-linecap:butt;stroke-linejoin:miter;stroke-miterlimit:4;stroke-dasharray:none;stroke-opacity:1"
         d="m 194.62066,43.181605 10.5064,-6.054128 c 0,0 2.59253,0.128751 7.36816,-1.030483 4.77569,-1.15931 18.28391,-5.925339 18.28391,-5.925339 0,0 3.13828,-0.901675 4.09343,-2.189793 0.95514,-1.288099 3.54763,-8.372729 3.54763,-8.372729"
         id="path945" />
      <path
         style="fill:none;stroke:#000000;stroke-width:3.86335;stroke-linecap:butt;stroke-linejoin:miter;stroke-miterlimit:4;stroke-dasharray:none;stroke-opacity:1"
         d="m 239.64825,25.405645 c 2.04669,-0.386443 9.41485,-1.545753 9.96064,-2.060985 0.54576,-0.515251 3.41113,-2.96266 4.36628,-3.993162 0.95514,-1.030483 3.00184,-4.379586 3.13828,-5.667704 0.13639,-1.288099 1.91031,-10.9489645 1.91031,-10.9489645"
         id="path947" />
      <path
         style="fill:none;stroke:#000000;stroke-width:3.86335;stroke-linecap:butt;stroke-linejoin:miter;stroke-miterlimit:4;stroke-dasharray:none;stroke-opacity:1"
         d="m 262.98799,7.754777 c 1.44724,-0.8197507 4.63119,-2.459252 5.69248,-3.6433363 1.06131,-1.1840842 5.21007,-5.9204213 5.21007,-5.9204213 l 0.0964,-0.4554171 -0.0964,0.1822419"
         id="path949" />
      <path
         style="fill:#ffd42a;stroke:#000000;stroke-width:2.263;stroke-linecap:butt;stroke-linejoin:miter;stroke-miterlimit:4;stroke-dasharray:none;stroke-opacity:1"
         d="m 230.85925,31.345379 c 1.09298,6.489444 -1.5244,11.102435 -5.49954,15.028762 9.13562,8.807744 11.62308,18.835853 1.15782,31.241608 6.20304,11.710608 13.45247,23.213241 2.89448,38.255031 4.8809,11.51126 8.54404,23.15705 -3.37694,36.52446 3.52887,12.85881 2.79283,25.20722 -6.56079,36.52443 9.77238,15.10513 -2.4395,27.04139 -12.87821,30.65929 9.44871,6.06796 15.18092,13.00582 2.84397,24.17292 2.28807,9.7761 2.51708,18.34886 -2.798,23.68166 -6.43554,6.05676 -13.07231,3.94544 -19.68244,2.91469 l -19.62841,13.96827 -21.62687,3.60674 -1.70559,7.79312 c 11.49508,-9.63322 30.58089,-5.56686 47.893,-4.70166 3.04243,-20.66465 16.93005,-16.60296 29.19966,-16.2302 -7.23336,-15.53825 -5.29967,-26.04989 17.73815,-24.98942 -13.50526,-6.92641 -21.39863,-15.21601 -4.09343,-29.62662 -8.6206,-8.58229 -9.38371,-18.81301 0,-31.17237 -8.49756,-15.50683 -0.31652,-26.32036 9.82421,-36.58244 -11.32847,-12.8686 -2.43275,-27.29578 3.27474,-41.47726 -12.5923,-8.8632 -4.75151,-23.493412 -0.54579,-37.097665 -16.25696,-12.686982 -0.9732,-23.320468 1.63738,-34.779071 -7.29326,-0.348006 -11.07084,-4.214123 -9.2784,-13.654009 z"
         id="path951"
         sodipodi:nodetypes="cccccccccccccccccccccccc" />
      <path
         style="fill:none;stroke:#000000;stroke-width:3.86335;stroke-linecap:butt;stroke-linejoin:miter;stroke-miterlimit:4;stroke-dasharray:none;stroke-opacity:1"
         d="m 20.526823,-5.5434002 c 0.660409,1.4150866 5.659719,6.5580052 7.525655,6.5580052"
         id="path953" />
      <path
         style="fill:none;stroke:#000000;stroke-width:3.86335;stroke-linecap:butt;stroke-linejoin:miter;stroke-miterlimit:4;stroke-dasharray:none;stroke-opacity:1"
         d="m 28.052478,1.014605 c -1.029143,0.06081 -2.103236,-0.10810643 -3.087448,0.1822419 -0.118292,0.034909 0.04592,2.2377839 0,2.3681685 -0.101791,0.2880398 -0.452195,0.4495988 -0.578897,0.7286672 -0.172766,0.3805684 -0.200281,1.0191845 -0.385931,1.4573345 -0.345652,0.8157717 -1.543724,2.0571378 -1.543724,2.9146688"
         id="path955" />
      <path
         style="fill:none;stroke:#000000;stroke-width:3.86335;stroke-linecap:butt;stroke-linejoin:miter;stroke-miterlimit:4;stroke-dasharray:none;stroke-opacity:1"
         d="m 23.85694,7.3720502 c 0.63176,0.6311277 1.397697,1.1262397 2.046714,1.7389557 0.251178,0.237121 0.436032,0.531129 0.682239,0.772867 0.323405,0.3175251 0.700827,0.5833431 1.023357,0.9016751 0.562932,0.555584 0.919578,1.25456 1.50092,1.803369 0.420862,0.397309 1.000156,0.63154 1.50092,0.901675 0.375195,0.202399 1.148429,0.708453 1.637364,0.708453"
         id="path957" />
      <path
         style="fill:none;stroke:#000000;stroke-width:3.86335;stroke-linecap:butt;stroke-linejoin:miter;stroke-miterlimit:4;stroke-dasharray:none;stroke-opacity:1"
         d="m 29.11017,12.975341 c -0.157856,1.256887 0.245094,2.54752 0.06819,3.79994 -0.149108,1.055032 -0.448775,2.327648 0.955146,2.769439"
         id="path959" />
      <path
         style="fill:none;stroke:#000000;stroke-width:3.86335;stroke-linecap:butt;stroke-linejoin:miter;stroke-miterlimit:4;stroke-dasharray:none;stroke-opacity:1"
         d="m 32.657785,-11.756441 c 1.074531,1.642992 2.596684,2.9021881 4.025198,4.2507781 0.299508,0.2827283 0.108749,0.1948355 0.341119,0.4508375 0.249785,0.2751083 0.513289,0.3874376 0.818682,0.5796455 0.228791,0.1439542 0.04513,0.1287518 0.204675,0.1287518"
         id="path961" />
      <path
         style="fill:none;stroke:#000000;stroke-width:3.86335;stroke-linecap:butt;stroke-linejoin:miter;stroke-miterlimit:4;stroke-dasharray:none;stroke-opacity:1"
         d="m 34.499824,-9.2446184 c 0.0998,0.6600122 0.160639,0.3844159 -0.341119,1.0948965 -0.55315,0.7832835 -1.217217,1.4834977 -2.114926,1.9321581 -0.16223,0.08108 -1.773808,0.5185917 -1.773808,0.7084724"
         id="path963" />
      <path
         style="fill:none;stroke:#000000;stroke-width:3.86335;stroke-linecap:butt;stroke-linejoin:miter;stroke-miterlimit:4;stroke-dasharray:none;stroke-opacity:1"
         d="m 41.936193,-15.556381 c -0.159247,0.472309 -0.303524,0.949309 -0.477562,1.416926 -0.170977,0.459171 -1.049462,2.367005 -0.818682,2.833852 0.167796,0.339221 0.752895,0.971268 1.091589,1.223704 0.239944,0.1788638 1.364456,0.7808626 1.364456,1.0948967"
         id="path965" />
      <path
         style="fill:none;stroke:#000000;stroke-width:3.86335;stroke-linecap:butt;stroke-linejoin:miter;stroke-miterlimit:4;stroke-dasharray:none;stroke-opacity:1"
         d="m 49.440794,-9.3734264 c 0.124654,0.4803978 0.08847,0.7532539 -0.204675,1.2237045 -0.574185,0.9214945 -1.610266,1.5645775 -2.319602,2.3830144 -0.243961,0.2814896 -0.177339,0.3347733 -0.341119,0.6440402 -0.07873,0.148834 -0.455595,0.7447518 -0.545775,0.9660884 -0.281913,0.6919561 -0.267579,1.4116332 -0.409351,2.1253983 -0.06998,0.3525095 -0.272887,0.7312948 -0.272887,1.09489647"
         id="path967" />
      <path
         style="fill:none;stroke:#000000;stroke-width:3.86335;stroke-linecap:butt;stroke-linejoin:miter;stroke-miterlimit:4;stroke-dasharray:none;stroke-opacity:1"
         d="m 45.347385,-3.0616824 c -0.09106,0.04298 -0.181912,0.08596 -0.272888,0.1287517 -0.204675,0.1503355 -0.382114,0.3413798 -0.614026,0.4508563 -1.182644,0.5582307 -3.053153,0.8060121 -4.366297,1.2880992 -1.251652,0.45952727 -2.99528,2.01331297 -3.479403,3.1558814 -0.231614,0.546613 -0.404162,1.3638862 -0.545795,1.9321768 -0.06441,0.2584982 -0.115707,0.5209378 -0.204675,0.772867 -0.07754,0.219441 -0.409351,0.7303564 -0.409351,1.0305019"
         id="path969" />
      <path
         style="fill:none;stroke:#000000;stroke-width:3.86335;stroke-linecap:butt;stroke-linejoin:miter;stroke-miterlimit:4;stroke-dasharray:none;stroke-opacity:1"
         d="m 52.920197,-2.224402 c 0.598519,1.36925397 0.800392,2.84481267 0.886914,4.3151725 0.09105,1.5486244 -0.295035,3.0705787 1.023357,4.3151913"
         id="path971" />
      <path
         style="fill:none;stroke:#000000;stroke-width:3.86335;stroke-linecap:butt;stroke-linejoin:miter;stroke-miterlimit:4;stroke-dasharray:none;stroke-opacity:1"
         d="m 10.962684,6.7923859 c 0.409312,0.096658 0.660509,0.142265 1.09157,0.3864429 0.741702,0.4201135 2.001107,1.7816351 2.387834,2.5118221"
         id="path973" />
      <path
         style="fill:none;stroke:#000000;stroke-width:3.86335;stroke-linecap:butt;stroke-linejoin:miter;stroke-miterlimit:4;stroke-dasharray:none;stroke-opacity:1"
         d="m 7.1421617,14.971912 c 1.187058,0.0304 2.479963,0.625741 3.6840793,0.386443 0.239666,-0.04767 0.454143,-0.173421 0.682238,-0.257635 0.765739,-0.282859 1.526268,-0.53918 2.114927,-1.094896"
         id="path975" />
      <path
         style="fill:none;stroke:#000000;stroke-width:3.86335;stroke-linecap:butt;stroke-linejoin:miter;stroke-miterlimit:4;stroke-dasharray:none;stroke-opacity:1"
         d="m 10.007559,24.632778 c 0.762816,-0.126312 2.776826,-0.81808 3.342959,-1.352531 0.17058,-0.161034 0.193841,-0.901675 0.409331,-0.901675"
         id="path977" />
      <path
         style="fill:none;stroke:#000000;stroke-width:3.86335;stroke-linecap:butt;stroke-linejoin:miter;stroke-miterlimit:4;stroke-dasharray:none;stroke-opacity:1"
         d="m 16.693458,33.198728 c 0.893991,-0.591788 1.666489,-1.288455 2.456065,-1.996571 0.359013,-0.321992 0.505695,-0.338771 0.750451,-0.708473 0.279806,-0.422628 0.236147,-1.307824 0.341119,-1.80335 0.13201,-0.622982 0.231674,-1.24784 0.341119,-1.867763 0.170778,-0.966971 0.08867,0.03247 0.272887,-0.837281 0.171176,-0.808095 0.203542,-1.612737 -0.136384,-2.383014 -0.162627,-0.368556 -0.377501,-0.653499 -0.614006,-0.966088 -0.309807,-0.409435 -0.503408,-0.911961 -0.75047,-1.352513 -0.821068,-1.464147 -1.510245,-2.614411 -1.910251,-4.250778 -0.08131,-0.332802 -0.136385,-0.391473 -0.136385,-0.708453"
         id="path979" />
      <path
         style="fill:none;stroke:#000000;stroke-width:3.86335;stroke-linecap:butt;stroke-linejoin:miter;stroke-miterlimit:4;stroke-dasharray:none;stroke-opacity:1"
         d="m 21.128006,24.310748 c 0.321557,-0.911979 1.094691,-1.629854 1.910252,-2.189793 0.909061,-0.624145 1.842039,-1.007585 1.842039,-2.189792"
         id="path981" />
      <path
         style="fill:none;stroke:#000000;stroke-width:3.86335;stroke-linecap:butt;stroke-linejoin:miter;stroke-miterlimit:4;stroke-dasharray:none;stroke-opacity:1"
         d="m 22.628927,30.751319 c 1.310181,-0.420564 2.522329,-0.202024 3.820522,0.06438 0.15706,0.03228 0.318375,0.04298 0.477563,0.06438 0.295631,0.04298 0.595238,0.06625 0.886893,0.128752 0.440406,0.09441 0.734387,0.262871 1.159821,0.386424 0.856039,0.248663 1.845817,0.249545 2.728933,0.322029 0.156862,0.01314 1.230419,0.204295 1.500921,0 0.265094,-0.200203 0.204675,-0.628462 0.204675,-0.901675"
         id="path983" />
      <path
         style="fill:none;stroke:#000000;stroke-width:3.86335;stroke-linecap:butt;stroke-linejoin:miter;stroke-miterlimit:4;stroke-dasharray:none;stroke-opacity:1"
         d="m 28.837263,30.815714 c 0.28907,-0.816035 1.153936,-1.347408 1.50092,-2.12538 0.386905,-0.867479 0.59007,-2.328886 0.477563,-3.284689 -0.08569,-0.727748 -0.793294,-1.320569 -1.228013,-1.867764"
         id="path985" />
      <path
         style="fill:none;stroke:#000000;stroke-width:3.86335;stroke-linecap:butt;stroke-linejoin:miter;stroke-miterlimit:4;stroke-dasharray:none;stroke-opacity:1"
         d="m 42.345544,22.636188 c -0.131016,2.225978 0.06342,1.034499 -1.364476,4.379586 -0.500545,1.172579 -1.345987,2.278323 -1.569132,3.542324 -0.178731,1.012277 0.251595,2.002746 0.477563,2.96266 0.04473,0.189768 0.01193,0.39273 0.06819,0.579645 0.207677,0.686194 0.573508,1.321507 0.818701,1.996591 0.433666,1.194125 0.169387,0.79766 0.750451,1.80335 0.517503,0.89565 1.221412,1.614483 1.910251,2.383014 0.473308,0.528051 0.826157,1.234271 1.228033,1.80335 0.3074,0.435297 0.705041,0.815941 0.955125,1.288118 0.291138,0.549691 0.411637,1.101372 0.614007,1.674542 0.224854,0.636814 0.514163,1.272221 0.614026,1.932177 0.08489,0.56114 -0.06819,1.137651 -0.06819,1.674542"
         id="path987" />
      <path
         style="fill:none;stroke:#000000;stroke-width:3.86335;stroke-linecap:butt;stroke-linejoin:miter;stroke-miterlimit:4;stroke-dasharray:none;stroke-opacity:1"
         d="m 47.939874,29.26998 c 0.292629,2.686519 0.02664,5.771737 -1.569132,8.115113 -0.318693,0.46801 -0.763572,0.880053 -1.159801,1.288118 -0.126841,0.130628 -1.423961,1.416926 -1.432708,1.416926"
         id="path989" />
      <path
         style="fill:none;stroke:#000000;stroke-width:3.86335;stroke-linecap:butt;stroke-linejoin:miter;stroke-miterlimit:4;stroke-dasharray:none;stroke-opacity:1"
         d="m 22.970046,41.249446 c 0.04553,-0.257634 0.04592,-0.526061 0.136384,-0.772866 0.614762,-1.676588 2.863846,-3.745963 4.775648,-4.12197 0.991627,-0.195024 2.061049,-0.128752 3.070052,-0.128752"
         id="path991" />
      <path
         style="fill:none;stroke:#000000;stroke-width:3.86335;stroke-linecap:butt;stroke-linejoin:miter;stroke-miterlimit:4;stroke-dasharray:none;stroke-opacity:1"
         d="m 54.966912,44.598531 c 0.255114,-1.010927 0.330105,-1.979849 0.409351,-3.027074 0.09284,-1.226163 0.461976,-2.699451 0.136384,-3.928729 -0.228294,-0.862018 -0.770192,-1.862659 -1.228033,-2.64065 -0.635796,-1.080388 -1.996435,-2.928764 -1.296244,-4.250759"
         id="path993" />
      <path
         style="fill:none;stroke:#000000;stroke-width:3.86335;stroke-linecap:butt;stroke-linejoin:miter;stroke-miterlimit:4;stroke-dasharray:none;stroke-opacity:1"
         d="m 50.054821,20.832838 c 0.842121,1.37785 2.289084,1.85791 3.684058,2.576217 0.623291,0.320959 1.242308,0.668139 1.84204,1.030501 0.537007,0.324451 1.249126,0.696836 1.637363,1.223705 0.977373,1.32633 0.523588,0.855786 1.228033,2.12538 0.07614,0.137197 0.208294,0.24414 0.272888,0.386442 0.235153,0.517954 0.343047,1.080126 0.545794,1.610148 1.249365,3.266146 1.538853,6.733209 2.637997,10.010053"
         id="path995" />
      <path
         style="fill:none;stroke:#000000;stroke-width:3.86335;stroke-linecap:butt;stroke-linejoin:miter;stroke-miterlimit:4;stroke-dasharray:none;stroke-opacity:1"
         d="m 60.49303,7.3076368 c 0.157458,1.8502901 -0.315572,3.6893942 -0.204675,5.5388962 0.08986,1.499319 0.313186,1.280085 1.023357,2.576217 0.251117,0.458345 0.424301,0.939343 0.614006,1.416926 0.03261,0.08239 0.370643,0.46893 0.272888,0.579664 -0.360444,0.408327 -0.861586,0.691318 -1.228013,1.094897 -1.488077,1.638919 -2.638077,4.359053 -2.865397,6.504965 -0.04553,0.429648 -0.204675,0.860047 -0.204675,1.288118"
         id="path997" />
      <path
         style="fill:none;stroke:#000000;stroke-width:3.86335;stroke-linecap:butt;stroke-linejoin:miter;stroke-miterlimit:4;stroke-dasharray:none;stroke-opacity:1"
         d="M 60.288355,18.771853 C 59.169508,19.26963 57.567493,18.495355 56.808951,17.676956 56.418448,17.255641 56.177768,16.728961 55.853826,16.26003 55.480619,15.719817 54.625793,14.50439 54.625793,13.812621"
         id="path999" />
      <path
         style="fill:none;stroke:#000000;stroke-width:3.86335;stroke-linecap:butt;stroke-linejoin:miter;stroke-miterlimit:4;stroke-dasharray:none;stroke-opacity:1"
         d="m 58.719203,-4.9294459 c 0.483626,1.3962807 1.028248,3.0868134 0.614026,4.57280737 -0.03837,0.1373852 -0.38776,0.8970767 -0.477563,1.0948965"
         id="path1001" />
      <path
         style="fill:none;stroke:#000000;stroke-width:3.86335;stroke-linecap:butt;stroke-linejoin:miter;stroke-miterlimit:4;stroke-dasharray:none;stroke-opacity:1"
         d="m 71.477019,0.02978557 c 0.21177,0.5993524 0.33897,1.36272263 0.20467,1.99659033 -0.11273,0.5320674 -1.15338,1.3641114 -1.637363,1.6101286 -0.816277,0.4149522 -1.915977,0.6494643 -2.59249,1.2881179"
         id="path1003" />
      <path
         style="fill:none;stroke:#000000;stroke-width:3.86335;stroke-linecap:butt;stroke-linejoin:miter;stroke-miterlimit:4;stroke-dasharray:none;stroke-opacity:1"
         d="m 66.223803,21.992129 c -0.25227,0.27218 -0.623609,0.638728 -0.818682,0.966088 -0.399291,0.670128 -0.263821,0.687208 -0.409331,1.545734 -0.306148,1.806316 -0.353902,2.890814 0.477563,4.572807 0.176544,0.357146 0.342153,0.748881 0.545775,1.094897 0.101592,0.172482 0.545795,0.570637 0.545795,0.772867"
         id="path1005" />
      <path
         style="fill:none;stroke:#000000;stroke-width:3.86335;stroke-linecap:butt;stroke-linejoin:miter;stroke-miterlimit:4;stroke-dasharray:none;stroke-opacity:1"
         d="m 80.960119,4.7958144 c 0.38929,0.4900073 0.64275,0.8171794 1.1598,1.3525313 0.36836,0.3813942 0.72516,0.7817633 1.15978,1.0948777 2.95401,2.1282135 7.49792,1.9227175 9.68776,5.0236636 0.0724,0.102476 0.37812,0.87767 0.40935,0.96607 0.48345,1.369198 0.55256,2.615405 0.40933,4.057556 -0.0199,0.196806 -0.27289,0.838876 -0.27289,1.094897"
         id="path1007" />
      <path
         style="fill:none;stroke:#000000;stroke-width:3.86335;stroke-linecap:butt;stroke-linejoin:miter;stroke-miterlimit:4;stroke-dasharray:none;stroke-opacity:1"
         d="m 100.67674,7.4364449 c 0.0821,0.465139 0.17217,0.845107 0.0682,1.352531 -0.1839,0.896645 -0.796001,1.5986801 -1.228011,2.3829961 -0.59922,1.087839 -1.1213,2.02463 -2.04672,2.898265 -0.61337,0.579045 -2.03747,1.679385 -2.3196,2.318601 -0.3472,0.786681 -0.20468,1.745656 -0.20468,2.576236"
         id="path1009" />
      <path
         style="fill:none;stroke:#000000;stroke-width:3.86335;stroke-linecap:butt;stroke-linejoin:miter;stroke-miterlimit:4;stroke-dasharray:none;stroke-opacity:1"
         d="m 72.773279,13.812621 c -0.18509,1.700049 -0.23951,3.429751 0.54579,5.023645 0.25337,0.514275 0.5817,0.992758 0.8869,1.481321 0.61269,0.980765 0.87051,1.304033 1.63736,2.254206 0.2908,0.360298 0.47094,0.662809 0.47756,0.644059 0.11989,-0.339522 -0.15666,-1.72578 -0.0682,-2.254206 0.10478,-0.626943 0.5323,-1.043584 0.88692,-1.545734 0.5246,-0.742875 0.93681,-1.441607 1.70557,-1.996572 1.09032,-0.787131 0.0276,0.06325 1.02336,-0.515251 0.82359,-0.478465 0.0954,-0.22327 0.61401,-0.386443"
         id="path1011" />
      <path
         style="fill:none;stroke:#000000;stroke-width:3.86335;stroke-linecap:butt;stroke-linejoin:miter;stroke-miterlimit:4;stroke-dasharray:none;stroke-opacity:1"
         d="m 76.593799,23.215852 c 0.14911,1.542881 0.0255,3.052411 -0.27291,4.572789 -0.0431,0.220398 -0.15805,0.42428 -0.20465,0.644058 -0.305,1.439618 0.13698,0.07902 -0.20468,0.966089 -0.073,0.189186 -0.33215,1.094896 -0.61402,1.094896"
         id="path1013" />
      <path
         style="fill:none;stroke:#000000;stroke-width:3.86335;stroke-linecap:butt;stroke-linejoin:miter;stroke-miterlimit:4;stroke-dasharray:none;stroke-opacity:1"
         d="m 91.125419,20.510808 c -1.5803,1.468408 -3.95178,1.130932 -5.799,2.060985 -1.41856,0.714215 -2.54158,2.313477 -3.00184,3.735527 -0.11472,0.354424 -0.14215,0.729024 -0.20466,1.094896 -0.0549,0.320735 -0.19682,0.646237 -0.13638,0.966089 0.0612,0.325089 0.13042,0.648826 0.19582,0.973239"
         id="path1015" />
      <path
         style="fill:none;stroke:#000000;stroke-width:3.86335;stroke-linecap:butt;stroke-linejoin:miter;stroke-miterlimit:4;stroke-dasharray:none;stroke-opacity:1"
         d="m 98.152459,20.188779 c 2.070111,0.620035 4.849721,1.029 6.344801,2.705043 0.51021,0.57197 0.34853,1.880301 0.40933,2.511823 0.0704,0.730506 0.13638,1.396262 0.13638,2.125379"
         id="path1017" />
      <path
         style="fill:none;stroke:#000000;stroke-width:3.86335;stroke-linecap:butt;stroke-linejoin:miter;stroke-miterlimit:4;stroke-dasharray:none;stroke-opacity:1"
         d="m 109.40935,10.849942 c 0.20078,2.989969 0.004,6.031306 -1.70558,8.630383 -0.39955,0.607667 -0.92846,1.544045 -1.50092,2.060966 -0.5111,0.461517 -1.11397,0.622419 -1.70559,0.901694"
         id="path1019" />
      <path
         style="fill:none;stroke:#000000;stroke-width:3.86335;stroke-linecap:butt;stroke-linejoin:miter;stroke-miterlimit:4;stroke-dasharray:none;stroke-opacity:1"
         d="m 112.95699,12.46009 c 2.35272,0.961828 5.28038,1.159047 6.34479,3.671132 0.12665,0.299001 0.3411,0.638579 0.3411,0.966089"
         id="path1021" />
      <path
         style="fill:none;stroke:#000000;stroke-width:3.86335;stroke-linecap:butt;stroke-linejoin:miter;stroke-miterlimit:4;stroke-dasharray:none;stroke-opacity:1"
         d="m 118.96067,8.7245629 c 1.26672,1.018058 2.80561,1.5543861 4.29808,2.1897931 1.33503,0.568384 2.63911,1.20137 3.95697,1.803369 0.62832,0.287007 1.39684,0.545787 1.91027,1.030483 0.57319,0.541132 1.07367,1.357974 1.5009,1.996571 0.40456,0.604702 0.78403,1.254354 1.02336,1.932177 0.0964,0.273288 0.21938,1.716096 0.40935,1.932177 0.21447,0.243971 0.4509,0.469981 0.67637,0.704981"
         id="path1023" />
      <path
         style="fill:none;stroke:#000000;stroke-width:3.86335;stroke-linecap:butt;stroke-linejoin:miter;stroke-miterlimit:4;stroke-dasharray:none;stroke-opacity:1"
         d="m 127.76151,5.1178439 c 0.15965,0.9650186 0.70981,3.528999 0.13639,4.379586 -0.0863,0.128001 -0.22742,0.214692 -0.34112,0.322029 -0.0819,0.07733 -0.15269,0.1932221 -0.27289,0.1932221"
         id="path1025" />
      <path
         style="fill:none;stroke:#000000;stroke-width:3.86335;stroke-linecap:butt;stroke-linejoin:miter;stroke-miterlimit:4;stroke-dasharray:none;stroke-opacity:1"
         d="m 134.85676,5.3110653 c -0.20346,2.0274832 -0.75071,4.3311066 1.22803,5.7320987"
         id="path1027" />
      <path
         style="fill:none;stroke:#000000;stroke-width:3.86335;stroke-linecap:butt;stroke-linejoin:miter;stroke-miterlimit:4;stroke-dasharray:none;stroke-opacity:1"
         d="m 139.49597,3.7009179 c 0.98232,2.1170839 1.15912,4.368494 1.29624,6.6337921 0.0519,0.85817 0.20875,1.851116 0,2.705044 -0.17356,0.710068 -0.95513,2.652455 -0.95513,3.413498"
         id="path1029" />
      <path
         style="fill:none;stroke:#000000;stroke-width:3.86335;stroke-linecap:butt;stroke-linejoin:miter;stroke-miterlimit:4;stroke-dasharray:none;stroke-opacity:1"
         d="m 148.50149,-0.16341713 c 1.51674,2.47552423 0.037,4.47140133 -1.7056,6.37615743 -0.18927,0.2068099 -0.32456,0.5796456 -0.61401,0.5796456"
         id="path1031" />
      <path
         style="fill:none;stroke:#000000;stroke-width:3.86335;stroke-linecap:butt;stroke-linejoin:miter;stroke-miterlimit:4;stroke-dasharray:none;stroke-opacity:1"
         d="m 154.09582,-1.0650921 c 0.2729,0.30055827 0.53094,0.61372907 0.81868,0.90167497 1.8444,1.84563553 2.91309,2.57053023 4.29808,4.63720203 0.82133,1.2255626 0.75047,3.0620203 0.75047,4.443999 0,0.364953 0.0404,0.731933 0,1.0948971 -0.0219,0.195736 -0.36456,1.610147 -0.47756,1.610147"
         id="path1033" />
      <path
         style="fill:none;stroke:#000000;stroke-width:3.86335;stroke-linecap:butt;stroke-linejoin:miter;stroke-miterlimit:4;stroke-dasharray:none;stroke-opacity:1"
         d="m 164.87514,-4.4786084 c 0.50999,0.4814677 1.11203,0.9845004 1.43271,1.6101474 0.59095,1.1529661 0.17436,2.90402727 -0.34112,3.9931618 -0.26742,0.5650062 -0.74289,1.1497568 -1.1598,1.6745421"
         id="path1035" />
      <path
         style="fill:#ffd42a;stroke:#000000;stroke-width:2.563;stroke-linecap:butt;stroke-linejoin:miter;stroke-miterlimit:4;stroke-dasharray:none;stroke-opacity:1"
         d="m 243.87808,-41.189856 c -7.30484,5.93994 -8.24638,12.586608 -9.55132,19.192904 -8.6902,-1.095535 -16.46151,4.401714 -23.33242,16.3590525 -13.6398,0.6521107 -26.19321,3.0756649 -31.92868,16.6166685 -10.5759,-0.136447 -19.30517,4.603419 -25.51562,12.365891 -9.76219,-0.0351 -12.06708,2.097208 -15.55499,5.023645 -13.3527,-2.488475 -20.00762,2.011586 -26.60722,6.569379 -9.07926,-1.343842 -18.154461,-2.705908 -28.653901,2.318601 -6.59187,1.748339 -10.94602,0.961696 -15.827887,0.772867 L 7.7744987,30.928456 C 1.4864397,27.323276 0.56375973,29.908802 -2.8184843,29.656423 -9.3849983,21.425884 -17.407102,19.836907 -26.150969,21.541291 -31.815081,15.593674 -37.158472,9.3735579 -49.892784,9.4330349 -51.803035,6.3181253 -53.713306,5.1209031 -55.623558,5.4398733 -56.932824,0.77301717 -58.621899,-4.2101441 -62.991715,-7.9565192 l -9.551296,0.2576348 c 4.903344,4.5100643 8.864108,9.7121974 10.506442,16.6166683 3.564176,1.078268 7.009006,2.3537361 9.141944,5.7965121 11.173829,-1.033054 18.300212,4.756983 24.424054,12.237083 9.319184,-0.886717 18.5515477,-0.708022 27.1530067,7.213438 l 5.123149,1.689256 7.8393383,0.629345 56.079801,7.59988 c 4.640415,-0.961696 9.514975,-0.34502 14.135785,-1.485731 9.84188,-2.429598 19.497771,-5.998423 30.073121,-1.734563 9.84852,-7.728914 18.48689,-10.561734 25.78853,-7.986305 5.66246,-2.769983 10.92577,-7.675199 17.60169,-5.023645 7.27356,-6.958862 14.06203,-15.474738 24.83338,-11.206581 6.52387,-10.0615914 15.05418,-18.3512323 32.74734,-18.5488456 6.68238,-8.5065664 12.23039,-16.9449104 25.24274,-16.4878604 5.01495,-8.042892 7.89814,-20.357732 17.87455,-22.155546 -3.03816,-2.59095 -9.20542,-5.052285 -12.14378,-0.644077 z"
         id="path1041"
         sodipodi:nodetypes="cccccccccccccccccccccccscccccccc" />
      <path
         style="fill:#ffaaaa;stroke:none;stroke-width:0.264583px;stroke-linecap:butt;stroke-linejoin:miter;stroke-opacity:1"
         d="m 100.12033,-214.17019 c 7.0032,0.61824 13.87615,1.20391 19.85779,1.56676 l -0.9706,15.49294 1.5099,11.94193 c 0,0 0,8.09855 -0.27453,9.19666 -0.27453,1.09811 -2.19622,14.00088 -2.19622,14.6872 0,0.68632 -3.84338,9.47119 -3.84338,9.47119 l -1.64716,5.35328 -1.64717,20.17774 2.33721,13.12488 c 0,0 -1.97252,1.26307 -3.854,2.46513 -2.1266,1.35866 -6.34053,2.50809 -7.57591,3.19441 -1.23537,0.68632 -6.049351,0.96774 -7.559251,1.24227 -1.5099,0.27453 -5.91328,-0.81294 -5.91328,-0.81294 9.435117,-6.48777 13.190261,-12.1017 15.976581,-17.56658 l 4.66696,-28.13904 3.70612,-16.74615 1.5099,-22.37396 c -0.4839,0.67747 -1.7052,-6.34668 -2.35013,-7.1182 -1.65809,-1.98355 -11.73283,-15.15752 -11.73283,-15.15752 z"
         id="path1043"
         sodipodi:nodetypes="ccccssccccssscccccsc" />
      <path
         style="fill:#ffffff;stroke:none;stroke-width:0.264583px;stroke-linecap:butt;stroke-linejoin:miter;stroke-opacity:1"
         d="m 82.746549,82.634223 c 1.8948,-2.886627 7.15524,-1.145505 11.84132,-0.194119 l 1.65002,27.856216 6.114781,4.56182 -16.597261,8.15304 -11.45308,25.91502 -13.1031,-0.87354 -2.426499,-14.94724 5.24124,2.23238 10.676599,-1.84414 7.47362,-8.54128 4.16393,-13.90912 -0.96095,-24.332517 z"
         id="path1045"
         sodipodi:nodetypes="cccccccccccccc" />
    </g>
    <path
       style="fill:#aad400;stroke:#000000;stroke-width:1.665;stroke-linecap:butt;stroke-linejoin:miter;stroke-miterlimit:4;stroke-dasharray:none;stroke-opacity:1"
       d="m 95.672185,-56.820246 c -7.44464,0.61812 -9.31776,3.44265 -9.31776,10.09423 0,0.84372 -0.0817,2.40101 0.38824,3.10591 0.47781,0.71673 2.67272,2.94653 3.49416,3.49417 0.34051,0.22701 0.83733,0.14269 1.16472,0.38825 1.19182,0.89387 -0.07,0.76245 1.9412,1.16472 1.76811,0.35362 4.0282,-0.70869 5.43536,-1.55297 0.51765,-0.25882 1.03531,-0.51766 1.552965,-0.77647 0.12941,-0.25885 0.15674,-0.60286 0.38824,-0.7765 0.42687,-0.32015 1.17566,-0.0109 1.55296,-0.38823 0.12941,-0.1294 0.25883,-1.03531 0.38824,-1.16472 0.18302,-0.18301 0.59346,0.18301 0.77648,0 0.3046,-0.30459 0,-3.94748 0,-4.27064 0,-1.87685 0.066,-3.75044 -0.77648,-5.43536 -0.22062,-0.44125 -6.083445,-3.42995 -6.988325,-3.88239 z"
       id="path1083" />
  </g>
</svg>
