<?xml version="1.0" encoding="UTF-8" standalone="no"?>
<svg
   xmlns:dc="http://purl.org/dc/elements/1.1/"
   xmlns:cc="http://creativecommons.org/ns#"
   xmlns:rdf="http://www.w3.org/1999/02/22-rdf-syntax-ns#"
   xmlns:svg="http://www.w3.org/2000/svg"
   xmlns="http://www.w3.org/2000/svg"
   xmlns:xlink="http://www.w3.org/1999/xlink"
   xmlns:sodipodi="http://sodipodi.sourceforge.net/DTD/sodipodi-0.dtd"
   xmlns:inkscape="http://www.inkscape.org/namespaces/inkscape"
   width="500mm"
   height="600mm"
   viewBox="0 0 500 600"
   version="1.1"
   id="svg1531"
   inkscape:version="1.0.2 (e86c870879, 2021-01-15, custom)"
   sodipodi:docname="endocrine_system.svg">
  <defs
     id="defs1525">
    <linearGradient
       inkscape:collect="always"
       xlink:href="#linearGradient971"
       id="linearGradient973"
       x1="-60.813747"
       y1="366.87314"
       x2="-0.38121188"
       y2="366.87314"
       gradientUnits="userSpaceOnUse"
       gradientTransform="matrix(1.553409,0,0,1.561705,-212.35732,-520.69398)" />
    <linearGradient
       inkscape:collect="always"
       id="linearGradient971">
      <stop
         style="stop-color:#de8787;stop-opacity:1;"
         offset="0"
         id="stop967" />
      <stop
         style="stop-color:#de8787;stop-opacity:0;"
         offset="1"
         id="stop969" />
    </linearGradient>
    <rect
       x="99.029762"
       y="-109.99107"
       width="12.095238"
       height="16.252977"
       id="rect1098" />
    <rect
       x="99.029762"
       y="-109.99107"
       width="12.095238"
       height="16.252977"
       id="rect1445" />
    <rect
       x="99.029762"
       y="-109.99107"
       width="12.095238"
       height="16.252977"
       id="rect1098-7" />
    <rect
       x="99.029762"
       y="-109.99107"
       width="12.095238"
       height="16.252977"
       id="rect1448" />
    <rect
       x="99.029762"
       y="-109.99107"
       width="12.095238"
       height="16.252977"
       id="rect1098-6" />
    <rect
       x="99.029762"
       y="-109.99107"
       width="12.095238"
       height="16.252977"
       id="rect1451" />
    <rect
       x="99.029762"
       y="-109.99107"
       width="12.095238"
       height="16.252977"
       id="rect1098-73" />
    <rect
       x="99.029762"
       y="-109.99107"
       width="12.095238"
       height="16.252977"
       id="rect1454" />
    <rect
       x="99.029762"
       y="-109.99107"
       width="12.095238"
       height="16.252977"
       id="rect1098-9" />
    <rect
       x="99.029762"
       y="-109.99107"
       width="12.095238"
       height="16.252977"
       id="rect1457" />
    <rect
       x="99.029762"
       y="-109.99107"
       width="12.095238"
       height="16.252977"
       id="rect1098-95" />
    <rect
       x="99.029762"
       y="-109.99107"
       width="12.095238"
       height="16.252977"
       id="rect1460" />
  </defs>
  <sodipodi:namedview
     id="base"
     pagecolor="#ffffff"
     bordercolor="#666666"
     borderopacity="1.0"
     inkscape:pageopacity="0.0"
     inkscape:pageshadow="2"
     inkscape:zoom="0.13403013"
     inkscape:cx="-1569.9809"
     inkscape:cy="1695.0753"
     inkscape:document-units="mm"
     inkscape:current-layer="layer1"
     inkscape:document-rotation="0"
     showgrid="false"
     inkscape:window-width="1920"
     inkscape:window-height="1017"
     inkscape:window-x="-8"
     inkscape:window-y="-8"
     inkscape:window-maximized="1" />
  <metadata
     id="metadata1528">
    <rdf:RDF>
      <cc:Work
         rdf:about="">
        <dc:format>image/svg+xml</dc:format>
        <dc:type
           rdf:resource="http://purl.org/dc/dcmitype/StillImage" />
        <dc:title></dc:title>
      </cc:Work>
    </rdf:RDF>
  </metadata>
  <g
     inkscape:label="Layer 1"
     inkscape:groupmode="layer"
     id="layer1">
    <g
       id="g2447"
       transform="matrix(0.4894826,0,0,0.47149193,378.82417,471.46759)">
      <rect
         style="fill:#ffe6d5;fill-rule:evenodd;stroke-width:0.188652"
         id="rect965"
         width="969.91119"
         height="1248.8492"
         x="-753.97083"
         y="-986.79456" />
      <ellipse
         style="font-variation-settings:normal;vector-effect:none;fill:#ffffff;fill-opacity:1;fill-rule:evenodd;stroke-width:0.188652;stroke-linecap:butt;stroke-linejoin:miter;stroke-miterlimit:4;stroke-dasharray:none;stroke-dashoffset:0;stroke-opacity:1;stop-color:#000000"
         id="path1195"
         cx="-40.321907"
         cy="-683.61328"
         rx="28.77043"
         ry="33.056087" />
      <path
         id="path847"
         style="fill:none;stroke:#000000;stroke-width:1.82889;stroke-linecap:butt;stroke-linejoin:miter;stroke-miterlimit:4;stroke-dasharray:none;stroke-opacity:1"
         d="m -390.05389,-716.03538 c -3.34806,23.93473 -3.77689,48.45932 1.41042,72.16177 4.11043,28.61262 15.42182,76.02897 13.39467,85.70806 3.53749,12.20258 18.24068,16.66396 27.97644,8.5556 17.28691,-12.85499 36.53793,-38.73068 51.87926,-27.01512"
         sodipodi:nodetypes="ccccc" />
      <path
         style="fill:none;stroke:#000000;stroke-width:1.82889;stroke-linecap:butt;stroke-linejoin:miter;stroke-miterlimit:4;stroke-dasharray:none;stroke-opacity:1"
         d="m -260.93325,-661.35648 6.22768,-4.17396 8.71876,2.08698 4.15179,12.93928 -1.66072,10.0175 -3.73661,8.34793 -6.64286,11.26969 -3.32143,8.34793 -3.73661,4.59136 -2.90625,0.83479"
         id="path849" />
      <path
         style="fill:none;stroke:#000000;stroke-width:1.82889;stroke-linecap:butt;stroke-linejoin:miter;stroke-miterlimit:4;stroke-dasharray:none;stroke-opacity:1"
         d="m -269.23683,-614.60811 c 0,-2.08699 -0.83035,-2.08699 -0.83035,-2.08699"
         id="path851" />
      <path
         id="path853"
         style="fill:none;stroke:#000000;stroke-width:1.82889;stroke-linecap:butt;stroke-linejoin:miter;stroke-miterlimit:4;stroke-dasharray:none;stroke-opacity:1"
         d="m -387.56281,-724.38331 c -6.64892,12.60482 -39.66055,24.84573 -25.64846,0.69204 -0.0993,-25.52632 8.95357,-51.00866 29.0551,-67.47109 19.99208,-16.15799 47.76914,-10.92144 71.43203,-9.01728 24.50674,1.69934 48.92744,16.9082 73.39704,8.78398 28.71701,-16.92476 33.70392,28.4423 26.55609,47.25508 -11.60077,26.60426 8.40141,61.46862 -12.88144,81.94793 -5.2551,4.09323 -11.12756,7.32603 -16.18257,11.68844" />
      <path
         id="path855"
         style="fill:none;stroke:#000000;stroke-width:1.82889;stroke-linecap:butt;stroke-linejoin:miter;stroke-miterlimit:4;stroke-dasharray:none;stroke-opacity:1"
         d="m -353.51814,-738.99218 c 9.00934,8.23668 71.41288,3.83147 71.51127,18.09215 3.42953,11.08236 7.07183,22.76569 18.40503,22.82535 13.21632,0.22602 -13.91891,22.30843 -2.97795,26.67146 20.59298,7.95976 8.05702,3.59783 11.87422,5.87278"
         sodipodi:nodetypes="ccccc" />
      <path
         id="path857"
         style="fill:none;stroke:#000000;stroke-width:1.82889;stroke-linecap:butt;stroke-linejoin:miter;stroke-miterlimit:4;stroke-dasharray:none;stroke-opacity:1"
         d="m -253.87521,-620.86906 c 6.53939,31.42231 -1.66331,74.72884 32.00209,92.47703 37.50986,20.52981 86.18031,33.44911 102.70325,78.07838 16.44969,46.26217 34.286528,93.59891 32.614946,143.60922 0.249541,58.8008 -4.467948,118.15337 8.617833,176.07824 14.788423,56.193193 3.748121,114.120127 2.565823,171.114676 -0.685511,38.663521 3.793753,77.752074 16.620888,114.236984 -1.631813,29.50542 -8.91665,66.06165 -34.318788,84.03185 -16.086082,14.51029 -29.253892,0.0156 -13.232662,-15.3157 7.323378,-18.91754 13.868882,-46.01915 -5.16702,-60.44069" />
      <path
         style="fill:none;stroke:#000000;stroke-width:1.82889;stroke-linecap:butt;stroke-linejoin:miter;stroke-miterlimit:4;stroke-dasharray:none;stroke-opacity:1"
         d="m -111.46885,163.00093 c -0.41518,6.26094 -7.05804,21.70459 -7.47322,25.87853 -0.41518,4.174 -1.66072,8.76532 -2.0759,10.43491 -0.41517,1.66962 -1.66071,7.51314 -4.98214,9.60011 -3.32143,2.08699 -2.90625,1.66962 -5.39733,3.33919 -2.49107,1.66959 -3.73661,7.09575 -4.15179,1.66959 -0.41517,-5.42616 0,-12.93927 0,-17.94805 0,-5.00875 0.41518,2.50436 -1.24553,-10.43491 -1.66072,-12.93925 -0.41518,-21.70457 -0.41518,-30.05253 0,-8.34789 -2.90626,0.41743 0,-11.26968 2.90625,-11.6871 4.98214,-15.86105 7.8884,-22.53937 2.90625,-6.67837 5.39732,-12.10453 6.22768,-16.27848 0.83036,-4.17395 1.24553,-4.17395 1.66072,-9.182686 0.41517,-5.008794 0.41517,-10.85232 0.41517,-10.85232 l 3.73661,-15.86105 -6.64286,-36.313483 c 0,0 -4.15179,-17.530639 -5.8125,-24.2089578 -1.66072,-6.678366 -6.22768,-20.4524162 -6.22768,-20.4524162 l -7.8884,-42.991803 c 0,0 -3.32144,-18.365432 -3.32144,-22.122004 v -26.71337 c 0,-6.26092 2.49108,-17.53062 2.49108,-22.12197 0,-4.59137 0.83036,-10.85231 0.83036,-13.77407 0,-2.92178 -2.49108,-31.30472 -2.49108,-31.30472 l -8.71875,-42.5744 c 0,0 0,-2.08699 -1.66072,-12.1045 -1.66072,-10.01751 -5.8125,-18.36543 -5.8125,-22.95678 v -10.85231 -22.12198 l -8.30358,-8.34793"
         id="path859"
         sodipodi:nodetypes="csssssssssssscccsccssssccssccc" />
      <path
         id="path861"
         style="fill:none;stroke:#000000;stroke-width:1.82889;stroke-linecap:butt;stroke-linejoin:miter;stroke-miterlimit:4;stroke-dasharray:none;stroke-opacity:1"
         d="m -336.91098,-551.1639 c 0.99063,17.8311 -10.09533,23.4193 -23.76296,29.25591 -16.57319,7.07739 -37.33298,12.16408 -49.97216,9.65324 -23.10576,19.41506 -33.07619,28.02554 -78.50522,59.50217 -19.57449,28.30356 -37.38501,61.86895 -27.05765,97.27549 6.91676,53.05578 6.5104,106.93401 4.66039,160.38781 -7.71358,42.3042 -15.91345,84.51228 -18.28956,127.555427 -6.46248,43.917441 2.91686,87.480592 5.73873,131.199665 1.45992,29.26543 0.74672,59.934478 -11.48175,86.863408 -2.12497,34.70981 21.50712,67.02163 49.788,84.92912 26.38083,10.74507 -7.4249,-30.29106 -2.80284,-42.97504 -6.85271,-13.87751 5.93989,-53.61076 13.91418,-22.18272 1.12182,13.68311 19.0883,43.91744 28.55131,30.04693 -16.10116,-31.53069 -5.06114,-73.56141 -32.45045,-99.81729 -11.99547,-39.48484 4.40465,-80.635126 16.61999,-118.01883 24.59907,-58.748297 8.2692,-122.54099 13.17825,-183.74025 4.05757,-28.20608 15.45266,-55.27244 11.78257,-84.40359 -0.19965,-7.12066 -0.54035,-14.23618 -0.7993,-21.35469"
         sodipodi:nodetypes="cscccccccccccccccc" />
      <path
         style="fill:none;stroke:#000000;stroke-width:1.82889;stroke-linecap:butt;stroke-linejoin:miter;stroke-miterlimit:4;stroke-dasharray:none;stroke-opacity:1"
         d="m -436.13873,-291.54349 5.39732,50.50493 c 0,0 4.15179,28.80034 4.56697,30.46993 0.41517,1.66957 0.83035,7.51313 2.90624,18.78283 2.0759,11.26968 7.05804,17.53062 6.2277,27.13073 -0.83036,9.60011 -2.0759,24.20899 -2.0759,24.20899 l 3.7366,40.487437 c 0,0 -1.24554,22.956798 -2.0759,24.626369 -0.83034,1.669588 -12.45535,30.469911 -14.53125,36.313437 -2.0759,5.843572 -6.64286,29.6351636 -6.64286,31.3047356 0,1.6695876 -3.73662,34.2264834 -3.73662,34.2264834 0,0 -2.49106,19.20021 -2.49106,23.374163 0,4.174 2.07588,39.235262 2.07588,39.235262 l 5.81252,109.775183 -3.7366,60.52245"
         id="path863"
         sodipodi:nodetypes="ccsssccssscsccc" />
      <path
         id="path865"
         style="fill:none;stroke:#000000;stroke-width:1.82889;stroke-linecap:butt;stroke-linejoin:miter;stroke-miterlimit:4;stroke-dasharray:none;stroke-opacity:1"
         d="m -162.53585,-242.70815 c -7.83843,63.75111 -11.3216,123.9131 -5.96944,188.51599 12.55082,32.967499 16.69542,71.214482 16.3388,106.646664 4.27243,53.394706 8.9021,105.754316 4.99225,159.721096 l 8.30358,44.73946"
         sodipodi:nodetypes="ccccc" />
      <path
         style="fill:none;stroke:#000000;stroke-width:1.82889;stroke-linecap:butt;stroke-linejoin:miter;stroke-miterlimit:4;stroke-dasharray:none;stroke-opacity:1"
         d="m -306.49913,-676.69579 -3.01005,3.96526 -3.01004,2.08698 -1.14175,1.66959 c 0,0 0.1038,-0.52175 -0.62277,2.08698 -0.72656,2.60872 -0.72656,2.92177 -0.72656,2.92177 0,0 1.9721,3.33917 2.69866,3.86092 0.72657,0.52174 -1.45312,0.31304 0.93416,0.52174 2.38727,0.2087 3.21763,0.10435 3.21763,0.10435 0,0 1.66072,-0.93914 2.0759,-2.08698 0.41518,-1.14784 0.51897,-1.25219 0.72656,-1.87828 0.20759,-0.6261 0.72656,-2.92177 0.72656,-3.33917 0,-0.41739 0,-1.87828 0,-1.87828 0,0 0,-0.52175 0,-2.19133 0,-1.66959 -0.20759,-2.19133 0,-3.13047 0.20759,-0.93915 0.20759,-1.35654 0.20759,-1.35654 0,0 0.72657,-0.73045 0,-0.93914 -0.72656,-0.2087 -1.55692,-0.31305 -1.55692,-0.31305"
         id="path867" />
      <path
         style="fill:none;stroke:#000000;stroke-width:1.82889;stroke-linecap:butt;stroke-linejoin:miter;stroke-miterlimit:4;stroke-dasharray:none;stroke-opacity:1"
         d="m -298.09176,-696.52211 -2.90625,0.31304 -0.72657,0.52175 c 0,0 -1.55692,1.0435 -1.55692,1.87828 0,0.83479 0.31139,1.0435 0.31139,1.77394 0,0.73044 0.20759,0.4174 0,1.77394 -0.20759,1.35653 -0.1038,1.25219 -0.51897,2.19132 -0.41519,0.93915 -0.62277,1.46088 -0.62277,2.08699 0,0.62608 -0.1038,0.83479 0,1.77392 0.1038,0.93915 -1.9721,1.66959 0.83035,1.77394 2.80246,0.10432 3.32143,0.20869 3.63282,-0.2087 0.31138,-0.41739 0.51897,-0.83478 1.24553,-1.77393 0.72657,-0.93915 -0.10378,-0.83479 1.34934,-1.87828 1.45312,-1.0435 2.17969,-1.56523 2.17969,-1.56523 0,0 0.20759,-0.62611 1.14174,-1.66959 0.93415,-1.0435 1.86831,-3.44353 1.86831,-3.44353 l -1.14175,-1.56523 -1.66071,-0.20869 c 0,0 -1.9721,-0.8348 -2.28349,-1.35655 -0.31138,-0.52175 -1.14174,-0.41739 -1.14174,-0.41739 z"
         id="path869" />
      <path
         style="fill:none;stroke:#000000;stroke-width:1.82889;stroke-linecap:butt;stroke-linejoin:miter;stroke-miterlimit:4;stroke-dasharray:none;stroke-opacity:1"
         d="m -298.81832,-512.76345 -3.21764,2.19133 -5.08594,0.31304 -5.08594,0.6261 -5.39733,-0.6261 c 0,0 0.51898,0.31305 -1.9721,-1.14784 -2.49107,-1.46088 -5.08594,-2.92177 -5.08594,-2.92177 0,0 -0.20759,-3.23482 -0.62277,-3.44352 -0.41518,-0.2087 -1.55692,-1.98263 -3.21763,-1.46088 -1.66072,0.52174 -2.90625,0.73044 -3.11384,1.14784 -0.2076,0.41739 -1.55692,1.04349 -1.55692,2.50437 0,1.46089 -0.83037,1.56524 0.20759,3.65222 1.03794,2.08698 0.83035,0.93914 1.7645,3.02612 0.93416,2.08698 1.45313,2.40003 1.86831,4.06961 0.41518,1.66959 0.51897,1.77394 0.51897,2.50438 0,0.73044 -0.1038,-0.31305 0,2.19133 0.1038,2.50438 0.1038,1.77393 0.72657,3.86091 0.62277,2.08699 0,2.29568 1.14174,4.27832 1.14174,1.98263 2.17969,2.50437 3.42523,4.06961 1.24553,1.56523 1.8683,2.08698 3.7366,4.27831 1.86831,2.19133 1.03795,1.98263 3.01005,3.02612 1.9721,1.04349 2.28348,0.2087 3.42522,1.77393 1.14175,1.56524 3.32144,3.33917 4.56697,3.75657 1.24554,0.4174 3.01005,0.73044 3.52902,0.73044 0.51898,0 1.24554,1.87829 1.9721,-1.25218 0.72657,-3.13048 0.93416,-0.31305 1.03795,-3.86092 0.1038,-3.54787 -0.20759,-0.4174 0.20759,-4.38266 0.41518,-3.96526 -0.31138,-3.86091 0.62277,-5.84355 0.93415,-1.98263 -1.34933,-2.92177 2.38728,-3.54786 3.73661,-0.6261 3.42522,-2.40003 4.77455,-0.2087 1.34934,2.19133 3.11385,4.9044 3.73661,5.5305 0.62277,0.62609 1.03795,1.56523 4.25559,2.08698 3.21764,0.52174 4.67076,0.62609 4.98215,0.2087 0.31138,-0.4174 0.51897,-1.25219 1.14174,-2.60873 0.62277,-1.35654 0.41518,-1.77393 0.93415,-3.23482 0.51897,-1.46089 0.72656,-3.13047 0.83036,-4.69571 0.10378,-1.56523 0.10378,-3.13047 0.10378,-3.96526 0,-0.83479 -0.10378,-0.62609 0,-2.71307 0.1038,-2.08698 1.34934,-3.86092 0.83036,-5.00876 -0.51897,-1.14784 -2.17969,-2.71307 -2.28348,-3.44352 -0.1038,-0.73044 -0.31139,0.31305 -0.1038,-1.66958 0.20759,-1.98263 0.31139,-2.40003 0.31139,-2.40003 l 1.03794,-13.66972 c 0,0 -1.03794,-3.23482 -1.76451,-5.3218 -0.72656,-2.08699 -1.14174,-3.54787 -1.34933,-3.96527 -0.20759,-0.41739 -3.84041,-2.40003 -4.46317,-2.40003 -0.62277,0 -3.42523,0.8348 -4.04799,1.66959 -0.62277,0.83479 -2.1797,2.19133 -2.28349,3.13047 -0.1038,0.93914 -0.93415,3.75657 -1.03795,5.21745 -0.10379,1.46089 -0.41518,2.81743 -0.72656,4.80006 -0.31139,1.98263 -0.83036,1.87828 -0.93415,4.59136"
         id="path871" />
      <path
         style="fill:none;stroke:#000000;stroke-width:1.82889;stroke-linecap:butt;stroke-linejoin:miter;stroke-miterlimit:4;stroke-dasharray:none;stroke-opacity:1"
         d="m -298.81832,-512.76345 c 0,0 2.17969,-2.40003 2.49107,-2.81743 0.31138,-0.41739 0.83036,-1.66958 0.83036,-1.66958 l 0.41517,-4.06961"
         id="path873" />
      <path
         style="fill:none;stroke:#000000;stroke-width:1.82889;stroke-linecap:butt;stroke-linejoin:miter;stroke-miterlimit:4;stroke-dasharray:none;stroke-opacity:1"
         d="m -314.28374,-509.42428 0.72657,4.6957 c 0,0 1.55692,4.17396 3.11384,5.5305 1.55692,1.35654 4.04799,5.1131 4.04799,5.1131 l 2.28349,4.17397 2.49107,2.29568 -0.31138,-0.10436"
         id="path875" />
      <path
         style="fill:#d4aa00;stroke:#000000;stroke-width:1.82889;stroke-linecap:butt;stroke-linejoin:miter;stroke-miterlimit:4;stroke-dasharray:none;stroke-opacity:1"
         d="m -337.42061,-198.24955 c 0,0 -0.58716,-3.39414 -0.88073,-4.42715 -0.29358,-1.033 -2.49539,-4.86986 -2.49539,-4.86986 0,0 -0.73394,-0.73786 -1.46788,-0.73786 -0.73394,0 -5.28437,-1.18057 -5.43115,0.73786 -0.1468,1.91843 -0.1468,3.39414 -0.1468,3.39414 l -0.29357,0.88544 c 0,0 -0.44037,0.29514 -1.76146,0.88543 -1.32109,0.59029 -2.20182,0.59029 -2.20182,0.59029 0,0 -2.64218,1.62329 -3.22933,2.21358 -0.58715,0.59028 -1.76146,0.59028 -2.05503,1.47572 -0.29358,0.88542 -3.08255,2.06599 -3.52291,2.80385 -0.44037,0.73786 -2.64218,2.36116 -3.08255,3.54173 -0.44036,1.18057 -1.46788,3.099 -2.05503,4.27959 -0.58715,1.18057 -0.88073,3.54171 -0.88073,4.57471 0,1.03301 3.52291,5.01745 4.11006,5.3126 0.58715,0.29514 -0.73393,0.29514 1.76146,0.44271 2.49539,0.14758 1.90824,0.88542 2.78897,0 0.88073,-0.88543 3.6697,-3.24658 3.6697,-3.24658 0,0 1.76145,0.14758 2.20181,1.18057 0.44037,1.033 -1.90824,1.32815 1.76146,2.80387 3.6697,1.47571 5.28436,0.59029 5.28436,0.59029 0,0 1.76146,-4.42717 2.78898,-3.24658 1.02751,1.18057 1.90824,3.099 2.64218,5.01743 0.73394,1.91844 1.02751,6.19802 1.76145,7.3786 0.73394,1.18057 1.76146,3.39415 3.6697,2.21358 1.90824,-1.18057 2.20182,-0.29515 3.22934,-3.24658 1.02751,-2.95144 1.46787,-2.50873 1.46787,-5.16501 0,-2.65631 0.1468,-4.42716 -0.29357,-6.3456 -0.44037,-1.91843 -0.58715,-3.54172 -1.3211,-4.7223 -0.73393,-1.18057 -1.02751,-2.36114 -1.90824,-3.54171 -0.88072,-1.18059 -1.61467,-1.03301 -1.61467,-2.80387 0,-1.77087 0.1468,-2.06602 0.44037,-2.65629 0.29358,-0.5903 -0.14678,-2.50873 -0.14678,-2.50873 l -1.02752,-0.44271 z"
         id="path877" />
      <path
         style="fill:#de8787;stroke:#000000;stroke-width:1.82889;stroke-linecap:butt;stroke-linejoin:miter;stroke-miterlimit:4;stroke-dasharray:none;stroke-opacity:1"
         d="m -363.98922,-177.58948 -7.77975,5.7553 c 0,0 -4.69722,4.13201 -5.13759,4.7223 -0.44036,0.59028 -2.49539,0.59028 -3.6697,3.68929 -1.1743,3.099 -2.20182,6.49315 -3.6697,8.85431 -1.46787,2.36116 -4.99079,9.00188 -4.99079,9.00188 0,0 -0.44036,0.59028 -0.88072,2.95144 -0.44036,2.36114 -2.05504,10.33002 -2.05504,10.33002 l 3.52292,21.9882 8.22013,15.052353 c 0,0 4.25683,5.017415 5.13757,5.607708 0.88072,0.590309 10.71552,3.984425 10.71552,3.984425 0,0 0,0.442743 6.0183,-0.590262 6.0183,-1.033006 7.63297,-0.737859 8.80728,-1.770849 1.1743,-1.033005 2.93575,-2.361157 3.96327,-4.574765 1.02751,-2.213561 3.37612,-3.836859 3.37612,-7.378572 0,-3.541708 -0.44036,-6.050468 -0.73394,-8.264028 -0.29358,-2.21358 0.29358,-7.08344 -0.29358,-8.55916 -0.58715,-1.47573 -2.05503,-5.01744 -2.05503,-5.01744 l -1.76145,-0.73786 -6.1651,2.21357 -0.73393,4.57472 0.58715,-4.72228 c 0,0 0.73394,-4.27959 0.73394,-4.86988 0,-0.59028 -0.14679,-3.6893 -0.14679,-4.42715 0,-0.73786 0,-6.49317 0,-6.49317 l 1.90825,-4.7223 8.07333,-7.08344 c 0,0 3.52291,-1.77086 4.11006,-3.24658 0.58715,-1.47572 1.32109,-5.01745 1.32109,-5.01745 l 0.29358,-8.55915 -2.12842,-4.42716 -1.68807,-2.28736 -4.25685,-4.2058 -4.11006,0.14758 -3.00915,-1.91843 -3.08255,-0.5165 -3.00915,1.18057 -4.25685,-0.44271 z"
         id="path879" />
      <path
         style="fill:#d4aa00;stroke:#000000;stroke-width:1.82889;stroke-linecap:butt;stroke-linejoin:miter;stroke-miterlimit:4;stroke-dasharray:none;stroke-opacity:1"
         d="m -233.22006,-189.90753 -7.68081,6.15659 -3.11384,2.29569 c 0,0 -1.76451,0 -2.17969,0 -0.41518,0 -0.31138,-1.25219 -1.9721,0.52173 -1.66071,1.77394 -1.66071,1.98264 -2.38728,3.02614 -0.72656,1.04348 -1.45312,1.77392 -2.38728,2.50436 -0.93415,0.73046 -1.55692,1.14784 -1.55692,1.14784 0,0 -0.51897,0.52175 -1.34933,0 -0.83035,-0.52174 -7.57701,0.2087 -7.57701,0.2087 0,0 -0.72657,-0.10432 -2.28349,1.04349 -1.55692,1.14784 -1.9721,1.66959 -2.59487,2.29569 -0.62276,0.62609 -1.03794,1.98263 -2.49107,2.50437 -1.45312,0.52175 -1.14174,0.52175 -2.59486,0.52175 -1.45313,0 -2.59487,0.10432 -3.9442,0 -1.34934,-0.10433 -2.90626,0.10432 -3.32144,0.41739 -0.41518,0.31305 0.51898,0.10432 -0.83035,1.14784 -1.34933,1.0435 1.66071,-0.52175 -1.9721,1.0435 -3.63282,1.56523 -3.63282,1.04348 -4.35938,2.40003 -0.72656,1.35653 1.66071,1.66957 -3.21764,2.08697 -4.87835,0.41739 -6.95424,0.2087 -7.7846,0 -0.83036,-0.20869 -2.49108,-1.14784 -3.52902,0.31304 -1.03795,1.4609 -1.34933,1.77394 -1.55693,2.40003 -0.20758,0.6261 3.42523,-0.20869 -0.62276,1.0435 -4.048,1.25219 -5.50112,1.25219 -5.50112,1.25219 l -3.73661,-0.31304 -6.22769,8.24357 -2.80245,1.46088 -3.32305,5.1936 0.29358,3.24658 c 0,0 0.58715,4.27959 0.58715,5.01745 0,0.73786 0.73394,2.36116 -0.88073,4.42715 -1.61466,2.06601 -2.05503,1.18059 -2.3486,3.6893 -0.29358,2.50872 -1.32109,0.44272 -0.29358,3.24658 1.02752,2.80387 0.88073,2.21357 1.32109,4.13202 0.44037,1.91843 0.73394,2.80385 0.73394,2.80385 l 2.05503,4.57474 1.17431,6.78831 c 0,0 -0.29358,0.88542 0,1.91843 0.29357,1.033 1.76145,1.328134 1.76145,1.328134 0,0 -0.44036,1.475717 3.22933,1.475717 3.6697,0 2.20182,0.590293 4.55043,-0.442712 2.34861,-1.033005 3.22933,-1.180571 3.22933,-1.180571 0,0 0.29358,-0.295148 2.64219,0 2.3486,0.295147 0.58715,0.737859 4.55042,0 3.96328,-0.737858 4.40364,-1.033008 4.844,-1.770868 0.44037,-0.73785 0.58715,-1.62328 1.46788,-1.91843 0.88073,-0.29514 0.73394,0.44272 3.37612,-1.47571 2.64218,-1.91843 2.78897,-1.77087 2.93576,-2.36116 0.14678,-0.59028 1.32109,-2.36114 1.76146,-3.54171 0.44036,-1.18059 -0.73394,-7.08346 -0.73394,-7.08346 0,0 0.44036,-0.59028 -0.58715,-1.62328 -1.02752,-1.03301 -3.6697,-2.36116 -3.6697,-2.36116 0,0 -0.58715,-0.14758 -2.05503,0 -1.46788,0.14758 -3.22934,0.14758 -3.81649,0.44273 -0.58715,0.29513 -3.08255,2.06599 -3.81648,2.36114 -0.73394,0.29515 -4.69722,0.88542 -4.69722,0.88542 l 3.52291,-0.73786 2.34861,-0.73785 6.60545,-3.6893 8.36691,-1.91843 2.20182,-3.68929 c 0,0 -1.1743,-0.29515 1.90825,-0.88544 3.08254,-0.59028 2.64218,2.21359 5.87151,-1.47572 3.22934,-3.68929 4.69722,-5.16501 4.69722,-5.16501 0,0 2.20181,-3.099 3.37612,-3.54171 1.1743,-0.44273 1.90824,-0.5903 4.11006,-0.88544 2.20182,-0.29515 5.13757,-1.77087 5.13757,-1.77087 0,0 0.29358,-0.14758 1.02752,-1.62328 0.73394,-1.47572 4.25685,-7.96888 4.25685,-7.96888 0,0 1.46788,-2.21358 3.22933,-1.91843 1.76146,0.29513 2.34861,0.29513 2.34861,0.29513 l 7.48618,-6.64073 3.52291,-6.49316 c 0,0 -0.58715,-1.62328 1.61467,-3.6893 2.20182,-2.06599 4.25685,-4.27957 4.25685,-4.27957 l 0.88073,-4.7223 c 0,0 0.58715,-1.033 0.73394,-2.36115 0.14678,-1.32814 -2.22068,-7.59575 -2.22068,-7.59575 z"
         id="path881" />
      <path
         style="fill:#d4aa00;stroke:#000000;stroke-width:1.82889;stroke-linecap:butt;stroke-linejoin:miter;stroke-miterlimit:4;stroke-dasharray:none;stroke-opacity:1"
         d="m -260.79733,-210.498 -2.49539,5.90287 0.29357,3.39415 -2.93575,2.36114 -2.64219,2.50872 c 0,0 -2.05502,2.65631 -1.61466,-0.73785 0.44036,-3.39415 2.64218,-8.4116 2.64218,-8.4116 0,0 0,-0.14758 -0.58715,-2.5087 -0.58716,-2.36116 -1.02752,-2.2136 -1.02752,-3.54173 0,-1.32815 0.58715,-5.60774 0.58715,-5.60774 0,0 -3.81648,-1.77087 1.02752,-0.73786 4.844,1.033 5.13758,1.18059 6.31188,0.73786 1.1743,-0.44271 2.3486,-1.47572 5.72473,-2.50871 3.37612,-1.033 1.1743,-2.50872 3.81648,-1.033 2.64218,1.47571 3.81649,2.36114 3.81649,2.36114 0,0 0.44036,0.59029 1.46788,1.91843 1.02751,1.32815 2.49539,3.98444 2.49539,3.98444 l 1.46788,3.39416 -0.29358,2.36114 -0.88072,1.03301 -5.87152,-0.44271 -3.52291,0.59027 c 0,0 -0.88073,0 -2.34861,2.36116 -1.46788,2.36114 -3.37612,6.05044 -3.37612,6.05044 l -0.14679,5.16502 -0.58715,3.54172 -0.88073,4.13202 -0.29358,1.033 -2.64218,2.066 c 0,0 -1.46788,1.6233 -2.34861,0 -0.88072,-1.62329 -1.61466,-1.47572 -2.05503,-3.98444 -0.44036,-2.50873 -1.02751,-3.39415 -1.1743,-4.27957 -0.14678,-0.88544 -0.73394,-1.6233 -0.14678,-3.39417 0.58715,-1.77086 2.78897,-3.83686 2.78897,-3.83686 l 3.52291,-4.86988 -0.14678,-3.099 z"
         id="path883" />
      <path
         style="fill:#de8787;stroke:#000000;stroke-width:1.82889;stroke-linecap:butt;stroke-linejoin:miter;stroke-miterlimit:4;stroke-dasharray:none;stroke-opacity:1"
         d="m -259.9166,-175.67105 -0.73394,-7.52616 1.90824,-13.87176 5.72473,-8.4116 9.39443,-0.14758 9.83479,2.65629 2.64218,4.13201 c 0,0 0,1.18058 2.20182,3.54172 2.20182,2.36116 3.52291,3.24659 5.57794,5.75531 2.05503,2.50872 2.05503,2.06601 3.66969,4.132 1.61467,2.06602 5.43116,6.19802 6.45867,7.37861 1.02752,1.18057 1.90825,2.95143 2.34861,3.83686 0.44036,0.88544 0.58715,2.06601 0.73394,2.95143 0.14679,0.88544 2.34861,13.57661 2.34861,13.57661 l -1.17431,16.8232 c 0,0 -2.20182,3.83686 -2.78897,5.46016 -0.58715,1.62329 -0.44036,3.83687 -2.3486,6.64074 -1.90825,2.80385 -5.72473,7.08344 -5.72473,7.08344 l -2.20182,1.32815 -10.12837,7.52617 -13.21091,-2.06601 -5.13757,-5.01744 c 0,0 -2.93576,-2.80387 -3.08255,-5.01745 -0.1468,-2.21358 0,-7.52615 0,-7.52615 0,0 0,-6.3456 0,-7.23103 0,-0.88543 1.46788,-4.57473 2.20182,-5.7553 0.73394,-1.18057 1.90824,-3.54173 2.49539,-4.7223 0.58715,-1.18057 2.93576,-6.64073 2.93576,-6.64073 l 3.96327,-3.98444 3.52291,-6.49316 5.87152,-7.96887 0.88073,-4.7223 -1.48674,-9.9569 -10.79465,8.45228 v 0 0 l -10.48327,7.20007 z"
         id="path885" />
      <path
         id="path887"
         style="fill:#d35f5f;stroke:#000000;stroke-width:1.82889;stroke-linecap:butt;stroke-linejoin:miter;stroke-miterlimit:4;stroke-dasharray:none;stroke-opacity:1"
         d="m -326.26473,53.950711 c -2.04037,-3.164343 -3.36654,-6.882184 -6.33892,-9.324207 -2.04956,-2.049144 -4.30301,-3.942415 -5.25733,-6.798024 -1.76833,-5.073807 -6.78122,-7.29905 -11.12348,-9.727251 -1.56419,-0.848303 -3.42718,0.443212 -5.12544,0.555561 -3.81806,-0.8657 -6.16752,2.406384 -5.91605,6.109577 -0.1719,2.453142 0.38481,5.08449 -0.36238,7.401654 -1.13894,3.216753 3.45099,7.313855 4.95925,10.549068 3.82298,7.385927 7.99838,14.786847 13.89841,20.71308 4.9788,1.649536 6.32685,7.177159 9.10199,11.1244 2.41303,4.862915 4.61057,9.857451 6.7511,14.84827 1.91688,4.539971 2.4467,9.426481 2.16512,14.314461 -0.40041,5.64125 2.80836,10.70416 2.53209,16.34938 0,4.24076 0,8.48151 0,12.72228 2.38418,0.51064 4.64128,1.68103 7.04869,1.85789 2.65604,-3.53298 -0.0512,-9.38815 0.45248,-13.83032 -0.63132,-8.19726 -0.86345,-16.4065 -0.74892,-24.62538 -1.27421,-7.226479 -4.97112,-13.762745 -7.93114,-20.406442 -1.82743,-4.695843 -5.52925,-8.146399 -8.50911,-12.059392 -1.71033,-4.905799 -5.94783,-7.803043 -9.06071,-11.696218 -2.91037,-3.96748 -5.87419,-7.775307 -8.52001,-11.957912 -2.36832,-2.549718 -2.41409,-6.246414 -3.55674,-9.401949 0.84087,-6.29011 6.39063,-0.233022 8.6096,1.88615 2.53299,3.354995 5.67905,6.279256 8.55656,9.214043 1.54275,3.037329 7.47305,9.568005 8.31072,2.568662 z" />
      <path
         style="fill:#d35f5f;stroke:#000000;stroke-width:1.82889;stroke-linecap:butt;stroke-linejoin:miter;stroke-miterlimit:4;stroke-dasharray:none;stroke-opacity:1"
         d="m -320.98037,142.78896 -2.93576,6.19801 c 0,0 -0.88072,6.49317 -0.88072,7.67372 0,1.1806 0.88072,5.60772 1.1743,7.96887 0.29358,2.36115 0,8.26402 0.88073,9.73977 0.88073,1.4757 7.92655,8.26403 7.92655,8.26403 l 8.80727,0.2951 c 0,0 2.64218,-3.24657 2.93575,-4.72227 0.29358,-1.47575 0.58716,-1.1806 0.58716,-4.72231 0,-3.54172 0,-12.10087 0,-12.10087 l -4.40364,-9.73973 -9.98157,-7.67377 z"
         id="path889" />
      <path
         style="fill:none;stroke:#000000;stroke-width:1.82889;stroke-linecap:butt;stroke-linejoin:miter;stroke-miterlimit:4;stroke-dasharray:none;stroke-opacity:1"
         d="m -288.9806,114.45518 v 16.82315 c 0,0 0,5.9029 0,9.73976 0,3.83686 -0.29358,8.55918 0,11.51059 0.29357,2.95146 0.29357,6.49317 0.29357,7.96887 0,1.47575 0.58715,4.42717 -0.29357,7.08347 -0.88073,2.65631 -1.46788,3.54172 -2.93576,5.90286 -1.46788,2.36115 -2.93576,4.13202 -2.93576,4.13202 l -3.22933,2.6563 -7.92655,2.65626"
         id="path891" />
      <path
         style="fill:none;stroke:#000000;stroke-width:1.82889;stroke-linecap:butt;stroke-linejoin:miter;stroke-miterlimit:4;stroke-dasharray:none;stroke-opacity:1"
         d="m -273.42109,107.66685 c 0,0 -2.93576,9.14944 -2.93576,11.21545 0,2.06599 0,11.80577 0,13.28147 0,1.4757 0,7.67372 0,9.73973 0,2.06601 1.17431,11.21548 1.46788,13.57664 0.29358,2.36115 1.76146,-5.31261 0.29358,8.26401 -1.46788,13.5766 -0.58715,10.62518 -1.46788,13.5766 -0.88073,2.95145 -5.87151,8.85432 -5.87151,8.85432 l -6.1651,4.7223 -8.80727,2.65627 h -2.93576"
         id="path893" />
      <path
         style="fill:none;stroke:#000000;stroke-width:1.82889;stroke-linecap:butt;stroke-linejoin:miter;stroke-miterlimit:4;stroke-dasharray:none;stroke-opacity:1"
         d="m -306.008,182.92846 6.16509,27.44837 -3.52291,18.59405 c 0,0 0.29357,18.00376 -0.29358,20.66006 -0.58715,2.65631 -2.05503,14.16688 -2.05503,14.16688"
         id="path895" />
      <path
         style="fill:none;stroke:#000000;stroke-width:1.82889;stroke-linecap:butt;stroke-linejoin:miter;stroke-miterlimit:4;stroke-dasharray:none;stroke-opacity:1"
         d="m -288.09988,190.89737 3.22934,34.82694 2.64218,20.36492 4.11006,10.33002"
         id="path897" />
      <path
         style="fill:url(#linearGradient973);fill-opacity:1;stroke:#000000;stroke-width:1.82889;stroke-linecap:butt;stroke-linejoin:miter;stroke-miterlimit:4;stroke-dasharray:none;stroke-opacity:1"
         d="m -301.164,16.76261 -3.52291,3.394163 c 0,0 -0.14678,5.460158 -0.14678,7.968865 0,2.508708 0.58715,7.968881 0.88073,10.330039 0.29357,2.361141 0.58715,7.231006 0.58715,11.510578 0,4.279602 -0.88073,21.102804 -0.88073,21.102804 l 0.88073,17.265898 1.76145,5.460158 4.40364,2.951419 c 0,0 7.63297,0 8.36691,-1.475717 0.73394,-1.475702 2.49539,-0.737843 3.37612,-4.132006 0.88072,-3.394163 1.32109,-2.803854 1.61467,-5.312608 0.29357,-2.508707 0.14678,-3.099016 0.58715,-6.05042 0.44036,-2.951451 0.58715,-4.722315 0.58715,-6.493163 0,-1.770865 0,-2.951467 0,-4.722315 0,-1.770849 1.02751,-6.493164 1.76146,-8.116431 0.73393,-1.623299 1.46787,-3.099001 2.78896,-5.312608 1.3211,-2.213561 4.11007,-3.394163 4.40364,-5.90287 0.29358,-2.508707 0.29358,-3.541713 0.58716,-5.460158 0.29357,-1.918414 0.44036,-4.279572 0.29357,-5.607724 -0.14678,-1.328152 -1.02752,-4.722299 -1.02752,-4.722299 l -0.88072,-3.246566 1.90824,6.198017 h 9.39443 c 0,0 5.87151,-4.279603 6.45866,-4.869865 0.58715,-0.590293 3.52291,-3.541759 4.40364,-4.279602 0.88073,-0.737859 3.81648,-2.95142 4.25685,-3.541713 0.44036,-0.590309 2.78897,-3.836859 2.78897,-3.836859 l 4.25685,-2.951467 2.64218,-0.295146 c 0,0 2.64218,-1.180556 5.57794,0.295146 2.93576,1.475749 4.11006,1.623315 4.11006,1.623315 0,0 1.02752,3.24655 1.1743,3.836859 0.14679,0.590293 0.44037,2.065995 -0.29357,3.099 -0.73394,1.033006 -1.61467,2.066011 -3.37612,2.508708 -1.76146,0.442743 -3.22934,0 -4.844,0.885455 -1.61467,0.88544 -1.32109,0.442697 -2.05503,1.180555 -0.73394,0.73789 -1.46788,0.885456 -2.20182,2.656305 -0.73394,1.770864 -1.02752,2.508707 -1.02752,3.099016 0,0.590293 -1.1743,8.85432 -1.1743,8.85432 0,0 -0.29358,3.83686 0.58715,6.05042 0.88073,2.213592 1.46788,3.099001 1.76146,3.836891 0.29357,0.737859 1.61466,1.475717 1.61466,1.475717 0,0 9.98158,0.295147 10.56873,0.295147 0.58715,0 -0.44036,2.361158 3.37612,-0.737859 3.81649,-3.099 4.25685,-2.8039 5.43116,-5.607754 1.1743,-2.803854 1.46787,-2.803854 2.05503,-4.722268 0.58715,-1.918446 1.1743,-0.590294 1.32109,-3.54176 0.14678,-2.951404 0.14678,-3.24655 0.58715,-7.083425 0.44036,-3.83686 0.44036,-4.869865 0.44036,-5.755305 0,-0.885455 0.14679,-2.066011 -0.14679,-3.099016 -0.29357,-1.03299 -4.40363,-10.920316 -4.40363,-10.920316 l -6.45867,-5.0174301 -6.75224,-1.6232986 c 0,0 -3.81649,-0.4426966 -4.844,-0.4426966 -1.02752,0 -6.89904,1.9184141 -6.89904,1.9184141 0,0 -3.96327,0.8854402 -5.13757,2.0659952 -1.17431,1.180602 -5.87152,4.427168 -7.04582,5.017461 -1.17431,0.590294 -2.93576,1.180556 -4.25685,1.623299 -1.32109,0.442712 -6.60545,1.918414 -6.60545,1.918414 l -11.30267,-2.951419 -8.36692,-4.279603 -3.37612,-0.590293 h -6.16509 z"
         id="path899" />
      <path
         style="fill:none;stroke:#000000;stroke-width:1.82889;stroke-linecap:butt;stroke-linejoin:miter;stroke-miterlimit:4;stroke-dasharray:none;stroke-opacity:1"
         d="m -241.86169,34.176058 -2.422,-0.516502 c 0,0 -1.83485,-0.221341 -2.27521,0.147581 -0.44036,0.368906 -2.05503,1.844655 -2.05503,1.844655 0,0 -0.66055,0.368906 -0.66055,1.033005 0,0.664053 2.4954,0.664053 2.4954,0.664053 0,0 0.29357,-0.221341 1.76145,0 1.46788,0.221356 1.68806,0.147581 1.98164,0.221356 0.29357,0.07371 1.10091,-0.442697 1.10091,-0.442697 z"
         id="path903" />
      <path
         style="fill:none;stroke:#000000;stroke-width:1.82889;stroke-linecap:butt;stroke-linejoin:miter;stroke-miterlimit:4;stroke-dasharray:none;stroke-opacity:1"
         d="m -246.77908,37.348834 c 0,0 -1.98164,0.885487 -2.34861,1.106843 -0.36697,0.22134 -1.32109,0.959199 -1.32109,0.959199 0,0 -0.66055,1.180602 -0.66055,1.549508 0,0.368937 0.0734,1.180587 0.0734,1.475702 0,0.295147 -0.29357,1.328152 1.02752,1.549508 1.32109,0.221387 3.08254,0.442743 3.08254,0.442743 l 4.18346,0.221356 v 0 l 0.80733,-7.526168 z"
         id="path905" />
      <path
         style="fill:none;stroke:#000000;stroke-width:1.40108;stroke-linecap:butt;stroke-linejoin:miter;stroke-miterlimit:4;stroke-dasharray:none;stroke-opacity:1"
         d="m -304.42324,-675.33925 234.300307,-3.86399"
         id="path1007"
         sodipodi:nodetypes="cc" />
      <path
         style="fill:none;stroke:#000000;stroke-width:1.40108;stroke-linecap:butt;stroke-linejoin:miter;stroke-miterlimit:4;stroke-dasharray:none;stroke-opacity:1"
         d="M -281.86112,-508.28873 -46.386489,-508.611"
         id="path1007-6"
         sodipodi:nodetypes="cc" />
      <path
         style="fill:none;stroke:#000000;stroke-width:1.40108;stroke-linecap:butt;stroke-linejoin:miter;stroke-miterlimit:4;stroke-dasharray:none;stroke-opacity:1"
         d="m -242.44884,-209.02228 234.8874635,-5.63485"
         id="path1007-6-8" />
      <path
         style="fill:none;stroke:#000000;stroke-width:1.40108;stroke-linecap:butt;stroke-linejoin:miter;stroke-miterlimit:4;stroke-dasharray:none;stroke-opacity:1"
         d="m -296.02643,-123.5782 234.887464,-5.63485"
         id="path1007-6-8-0" />
      <path
         style="fill:none;stroke:#000000;stroke-width:1.40108;stroke-linecap:butt;stroke-linejoin:miter;stroke-miterlimit:4;stroke-dasharray:none;stroke-opacity:1"
         d="m -272.83393,36.389666 234.88747,-5.63485"
         id="path1007-6-8-9" />
      <path
         style="fill:none;stroke:#000000;stroke-width:1.40108;stroke-linecap:butt;stroke-linejoin:miter;stroke-miterlimit:4;stroke-dasharray:none;stroke-opacity:1"
         d="M -310.21003,160.36032 -4.6865291,154.72547"
         id="path1007-6-8-95" />
      <text
         xml:space="preserve"
         id="text1096"
         style="font-size:10.5833px;line-height:1.25;font-family:sans-serif;letter-spacing:0px;word-spacing:0px;white-space:pre;shape-inside:url(#rect1098);stroke-width:0.212087;"
         transform="matrix(3.9498846,0,0,2.8614874,-443.72697,-386.7389)"><tspan
           x="99.029297"
           y="-100.33477"><tspan
             style="stroke-width:0.212087">1</tspan></tspan></text>
      <ellipse
         style="font-variation-settings:normal;vector-effect:none;fill:#ffffff;fill-opacity:1;fill-rule:evenodd;stroke-width:0.188652;stroke-linecap:butt;stroke-linejoin:miter;stroke-miterlimit:4;stroke-dasharray:none;stroke-dashoffset:0;stroke-opacity:1;stop-color:#000000"
         id="path1195-2"
         cx="-35.037529"
         cy="-513.61053"
         rx="28.77043"
         ry="33.056087" />
      <text
         xml:space="preserve"
         id="text1096-6"
         style="font-size:10.5833px;line-height:1.25;font-family:sans-serif;letter-spacing:0px;word-spacing:0px;white-space:pre;shape-inside:url(#rect1098-7);stroke-width:0.212087;"
         transform="matrix(3.9498846,0,0,2.8614874,-438.33062,-215.45789)"><tspan
           x="99.029297"
           y="-100.33477"><tspan
             style="stroke-width:0.212087">2</tspan></tspan></text>
      <ellipse
         style="font-variation-settings:normal;vector-effect:none;fill:#ffffff;fill-opacity:1;fill-rule:evenodd;stroke-width:0.188652;stroke-linecap:butt;stroke-linejoin:miter;stroke-miterlimit:4;stroke-dasharray:none;stroke-dashoffset:0;stroke-opacity:1;stop-color:#000000"
         id="path1195-8"
         cx="9.5859909"
         cy="-213.7446"
         rx="28.77043"
         ry="33.056087" />
      <text
         xml:space="preserve"
         id="text1096-5"
         style="font-size:10.5833px;line-height:1.25;font-family:sans-serif;letter-spacing:0px;word-spacing:0px;white-space:pre;shape-inside:url(#rect1098-6);stroke-width:0.212087;"
         transform="matrix(3.9498846,0,0,2.8614874,-396.0557,84.408065)"><tspan
           x="99.029297"
           y="-100.33477"><tspan
             style="stroke-width:0.212087">3</tspan></tspan></text>
      <ellipse
         style="font-variation-settings:normal;vector-effect:none;fill:#ffffff;fill-opacity:1;fill-rule:evenodd;stroke-width:0.188652;stroke-linecap:butt;stroke-linejoin:miter;stroke-miterlimit:4;stroke-dasharray:none;stroke-dashoffset:0;stroke-opacity:1;stop-color:#000000"
         id="path1195-5"
         cx="-25.64311"
         cy="-144.09068"
         rx="28.77043"
         ry="33.056087" />
      <text
         xml:space="preserve"
         id="text1096-2"
         style="font-size:10.5833px;line-height:1.25;font-family:sans-serif;letter-spacing:0px;word-spacing:0px;white-space:pre;shape-inside:url(#rect1098-73);stroke-width:0.212087;"
         transform="matrix(3.9498846,0,0,2.8614874,-431.87195,157.0134)"><tspan
           x="99.029297"
           y="-100.33477"><tspan
             style="stroke-width:0.212087">4</tspan></tspan></text>
      <ellipse
         style="font-variation-settings:normal;vector-effect:none;fill:#ffffff;fill-opacity:1;fill-rule:evenodd;stroke-width:0.188652;stroke-linecap:butt;stroke-linejoin:miter;stroke-miterlimit:4;stroke-dasharray:none;stroke-dashoffset:0;stroke-opacity:1;stop-color:#000000"
         id="path1195-23"
         cx="-8.0285473"
         cy="24.731491"
         rx="28.77043"
         ry="33.056087" />
      <text
         xml:space="preserve"
         id="text1096-9"
         style="font-size:10.5833px;line-height:1.25;font-family:sans-serif;letter-spacing:0px;word-spacing:0px;white-space:pre;shape-inside:url(#rect1098-9);stroke-width:0.212087;"
         transform="matrix(3.9498846,0,0,2.8614874,-412.49594,321.70355)"><tspan
           x="99.029297"
           y="-100.33477"><tspan
             style="stroke-width:0.212087">5</tspan></tspan></text>
      <ellipse
         style="font-variation-settings:normal;vector-effect:none;fill:#ffffff;fill-opacity:1;fill-rule:evenodd;stroke-width:0.188652;stroke-linecap:butt;stroke-linejoin:miter;stroke-miterlimit:4;stroke-dasharray:none;stroke-dashoffset:0;stroke-opacity:1;stop-color:#000000"
         id="path1195-6"
         cx="20.154724"
         cy="162.85873"
         rx="28.77043"
         ry="33.056087" />
      <text
         xml:space="preserve"
         id="text1096-4"
         style="font-size:10.5833px;line-height:1.25;font-family:sans-serif;letter-spacing:0px;word-spacing:0px;white-space:pre;shape-inside:url(#rect1098-95);stroke-width:0.212087;"
         transform="matrix(3.9498846,0,0,2.8614874,-385.48697,459.83078)"><tspan
           x="99.029297"
           y="-100.33477"><tspan
             style="stroke-width:0.212087">6</tspan></tspan></text>
    </g>
  </g>
</svg>
