<?xml version="1.0" encoding="UTF-8" standalone="no"?>
<svg
   xmlns:dc="http://purl.org/dc/elements/1.1/"
   xmlns:cc="http://creativecommons.org/ns#"
   xmlns:rdf="http://www.w3.org/1999/02/22-rdf-syntax-ns#"
   xmlns:svg="http://www.w3.org/2000/svg"
   xmlns="http://www.w3.org/2000/svg"
   xmlns:sodipodi="http://sodipodi.sourceforge.net/DTD/sodipodi-0.dtd"
   xmlns:inkscape="http://www.inkscape.org/namespaces/inkscape"
   width="500mm"
   height="400mm"
   viewBox="0 0 500 400"
   version="1.1"
   id="svg8"
   inkscape:version="1.0.2 (e86c870879, 2021-01-15, custom)"
   sodipodi:docname="evolution.svg">
  <defs
     id="defs2" />
  <sodipodi:namedview
     id="base"
     pagecolor="#ffffff"
     bordercolor="#666666"
     borderopacity="1.0"
     inkscape:pageopacity="0.0"
     inkscape:pageshadow="2"
     inkscape:zoom="0.2409446"
     inkscape:cx="455.26454"
     inkscape:cy="442.47941"
     inkscape:document-units="mm"
     inkscape:current-layer="layer1"
     inkscape:document-rotation="0"
     showgrid="false"
     inkscape:window-width="1920"
     inkscape:window-height="1017"
     inkscape:window-x="-8"
     inkscape:window-y="-8"
     inkscape:window-maximized="1" />
  <metadata
     id="metadata5">
    <rdf:RDF>
      <cc:Work
         rdf:about="">
        <dc:format>image/svg+xml</dc:format>
        <dc:type
           rdf:resource="http://purl.org/dc/dcmitype/StillImage" />
        <dc:title></dc:title>
      </cc:Work>
    </rdf:RDF>
  </metadata>
  <g
     inkscape:label="Layer 1"
     inkscape:groupmode="layer"
     id="layer1">
    <g
       id="g1313">
      <g
         id="g1181"
         style="stroke-width:1.2;stroke-miterlimit:4;stroke-dasharray:none"
         transform="matrix(0.74155321,0,0,0.71738508,88.991021,46.131765)">
        <path
           style="fill:none;stroke:#000000;stroke-width:1.2;stroke-linecap:butt;stroke-linejoin:miter;stroke-miterlimit:4;stroke-dasharray:none;stroke-opacity:1"
           d="m -10.96778,189.84931 -3.59122,1.74708 1.9412,-0.4853 1.9412,-1.4559 -1.9412,1.35884 -1.84414,0.38824 c 0,0 -0.87354,1.65002 -0.87354,3.00886 0,1.35884 0,4.07652 0.09706,5.43536 0.09706,1.35884 0.9706,2.32944 1.4559,3.30004 0.4853,0.9706 1.16472,2.52356 1.16472,2.52356 l -1.55296,10.1913 -4.853,22.22674 -3.20298,7.7648 c 0,0 -0.67942,2.62062 -0.67942,3.00886 0,0.38824 1.74708,3.49416 1.74708,3.49416 l 1.16472,3.97946 c 0,0 2.23238,43.57993 2.23238,43.96818 0,0.38825 -0.4853,0.9706 -0.77648,1.65002 -0.29118,0.67943 0,1.55297 0,1.55297 l 0.38824,2.32942 -0.19412,1.94122 -1.06766,1.9412 c 0,0 -2.23238,5.04711 -2.4265,5.62948 -0.19412,0.58235 -1.35884,6.79419 -1.4559,8.25008 -0.09706,1.4559 0.4853,2.42652 0.4853,2.42652 l 0.9706,-1.16472 c 0,0 0.87354,-3.49417 0.9706,-3.88242 0.09706,-0.38822 1.4559,-3.68826 1.4559,-3.68826 l 2.52356,-1.84415 -2.4265,4.07652 c 0,0 -0.4853,2.62062 -0.77648,3.88241 -0.29118,1.26178 -0.29118,2.52355 -0.29118,3.68827 0,1.16472 0.77648,0.4853 1.55296,0.29117 0.77648,-0.19412 1.06766,-3.59121 1.06766,-3.59121 l 1.26178,-4.75594 2.03826,-4.46476 0.09706,3.30004 c 0,0 -0.4853,3.10591 -0.58236,3.78534 -0.09706,0.67942 -0.4853,2.81474 -0.67942,3.78534 -0.19412,0.9706 -0.29118,3.30004 -0.29118,3.97946 0,0.67943 0.58236,0.097 0.9706,0 0.38824,-0.0971 1.06766,-3.20299 1.06766,-3.20299 l 1.4559,-5.62946 0.67942,-7.47363 0.58236,1.74707 c 0,0 0.38824,3.68829 0.38824,5.82361 0,2.13532 -0.4853,4.46477 -0.77648,6.30891 -0.29118,1.84412 -0.29118,2.62062 -0.29118,2.62062 l 1.9412003,0.0971 2.23238,-9.706 -1.3588402,-8.73541 c 0,0 -0.19412,-4.75593 -0.09706,-5.24123 0.09706,-0.4853 0.4852998,-2.23237 0.3882398,-3.00885 -0.09706,-0.77649 -1.3588399,-2.71769 -1.3588399,-2.71769 0,0 0.4853,-3.78534 0.38824,-4.36769 -0.09706,-0.58237 -0.38824,-12.61782 -0.38824,-12.61782 L -13.1031,253.3266 c 0,0 0.58236,-1.35884 0.67942,-1.74708 0.09706,-0.38824 -0.9706,-2.23238 -0.9706,-2.23238 l -0.87354,-0.19412 -0.58236,-8.34716 4.17358,-13.87958 4.2706399,-18.82964 0.7764801,-2.81474 c 0,0 1.55296,-0.38824 2.4265001,-0.77648 0.8735399,-0.38824 0.7764799,-1.35884 1.0676599,-1.9412 0.29118,-0.58236 1.45589999,-4.853 1.45589999,-5.24124 0,-0.38824 -1.06765999,-3.3971 -1.06765999,-3.3971 0,0 -0.19412,-0.58236 -0.38824,-0.9706 -0.19412,-0.38824 -2.9117999,-3.8824 -3.0088599,-4.3677 -0.09706,-0.4853 -0.09706,-6.01772 -0.09706,-6.01772 l 1.9412,1.65002 2.1353199,-0.58236 0.87353999,-0.29118 0.58236002,-2.81474 c 0,0 1.35598279,0.2102 1.63050999,0.55336 0.2745271,0.34316 0.5147383,1.23538 0.8578973,1.81875 0.3431588,0.58337 1.2696881,2.8139 1.9560058,3.98064 0.6863178,1.16674 3.5345369,1.61285 4.8042249,2.40211 1.269688,0.78927 2.230533,0.68632 3.603169,1.20106 1.372635,0.51473 5.833701,1.5099 5.833701,1.5099 0,0 5.902334,-2.12759 6.108229,-2.33348 0.205896,-0.2059 1.406952,-1.44127 1.647162,-1.64717 0.240212,-0.20589 1.201061,-1.5099 1.166741,-1.64716 -0.03432,-0.13726 -0.377473,-0.24021 -0.686319,-0.34316 -0.308843,-0.10294 -1.750109,-0.24021 -2.642322,-0.34316 -0.892213,-0.10296 -2.333481,-0.10296 -2.745271,-0.13726 -0.411791,-0.0343 -3.122747,-0.61769 -3.84338,-0.72063 -0.720634,-0.10295 -1.818743,-1.16674 -2.161902,-1.40696 -0.343159,-0.24021 -0.240211,-0.85789 -0.240211,-0.85789 l 0.652002,0.13726 c 0,0 4.632645,-0.68632 5.868018,-0.82358 1.235372,-0.13726 2.882535,0 3.706116,0 0.823581,0 1.921689,1.09811 1.921689,1.09811 v -0.68632 l -0.549052,-2.05895 -0.960846,-1.37264 -5.490543,-4.25517 -2.058954,-1.37264 -0.41179,-3.29432 v -2.74527 l -0.960845,-0.41179 c 0,0 -3.294326,-1.23537 -3.980644,-1.37264 -0.686318,-0.13726 -2.745271,-2.74527 -2.745271,-2.74527 l -2.1962174,-2.33348 -3.7061163,-1.37264 c 0,0 -5.21601558,0.82359 -6.5886513,1.78443 -1.3726357,0.96085 -2.882535,2.74527 -3.5688528,3.70612 -0.6863178,0.96084 -2.0589536,3.01979 -2.3334807,3.56885 -0.2745272,0.54905 -1.0981084,3.56885 -1.0981084,4.25517 0,0.68632 2.6080076,3.84338 2.6080076,3.84338 l -0.5833701,3.36296 -1.0981086,0.13726 c 0,0 -2.196217,-0.96084 -2.402113,-1.26969 -0.205895,-0.30884 -1.16674,-1.37263 -1.578531,-1.54421 -0.41179,-0.17158 -1.956005,-1.40695 -2.710955,-1.37264 -0.75495,0.0343 -11.255613,3.56886 -11.255613,3.56886 l -9.539818,6.65728 -12.628249,10.63793 -8.647605,10.98108 -0.892213,4.46107 2.951167,8.8535 c 0,0 4.461066,5.14738 5.627806,6.45139 1.166741,1.304 3.019799,1.44126 3.774749,1.64716 0.754949,0.20589 9.471186,1.16674 9.471186,1.16674 0,0 3.157062,-0.0686 4.323802,-0.68632 1.166741,-0.61768 7.137706,-1.09811 7.137706,-1.09811 0,0 3.294326,-1.71579 3.637485,-1.92169 0.343159,-0.20589 4.392434,-2.40211 4.392434,-2.40211 l 13.7263572,-15.99121 1.99032173,-9.60845 -1.99032173,-6.10822 -2.6766397,-3.2257 -0.2058953,-6.31412 -0.8235815,-6.38276"
           id="path847"
           sodipodi:nodetypes="ccccccsssccccsccssccccssccscccsssccccssscccccssccccsscsccsccccccssscsscccccssssscssssssssccsscccccccccscccsssscccsssccccccsscscsccccccc" />
        <path
           style="fill:none;stroke:#000000;stroke-width:1.2;stroke-linecap:butt;stroke-linejoin:miter;stroke-miterlimit:4;stroke-dasharray:none;stroke-opacity:1"
           d="m -15.14136,180.5316 -15.5296,10.09424 -13.976641,11.45308 c 0,0 -4.07652,6.98832 -4.853001,8.34716 -0.776478,1.35884 -4.118826,1.87897 -4.658878,6.01772 -0.540052,4.13876 -4.27064,3.68828 -7.18244,5.24124 -2.9118,1.55296 -7.376559,4.27064 -7.376559,4.27064 l 4.658878,6.98832 c 0,0 4.464762,-1.9412 4.658881,-2.71768 0.19412,-0.77648 4.07652,-3.68828 5.435359,-4.46476 1.35884,-0.77648 9.900121,-6.40596 9.900121,-6.40596 0,0 3.494159,-6.60008 5.823601,-9.51188 2.329439,-2.9118 13.782519,-11.84132 14.558999,-12.6178 0.77648,-0.77648 9.2207,-5.82365 9.2207,-5.82365 l 8.9027654,-5.13561 0.068632,-3.77474 -0.8235815,-6.38276 -0.58337,3.36296 -1.0981086,0.13726 -2.2991653,-1.02948 z"
           id="path849" />
        <path
           style="fill:none;stroke:#000000;stroke-width:1.2;stroke-linecap:butt;stroke-linejoin:miter;stroke-miterlimit:4;stroke-dasharray:none;stroke-opacity:1"
           d="m -68.718479,225.95568 c 0,0 -1.844141,-2.71768 -3.202983,-3.10592 -1.358839,-0.38824 -2.426499,-1.06766 -4.07652,-0.67942 -1.650018,0.38824 -2.523558,0 -6.988318,1.65002 -4.464761,1.65002 -7.86186,2.71768 -9.414822,3.97946 -1.552958,1.26178 -3.397099,2.9118 -3.882397,3.68828 -0.485302,0.77648 1.650018,2.52356 2.911797,1.84414 1.261782,-0.67942 3.979461,-1.84414 6.017721,-2.03826 2.03826,-0.19412 5.144179,-0.19412 5.726541,0.0971 0.582361,0.29118 2.329439,0.9706 2.620621,1.84414 0.291179,0.87354 0.388239,2.62062 0.388239,2.62062 0,0 -5.435359,1.35884 -6.40596,1.84414 -0.9706,0.4853 -5.04712,2.52356 -5.8236,3.59122 -0.776481,1.06766 -2.03826,3.49416 -2.13532,4.65888 -0.09706,1.16472 0.194119,2.32944 0.679418,3.10592 0.485302,0.77648 3.494162,3.78534 3.494162,3.78534 0,0 1.552958,2.13532 2.81474,0.29118 1.26178,-1.84414 2.32944,-3.59122 2.620619,-4.27064 0.291182,-0.67942 1.358842,-2.23238 1.358842,-2.23238 l 1.164719,2.13532 c 0,0 -0.09706,2.4265 -0.09706,2.9118 0,0.4853 0.388239,1.65002 0.873538,2.13532 0.485302,0.4853 1.747081,0.87354 2.717681,1.65002 0.9706,0.77648 1.358839,0.77648 2.03826,1.16472 0.679421,0.38824 4.27064,-5.04712 4.27064,-5.04712 0,0 -0.873541,-1.55296 -1.941201,-2.13532 -1.067659,-0.58236 -1.747078,-1.4559 -1.844137,-1.84414 -0.09706,-0.38824 1.261779,-2.62062 1.261779,-2.62062 0,0 2.814741,-1.84414 3.397099,-2.03826 0.582361,-0.19412 3.591221,-0.77648 4.07652,-1.26178 0.485301,-0.4853 2.13532,-3.59122 2.13532,-3.59122 l -0.09706,-5.14418 z"
           id="path851" />
        <path
           style="fill:none;stroke:#000000;stroke-width:1.2;stroke-linecap:butt;stroke-linejoin:miter;stroke-miterlimit:4;stroke-dasharray:none;stroke-opacity:1"
           d="m -74.7362,256.7237 19.994359,17.4708 2.620621,3.97947 0.388239,1.84412 c 0,0 1.84414,0 3.10592,0 1.261782,0 3.397102,0.2912 3.97946,-0.38822 0.582361,-0.67943 1.9412,-2.7177 1.9412,-3.49417 0,-0.77647 -3.688278,-4.36769 -3.688278,-4.36769 l -24.653242,-20.18845 z"
           id="path853" />
        <path
           style="fill:none;stroke:#000000;stroke-width:1.2;stroke-linecap:butt;stroke-linejoin:miter;stroke-miterlimit:4;stroke-dasharray:none;stroke-opacity:1"
           d="m -51.732981,280.01809 c 0,0 -2.13532,-0.87352 -2.523559,-0.58235 -0.388241,0.29118 -1.84414,1.9412 -4.17358,3.00887 -2.329441,1.06765 -3.78534,2.13532 -8.05598,3.00884 -4.270639,0.87355 -16.014901,4.36772 -17.859041,4.75594 -1.844141,0.38825 -14.36488,3.10594 -15.5296,3.30004 -1.164719,0.19413 -4.173579,0.38825 -5.629479,0.0971 -1.4559,-0.29118 -3.20298,-0.87355 -4.3677,-1.4559 -1.16472,-0.58237 -3.10592,-2.13532 -3.59122,-0.58237 -0.4853,1.55297 -0.77648,3.20299 0.29118,4.46476 1.06766,1.26177 4.07652,3.00887 4.75594,4.17359 0.67942,1.16472 1.55296,5.62946 1.55296,6.21184 0,0.58234 -0.77648,3.78534 -0.87354,4.95006 -0.0971,1.16472 -0.29118,3.30004 0.0971,4.75594 0.38824,1.45589 1.16472,3.68826 1.26178,5.33828 0.0971,1.65002 -1.16472,0.7765 0,3.30005 1.16472,2.52356 0.58236,2.91181 2.71768,3.39711 2.13532,0.4853 3.882399,0.38823 4.852999,0.38823 0.9706,0 2.13532,0 2.13532,0 0,0 0.582361,-1.4559 -0.873541,-2.23237 -1.455898,-0.77648 -3.008858,-1.06768 -3.300038,-1.4559 -0.29118,-0.38825 -0.58236,-1.35885 -0.4853,-2.23239 0.0971,-0.87353 0.0971,-7.95891 0.29118,-8.44421 0.19412,-0.4853 0.87354,-9.02658 0.9706,-9.5119 0.09706,-0.4853 0.09706,-3.49414 0.291179,-3.97944 0.194119,-0.4853 3.494162,-3.68829 3.494162,-3.68829 l 32.320978,-6.60009 16.888441,-3.59121 4.27064,-2.91179 0.77648,-2.62062 -0.77648,-5.04714 -1.941201,3.59124 z"
           id="path857" />
        <path
           style="fill:none;stroke:#000000;stroke-width:1.2;stroke-linecap:butt;stroke-linejoin:miter;stroke-miterlimit:4;stroke-dasharray:none;stroke-opacity:1"
           d="m -69.59202,243.23236 21.741439,5.04712 13.976641,4.3677 c 0,0 2.03826,-0.58236 2.523559,0.0971 0.485302,0.67942 0.776481,3.10592 0.679421,3.49416 -0.09706,0.38824 -2.523561,3.3971 -2.523561,3.3971 0,0 -2.13532,0.9706 -3.591219,-0.38824 -1.455902,-1.35884 -6.3089,-4.27064 -6.3089,-4.27064 l -18.05316,-3.8824 -8.735402,-1.06766 -2.329439,-0.19412 -2.232379,-1.84414 0.87354,-3.00882 z"
           id="path859" />
        <path
           style="fill:none;stroke:#000000;stroke-width:1.2;stroke-linecap:butt;stroke-linejoin:miter;stroke-miterlimit:4;stroke-dasharray:none;stroke-opacity:1"
           d="m -30.76802,255.36486 0.873541,-1.4559 2.329439,0.87354 c 0,0 0.87354,1.84414 0.87354,2.71768 0,0.87354 -0.09706,3.3971 -0.09706,3.3971 l -1.261782,2.03826 -0.582359,46.29763 0.09706,1.35882 c 0,0 0.291179,2.03827 -2.03826,1.35885 -2.32944,-0.67943 -2.814741,-0.77648 -2.911801,-1.16473 -0.09706,-0.38822 -1.84414,-38.62988 -1.84414,-38.62988 l -0.679418,-3.88239 c 0,0 0.291179,-1.74707 -0.679421,-1.94119 -0.9706,-0.19413 -2.13532,-1.7471 -2.13532,-1.7471 l 1.552959,-2.42649 4.07652,-2.52352 2.426501,-3.0089 z"
           id="path861" />
        <path
           style="fill:none;stroke:#000000;stroke-width:1.2;stroke-linecap:butt;stroke-linejoin:miter;stroke-miterlimit:4;stroke-dasharray:none;stroke-opacity:1"
           d="m -33.149153,312.06874 c 0,0 -0.892212,1.50989 -0.892212,1.7844 0,0.27453 -0.06863,1.37266 0.892212,2.05896 0.960847,0.68633 2.539378,-0.2059 2.539378,-0.2059 l 1.372634,-1.9903 -0.205896,-1.16676 z"
           id="path863" />
        <path
           style="fill:none;stroke:#000000;stroke-width:1.2;stroke-linecap:butt;stroke-linejoin:miter;stroke-miterlimit:4;stroke-dasharray:none;stroke-opacity:1"
           d="m -34.247261,315.29443 -0.754949,1.02947 -0.274527,1.37263 1.92169,0.89223 c 0,0 3.431588,0.34313 3.84338,0.0686 0.41179,-0.2745 1.578531,-1.0981 1.578531,-1.44126 0,-0.34314 -0.480423,-1.5099 -0.480423,-1.5099 l -1.57853,-0.92652 -0.617686,0.92652 c -1.918247,0.76097 -2.678593,0.0482 -3.637486,-0.41177 z"
           id="path865"
           sodipodi:nodetypes="ccccsscccc" />
        <path
           style="fill:none;stroke:#000000;stroke-width:1.2;stroke-linecap:butt;stroke-linejoin:miter;stroke-miterlimit:4;stroke-dasharray:none;stroke-opacity:1"
           d="m -35.276737,317.69653 -0.829582,2.60146 c 0,0 0.388239,0.87355 -0.485302,1.45592 -0.87354,0.58235 -2.426499,1.65002 -2.426499,1.65002 0,0 0.09706,1.84412 0.679419,2.13532 0.582361,0.29118 0.77648,0.87353 2.523561,0.38823 1.747081,-0.4853 3.97946,-1.55295 4.658879,-1.55295 0.679421,0 4.658881,-0.0971 4.658881,-0.0971 l 14.65606,1.84414 c 0,0 3.2029799,1.06765 4.46476,1.26177 1.26178,0.19413 8.05598001,0.2912 8.05598001,0.2912 L 1.84414,326.99515 c 0,0 -4.17358,-0.0971 -5.1441799,-0.4853 -0.9706002,-0.38825 -12.6178001,-4.75594 -12.6178001,-4.75594 0,0 -1.067659,-1.06778 -3.3971,-2.23244 -2.32944,-1.16467 -7.667739,-1.8441 -7.667739,-1.8441 l -1.01909,-0.15242 -1.372635,1.06381 h -3.980643 z"
           id="path867" />
        <path
           style="fill:none;stroke:#000000;stroke-width:1.2;stroke-linecap:butt;stroke-linejoin:miter;stroke-miterlimit:4;stroke-dasharray:none;stroke-opacity:1"
           d="M -35.276737,317.69653 Z"
           id="path869" />
        <path
           style="fill:none;stroke:#000000;stroke-width:1.2;stroke-linecap:butt;stroke-linejoin:miter;stroke-miterlimit:4;stroke-dasharray:none;stroke-opacity:1"
           d="m -9.1280273,221.88656 2.4021124,15.03036 1.0981087,2.05895 2.0589533,1.7158 -0.2058953,2.47074 c 0,0 -0.5490543,2.05896 -2.5393761,2.05896 -1.9903217,0 -3.9806437,-0.61769 -4.1865387,-0.96085 -0.205895,-0.34316 -0.686318,-1.5099 -0.686318,-2.05895 0,-0.54906 0,-4.46107 0,-4.46107 l -0.960845,-5.8337 z"
           id="path871" />
        <path
           style="fill:none;stroke:#000000;stroke-width:1.2;stroke-linecap:butt;stroke-linejoin:miter;stroke-miterlimit:4;stroke-dasharray:none;stroke-opacity:1"
           d="m -10.363399,244.80958 -1.098109,2.88253 c 0,0 4.804225,7.06907 5.4219109,8.16718 0.6176862,1.09811 9.9516087,30.47253 9.9516087,30.47253 l 0.6863181,1.78442 c 0,0 0.1372634,1.02947 0.2745269,1.304 0.1372637,0.27454 2.8825351,0.13727 2.8825351,0.13727 l -0.068632,-3.43159 -12.0105623,-34.65906 -2.6080077,-6.10823 z"
           id="path873" />
        <path
           style="fill:none;stroke:#000000;stroke-width:1.2;stroke-linecap:butt;stroke-linejoin:miter;stroke-miterlimit:4;stroke-dasharray:none;stroke-opacity:1"
           d="m -4.8728566,245.15274 3.157062,8.78486 1.3040039,8.37308 3.2256939,25.32513 0.068632,1.85307 1.5098993,0.54903 -2.196217,-35.13946 -1.99032175,-8.78487 -1.50989925,-3.98064 -0.6863178,-2.33349 -1.5785312,0.89222 -0.2058953,2.47074 z"
           id="path875" />
        <path
           style="fill:none;stroke:#000000;stroke-width:1.2;stroke-linecap:butt;stroke-linejoin:miter;stroke-miterlimit:4;stroke-dasharray:none;stroke-opacity:1"
           d="m 2.8825351,289.48888 -0.8922134,1.64716 c 0,0 1.3726359,0.82357 1.9903218,0.75494 0.6176862,-0.0686 5.2160156,-1.7158 5.2160156,-1.7158 l -0.1372634,-1.5099 -1.3726361,-2.53936 0.068632,3.43159 -3.3629573,0.4804 z"
           id="path877" />
        <path
           style="fill:none;stroke:#000000;stroke-width:1.2;stroke-linecap:butt;stroke-linejoin:miter;stroke-miterlimit:4;stroke-dasharray:none;stroke-opacity:1"
           d="m 3.0197986,292.23414 c 0,0 0.1372634,3.91202 0.2745271,4.18653 0.1372635,0.27453 2.7452714,3.63749 2.7452714,3.63749 0,0 2.1962171,2.67663 2.6080077,2.40213 0.4117909,-0.27454 1.9903222,-1.2354 2.0589532,-1.9217 0.06863,-0.68633 -1.3726352,-5.21602 -1.3726352,-5.21602 l -1.269688,-4.76991 -4.1865391,1.40695 -1.0637925,0.30885"
           id="path879" />
        <path
           style="fill:none;stroke:#000000;stroke-width:1.2;stroke-linecap:butt;stroke-linejoin:miter;stroke-miterlimit:4;stroke-dasharray:none;stroke-opacity:1"
           d="m 10.14277,301.03159 1.60149,5.53241 -0.53383,6.84273 -1.2617798,3.59122 -3.2029802,1.45592 -3.68828,0.14558 -0.92207,-0.19413 c 0,0 1.5044301,-0.3397 1.6985501,-0.38822 0.1941201,-0.0485 2.37797,-0.4853 2.76621,-0.77648 0.3882401,-0.2912 1.4073701,-0.67942 1.65002,-1.06767 0.2426499,-0.38825 0.82501,-1.31032 0.8735398,-1.60149 0.04853,-0.29118 0.1455902,-0.87353 0.1941201,-1.74707 0.04853,-0.87355 0.2426501,-2.28092 0.19412,-3.34857 C 9.4633501,308.40815 9.1721701,305.739 9.1236399,305.1081 9.0751101,304.47723 8.78393,302.43896 8.78393,302.43896 Z"
           id="path881" />
        <path
           style="fill:none;stroke:#000000;stroke-width:1.2;stroke-linecap:butt;stroke-linejoin:miter;stroke-miterlimit:4;stroke-dasharray:none;stroke-opacity:1"
           d="m 3.49416,298.50802 c 0,0 0.4853,3.20299 0.7279499,3.49417 0.2426502,0.29117 1.6500202,2.76621 1.6500202,2.76621 0,0 0.09706,3.15445 0.09706,3.5427 0,0.38822 -0.6308903,2.91179 -0.8250103,3.49416 -0.1941197,0.58235 -2.03826,2.7662 -2.2323798,2.9118 -0.19412,0.14557 -1.4559001,0.58234 -2.03826009,0.58234 -0.58236,0 -3.20298001,0 -3.20298001,0 0,0 -0.72795,0.2912 -0.24265,0.53385 0.4853,0.24265 1.01913,0.38823 1.31031,0.38823 0.29118,0 1.84414,-0.0485 2.9118,-0.3397 1.0676601,-0.29118 3.44563,-0.9706 3.7368101,-1.31032 0.29118,-0.3397 1.7956098,-4.99859 1.7956098,-5.24124 0,-0.24265 -0.1941197,-4.36769 -0.1941197,-4.36769 0,0 -0.5823601,-2.91182 -0.7279503,-3.25152 -0.1455899,-0.3397 -0.92207,-2.52357 -0.92207,-2.52357 L 3.44563,296.85802 Z"
           id="path883" />
        <path
           style="fill:none;stroke:#000000;stroke-width:1.2;stroke-linecap:butt;stroke-linejoin:miter;stroke-miterlimit:4;stroke-dasharray:none;stroke-opacity:1"
           d="m 4.0279902,302.00219 -1.3103101,4.95006 c 0,0 0.09706,0.77647 -0.04853,1.40737 -0.14559,0.6309 -1.4559,2.96034 -1.4559,2.96034 0,0 -0.92206999,0.77648 -0.92206999,0.9706 0,0.1941 0.63088998,0.53383 0.87353999,0.24265 0.24265,-0.2912 1.16472,-1.01915 1.50443,-1.6015 0.3397101,-0.58237 1.6500199,-3.15444 1.6500199,-3.54269 0,-0.38825 0.6794201,-3.88239 0.6794201,-3.88239 z"
           id="path885" />
        <path
           style="fill:none;stroke:#000000;stroke-width:1.2;stroke-linecap:butt;stroke-linejoin:miter;stroke-miterlimit:4;stroke-dasharray:none;stroke-opacity:1"
           d="m 7.7162701,301.75954 0.43677,4.46476 c 0,0 -0.09706,3.10592 -0.09706,3.30004 0,0.19413 -0.1941201,2.0868 -0.2911801,2.37797 -0.09706,0.29118 -1.21325,2.32945 -1.4073701,2.62062 -0.19412,0.29117 -0.3882397,0.9706 -1.2617799,1.4559 -0.8735401,0.4853 -2.3779699,0.87355 -2.3779699,0.87355 l -0.09706,0.29117 c 0,0 0.9706,0 1.4559,-0.1456 0.4853001,-0.14557 2.2323801,-0.77647 2.4265001,-0.9706 0.19412,-0.1941 1.7956099,-1.40737 1.84414,-1.79559 0.04853,-0.38825 0.4367699,-3.203 0.4367699,-3.49417 0,-0.29117 -0.1455899,-4.02799 -0.1455899,-4.22211 0,-0.19413 0.1455899,-4.07652 0.1455899,-4.07652 z"
           id="path887" />
      </g>
      <g
         id="g1159"
         style="stroke-width:1.8;stroke-miterlimit:4;stroke-dasharray:none"
         transform="matrix(0.74155321,0,0,0.71738508,88.991021,46.131765)">
        <path
           style="fill:none;stroke:#000000;stroke-width:1.8;stroke-linecap:butt;stroke-linejoin:miter;stroke-miterlimit:4;stroke-dasharray:none;stroke-opacity:1"
           d="m 145.36212,214.54296 6.93181,2.26485 c 0,0 2.8139,2.608 3.29433,2.88253 0.48042,0.27453 10.02024,10.63793 10.02024,10.63793 l 1.02947,4.3238 c 0,0 0,2.33348 -0.13726,2.74527 -0.13726,0.41179 -2.47075,2.12759 -2.47075,2.12759 l -2.47074,0.68632 c 0,0 -0.27453,-0.0686 0.13727,-0.89222 0.41178,-0.82358 1.0981,-1.99032 1.37263,-2.88253 0.27453,-0.89221 0.61769,-2.60801 -0.0686,-3.84338 -0.68632,-1.23537 -3.98065,-3.84338 -5.49054,-4.59833 -1.5099,-0.75495 -3.08843,-2.19622 -4.7356,-3.36296 -1.64716,-1.16674 -4.39243,-2.60801 -4.39243,-2.60801 0,0 -1.09811,1.92169 0,3.29433 1.09811,1.37263 2.26485,5.21601 4.18654,6.58865 1.92169,1.37264 3.70611,3.70612 4.18654,4.11791 0.48042,0.41179 1.64716,1.71579 1.78442,2.12758 0.13727,0.41179 1.23538,1.23538 -0.41179,0.75495 -1.64716,-0.48042 -5.55917,-3.15706 -5.55917,-3.15706 0,0 -6.31413,-9.88298 -6.58865,-10.29477 -0.27453,-0.41179 -2.26485,-4.18654 -2.26485,-4.18654 l -1.09811,-2.608 0.59518,-1.53765 0.64019,-1.34489 z"
           id="path907" />
        <g
           id="g1135"
           style="stroke-width:1.8;stroke-miterlimit:4;stroke-dasharray:none">
          <path
             style="fill:none;stroke:#000000;stroke-width:1.8;stroke-linecap:butt;stroke-linejoin:miter;stroke-miterlimit:4;stroke-dasharray:none;stroke-opacity:1"
             d="m 128.6045,121.325 0.0971,-2.81474 c 0,0 -0.9706,-0.77648 -1.26178,-1.84414 -0.29118,-1.06766 -0.77648,-2.4265 -0.77648,-2.81474 0,-0.38824 0.29118,-2.4265 -0.29118,-2.9118 -0.58236,-0.4853 -12.1325,-5.62948 -12.1325,-5.62948 0,0 -9.31776,0 -9.80306,0.0971 -0.4853,0.0971 -7.764799,2.9118 -7.764799,2.9118 0,0 -3.397102,5.62948 -3.688281,6.69714 -0.291179,1.06766 -1.06766,4.46476 -1.06766,4.853 0,0.38824 2.620621,3.30004 3.397099,3.8824 0.776481,0.58236 2.814741,2.23238 3.979461,2.32944 1.16472,0.0971 2.32944,0.29118 3.30004,0.38824 0.9706,0.0971 2.23238,0 3.49416,0.0971 1.26178,0.0971 3.97946,0.0971 3.97946,0.0971 0,0 1.84414,0 1.9412,0.4853 0.0971,0.4853 0.19412,0.67942 0.19412,1.55296 0,0.87354 -0.38824,3.59122 -0.38824,3.59122 0,0 -0.0971,1.9412 0,2.4265 0.0971,0.4853 3.78534,3.30004 3.78534,3.30004 l 7.08538,3.10592 3.30004,-3.20298 1.16472,-2.9118 0.0971,-2.81474 -1.35884,-2.81474 -0.19412,-0.87354 v -1.65002 l 1.35884,-2.13532 z"
             id="path889" />
          <path
             style="fill:none;stroke:#000000;stroke-width:1.8;stroke-linecap:butt;stroke-linejoin:miter;stroke-miterlimit:4;stroke-dasharray:none;stroke-opacity:1"
             d="m 102.68948,127.43978 -4.270638,5.14418 4.270638,1.65002 7.18244,-7.37656 -6.7942,-0.29118 z"
             id="path891" />
          <path
             style="fill:none;stroke:#000000;stroke-width:1.8;stroke-linecap:butt;stroke-linejoin:miter;stroke-miterlimit:4;stroke-dasharray:none;stroke-opacity:1"
             d="m 98.418842,132.58396 -6.86404,0.97349 -7.961289,6.58865 -5.902333,14.96173 -3.43159,21.41312 -0.549053,12.07919 3.568854,1.92169 c 0,0 7.41223,0.68632 8.784867,0.68632 1.372635,0 7.824023,0.96085 7.824023,0.96085 0,0 3.84338,1.23537 5.35328,0.27452 1.509899,-0.96084 11.804669,-10.29476 11.804669,-10.29476 l 4.80422,-12.62825 -0.41179,-19.49143 -2.47074,-6.58865 -7.96129,-7.27497 -2.31715,-1.93148 z"
             id="path893" />
          <path
             style="fill:none;stroke:#000000;stroke-width:1.8;stroke-linecap:butt;stroke-linejoin:miter;stroke-miterlimit:4;stroke-dasharray:none;stroke-opacity:1"
             d="m 92.378383,138.91073 -13.314568,19.35417 -10.706558,14.13814 -4.529698,8.37308 c 0,0 -2.058953,-0.13726 -2.058953,0.41179 0,0.54906 -0.549053,2.05895 0.960845,3.29433 1.5099,1.23537 3.157063,1.64716 3.157063,1.64716 l 0.686316,-3.84338 15.236256,-21.55038 c 0,0 7.824026,-11.11835 8.373078,-11.6674 0.549056,-0.54906 4.941488,-7.27497 4.941488,-7.27497 l 1.235374,-1.64717 -1.235374,-3.01979 z"
             id="path895" />
          <path
             style="fill:none;stroke:#000000;stroke-width:1.8;stroke-linecap:butt;stroke-linejoin:miter;stroke-miterlimit:4;stroke-dasharray:none;stroke-opacity:1"
             d="m 61.730162,181.79338 -2.329442,0.4853 c 0,0 -1.16472,0.19412 -0.679419,1.9412 0.485299,1.74708 0.776478,3.30004 1.35884,5.53242 0.582358,2.23238 0.09706,41.34756 0.09706,41.34756 l -0.582361,3.10592 4.755941,0.4853 0.776481,-1.06766 c 0,0 -0.09706,-0.77648 -0.582361,-1.55296 -0.485299,-0.77648 2.620621,-22.42086 2.620621,-22.42086 0,0 -0.19412,-9.90012 -0.19412,-10.28836 0,-0.38824 -1.552961,-10.48248 -1.552961,-10.48248 l 0.468074,-2.74936 c -2.094558,-1.01988 -4.548184,-1.82431 -4.156353,-4.33602 z"
             id="path897"
             sodipodi:nodetypes="ccssccccscsccc" />
          <path
             style="fill:none;stroke:#000000;stroke-width:1.8;stroke-linecap:butt;stroke-linejoin:miter;stroke-miterlimit:4;stroke-dasharray:none;stroke-opacity:1"
             d="m 97.448242,143.74586 -4.173583,16.9855 -3.494159,18.82964 -0.87354,7.66774 -2.232379,5.3383 -6.794201,12.6178 c 0,0 -2.23238,6.50302 -2.426499,7.57068 -0.19412,1.06766 -1.844141,6.3089 -1.844141,6.3089 0,0 -4.464759,-4.17358 -4.658878,-4.853 -0.194123,-0.67942 -2.03826,-2.13532 -0.679421,-4.75594 1.358839,-2.62062 5.435359,-9.99718 5.435359,-9.99718 0,0 4.95006,-11.84132 5.04712,-12.22956 0.09706,-0.38824 3.397102,-9.99718 3.397102,-9.99718 l 1.844138,-14.36488 c 0,0 1.650021,-4.56182 1.84414,-5.62948 0.19412,-1.06766 2.620621,-5.43536 2.620621,-5.43536 l 1.844141,-4.853 4.054962,-6.80274 c 0,0 0,0 0,0 z"
             id="path899" />
          <path
             style="fill:none;stroke:#000000;stroke-width:1.8;stroke-linecap:butt;stroke-linejoin:miter;stroke-miterlimit:4;stroke-dasharray:none;stroke-opacity:1"
             d="m 110.06604,147.82238 -2.71768,43.677 1.35884,1.16472 0.0971,1.06766 -0.9706,1.84414 c 0,0 -2.32944,0.0971 -2.71768,0.0971 -0.38824,0 -0.87354,-2.23238 -0.87354,-2.23238 l 2.13532,-43.28876 0.0971,-2.32944 c 0,0 -1.84414,-0.19412 -0.58236,-0.67942 1.26178,-0.4853 3.00886,-1.06766 3.00886,-1.06766 z"
             id="path901" />
          <path
             style="fill:none;stroke:#000000;stroke-width:1.8;stroke-linecap:butt;stroke-linejoin:miter;stroke-miterlimit:4;stroke-dasharray:none;stroke-opacity:1"
             d="m 108.8043,193.73176 16.51734,6.67305 18.39332,12.90278 1.64716,1.23537 -1.5099,1.23537 -4.66696,-3.70612 -9.60845,-7.1377 -10.43203,-4.66696 -11.31108,-4.69165 z"
             id="path903" />
          <path
             style="fill:none;stroke:#000000;stroke-width:1.8;stroke-linecap:butt;stroke-linejoin:miter;stroke-miterlimit:4;stroke-dasharray:none;stroke-opacity:1"
             d="m 104.24248,193.44062 c 0,0 4.05848,7.65051 6.11743,7.78777 2.05895,0.13727 6.45139,1.37264 7.82402,1.78443 1.37264,0.41179 7.82403,6.58865 8.64761,7.1377 0.82358,0.54906 15.78531,8.51035 15.78531,8.51035 l 0.59518,-1.53765 -15.91784,-10.6766 -10.57954,-7.2795 -8.88095,-3.59122 -2.66919,0.0971 -0.92203,-2.23234"
             id="path905" />
          <path
             style="fill:none;stroke:#000000;stroke-width:1.8;stroke-linecap:butt;stroke-linejoin:miter;stroke-miterlimit:4;stroke-dasharray:none;stroke-opacity:1"
             d="m 59.594839,234.20578 -1.189191,2.29935 0.06863,1.99032 c 0,0 1.166739,0.68632 1.99032,0.68632 0.823582,0 2.745272,-0.13726 3.019801,-0.2059 0.274526,-0.0686 1.715794,-0.68631 1.715794,-1.16674 0,-0.48042 -0.849416,-3.11805 -0.849416,-3.11805 z"
             id="path909" />
          <path
             style="fill:none;stroke:#000000;stroke-width:1.8;stroke-linecap:butt;stroke-linejoin:miter;stroke-miterlimit:4;stroke-dasharray:none;stroke-opacity:1"
             d="m 65.268826,238.35819 4.117909,2.74527 c 0,0 1.372634,2.19622 1.784427,2.88253 0.411789,0.68632 1.509897,4.32381 1.64716,4.80423 0.137266,0.48042 0.480423,3.36296 0.480423,3.36296 0,0 -0.343157,0.75495 -0.617686,0.34316 -0.274526,-0.41179 -1.853057,-2.40212 -1.853057,-2.95117 0,-0.54906 -0.411792,-1.44127 -0.823581,-2.40211 -0.411793,-0.96085 -1.372638,-2.53938 -1.304005,-1.92169 0.06863,0.61768 1.304005,7.82402 1.304005,7.82402 l -0.617686,4.59833 -1.5099,3.84338 -2.951166,1.44127 c 0,0 -3.0198,-1.37264 -3.088431,-1.64717 -0.06863,-0.27452 -2.745271,-5.28464 -2.745271,-6.10823 0,-0.82358 -0.617686,-4.80422 -0.617686,-5.6278 0,-0.82358 -0.137263,-3.91201 -0.137263,-4.3238 0,-0.41179 0.137261,-6.72592 0.137261,-6.72592 l 1.372637,0.68632 3.088431,0.2059 z"
             id="path911" />
          <path
             style="fill:none;stroke:#000000;stroke-width:1.8;stroke-linecap:butt;stroke-linejoin:miter;stroke-miterlimit:4;stroke-dasharray:none;stroke-opacity:1"
             d="m 78.909779,209.55254 3.10592,3.30004 c 0,0 0.582362,1.16472 0.582362,1.9412 0,0.77648 -2.814741,3.97946 -2.814741,3.97946 l 0.582361,2.23238 -0.194119,2.52356 -0.970601,1.84414 -0.87354,2.52356 2.23238,0.77648 c 0,0 0.291179,0.67942 0.582361,1.35884 0.291179,0.67942 0.291179,2.62062 0.291179,3.00886 0,0.38824 -2.717681,-0.67942 -3.882401,0.19412 -1.164719,0.87354 -3.00886,2.13532 -3.300039,2.52356 -0.291179,0.38824 -2.620621,1.74708 -3.00886,1.74708 -0.388242,0 -5.973215,0.85237 -5.973215,0.85237 l -8.682847,-8.71423 c 0,0 -0.873538,-1.55296 -0.776478,-3.30004 0.09706,-1.74708 5.435359,-6.69714 5.532419,-7.47362 0.09706,-0.77648 2.620621,-6.89126 2.9118,-8.15304 0.29118,-1.26178 0.970601,-4.07652 1.35884,-4.27064 0.388241,-0.19412 4.561821,-0.67942 4.561821,-0.67942 z"
             id="path913" />
          <path
             style="fill:none;stroke:#000000;stroke-width:1.8;stroke-linecap:butt;stroke-linejoin:miter;stroke-miterlimit:4;stroke-dasharray:none;stroke-opacity:1"
             d="m 71.242041,237.40876 6.405959,7.08538 12.714862,17.17962 0.776478,4.46476 0.582361,3.00887 c 0,0 1.06766,0.29118 1.455899,0.29118 0.388241,0 4.173579,-2.2324 4.173579,-2.2324 l 0.09706,-3.68827 -19.023761,-25.91502 -2.814741,-3.10592 -2.717681,2.32944 z"
             id="path915" />
          <path
             style="fill:none;stroke:#000000;stroke-width:1.8;stroke-linecap:butt;stroke-linejoin:miter;stroke-miterlimit:4;stroke-dasharray:none;stroke-opacity:1"
             d="m 97.351177,267.20617 2.329444,0.0971 c 0,0 0.582359,1.16472 0.19412,2.23237 -0.388239,1.06767 -1.16472,2.81474 -2.13532,3.97946 -0.9706,1.16472 -9.2207,6.98833 -9.2207,6.98833 l -24.847362,11.06483 -11.453079,6.30891 -2.03826,0.4853 c 0,0 -1.358839,-1.4559 -1.06766,-2.2324 0.291179,-0.77647 0,-1.26177 1.552961,-1.74707 1.552959,-0.4853 11.064841,-5.14419 11.064841,-5.14419 l 22.42086,-12.81192 5.241239,-3.97944 2.32944,-3.30004 v 0 z"
             id="path917" />
          <path
             style="fill:none;stroke:#000000;stroke-width:1.8;stroke-linecap:butt;stroke-linejoin:miter;stroke-miterlimit:4;stroke-dasharray:none;stroke-opacity:1"
             d="m 48.14176,295.0624 c 0,0 -2.620619,1.06765 -3.494159,0.87355 -0.873541,-0.19412 -1.9412,-0.67942 -2.814741,-0.7765 -0.87354,-0.097 -3.10592,0.19413 -2.81474,1.84415 0.291181,1.65002 0.388241,4.65889 0.87354,6.40596 0.485301,1.74709 1.06766,9.41483 1.06766,9.90012 0,0.4853 -0.291179,4.95007 -0.582359,5.53241 -0.291182,0.58238 -0.582361,3.10592 -0.582361,3.10592 l 0.388239,2.52357 c 0,0 2.814741,0.67943 3.300042,0.77647 0.485299,0.0971 2.620619,0.2912 3.688279,0.9706 1.067659,0.67943 2.523561,0.9706 2.523561,0.9706 0,0 0.19412,-1.26177 -0.09706,-1.65 -0.291182,-0.38824 -2.523561,-2.32944 -3.10592,-2.71769 -0.582361,-0.38825 -0.87354,-0.87355 -0.87354,-1.65002 0,-0.77647 0,-3.68827 0.87354,-5.72654 0.873538,-2.03827 3.494159,-11.35602 3.494159,-11.35602 l -0.87354,-3.88239 1.06766,-1.84412 z"
             id="path919" />
          <path
             style="fill:none;stroke:#000000;stroke-width:1.8;stroke-linecap:butt;stroke-linejoin:miter;stroke-miterlimit:4;stroke-dasharray:none;stroke-opacity:1"
             d="m 80.75392,233.23518 8.05598,5.92066 16.5002,8.34716 10.28836,6.40596 c 0,0 2.13532,1.4559 2.23238,1.9412 0.0971,0.4853 1.06766,1.55296 0.4853,2.9118 -0.58236,1.35884 -2.52356,2.71768 -3.49416,2.71768 -0.9706,0 -0.9706,0.38824 -2.81474,-1.84414 -1.84414,-2.23238 -9.51188,-8.44422 -9.51188,-8.44422 l -12.71486,-7.47362 -7.667738,-2.71768 -1.747081,-0.77648 -4.755946,-5.72654 c 2.073647,-1.85627 3.84612,-2.50784 5.144185,-1.26178 z"
             id="path921"
             sodipodi:nodetypes="ccccsssscccccc" />
          <path
             style="fill:none;stroke:#000000;stroke-width:1.8;stroke-linecap:butt;stroke-linejoin:miter;stroke-miterlimit:4;stroke-dasharray:none;stroke-opacity:1"
             d="m 118.60732,256.62664 c 0,0 1.74708,-1.65002 2.4265,-1.26178 0.67942,0.38824 1.26178,1.9412 1.55296,2.52356 0.29118,0.58236 0.19412,3.97946 0.19412,5.24124 0,1.26178 -3.10592,47.55941 -3.10592,47.55941 0,0 1.26178,2.32944 -1.26178,2.23236 -2.52356,-0.097 -3.3971,-1.45589 -3.3971,-1.45589 l 0.87354,-42.02697 c 0,0 -1.84414,-0.29118 -1.84414,-1.2618 0,-0.9706 -1.35884,-3.88239 -1.35884,-3.88239 l 1.4559,-2.52356 2.4265,-1.35884 1.06766,-1.26178 z"
             id="path923" />
          <path
             style="fill:none;stroke:#000000;stroke-width:1.8;stroke-linecap:butt;stroke-linejoin:miter;stroke-miterlimit:4;stroke-dasharray:none;stroke-opacity:1"
             d="m 115.0161,311.46554 v 3.10592 c 0,0 -0.0971,0.87354 1.26178,0.87354 1.35884,0 2.13532,-0.19412 2.13532,-0.19412 l 0.4853,-2.32945 z"
             id="path925" />
          <path
             style="fill:none;stroke:#000000;stroke-width:1.8;stroke-linecap:butt;stroke-linejoin:miter;stroke-miterlimit:4;stroke-dasharray:none;stroke-opacity:1"
             d="m 115.0161,314.57146 c 0,0 -1.65002,1.35884 -1.26178,2.52356 0.38824,1.16473 0.4853,1.65003 1.16472,1.74707 0.67942,0.0971 1.9412,0.4853 3.20298,0 1.26178,-0.48529 1.84414,-0.097 2.13532,-0.87352 0.29118,-0.7765 0.19412,-2.62062 0.19412,-2.62062 l -2.03826,-0.0971 z"
             id="path927" />
          <path
             style="fill:none;stroke:#000000;stroke-width:1.8;stroke-linecap:butt;stroke-linejoin:miter;stroke-miterlimit:4;stroke-dasharray:none;stroke-opacity:1"
             d="m 113.36608,318.55092 c 0,0 -1.26178,2.7177 -1.9412,3.39709 -0.67942,0.67943 -2.4265,2.91182 -0.58236,3.88242 1.84414,0.9706 3.59122,1.16472 5.04712,1.16472 1.4559,0 6.98832,0 8.2501,-0.19412 1.26178,-0.19413 5.04712,-0.87355 6.21184,-0.67943 1.16472,0.19413 0.29118,-0.19412 2.9118,0.38825 2.62062,0.58235 4.27064,0.6794 6.01772,0.9706 1.74708,0.29117 4.07652,0.29117 4.95006,0.29117 0.87354,0 2.23238,-0.19412 2.71768,-0.38825 0.4853,-0.19412 0.9706,-0.67942 0.19412,-1.16472 -0.77648,-0.4853 -6.3089,-1.45589 -7.18244,-1.84412 -0.87354,-0.38825 -3.3971,-0.87355 -5.43536,-1.84414 -2.03826,-0.9706 -6.89126,-3.00887 -7.95892,-3.59122 -1.06766,-0.58237 -3.49416,-2.13532 -3.49416,-2.13532 l -2.62062,-1.4559 -0.0971,3.00885 -2.62062,0.58237 z"
             id="path929" />
        </g>
      </g>
      <g
         id="g1113"
         style="stroke-width:2.2;stroke-miterlimit:4;stroke-dasharray:none"
         transform="matrix(0.74155321,0,0,0.71738508,88.991021,46.131765)">
        <path
           style="fill:none;stroke:#000000;stroke-width:2.2;stroke-linecap:butt;stroke-linejoin:miter;stroke-miterlimit:4;stroke-dasharray:none;stroke-opacity:1"
           d="m 234.30891,91.692065 c 0,0 -4.25517,-5.490544 -4.80422,-5.902333 -0.54906,-0.411792 -7.00044,-2.333482 -8.64761,-2.333482 -1.64716,0 -6.72591,-0.274527 -8.09855,0.274526 -1.37263,0.549056 -6.45138,2.058956 -7.1377,2.745272 -0.68632,0.686318 -4.80423,5.627806 -4.80423,5.627806 l -0.68632,8.922136 2.88254,4.1179 c 0,0 3.29433,1.64717 4.25517,1.78443 0.96084,0.13726 0.96084,0 2.60801,0.13726 1.64716,0.13727 3.29432,-0.13726 3.98064,-0.41179 0.68632,-0.27452 1.5099,-0.96084 2.74527,-0.96084 1.23537,0 3.56885,-0.13727 3.56885,-0.13727 l 2.33349,2.47075 2.05895,4.25517 7.68676,2.47074 3.0198,0.96085 0.41179,-1.5099 c 0,0 1.37263,-3.84338 1.37263,-4.66696 0,-0.82358 0,-2.60801 0,-2.60801 l -1.64716,-2.19622 -2.19622,-0.96084 c 0,0 -0.54905,-1.37264 0.13727,-1.78443 0.68632,-0.41179 1.23537,-2.470743 1.23537,-2.470743 l -0.13726,-1.647163 -0.27453,-1.372635 1.09811,-2.745271 -0.41179,-1.92169"
           id="path931" />
        <path
           style="fill:none;stroke:#000000;stroke-width:2.2;stroke-linecap:butt;stroke-linejoin:miter;stroke-miterlimit:4;stroke-dasharray:none;stroke-opacity:1"
           d="m 211.52316,107.61464 -0.68632,3.29432 c 0,0 -1.64716,1.09811 -1.64716,1.78443 0,0.68632 -1.5099,2.88254 -1.5099,2.88254 l -6.72592,10.1575 c 0,0 -4.52969,10.56929 -4.52969,11.11835 0,0.54905 -0.68632,8.37308 -0.82358,9.74571 -0.13727,1.37264 -0.82358,29.64893 -0.82358,29.64893 l -4.25518,9.88298 7.27497,-0.68632 c 0,0 1.09811,-2.33348 1.5099,-3.70611 0.41179,-1.37264 1.5099,-7.5495 1.78443,-8.78487 0.27453,-1.23538 1.37264,-10.29477 1.78442,-11.53014 0.4118,-1.23538 1.37264,-24.57018 1.37264,-24.57018 0,0 0.41179,-6.72592 0.96085,-7.27497 0.54905,-0.54906 9.05939,-17.43248 9.05939,-17.43248 l 2.74527,-2.33347 v -1.5099 l 3.15706,-2.74528 -4.39243,0.27453 z"
           id="path933" />
        <path
           style="fill:none;stroke:#000000;stroke-width:2.2;stroke-linecap:butt;stroke-linejoin:miter;stroke-miterlimit:4;stroke-dasharray:none;stroke-opacity:1"
           d="m 206.8562,114.61508 -8.78487,3.15706 c 0,0 -9.05939,23.33481 -9.05939,24.29565 0,0.96085 -1.09811,17.15795 -1.09811,17.15795 l 1.64716,12.62825 c 0,0 5.21602,4.39243 5.21602,4.39243 0,0 5.6278,1.78443 6.17685,1.78443 0.54906,0 8.51035,-0.54906 9.33393,-1.23537 0.82358,-0.68632 5.35328,-5.76507 6.45139,-7.00045 1.0981,-1.23537 3.15706,-6.72591 3.98064,-8.78486 0.82358,-2.05896 4.39243,-14.41268 4.39243,-15.099 0,-0.68631 0.82359,-7.41223 0.82359,-10.02024 0,-2.608 -3.29433,-13.58909 -3.29433,-13.58909 0,0 0.54905,-1.78443 -2.19622,-1.92169 -2.74527,-0.13726 -5.21601,0.13726 -5.35328,-0.41179 -0.13726,-0.54906 -0.96084,-3.98065 -0.96084,-3.98065 l -1.78443,-0.82357 z"
           id="path935" />
        <path
           style="fill:none;stroke:#000000;stroke-width:2.2;stroke-linecap:butt;stroke-linejoin:miter;stroke-miterlimit:4;stroke-dasharray:none;stroke-opacity:1"
           d="m 190.52183,186.1294 c 0,0 -4.94148,1.78443 -5.21601,2.74527 -0.27453,0.96085 -1.78443,8.09855 -2.05896,9.33392 -0.27452,1.23538 -3.98064,6.45139 -4.25517,8.09856 -0.27452,1.64716 -0.82358,7.41223 0.27453,8.78486 1.09811,1.37264 6.58865,4.94149 6.58865,4.94149 l 6.72592,0.82358 c 0,0 3.56885,-2.74527 5.49054,-3.84338 1.92169,-1.09811 3.0198,-1.92169 3.0198,-3.15706 0,-1.23537 -1.64716,-4.25517 -1.92169,-5.07875 -0.27453,-0.82358 -0.68632,-1.92169 -0.13727,-2.88254 0.54906,-0.96084 2.33349,-2.74527 2.33349,-3.29432 0,-0.54906 -1.92169,-1.23537 -1.78443,-2.19622 0.13726,-0.96084 0,-1.5099 1.23537,-2.33348 1.23537,-0.82358 2.19622,-2.05895 2.19622,-2.05895 l 0.13726,-4.11791 c 0,0 -0.41178,0.13727 -2.88253,-3.15706 -2.47075,-3.29433 -2.47075,-3.29433 -2.47075,-3.29433 z"
           id="path937" />
        <path
           style="fill:none;stroke:#000000;stroke-width:2.2;stroke-linecap:butt;stroke-linejoin:miter;stroke-miterlimit:4;stroke-dasharray:none;stroke-opacity:1"
           d="m 188.18835,215.36654 3.15707,40.08096 c 0,0 -1.92169,1.09811 -1.78443,2.74527 0.13726,1.64717 -0.54905,2.88254 1.5099,3.56886 2.05895,0.68631 4.66696,-2.05896 4.66696,-2.05896 l -2.74527,-43.51255 z"
           id="path939" />
        <path
           style="fill:none;stroke:#000000;stroke-width:2.2;stroke-linecap:butt;stroke-linejoin:miter;stroke-miterlimit:4;stroke-dasharray:none;stroke-opacity:1"
           d="m 195.73785,259.70267 v 0 c 0,0 1.23537,3.70612 -0.13726,5.07875 -1.37264,1.37264 -3.98065,2.74527 -5.07876,3.70613 -1.0981,0.96083 -16.05983,20.17773 -16.05983,20.17773 l -8.92213,13.17731 -1.78443,0.13727 -0.96085,-1.37264 20.7268,-32.806 c 0,0 0.54906,-2.74526 0.82358,-3.43159 0.27453,-0.68631 0.96085,-3.56885 1.5099,-3.56885 0.54906,0 3.15707,-0.27453 3.15707,-0.27453 l 1.64716,1.23538 z"
           id="path941" />
        <path
           style="fill:none;stroke:#000000;stroke-width:2.2;stroke-linecap:butt;stroke-linejoin:miter;stroke-miterlimit:4;stroke-dasharray:none;stroke-opacity:1"
           d="m 162.79459,300.60722 c 0,0 -1.62646,2.07439 -1.62646,2.41411 0,0.3397 -0.24265,1.35883 0.33971,1.60147 0.58236,0.24265 1.26178,0.24265 1.26178,0.24265 0,0 0.43677,0.19413 0.77648,-0.33969 0.33971,-0.53383 1.99377,-2.68317 1.99377,-2.68317 l -1.78443,0.13727 z"
           id="path943" />
        <path
           style="fill:none;stroke:#000000;stroke-width:2.2;stroke-linecap:butt;stroke-linejoin:miter;stroke-miterlimit:4;stroke-dasharray:none;stroke-opacity:1"
           d="m 160.6343,303.99193 c 0,0 -0.4853,0.4853 -0.38824,0.72795 0.0971,0.24265 -0.4853,0.825 0.43677,1.40737 0.92207,0.58235 1.35884,0.72795 1.55296,0.63087 0.19412,-0.097 0.53383,-1.89267 0.53383,-1.89267 l -1.31031,-0.29117 z"
           id="path945" />
        <path
           style="fill:none;stroke:#000000;stroke-width:2.2;stroke-linecap:butt;stroke-linejoin:miter;stroke-miterlimit:4;stroke-dasharray:none;stroke-opacity:1"
           d="m 159.32399,305.15665 -3.10592,0.53383 -0.38824,0.63087 c 0,0 1.11619,1.01915 1.40737,1.35885 0.29118,0.33972 2.81474,1.50444 3.00886,1.60149 0.19412,0.097 0.53383,0.6309 1.16472,0.29118 0.63089,-0.3397 0.82501,-0.67943 0.82501,-0.92208 0,-0.24264 -0.0971,-1.74707 -0.0971,-1.74707 l -1.84414,-1.11619 z"
           id="path947" />
        <path
           style="fill:none;stroke:#000000;stroke-width:2.2;stroke-linecap:butt;stroke-linejoin:miter;stroke-miterlimit:4;stroke-dasharray:none;stroke-opacity:1"
           d="m 155.82983,306.32135 -1.50443,2.81474 c 0,0 -0.58236,0.7765 -0.29118,1.21325 0.29118,0.43677 1.69855,2.28092 3.3971,3.10594 1.69855,0.825 3.10592,1.26178 3.8824,1.7956 0.77648,0.53382 2.71768,2.08679 3.59122,3.05739 0.87354,0.9706 3.68828,4.17359 4.22211,4.56182 0.53383,0.38824 2.23238,1.98974 3.34857,2.42652 1.11619,0.43674 2.03826,0.77647 2.86327,1.16469 0.82501,0.38825 3.78534,1.35885 4.17358,1.6015 0.38824,0.24265 1.35884,0.38825 1.35884,0.38825 0,0 -1.31031,-1.55297 -2.13532,-2.28092 -0.82501,-0.72795 -2.76621,-2.03825 -3.44563,-2.7662 -0.67942,-0.72797 -2.66915,-2.62064 -3.59122,-4.12506 -0.92207,-1.50442 -1.98973,-3.10592 -2.66915,-4.12504 -0.67942,-1.01915 -2.18385,-2.91182 -3.20298,-3.54269 -1.01913,-0.6309 -4.17358,-2.13532 -4.17358,-2.13532 l -1.06766,0.14557 z"
           id="path949" />
        <path
           style="fill:none;stroke:#000000;stroke-width:2.2;stroke-linecap:butt;stroke-linejoin:miter;stroke-miterlimit:4;stroke-dasharray:none;stroke-opacity:1"
           d="m 200.54208,216.73918 28.00176,34.45315 c 0,0 3.56886,3.43159 3.56886,3.98064 0,0.54906 0.41178,2.05896 -0.27453,3.0198 -0.68632,0.96085 -2.60801,2.33348 -4.25517,1.92169 -1.64716,-0.41179 -3.0198,-0.82358 -3.0198,-1.78442 0,-0.96085 -2.47075,-6.0396 -2.47075,-6.86318 0,-0.82358 -27.17818,-32.11968 -27.17818,-32.11968 z"
           id="path951" />
        <path
           style="fill:none;stroke:#000000;stroke-width:2.2;stroke-linecap:butt;stroke-linejoin:miter;stroke-miterlimit:4;stroke-dasharray:none;stroke-opacity:1"
           d="m 232.16752,254.39426 c 0,0 1.74708,-0.87354 2.23238,-0.0971 0.4853,0.77648 1.9412,3.97946 1.9412,3.97946 0,0 0.4853,15.33547 0.58236,15.82077 0.0971,0.48532 4.46476,38.62988 4.46476,38.62988 l 0.4853,2.13532 c 0,0 0.9706,0.38825 0.9706,0.7765 0,0.38822 0.38824,1.94119 0.38824,1.94119 l -2.4265,0.77648 -3.30004,-0.19413 c 0,0 -0.0971,-1.26177 -0.0971,-1.74707 0,-0.4853 0.19412,-1.4559 0.29118,-2.42649 0.0971,-0.9706 -2.13532,-12.1325 -2.13532,-12.1325 l -3.49416,-22.61499 -2.9118,-10.28835 -0.87354,-1.55297 c 0,0 -1.16472,0 -1.9412,-0.9706 -0.77648,-0.9706 -1.16472,-0.9706 -1.16472,-1.9412 0,-0.9706 -0.0971,-1.06766 0.19412,-1.65002 0.29118,-0.58236 1.06766,-1.65002 1.06766,-1.65002 l 0.0971,-1.16472"
           id="path953" />
        <path
           style="fill:none;stroke:#000000;stroke-width:2.2;stroke-linecap:butt;stroke-linejoin:miter;stroke-miterlimit:4;stroke-dasharray:none;stroke-opacity:1"
           d="m 237.50582,318.16262 0.58236,2.23245 2.03826,0.4853 3.34857,0.19412 1.50443,-1.98975 -0.63089,-1.40737 -1.11619,-0.0971"
           id="path955" />
        <path
           style="fill:none;stroke:#000000;stroke-width:2.2;stroke-linecap:butt;stroke-linejoin:miter;stroke-miterlimit:4;stroke-dasharray:none;stroke-opacity:1"
           d="m 244.97944,319.08474 c 0,0 5.62948,0.33973 6.3089,0.6309 0.67942,0.29118 4.853,1.06765 5.62948,1.35885 0.77648,0.29117 7.47362,1.26177 8.15303,1.26177 0.67942,0 4.95006,0 4.95006,0 l 1.7471,-0.29117 c 0,0 0.58235,1.06764 -0.7765,1.45589 -1.35882,0.38825 -4.36769,1.4559 -5.62946,1.4559 -1.26179,0 -3.10593,0.29117 -4.56183,0.29117 -1.4559,0 -3.59122,0.38825 -5.24124,0.4853 -1.65002,0.0971 -6.21184,-0.38822 -7.37656,-0.38822 -1.16472,0 -1.65002,-0.19412 -3.3971,0.19412 -1.74708,0.38823 -4.3677,1.06765 -5.53242,1.26178 -1.16472,0.19412 -1.65002,0.38822 -2.13532,-0.4853 -0.4853,-0.87355 -0.67942,-1.4559 -0.58236,-1.9412 0.0971,-0.4853 1.55296,-3.97946 1.55296,-3.97946"
           id="path957" />
        <path
           style="fill:none;stroke:#000000;stroke-width:2.2;stroke-linecap:butt;stroke-linejoin:miter;stroke-miterlimit:4;stroke-dasharray:none;stroke-opacity:1"
           d="m 223.238,130.93394 6.01772,34.06806 c 0,0 0.9706,3.10592 1.26178,3.49416 0.29118,0.38824 1.06766,0.9706 1.35884,2.23238 0.29118,1.26178 0,2.71768 0,2.71768 l -3.97946,0.58236 c 0,0 -1.55296,1.26178 -1.9412,0.38824 -0.38824,-0.87354 -0.67942,-0.4853 -0.67942,-2.03826 0,-1.55296 0.38824,-2.52356 0.4853,-3.30004 0.0971,-0.77648 -1.35884,-7.08538 -1.35884,-7.08538 l -2.71768,-17.37374 -0.77648,-6.60008"
           id="path959" />
        <path
           style="fill:none;stroke:#000000;stroke-width:2.2;stroke-linecap:butt;stroke-linejoin:miter;stroke-miterlimit:4;stroke-dasharray:none;stroke-opacity:1"
           d="m 231.87634,173.44622 6.50302,12.52074 10.6766,21.45026 6.60008,3.97946 c 0,0 2.32944,1.4559 2.9118,1.9412 0.58236,0.4853 4.65888,5.04712 4.65888,5.04712 0,0 1.74708,3.59122 1.84413,3.97946 0.0971,0.38824 -0.38822,4.853 -0.38822,4.853 l -2.62063,1.9412 c 0,0 -0.67942,0 -0.29118,-1.26178 0.38824,-1.26178 0.77648,-1.16472 0.77648,-2.52356 0,-1.35884 -2.4265,-6.89126 -2.4265,-6.89126 0,0 -4.3677,-2.23238 -4.95006,-2.52356 -0.58236,-0.29118 -4.17358,-1.4559 -4.17358,-0.87354 0,0.58236 0.0971,1.26178 0.77648,2.9118 0.67942,1.65002 1.4559,3.30004 2.03826,4.56182 0.58236,1.26178 1.16472,4.46476 0.19412,3.00886 -0.9706,-1.4559 -3.20298,-5.53242 -3.30004,-5.92066 -0.0971,-0.38824 -2.4265,-3.78534 -2.62062,-4.56182 -0.19412,-0.77648 -1.06766,-3.97946 -1.06766,-4.3677 0,-0.38824 0.38824,-0.67942 -1.35884,-3.8824 -1.74708,-3.20298 -16.9855,-29.40918 -16.9855,-29.40918 l -2.18847,-2.55189 1.41199,-0.84521 z"
           id="path961" />
        <path
           style="fill:none;stroke:#000000;stroke-width:2.2;stroke-linecap:butt;stroke-linejoin:miter;stroke-miterlimit:4;stroke-dasharray:none;stroke-opacity:1"
           d="m 207.13073,143.57769 v 25.66829 l 1.78442,4.80423 c 0,0 1.92169,2.88253 1.64716,3.70611 -0.27452,0.82358 0.27453,1.64716 -2.05895,1.78443 -2.33348,0.13726 -5.21601,-1.37264 -5.21601,-1.37264 0,0 -0.68632,-1.5099 0,-2.88253 0.68631,-1.37264 0.96084,-4.39244 0.96084,-4.39244 l 0.13727,-14.41267"
           id="path963" />
        <path
           style="fill:none;stroke:#000000;stroke-width:2.2;stroke-linecap:butt;stroke-linejoin:miter;stroke-miterlimit:4;stroke-dasharray:none;stroke-opacity:1"
           d="m 209.05242,179.12896 c 0,0 5.76507,13.58909 6.03959,14.27541 0.27453,0.68632 4.66696,16.88342 4.66696,16.88342 v 5.76507 l -0.54905,1.92169 c 0,0 -2.60801,-2.47075 -2.74527,-3.0198 -0.13727,-0.54906 -4.66696,-12.62825 -4.66696,-12.62825 l -4.94149,-14.41267 -3.56885,-9.74572 z"
           id="path965" />
        <path
           style="fill:none;stroke:#000000;stroke-width:2.2;stroke-linecap:butt;stroke-linejoin:miter;stroke-miterlimit:4;stroke-dasharray:none;stroke-opacity:1"
           d="m 219.20992,217.97455 4.41632,5.94287 c 0,0 0.87354,0.9706 1.55296,2.32944 0.67942,1.35884 1.84414,4.75594 1.84414,4.75594 l 0.67942,3.10592 -0.29118,3.97946 -2.52356,3.20298 c 0,0 -3.3971,0.67942 -3.3971,0.19412 0,-0.4853 -0.38824,-2.03826 0,-2.52356 0.38824,-0.4853 0.67942,-3.3971 0.67942,-3.3971 l -0.29118,-2.62062 -2.4265,-4.95006 -0.58236,2.81474 0.4853,4.07652 c 0,0 -1.65002,-1.35884 -1.65002,-2.32944 0,-0.9706 -0.29118,-3.30004 -0.29118,-4.07652 0,-0.77648 0.19412,-2.32944 0.19412,-3.3971 0,-1.06766 0.19412,-4.27064 0.19412,-4.65888 0,-0.38824 -0.58236,-4.17358 -0.58236,-4.17358 z"
           id="path967" />
      </g>
      <g
         id="g1204"
         transform="matrix(0.74155321,0,0,0.71738508,88.991021,46.131765)">
        <path
           style="fill:none;stroke:#000000;stroke-width:1.765;stroke-linecap:butt;stroke-linejoin:miter;stroke-miterlimit:4;stroke-dasharray:none;stroke-opacity:1"
           d="m 386.29881,194.21706 c 0,0 1.94119,-0.77648 3.59121,-0.9706 1.65002,-0.19412 0.67943,-1.26178 3.49417,-0.29118 2.81474,0.9706 5.43536,1.35884 6.01771,1.74708 0.58237,0.38824 1.45589,1.55296 1.45589,1.55296 0,0 0.87355,1.9412 0.0971,1.4559 -0.7765,-0.4853 -4.46476,-2.32944 -4.46476,-2.32944 l -0.67943,0.87354 c 0,0 2.91179,2.32944 3.39709,2.71768 0.4853,0.38824 2.62062,2.4265 2.62062,2.4265 l 1.16472,0.19412 c 0,0 0.4853,1.06766 0.19413,1.4559 -0.29118,0.38824 -0.87355,0.58236 -1.26177,0.19412 -0.38825,-0.38824 -1.84415,-1.35884 -1.84415,-1.35884 l -3.88239,-2.81474 c 0,0 -1.06767,0.0971 -0.67942,0.87354 0.38822,0.77648 1.94119,2.4265 2.32944,2.71768 0.38823,0.29118 1.74707,1.55296 1.74707,1.55296 l 2.13532,1.84414 -0.58235,0.19412 c 0,0 -0.58237,0.67942 -1.94122,-0.67942 -1.35882,-1.35884 -4.17356,-3.68828 -4.17356,-3.68828 0,0 -1.4559,0 -0.7765,0.9706 0.67942,0.9706 1.45592,2.23238 2.13532,2.81474 0.67942,0.58236 1.7471,1.35884 2.32944,1.65002 0.58238,0.29118 0.7765,0.9706 0.38825,1.16472 -0.38825,0.19412 -2.13532,0.29118 -3.10591,-0.38824 -0.9706,-0.67942 -2.03827,-2.03826 -2.62062,-2.71768 -0.58238,-0.67942 -1.7471,-1.4559 -1.7471,-1.4559 0,0 0.2912,1.84414 0.87355,2.32944 0.58237,0.4853 0.77647,0.87354 1.35885,1.35884 0.58235,0.4853 1.45589,1.06766 1.45589,1.06766 0,0 0.67943,0.67942 -0.097,0.67942 -0.77649,0 -4.36771,-1.16472 -4.65888,-1.74708 -0.29118,-0.58236 -3.49417,-5.04712 -3.49417,-5.04712 l -2.4265,-3.00886 -1.35884,-3.3971 z"
           id="path987" />
        <g
           id="g1092"
           style="stroke-width:2.2;stroke-miterlimit:4;stroke-dasharray:none">
          <path
             style="fill:none;stroke:#000000;stroke-width:2.2;stroke-linecap:butt;stroke-linejoin:miter;stroke-miterlimit:4;stroke-dasharray:none;stroke-opacity:1"
             d="m 365.53288,77.828443 -2.95117,-7.3436 c 0,0 -3.01979,-2.608008 -3.77475,-3.294327 -0.75494,-0.686316 -6.17686,-2.196216 -6.86316,-2.402112 -0.68633,-0.205894 -5.83372,-0.617686 -6.38276,-0.617686 -0.54906,0 -5.42192,0.274529 -6.65728,0.754951 -1.23537,0.480423 -4.66696,1.853057 -5.07876,2.608006 -0.4118,0.754952 -3.77476,5.490544 -4.04926,6.588652 -0.27454,1.098108 -1.09813,5.970965 -1.09813,6.725914 0,0.754952 1.304,5.833703 1.64716,6.108229 0.34317,0.274529 2.60803,3.019801 4.7356,3.362958 2.12759,0.343159 6.45138,0.617688 8.09855,0.274529 1.64716,-0.34316 4.52969,-0.823582 5.07875,-0.823582 0.54907,0 1.57853,0.06863 1.85307,0.411789 0.27453,0.34316 1.57853,4.461066 1.57853,4.461066 0,0 0.61769,2.333482 0.75493,2.745272 0.13727,0.411792 2.95119,2.196218 3.43159,2.333482 0.48044,0.137263 5.21603,2.470746 5.21603,2.470746 0,0 1.0981,0.0686 1.57853,-0.41179 0.48043,-0.48043 2.88253,-5.147387 3.01979,-5.833706 0.13727,-0.686316 1.0295,-3.157061 1.0295,-3.157061 l -0.75497,-1.92169 -0.96083,-1.5099 -1.09813,-2.676639 c 0,0 0.27454,-1.372635 0.27454,-1.92169 0,-0.549055 -0.34317,-1.441267 -0.34317,-2.127586 0,-0.686316 1.7158,-4.804225 1.7158,-4.804225 z"
             id="path969" />
          <path
             style="fill:none;stroke:#000000;stroke-width:2.2;stroke-linecap:butt;stroke-linejoin:miter;stroke-miterlimit:4;stroke-dasharray:none;stroke-opacity:1"
             d="m 342.88439,91.143009 -4.18653,6.725915 -9.81435,38.296536 c 0,0 -0.54906,18.39332 -0.54906,21.13859 0,2.74527 0.54906,19.49143 0.54906,19.49143 l -0.27453,3.56885 4.66696,0.54905 c 0,0 1.64716,-4.1179 1.64716,-5.49054 0,-1.37263 1.92169,-6.86318 2.19623,-9.33392 0.27453,-2.47074 0.54906,-11.53014 0.54906,-13.17731 0,-1.64716 -1.09813,-12.07919 -1.09813,-14.82446 0,-2.74527 -0.27453,-9.0594 1.09813,-12.62825 1.37263,-3.56885 5.49053,-23.60933 5.49053,-23.60933 l 5.21602,-11.255613 0.2059,-0.754952 z"
             id="path971" />
          <path
             style="fill:none;stroke:#000000;stroke-width:2.2;stroke-linecap:butt;stroke-linejoin:miter;stroke-miterlimit:4;stroke-dasharray:none;stroke-opacity:1"
             d="m 338.69786,97.868924 -6.36442,2.296996 c 0,0 -2.52355,0.29118 -3.49417,1.65002 -0.9706,1.35884 -7.76478,17.56786 -7.76478,17.56786 0,0 0.19413,35.03866 0.38822,35.62102 0.19413,0.58236 2.42652,5.3383 3.10592,6.3089 0.67942,0.9706 1.35885,3.97946 3.39712,4.56182 2.03824,0.58236 13.00604,0.58236 13.00604,0.58236 0,0 5.53241,-3.78534 6.21184,-4.46476 0.67942,-0.67942 11.45307,-11.55014 11.55014,-12.1325 0.0971,-0.58236 2.9118,-8.54128 3.20297,-9.60894 0.29117,-1.06766 0.58237,-11.84132 0.58237,-12.71486 0,-0.87354 -2.32944,-13.87958 -2.32944,-13.87958 l -4.56184,-8.2501 c 0,0 -2.42649,-0.87354 -3.30002,-0.9706 -0.87354,-0.0971 -4.75596,-1.26178 -4.75596,-1.26178 l -0.87352,-3.202979 c 0,0 -0.38825,-0.29118 -0.77648,-0.776481 -0.38824,-0.485299 -0.97062,-0.9706 -0.97062,-0.9706 l 0.38825,0.194122"
             id="path973" />
          <path
             style="fill:none;stroke:#000000;stroke-width:2.2;stroke-linecap:butt;stroke-linejoin:miter;stroke-miterlimit:4;stroke-dasharray:none;stroke-opacity:1"
             d="m 327.38337,118.60732 -11.64719,26.88562 c 0,0 -1.9412,5.8236 -1.84415,6.21184 0.0971,0.38824 -0.58235,1.4559 0,2.13532 0.58238,0.67942 2.32945,1.26178 2.32945,1.26178 0,0 1.06767,1.55296 1.94119,1.06766 0.87355,-0.4853 1.06767,0.77648 0.9706,-1.06766 -0.097,-1.84414 -0.4853,-1.9412 -0.4853,-2.9118 0,-0.9706 -0.29117,-1.4559 0,-2.4265 0.2912,-0.9706 5.92066,-14.65606 5.92066,-14.65606"
             id="path975" />
          <path
             style="fill:none;stroke:#000000;stroke-width:2.2;stroke-linecap:butt;stroke-linejoin:miter;stroke-miterlimit:4;stroke-dasharray:none;stroke-opacity:1"
             d="m 316.22148,155.10188 -1.16473,3.3971 c 0,0 -0.19412,1.35884 0,1.74708 0.19413,0.38824 -0.29117,2.23238 -0.29117,2.23238 l -2.23237,30.76802 c 0,0 -0.58237,0.9706 -0.38825,1.35884 0.19413,0.38824 2.62062,1.16472 2.62062,1.16472 0,0 0.58237,-1.26178 0.58237,-1.65002 0,-0.38824 1.35883,-25.42972 1.35883,-25.42972 l 1.26179,-9.90012 0.9706,-2.62062 z"
             id="path977" />
          <path
             style="fill:none;stroke:#000000;stroke-width:2.2;stroke-linecap:butt;stroke-linejoin:miter;stroke-miterlimit:4;stroke-dasharray:none;stroke-opacity:1"
             d="m 312.63026,195.28472 -0.77647,2.9118 -5.43536,3.97946 -2.2324,7.08538 -0.58235,8.2501 c 0,0 -0.58235,2.81474 1.16472,4.3677 1.74708,1.55296 5.04712,3.8824 5.04712,3.8824 l 0.4853,-0.67942 c 0,0 -4.46477,-4.07652 -4.46477,-5.14418 0,-1.06766 -0.38822,-5.14418 0.4853,-6.89126 0.87355,-1.74708 2.81474,-5.62948 3.30004,-6.01772 0.4853,-0.38824 4.07654,-2.71768 4.07654,-2.71768 0,0 0.4853,2.32944 0.6794,3.10592 0.19413,0.77648 0,3.8824 -0.29117,4.56182 -0.29118,0.67942 -0.77648,3.8824 -0.77648,3.8824 l 0.29118,1.26178 c 0,0 0.9706,-1.16472 1.35884,-2.52356 0.38825,-1.35884 1.74708,-9.31776 1.74708,-9.31776 l -0.58235,-7.37656 -1.35885,-2.13532 z"
             id="path979" />
          <path
             style="fill:none;stroke:#000000;stroke-width:2.2;stroke-linecap:butt;stroke-linejoin:miter;stroke-miterlimit:4;stroke-dasharray:none;stroke-opacity:1"
             d="m 354.17193,116.86024 4.17359,32.5151 c 0,0 0.4853,5.04712 0.58235,5.43536 0.0971,0.38824 1.84415,2.23238 2.03827,2.62062 0.19413,0.38824 0.77648,0.19412 0.58235,1.35884 -0.1941,1.16472 -2.52354,2.23238 -3.00884,2.23238 -0.4853,0 -2.32945,0.19412 -2.32945,-0.67942 0,-0.87354 0.29118,-2.13532 0.29118,-2.9118 0,-0.77648 -1.35885,-8.44422 -1.35885,-8.44422 l -3.30001,-19.99436 -0.87355,-10.6766"
             id="path981" />
          <path
             style="fill:none;stroke:#000000;stroke-width:2.2;stroke-linecap:butt;stroke-linejoin:miter;stroke-miterlimit:4;stroke-dasharray:none;stroke-opacity:1"
             d="m 361.45144,159.95488 9.90013,9.90012 8.7354,14.17076 4.65886,6.40596 0.38825,1.74708 -3.59121,0.19412 -5.14419,-5.43536 -16.11196,-19.8973 -3.30004,-4.65888 -0.87353,-1.74708 h 2.13532 z"
             id="path983" />
          <path
             style="fill:none;stroke:#000000;stroke-width:2.2;stroke-linecap:butt;stroke-linejoin:miter;stroke-miterlimit:4;stroke-dasharray:none;stroke-opacity:1"
             d="m 381.54287,192.37292 c 0,0 0.87355,3.00886 1.55294,3.10592 0.67943,0.0971 1.06768,0.87354 1.84415,0.19412 0.77647,-0.67942 0.19412,-3.49416 0.19412,-3.49416 v 0"
             id="path985" />
          <path
             style="fill:none;stroke:#000000;stroke-width:2.2;stroke-linecap:butt;stroke-linejoin:miter;stroke-miterlimit:4;stroke-dasharray:none;stroke-opacity:1"
             d="m 326.6069,180.91984 -3.20297,2.52356 c 0,0 -3.39711,-1.74708 -2.91181,0.77648 0.48529,2.52356 0.97059,5.92066 1.06767,6.69714 0.097,0.77648 -1.06767,11.6472 -0.9706,12.42368 0.0971,0.77648 0.87352,4.17358 1.06765,4.56182 0.19412,0.38824 1.16472,0.4853 1.74709,-1.35884 0.58235,-1.84414 0.9706,-5.72654 2.32942,-6.40596 1.35885,-0.67942 5.43536,-0.4853 5.72657,0.29118 0.29117,0.77648 -3.97947,7.08538 -3.97947,7.08538 0,0 -0.87355,2.9118 -0.4853,3.78534 0.38822,0.87354 1.06765,3.59122 1.16472,4.27064 0.097,0.67942 8.92951,3.10592 8.92951,3.10592 0,0 2.42649,-0.38824 4.95006,-3.10592 2.52357,-2.71768 3.39709,-5.8236 3.49417,-6.69714 0.097,-0.87354 1.26177,-3.20298 0.29117,-3.68828 -0.9706,-0.4853 -5.14419,-1.55296 -5.14419,-1.55296 0,0 -0.58235,-2.03826 0.58238,-3.20298 1.16472,-1.16472 3.10591,-3.3971 3.49416,-3.3971 0.38823,0 0.38823,-1.06766 -0.19412,-1.9412 -0.58238,-0.87354 -2.7177,-1.74708 -1.2618,-2.62062 1.45592,-0.87354 2.81474,-1.65002 3.10594,-2.13532 0.29118,-0.4853 0.77648,-2.81474 -0.19412,-3.8824 -0.9706,-1.06766 -2.81474,-3.00886 -3.97947,-3.3971 -1.16472,-0.38824 -8.95762,-2.14178 -8.95762,-2.14178 l -7.05729,0.006"
             id="path989" />
          <path
             style="fill:none;stroke:#000000;stroke-width:2.2;stroke-linecap:butt;stroke-linejoin:miter;stroke-miterlimit:4;stroke-dasharray:none;stroke-opacity:1"
             d="m 331.84814,212.27022 -1.55295,31.0592 c 0,0 -2.03827,6.50302 -2.32944,7.08538 -0.29118,0.58236 -1.65002,2.23238 -1.65002,3.10592 0,0.87354 0.58235,2.32944 1.35884,2.62062 0.77648,0.29118 2.03825,0.19412 2.4265,0.67942 0.38822,0.4853 1.35885,0.9706 0.9706,2.03826 -0.38825,1.06766 -1.65003,2.52356 -0.58238,2.62062 1.06767,0.0971 2.7177,-2.32944 2.81474,-2.9118 0.0971,-0.58236 -0.19412,-2.81474 -0.19412,-3.8824 0,-1.06766 1.94122,-25.7209 1.94122,-25.7209 l 0.9706,-14.85018"
             id="path991" />
          <path
             style="fill:none;stroke:#000000;stroke-width:2.2;stroke-linecap:butt;stroke-linejoin:miter;stroke-miterlimit:4;stroke-dasharray:none;stroke-opacity:1"
             d="m 337.08938,218.67618 c 0,0 8.15305,13.00604 8.44423,13.49134 0.29117,0.4853 8.83245,21.64438 8.83245,21.64438 0,0 0.9706,2.71768 0.87355,3.3971 -0.0971,0.67942 -0.4853,2.4265 -0.4853,3.20298 0,0.77648 0.38822,1.35884 1.65002,1.35884 1.26177,0 3.20297,-0.9706 3.20297,-0.9706 l 1.74709,-3.3971 -1.94122,-5.14418 -12.42367,-26.49738 -8.05598,-14.26782"
             id="path993" />
          <path
             style="fill:none;stroke:#000000;stroke-width:2.2;stroke-linecap:butt;stroke-linejoin:miter;stroke-miterlimit:4;stroke-dasharray:none;stroke-opacity:1"
             d="m 356.01608,262.45024 c 0,0 -0.87355,1.84414 -0.67942,2.71769 0.19412,0.87352 1.84414,2.81474 1.84414,2.81474 0,0 0.58235,-0.9706 1.06767,1.16472 0.4853,2.13532 3.68827,40.474 3.68827,40.474 l -0.29117,5.62949 2.42649,-0.67942 0.9706,-30.86508 -0.19413,-15.23841 c 0,0 1.16472,-0.67942 0.9706,-1.4559 -0.1941,-0.7765 -0.9706,-0.97062 -0.58235,-2.42652 0.38825,-1.45589 0.58235,-1.45589 0.58235,-3.20297 0,-1.74708 -0.4853,-4.65888 -0.6794,-5.04712 -0.19412,-0.38824 -3.78534,1.06766 -3.78534,1.06766"
             id="path995" />
          <path
             style="fill:none;stroke:#000000;stroke-width:2.2;stroke-linecap:butt;stroke-linejoin:miter;stroke-miterlimit:4;stroke-dasharray:none;stroke-opacity:1"
             d="m 361.64557,315.25088 c 0,0 -1.26178,1.35885 -1.06768,2.32944 0.19413,0.9706 0.38825,1.55295 1.2618,1.65002 0.87352,0.097 1.16472,0.097 1.84412,-0.29117 0.67942,-0.38825 1.65002,-0.87355 1.65002,-1.4559 0,-0.58237 -1.26177,-2.91181 -1.26177,-2.91181"
             id="path997" />
          <path
             style="fill:none;stroke:#000000;stroke-width:2.2;stroke-linecap:butt;stroke-linejoin:miter;stroke-miterlimit:4;stroke-dasharray:none;stroke-opacity:1"
             d="m 360.38379,319.42447 c 0,0 -0.48532,0.87352 -0.2912,1.55294 0.19413,0.67943 -0.87352,2.62062 1.2618,1.65003 2.13532,-0.9706 4.36769,-2.4265 4.36769,-2.4265 0,0 1.16472,-1.06767 1.06767,-1.55297 -0.0971,-0.4853 -1.35884,-1.1647 -1.35884,-1.1647"
             id="path999" />
          <path
             style="fill:none;stroke:#000000;stroke-width:2.2;stroke-linecap:butt;stroke-linejoin:miter;stroke-miterlimit:4;stroke-dasharray:none;stroke-opacity:1"
             d="m 367.95445,320.49212 c 0,0 2.03827,0.38825 2.81474,0.29117 0.7765,-0.0971 2.91182,-0.6794 4.95007,-0.38822 2.03827,0.29117 4.17359,0.87355 5.43536,1.45589 1.2618,0.58235 2.71769,1.16473 4.17359,1.35885 1.45589,0.19412 4.56181,0.29117 6.01771,0.19412 1.45589,-0.0971 5.92066,-0.67942 5.92066,-0.67942 0,0 1.45589,-0.19412 1.45589,0.29118 0,0.48529 -1.16472,0.97059 -2.42649,1.35884 -1.26177,0.38823 -1.65002,0.77648 -4.46476,1.16472 -2.81475,0.38823 2.23239,0.38823 -7.57069,0.6794 -9.80305,0.2912 -14.07369,0.2912 -15.33546,0.2912 -1.26179,0 -5.04714,1.4559 -6.89125,1.4559 -1.84415,0 -3.10595,0.29117 -3.39712,-0.4853 -0.29118,-0.7765 -0.77647,-1.9412 -0.29118,-2.32944 0.4853,-0.38825 1.4559,-2.13532 1.4559,-2.13532"
             id="path1001" />
          <path
             style="fill:none;stroke:#000000;stroke-width:2.2;stroke-linecap:butt;stroke-linejoin:miter;stroke-miterlimit:4;stroke-dasharray:none;stroke-opacity:1"
             d="m 329.90694,261.47964 c 0,0 -22.32379,19.12082 -23.39146,19.70317 -1.06765,0.58238 -14.17077,9.90013 -14.17077,9.90013 l -2.03824,0.4853 c 0,0 -0.58238,-0.67943 -0.38825,-1.06765 0.19412,-0.38825 26.59443,-25.42974 26.88563,-25.81796 0.29117,-0.38825 3.39709,-3.88241 3.59122,-4.65889 0.19412,-0.77648 -0.0971,-1.9412 0.38822,-3.30004 0.48533,-1.35884 1.16472,-2.71768 1.84415,-2.81474 0.67942,-0.0971 3.20299,-0.0971 3.20299,-0.0971"
             id="path1003" />
          <path
             style="fill:none;stroke:#000000;stroke-width:2.2;stroke-linecap:butt;stroke-linejoin:miter;stroke-miterlimit:4;stroke-dasharray:none;stroke-opacity:1"
             d="m 288.17115,291.08294 c 0,0 -1.16473,0.4853 -1.16473,1.06767 0,0.58235 0,1.06765 -0.97059,1.4559 -0.9706,0.38822 -0.87355,-0.0971 -0.9706,0.38822 -0.0971,0.4853 2.52354,4.27064 2.52354,4.27064 l 1.16472,-1.74707 c 0,0 0.19413,-0.9706 0.58238,-1.06765 0.38822,-0.0971 1.55294,-0.2912 1.65002,-0.67942 0.0971,-0.38825 0.19412,-1.06767 0.19412,-1.06767 l 1.1647,-2.62062 -2.03824,0.4853 v 0 z"
             id="path1005" />
          <path
             style="fill:none;stroke:#000000;stroke-width:2.2;stroke-linecap:butt;stroke-linejoin:miter;stroke-miterlimit:4;stroke-dasharray:none;stroke-opacity:1"
             d="m 285.06523,294.48003 -3.20299,0.67942 -0.77648,1.4559 c 0,0 0.38825,0.87355 -0.87355,1.06767 -1.26177,0.19413 -3.49414,-1.45589 -4.07651,-0.0971 -0.58235,1.35882 -1.65002,3.30004 0.19412,4.46474 1.84415,1.16472 6.69714,2.13532 7.86186,3.30004 1.16472,1.16473 8.25011,8.25011 8.54128,8.63836 0.29117,0.38822 1.84414,3.30004 2.23239,3.97946 0.38823,0.6794 4.17357,3.88239 4.46474,4.36769 0.2912,0.4853 0.9706,2.03827 1.7471,2.13532 0.77647,0.097 2.52354,0.097 0.77647,-1.94119 -1.74707,-2.03827 -10.1913,-17.66494 -10.1913,-17.66494 l -4.17359,-6.60008"
             id="path1007" />
        </g>
      </g>
      <g
         id="g1071"
         style="stroke-width:2.3;stroke-miterlimit:4;stroke-dasharray:none"
         transform="matrix(0.74155321,0,0,0.71738508,88.991021,46.131765)">
        <path
           style="fill:none;stroke:#000000;stroke-width:2.3;stroke-linecap:butt;stroke-linejoin:miter;stroke-miterlimit:4;stroke-dasharray:none;stroke-opacity:1"
           d="m 491.95264,73.573274 c 0,0 1.57853,-1.990323 1.71577,-2.470745 0.13727,-0.480423 0.68633,-1.372635 0.68633,-2.196217 0,-0.823581 -1.37263,-4.529698 -1.44126,-4.804224 -0.0686,-0.274529 -4.52969,-6.314125 -4.52969,-6.314125 0,0 -8.44172,-2.058953 -8.78489,-2.196217 -0.34316,-0.137263 -9.05938,0.06863 -9.05938,0.06863 0,0 -6.31412,2.676641 -6.52002,3.157063 -0.2059,0.480423 -3.77476,5.8337 -3.91203,6.657282 -0.13726,0.823582 -0.13726,5.421911 0.34317,6.108229 0.48043,0.686319 1.5099,6.108229 1.85306,6.588652 0.34317,0.480422 4.39243,3.225694 4.66696,3.225694 0.27453,0 3.63749,-0.06863 3.63749,-0.06863 l 1.9217,0.205896 c 0,0 3.56883,0.343159 3.84336,0.343159 0.27453,0 1.78443,-0.411789 2.19623,-0.137263 0.41179,0.274526 1.64716,2.951165 1.64716,2.951165 l 0.2059,1.304004 9.60845,7.892656 c 0,0 1.57853,0.06863 1.57853,-0.274526 0,-0.34316 -0.75496,-1.509901 -0.4118,-2.196217 0.34317,-0.686318 3.56886,-5.01012 3.63749,-5.35328 0.0686,-0.343159 -0.27453,-3.362957 -0.82359,-3.912012 -0.54904,-0.549053 -2.26483,-2.470743 -2.26483,-2.470743 l -0.54907,-1.235374 1.02947,-0.892212 c 0,0 0.34316,-1.5099 0.2059,-1.784427 -0.13727,-0.274526 -0.48041,-2.196216 -0.48041,-2.196216 z"
           id="path1009" />
        <path
           style="fill:none;stroke:#000000;stroke-width:2.3;stroke-linecap:butt;stroke-linejoin:miter;stroke-miterlimit:4;stroke-dasharray:none;stroke-opacity:1"
           d="m 472.94162,82.495405 c 0,0 -2.53937,7.549496 -2.53937,7.824023 0,0.274529 -0.61769,3.637486 -0.61769,5.01012 0,1.372638 -1.5099,4.529699 -1.5099,4.529699 0,0 0,32.668723 0.0686,32.943253 0.0686,0.27453 1.16676,5.69644 2.05896,7.41224 0.8922,1.71579 2.95117,7.89265 3.0198,8.37307 0.0686,0.48043 0.4118,12.35372 0.4118,12.76552 0,0.41179 -1.78443,5.69643 -1.78443,5.69643 l -1.85307,1.44127 c 0,0 -0.8922,1.44127 -0.0686,2.19622 0.8236,0.75495 3.36296,2.53937 4.11792,2.53937 0.75494,0 3.5002,-0.82358 3.84337,-1.37263 0.34316,-0.54906 2.12759,-9.74572 2.12759,-10.08887 0,-0.34316 -4.04929,-26.83503 -4.04929,-26.83503 0,0 -2.608,-7.96129 -2.608,-8.57897 0,-0.61769 0.54907,-19.14827 0.54907,-19.14827 l -0.0686,-10.088875 0.75494,-4.049276 c 0,0 0.96086,-0.686316 0.96086,-1.372634 0,-0.686319 -0.4118,-2.127586 -0.4118,-2.813905 0,-0.686316 0.27453,-1.784427 0.4118,-2.058953 0.13727,-0.274526 1.23537,-2.470743 1.23537,-2.470743 l 0.82357,-2.608008 h -2.26484 -2.47076 z"
           id="path1011" />
        <path
           style="fill:none;stroke:#000000;stroke-width:2.3;stroke-linecap:butt;stroke-linejoin:miter;stroke-miterlimit:4;stroke-dasharray:none;stroke-opacity:1"
           d="m 468.27466,99.859247 -7.20633,1.990323 c 0,0 -0.82359,0.68632 -1.23536,3.0198 -0.4118,2.33348 0,24.57018 0.13724,25.25649 0.13726,0.68632 2.05896,14.41268 2.05896,14.41268 l 1.78443,9.19666 c 0,0 3.70612,5.35328 4.11792,5.90233 0.41177,0.54905 4.80423,2.05896 4.80423,2.05896 0,0 8.51032,2.33347 9.74568,1.78442 1.2354,-0.54905 5.90236,-3.43159 7.27499,-4.5297 1.37263,-1.0981 4.25516,-5.07875 4.66696,-6.72591 0.41179,-1.64716 1.92169,-14.00089 1.92169,-15.23626 0,-1.23537 -2.33349,-14.96173 -2.33349,-14.96173 l -4.52969,-13.1773 -0.68631,-6.0396 c 0,0 -0.96086,-1.23537 -2.47076,-1.5099 -1.50989,-0.27452 -7.13771,-1.37263 -7.13771,-1.37263 -1.22527,-1.521542 -2.66965,-2.889702 -4.80419,-3.774753"
           id="path1013"
           sodipodi:nodetypes="ccssccscsssscccscc" />
        <path
           style="fill:none;stroke:#000000;stroke-width:2.3;stroke-linecap:butt;stroke-linejoin:miter;stroke-miterlimit:4;stroke-dasharray:none;stroke-opacity:1"
           d="m 458.89968,127.92508 -4.95007,16.88844 c 0,0 -1.26177,1.74708 -1.35882,2.13532 -0.0971,0.38824 1.1647,2.71768 1.1647,2.71768 0,0 1.55297,-0.58236 1.7471,-0.9706 0.19412,-0.38824 0.19412,-1.16472 0.38825,-2.03826 0.19409,-0.87354 0.77647,-5.04712 1.06764,-6.21184 0.29118,-1.16472 3.49417,-10.6766 3.49417,-10.6766 l 3.39709,-9.80306"
           id="path1015" />
        <path
           style="fill:none;stroke:#000000;stroke-width:2.3;stroke-linecap:butt;stroke-linejoin:miter;stroke-miterlimit:4;stroke-dasharray:none;stroke-opacity:1"
           d="m 453.75549,149.66652 2.03827,11.74426 1.35885,15.23842 0.87355,8.05598 c 0,0 0.48529,3.20298 0.58234,3.59122 0.0971,0.38824 1.16473,1.4559 1.16473,1.4559 l -0.87355,-13.1031 -1.35885,-11.6472 c 0,0 0.58237,-6.40596 0.58237,-6.98832 0,-0.58236 -0.38824,-3.3971 -0.48529,-4.07652 -0.0971,-0.67942 -2.2324,-4.99859 -2.2324,-4.99859 l -1.65002,0.72795"
           id="path1017" />
        <path
           style="fill:none;stroke:#000000;stroke-width:2.3;stroke-linecap:butt;stroke-linejoin:miter;stroke-miterlimit:4;stroke-dasharray:none;stroke-opacity:1"
           d="m 458.1232,156.46072 c 0,0 2.86327,6.40596 2.86327,6.60008 0,0.19412 0.19413,3.93093 0.24265,4.56182 0.0485,0.63089 1.62364,16.85962 1.62364,16.85962 0,0 -0.27453,0.54905 -0.27453,1.64716 0,1.09811 -1.59176,2.02141 -1.59176,2.21553 0,0.19412 -1.50442,-22.37233 -1.50442,-22.37233 l -1.1162,-4.12505 -0.43677,-1.06766 0.29117,-3.73681 z"
           id="path1019" />
        <path
           style="fill:none;stroke:#000000;stroke-width:2.3;stroke-linecap:butt;stroke-linejoin:miter;stroke-miterlimit:4;stroke-dasharray:none;stroke-opacity:1"
           d="m 463.07327,186.45226 0.87352,7.08538 c 0,0 0.2912,4.07652 0.38825,5.43536 0.0971,1.35884 -1.84415,6.60008 -1.84415,6.60008 l -2.91179,3.78534 c 0,0 -0.38825,0.29118 -0.29117,-0.77648 0.097,-1.06766 0.097,-0.77648 0.38822,-2.23238 0.2912,-1.4559 0.87355,-4.3677 0.97062,-4.75594 0.0971,-0.38824 0,-2.62062 0,-2.62062 0,0 -1.55297,4.56182 -1.55297,4.95006 0,0.38824 -1.06764,2.4265 -1.26177,2.9118 -0.19412,0.4853 -1.06767,2.03826 -1.35885,0.9706 -0.29117,-1.06766 -0.77647,-0.77648 -0.19412,-2.03826 0.58237,-1.26178 1.06767,-2.32944 1.26177,-2.9118 0.19413,-0.58236 1.06767,-3.49416 1.06767,-3.49416 0,0 -0.19412,0.19412 -0.67942,1.16472 -0.4853,0.9706 -2.03824,4.07652 -2.23237,4.56182 -0.19412,0.4853 -0.87355,1.16472 -0.87355,1.16472 0,0 -0.4853,0.58236 -0.38825,-0.67942 0.0971,-1.26178 0.19413,-2.23238 0.7765,-3.10592 0.58235,-0.87354 1.9412,-3.10592 1.9412,-3.10592 l 0.67942,-3.00886 c 0,0 -0.67942,0.29118 -1.06767,0.87354 -0.38823,0.58236 -1.26177,2.03826 -1.74707,2.71768 -0.4853,0.67942 -1.06768,1.06766 -1.06768,1.06766 l -0.48529,-0.67942 c 0,0 0.19412,-0.9706 0.48529,-1.4559 0.2912,-0.4853 1.55298,-1.9412 1.7471,-2.32944 0.19413,-0.38824 2.52354,-3.59122 2.52354,-3.59122 l 1.55298,-3.20298 3.07953,-5.27006"
           id="path1023" />
        <path
           style="fill:none;stroke:#000000;stroke-width:2.3;stroke-linecap:butt;stroke-linejoin:miter;stroke-miterlimit:4;stroke-dasharray:none;stroke-opacity:1"
           d="m 487.72651,126.46918 0.38822,19.12082 0.67942,1.4559 c 0,0 0.87355,0.67942 0.7765,1.35884 -0.0971,0.67942 -2.32944,1.74708 -2.32944,1.74708 l -2.32945,-0.29118 c 0,0 -0.38825,-0.9706 -0.38825,-1.4559 0,-0.4853 -0.48529,-7.95892 -0.48529,-7.95892 l -0.0971,-0.58236 -0.67943,-4.56182"
           id="path1025" />
        <path
           style="fill:none;stroke:#000000;stroke-width:2.3;stroke-linecap:butt;stroke-linejoin:miter;stroke-miterlimit:4;stroke-dasharray:none;stroke-opacity:1"
           d="m 488.79415,147.0459 13.29722,15.72372 8.15306,10.77366 1.35884,1.65002 -0.87354,0.4853 -4.46477,-3.8824 -8.83245,-7.86186 -9.99718,-10.38542 -2.52357,-3.68828"
           id="path1027" />
        <path
           style="fill:none;stroke:#000000;stroke-width:2.3;stroke-linecap:butt;stroke-linejoin:miter;stroke-miterlimit:4;stroke-dasharray:none;stroke-opacity:1"
           d="m 511.60327,175.1933 c 2.31154,-0.045 5.8804,0.91586 6.1549,0.91586 0.27453,0 3.77476,1.5099 4.52972,1.99032 0.75494,0.48042 4.32379,4.87286 4.32379,4.87286 l 0.4118,1.304 -2.12759,-1.16674 -0.96084,-1.09811 c 0,0 -1.37265,-1.16674 -1.02949,-0.54905 0.34316,0.61769 1.5099,1.78443 1.78443,2.33348 0.27453,0.54905 1.92169,3.08843 2.33349,3.63748 0.41177,0.54906 1.16674,1.78443 1.16674,1.78443 l 0.13726,1.7158 c 0,0 -1.23536,-0.4118 -1.57853,-1.09811 -0.34316,-0.68632 -1.85306,-2.60801 -1.99033,-2.95117 -0.13726,-0.34316 -2.608,-3.84338 -2.608,-3.84338 0,0 -1.37263,-0.54906 -1.30399,0.27453 0.0686,0.82358 1.0981,2.8139 1.57853,3.63748 0.4804,0.82358 1.37263,2.12759 1.64716,2.47075 0.2745,0.34315 0.41177,1.92169 0.41177,1.92169 l -1.304,-0.41179 c 0,0 -1.304,-1.44127 -1.57853,-2.12759 -0.27453,-0.68632 -0.6177,-1.71579 -1.16673,-2.47075 -0.54907,-0.75494 -1.85306,-2.40211 -1.85306,-2.40211 l -0.4118,-1.16674 c 0,0 -1.37263,0.0686 -0.27453,1.7158 1.09812,1.64716 2.05896,3.29432 2.47076,3.91201 0.41179,0.61769 1.02946,2.19622 1.02946,2.19622 0,0 0.48043,1.304 -0.4804,0.0686 -0.96086,-1.23537 -3.15709,-3.36296 -3.15709,-3.36296 0,0 -0.4804,-1.99032 -0.82357,-2.53938 -0.34316,-0.54905 -1.99033,-2.33348 -1.99033,-2.33348 0,0 0.0686,2.47075 0.34317,2.95117 0.27453,0.48042 1.37263,2.53938 1.64716,3.29433 0.27453,0.75495 0.4118,1.57853 0.13727,1.37263 -0.27453,-0.20589 -2.67663,-2.8139 -2.88253,-3.22569 -0.2059,-0.41179 -0.96086,-2.40212 -1.16676,-3.43159 -0.20587,-1.02948 -0.96084,-3.50022 -0.96084,-3.50022 0,0 -0.96083,-2.05896 -0.96083,-2.33348 0,-0.27453 -0.37118,-1.87183 -0.37118,-1.87183"
           id="path1029" />
        <path
           style="fill:none;stroke:#000000;stroke-width:2.3;stroke-linecap:butt;stroke-linejoin:miter;stroke-miterlimit:4;stroke-dasharray:none;stroke-opacity:1"
           d="m 469.30415,170.41272 -2.74529,1.37264 c 0,0 -1.44126,-1.5099 -1.71579,-0.27453 -0.27451,1.23537 -0.48041,2.53938 -0.20588,3.63748 0.27451,1.09811 0.41177,7.82403 0.41177,7.82403 0,0 -0.75493,0.68632 -0.6863,1.71579 0.0686,1.02948 0.54904,4.32381 1.5099,4.87286 0.96083,0.54905 4.80422,0.27453 4.80422,0.27453 0,0 1.0981,0.89221 0.61767,1.78442 -0.4804,0.89222 -2.47073,4.59833 -2.60799,5.35328 -0.13727,0.75495 -1.37264,3.77475 -1.0981,3.98064 0.27453,0.2059 1.16673,1.23538 1.16673,1.23538 0,0 0.2059,1.92169 0,2.40211 -0.2059,0.48042 -1.44127,2.67664 -1.02947,3.22569 0.41177,0.54906 2.1962,3.2257 2.1962,3.2257 l 7.54952,1.23537 c 0,0 1.85303,-0.0686 3.56883,-0.68632 1.7158,-0.61768 5.35329,-3.63748 5.90235,-4.39243 0.54904,-0.75495 2.74526,-3.36296 2.8139,-3.63749 0.0686,-0.27452 -0.34317,-2.40211 -0.68633,-3.01979 -0.34314,-0.61769 -1.5099,-1.50991 -1.9903,-1.92169 -0.48043,-0.4118 -1.0295,-1.85306 -1.16676,-2.33349 -0.13727,-0.48042 0.13726,-3.15706 0.89222,-3.84338 0.75494,-0.68632 2.608,-2.95116 2.33347,-3.08843 -0.27453,-0.13726 -1.304,-0.96084 -1.304,-0.96084 0,0 -0.48043,-1.02948 0.4118,-1.37264 0.8922,-0.34316 3.36296,-1.23537 3.56886,-1.64716 0.2059,-0.41179 0.4804,-1.64716 0.4804,-2.12758 0,-0.48043 -5.62779,-6.93181 -5.62779,-6.93181 l -8.57898,-4.5297"
           id="path1031" />
        <path
           style="fill:none;stroke:#000000;stroke-width:2.3;stroke-linecap:butt;stroke-linejoin:miter;stroke-miterlimit:4;stroke-dasharray:none;stroke-opacity:1"
           d="m 474.38288,205.68946 -2.74526,17.02068 -8.37308,26.42324 c 0,0 -1.64717,3.56885 -2.33347,4.1179 -0.68633,0.54906 -2.33349,2.19622 -2.33349,2.19622 0,0 0.41179,2.74527 1.16676,3.08843 0.75493,0.34316 2.81389,1.30401 3.91199,1.16674 1.0981,-0.13726 2.05896,-0.54905 2.47076,-1.23537 0.41177,-0.68632 0.48041,-3.22569 0.75494,-4.11791 0.27453,-0.89221 7.75538,-23.12891 7.75538,-23.12891 l 4.04929,-16.1971 0.34317,-8.44171"
           id="path1033" />
        <path
           style="fill:none;stroke:#000000;stroke-width:2.3;stroke-linecap:butt;stroke-linejoin:miter;stroke-miterlimit:4;stroke-dasharray:none;stroke-opacity:1"
           d="m 480.97154,211.86632 c 0,0 17.63836,24.43291 18.18743,24.91334 0.54906,0.48042 6.10822,9.74571 6.10822,9.74571 l 1.64717,0.96084 c 0,0 0.82359,0.13727 0.96086,1.09811 0.13726,0.96085 0,3.63749 -1.0295,4.39244 -1.02946,0.75495 -1.9903,2.26485 -3.63746,2.33348 -1.64717,0.0686 -3.29433,-0.13727 -3.4316,-1.37264 -0.13726,-1.23537 0.0686,-2.40211 0.27454,-3.15706 0.20587,-0.75495 -0.54907,-3.22569 -0.8236,-3.98064 -0.27453,-0.75495 -19.6287,-27.86451 -19.6287,-27.86451 l -1.57853,-2.12758"
           id="path1035" />
        <path
           style="fill:none;stroke:#000000;stroke-width:2.3;stroke-linecap:butt;stroke-linejoin:miter;stroke-miterlimit:4;stroke-dasharray:none;stroke-opacity:1"
           d="m 506.91436,247.48621 c 0,0 2.19622,0.0686 2.67665,0.2059 0.48041,0.13726 1.71577,0.41179 2.05894,1.09811 0.34316,0.68632 -0.2059,5.62781 -0.2059,5.62781 0,0 -0.0686,0.96084 -0.27451,2.608 -0.2059,1.64717 -0.0686,43.92436 -0.0686,43.92436 l 0.34314,8.37306 -0.82357,1.16675 c 0,0 -2.26486,0.48041 -2.88253,-0.41179 -0.6177,-0.89223 -0.2059,-12.76551 -0.2059,-12.76551 l -1.99033,-22.09943 -1.99032,-12.14784 c 0,0 -0.13727,-1.304 -0.54904,-1.57853 -0.4118,-0.27453 -2.53939,-0.96085 -2.67666,-1.44127 -0.13726,-0.48042 -0.82357,-0.13726 -0.34314,-1.37263 0.48041,-1.23538 1.5099,-3.15707 1.5099,-3.15707"
           id="path1037" />
        <path
           style="fill:none;stroke:#000000;stroke-width:2.3;stroke-linecap:butt;stroke-linejoin:miter;stroke-miterlimit:4;stroke-dasharray:none;stroke-opacity:1"
           d="m 507.80658,310.07841 c 0,0 -0.82359,1.304 -0.82359,1.57853 0,0.27453 -0.54904,1.64716 0.0686,1.85306 0.6177,0.2059 2.8139,0 2.8139,0 0,0 1.78443,-0.54906 1.92169,-0.89223 0.13727,-0.34316 1.44124,-0.2059 0.13727,-1.16673 -1.30397,-0.96084 -0.48041,-2.12759 -0.48041,-2.12759"
           id="path1039" />
        <path
           style="fill:none;stroke:#000000;stroke-width:2.3;stroke-linecap:butt;stroke-linejoin:miter;stroke-miterlimit:4;stroke-dasharray:none;stroke-opacity:1"
           d="m 507.18889,313.9904 c 0,0 -0.96084,1.64717 -1.02947,2.1276 -0.0686,0.48043 -1.16676,1.57853 0,1.64716 1.16673,0.0686 2.33347,-0.13726 2.8139,-0.54906 0.48043,-0.41177 1.57853,-1.16674 2.33346,-1.57853 0.75496,-0.41177 1.57856,-0.68631 1.57856,-0.68631 0,0 0.61767,-0.68632 0.54904,-1.16673 -0.0686,-0.48043 -0.82357,-1.71579 -0.82357,-1.71579"
           id="path1041" />
        <path
           style="fill:none;stroke:#000000;stroke-width:2.3;stroke-linecap:butt;stroke-linejoin:miter;stroke-miterlimit:4;stroke-dasharray:none;stroke-opacity:1"
           d="m 512.88534,314.95126 c 0,0 4.80422,1.7158 5.35326,2.05897 0.54906,0.34313 1.16673,0.75493 3.36296,2.1962 2.19623,1.44126 5.90233,3.70612 7.34362,4.11792 1.44126,0.41177 5.14736,0.96083 5.55916,0.96083 0.4118,0 3.15706,0.27453 3.36296,0.54907 0.2059,0.2745 1.78443,1.30399 -0.54907,1.37263 -2.33346,0.0686 -2.67663,-0.0686 -4.73559,0 -2.05893,0.0686 -1.64716,0.2059 -4.80422,-0.27453 -3.15706,-0.48043 -6.52002,-1.304 -7.89266,-1.7158 -1.37263,-0.4118 -3.29432,-0.75494 -5.01012,-0.75494 -1.7158,0 -2.4021,-0.20589 -4.11789,0.13724 -1.7158,0.34317 -5.21603,1.2354 -6.0396,1.64717 -0.82359,0.41179 -1.99032,1.16676 -2.53939,0.27453 -0.54903,-0.8922 -1.0981,-3.08843 -0.8922,-3.50023 0.2059,-0.41177 2.95116,-3.77473 2.95116,-3.77473 l 1.23537,-0.75496"
           id="path1043" />
        <path
           style="fill:none;stroke:#000000;stroke-width:2.3;stroke-linecap:butt;stroke-linejoin:miter;stroke-miterlimit:4;stroke-dasharray:none;stroke-opacity:1"
           d="m 458.59758,255.4475 c 0,0 -2.67663,2.12759 -2.74527,3.0198 -0.0686,0.89221 0.54907,1.64716 -0.34316,2.88254 -0.8922,1.23537 -5.35326,6.45138 -7.75539,8.8535 -2.4021,2.4021 -28.13902,27.65859 -28.13902,27.65859 l 1.44127,1.44129 28.00175,-22.99165 14.8931,-12.55962 c 0,0 2.19623,-0.68632 2.47074,-1.09811 0.27453,-0.41179 1.50992,-0.75495 1.57853,-2.12759 0.0686,-1.37263 0.68633,-1.57853 0,-2.40211 -0.68631,-0.82358 -1.44127,-1.78442 -1.44127,-1.78442"
           id="path1045" />
        <path
           style="fill:none;stroke:#000000;stroke-width:2.3;stroke-linecap:butt;stroke-linejoin:miter;stroke-miterlimit:4;stroke-dasharray:none;stroke-opacity:1"
           d="m 419.61474,297.86193 -1.99033,0.8236 c 0,0 -0.41179,0.96083 -0.34316,1.44126 0.0686,0.48043 0.2059,1.44127 0.0686,1.78443 -0.13726,0.34317 -0.75496,0.96084 -0.0686,1.44127 0.68633,0.48043 1.5099,0.82359 1.92169,0.41179 0.4118,-0.41179 0,-0.68632 0.68631,-0.82359 0.68633,-0.13727 2.47076,-1.44127 2.47076,-1.44127 l -1.304,-2.1962 v 0"
           id="path1047" />
        <path
           style="fill:none;stroke:#000000;stroke-width:2.3;stroke-linecap:butt;stroke-linejoin:miter;stroke-miterlimit:4;stroke-dasharray:none;stroke-opacity:1"
           d="m 415.90862,300.74449 c 0,0 -1.0981,0.2059 -3.29433,0.2059 -2.19623,0 -5.83369,-0.6177 -6.65729,-0.2059 -0.82357,0.41177 -1.92169,2.33347 -0.13726,3.5002 1.78443,1.16676 2.33349,1.92169 4.39242,2.88255 2.05897,0.96084 3.36296,2.53937 3.4316,3.50023 0.0686,0.96083 1.50989,11.32422 1.50989,11.32422 0,0 0.96087,0.96086 1.09813,1.7158 0.13727,0.75496 -0.0686,1.16676 0.61767,1.78443 0.68633,0.61769 1.44127,1.64716 2.47076,2.26486 1.02947,0.61767 2.88253,0.61767 2.8139,0.27453 -0.0686,-0.34317 -1.5099,-1.78443 -1.85307,-2.47076 -0.34316,-0.6863 -1.44126,-2.1962 -1.23536,-3.0198 0.2059,-0.82357 0.34316,-4.46106 0.34316,-4.80422 0,-0.34317 -0.68633,-5.97096 -0.68633,-6.58866 0,-0.61767 -0.0686,-3.91199 -0.13726,-4.25516 -0.0686,-0.34316 0,-3.08843 0,-3.08843"
           id="path1049" />
      </g>
    </g>
  </g>
</svg>
