<?xml version="1.0" encoding="UTF-8" standalone="no"?>
<svg
   xmlns:dc="http://purl.org/dc/elements/1.1/"
   xmlns:cc="http://creativecommons.org/ns#"
   xmlns:rdf="http://www.w3.org/1999/02/22-rdf-syntax-ns#"
   xmlns:svg="http://www.w3.org/2000/svg"
   xmlns="http://www.w3.org/2000/svg"
   xmlns:sodipodi="http://sodipodi.sourceforge.net/DTD/sodipodi-0.dtd"
   xmlns:inkscape="http://www.inkscape.org/namespaces/inkscape"
   width="210mm"
   height="297mm"
   viewBox="0 0 210 297"
   version="1.1"
   id="svg1011"
   inkscape:version="1.0.2 (e86c870879, 2021-01-15, custom)"
   sodipodi:docname="excretionsystem.svg">
  <defs
     id="defs1005" />
  <sodipodi:namedview
     id="base"
     pagecolor="#ffffff"
     bordercolor="#666666"
     borderopacity="1.0"
     inkscape:pageopacity="0.0"
     inkscape:pageshadow="2"
     inkscape:zoom="0.2409446"
     inkscape:cx="193.29485"
     inkscape:cy="-361.28881"
     inkscape:document-units="mm"
     inkscape:current-layer="layer1"
     inkscape:document-rotation="0"
     showgrid="false"
     inkscape:window-width="1920"
     inkscape:window-height="1017"
     inkscape:window-x="-8"
     inkscape:window-y="-8"
     inkscape:window-maximized="1" />
  <metadata
     id="metadata1008">
    <rdf:RDF>
      <cc:Work
         rdf:about="">
        <dc:format>image/svg+xml</dc:format>
        <dc:type
           rdf:resource="http://purl.org/dc/dcmitype/StillImage" />
        <dc:title></dc:title>
      </cc:Work>
    </rdf:RDF>
  </metadata>
  <g
     inkscape:label="Layer 1"
     inkscape:groupmode="layer"
     id="layer1">
    <g
       id="g1721">
      <g
         id="g1658"
         transform="matrix(0.97760449,0,0,0.78609447,1.7210151,55.128658)">
        <path
           style="fill:#e9afaf;stroke:#000000;stroke-width:0.801;stroke-linecap:butt;stroke-linejoin:miter;stroke-miterlimit:4;stroke-dasharray:none;stroke-opacity:1"
           d="m 82.083615,-28.825348 1.372635,76.318543 -16.88342,6.176861 0.686319,6.863178 13.863621,-3.568853 3.706117,82.769929 4.804225,19.76596 6.039596,-0.41179 0.274526,-10.15751 5.353276,-3.43159 13.17731,10.15751 -1.92169,14.54994 2.19621,0.96084 4.39244,-13.72636 13.58909,17.02069 c 0,0 4.25517,-1.5099 4.11791,-2.60801 -0.13727,-1.09811 -35.00221,-39.66917 -35.00221,-39.66917 l -3.294327,-85.103415 1.784427,-7.412233 35.55126,4.666961 -1.23537,-4.117908 -35.413999,-8.235813 -2.333482,-61.494079 z"
           id="path1588" />
        <path
           style="fill:#e9afaf;stroke:#000000;stroke-width:0.801;stroke-linecap:butt;stroke-linejoin:miter;stroke-miterlimit:4;stroke-dasharray:none;stroke-opacity:1"
           d="m 102.39862,-29.374404 h 15.51078 l 0.54906,56.827118 18.11879,-2.058954 -1.37263,2.745272 -10.02025,2.470743 v 1.372637 l 9.19666,3.84338 0.27453,4.392433 -13.45183,-5.76507 -3.70611,1.5099 -1.92169,68.219995 0.54905,14.41267 18.11879,38.15927 3.15706,15.51079 -4.66696,2.19622 -6.86318,-21.00133 -7.96129,18.25605 -3.15706,-0.54905 7.27497,-21.55038 -6.86317,-13.45183 -7.5495,-5.07875 -15.373523,12.76551 0.549056,15.09899 -3.157061,0.54906 -1.235374,-12.0792 -12.079192,9.88298 -10.981087,21.55038 -5.35328,-2.05895 c 0,0 7.824025,-18.66785 8.373078,-19.35417 0.549055,-0.68632 16.47163,-17.707 16.47163,-17.707 l 12.490984,-16.74615 4.529699,-8.09855 0.82358,-54.493639 0.27453,-23.88386 L 67.121886,47.218668 66.847359,44.61066 77.416654,40.218225 78.789288,38.4338 65.611985,38.708327 65.200196,35.688529 101.98683,29.099877 Z"
           id="path1590" />
        <path
           style="fill:#d35f5f;stroke:#000000;stroke-width:0.801;stroke-linecap:butt;stroke-linejoin:miter;stroke-miterlimit:4;stroke-dasharray:none;stroke-opacity:1"
           d="M 63.553032,2.8825348 C 59.158662,0.8177415 55.666753,1.077898 52.214295,3.1208948 46.987832,6.2136613 43.357282,11.823253 40.085076,15.89882 17.161934,44.44984 38.221073,90.104156 56.415328,85.37794 81.700805,84.180277 62.975171,59.344013 65.473492,36.483576 65.988264,31.773249 72.820514,24.837648 74.185641,21.006867 77.493174,11.72536 76.225962,9.0783473 63.553032,2.8825348 Z"
           id="path1592"
           sodipodi:nodetypes="csscssc" />
        <path
           style="fill:#d35f5f;stroke:#000000;stroke-width:0.801;stroke-linecap:butt;stroke-linejoin:miter;stroke-miterlimit:4;stroke-dasharray:none;stroke-opacity:1"
           d="m 139.70073,-6.9570078 c 4.19895,-2.0647928 8.49641,-0.4320011 11.79534,1.6109957 4.99403,3.0927665 8.46314,8.7023582 11.58983,12.7779252 21.90373,28.5510199 1.78111,74.2053359 -15.60404,69.4791199 -26.55771,-3.08078 -8.40091,-27.743796 -11.12609,-47.933519 -0.42813,-3.171781 -3.60913,-9.38549 -6.67756,-14.104073 -1.5737,-2.420017 -8.12637,-10.9047747 10.02252,-21.8304488 z"
           id="path1592-8"
           sodipodi:nodetypes="csscssc" />
        <path
           id="path1614"
           style="fill:#ffd42a;stroke:#000000;stroke-width:0.801;stroke-linecap:butt;stroke-linejoin:miter;stroke-miterlimit:4;stroke-dasharray:none;stroke-opacity:1"
           d="m 65.611985,38.708327 c 4.903472,7.250072 12.465963,13.21081 13.646598,22.346189 3.570772,9.589392 -1.712829,19.450847 -2.266065,29.223983 -1.161111,11.571231 -5.422638,23.172981 -2.436224,34.754451 1.720793,13.1268 6.533101,25.75298 5.977475,39.1521 1.254295,9.57849 -1.105975,19.84442 2.656575,28.92365 2.87755,5.92423 11.248767,12.77703 10.22822,18.59495 -4.942251,-7.979 -10.083366,-15.9485 -14.661356,-24.18726 C 77.408637,171.68326 77.067553,155.656 72.257476,140.36726 69.069396,128.96933 66.765729,117.33659 69.847078,105.66503 71.250725,92.574065 74.993838,79.295226 72.611803,66.146993 66.988123,62.8094 66.666186,56.975525 66.556462,51.222636 66.241636,47.0512 65.926811,42.879763 65.611985,38.708327 Z" />
        <path
           id="path1616"
           style="fill:#ffd42a;stroke:#000000;stroke-width:0.801;stroke-linecap:butt;stroke-linejoin:miter;stroke-miterlimit:4;stroke-dasharray:none;stroke-opacity:1"
           d="m 135.20462,28.139032 c -7.22786,7.1549 -9.46491,17.203654 -13.45183,26.21734 1.32189,25.365886 6.66053,50.415938 7.80404,75.746388 -1.70483,17.06849 -7.09524,33.74049 -6.26453,51.01023 -0.68049,12.25995 -14.72002,19.66461 -17.8125,29.79892 5.73816,-3.35544 10.32419,-11.18818 15.36434,-16.45716 8.71622,-9.71737 4.59517,-23.32134 8.82723,-34.71374 2.53306,-13.15238 6.67758,-26.54828 4.36168,-40.00146 -1.65925,-15.23779 -2.24807,-30.669911 -5.63108,-45.64099 -1.62832,-11.75984 8.84743,-20.715435 8.01248,-31.844807 -0.40327,-4.704907 -0.80655,-9.409814 -1.20983,-14.114721 z" />
        <path
           style="fill:#d35f5f;stroke:#000000;stroke-width:0.801;stroke-linecap:butt;stroke-linejoin:miter;stroke-miterlimit:4;stroke-dasharray:none;stroke-opacity:1"
           d="m 73.985064,210.69958 c 6.255532,32.86031 48.547386,31.9803 53.807316,1.64716 -2.15422,-7.2512 -0.65645,-13.8035 -6.10374,-17.77962 -20.98354,-15.31646 -38.889435,-13.12445 -47.703576,16.13246"
           id="path1618"
           sodipodi:nodetypes="ccsc" />
        <path
           style="fill:#de8787;stroke:#000000;stroke-width:0.801;stroke-linecap:butt;stroke-linejoin:miter;stroke-miterlimit:4;stroke-dasharray:none;stroke-opacity:1"
           d="m 92.401122,233.9146 3.736808,3.93093 c 0,0 1.601491,4.70741 1.650021,4.90153 0.04853,0.19412 0.9706,7.08538 0.9706,7.08538 l -0.242649,2.52356 3.300038,-0.0485 v -7.86186 c 0,-0.24265 0.82501,-4.02799 1.11619,-4.51329 0.29118,-0.4853 2.47503,-3.34857 2.66915,-3.59122 0.19412,-0.24265 3.34857,-2.18385 3.34857,-2.18385 -5.32824,1.42317 -10.832331,1.43945 -16.548728,-0.24268 z"
           id="path1620"
           sodipodi:nodetypes="ccscccssscc" />
        <path
           style="fill:#a02c2c;stroke:none;stroke-width:0.264583px;stroke-linecap:butt;stroke-linejoin:miter;stroke-opacity:1"
           d="m 43.44392,11.804667 c -3.09799,9.495315 -7.093503,18.392283 -8.167183,29.237139 0,0 0.411792,13.04004 0.686318,14.138148 0.274527,1.098108 3.84338,13.314566 3.980643,14.138148 0.137263,0.823582 7.686761,14.344045 7.686761,14.344045 C 44.380738,81.87316 41.70059,78.565311 38.982854,75.357701 36.166647,70.792562 34.045506,65.416513 32.325571,59.57239 29.807617,51.86259 30.228693,44.47935 30.952933,37.129795 c 2.132699,-9.861744 4.489685,-12.770579 6.794548,-17.29521 z"
           id="path1626"
           sodipodi:nodetypes="ccsscccccc" />
        <path
           style="fill:#a02c2c;stroke:none;stroke-width:0.279701px;stroke-linecap:butt;stroke-linejoin:miter;stroke-opacity:1"
           d="m 159.95349,4.1085107 c 3.46215,9.4953153 5.50082,17.4702133 6.70071,28.3150693 0,0 -0.4602,13.04004 -0.76699,14.138148 -0.3068,1.098108 -4.29515,13.314566 -4.44856,14.138148 -0.15339,0.823582 -6.89176,15.363175 -6.89176,15.363175 3.73309,-1.882565 6.99767,-6.282756 8.64498,-8.207386 3.14723,-4.565139 4.83828,-8.776468 6.7604,-14.620591 2.81392,-7.7098 2.34336,-17.37395 1.53398,-24.723505 -2.38339,-9.861744 -3.70712,-12.770579 -6.28291,-17.29521 z"
           id="path1626-3"
           sodipodi:nodetypes="ccsscccccc" />
      </g>
      <text
         xml:space="preserve"
         style="font-size:10.5833px;line-height:1.25;font-family:sans-serif;letter-spacing:0px;word-spacing:0px;stroke-width:0.264583"
         x="18.942371"
         y="27.178188"
         id="text1662"><tspan
           sodipodi:role="line"
           id="tspan1660"
           x="18.942371"
           y="27.178188"
           style="stroke-width:0.264583">kidneys</tspan></text>
      <g
         id="g1670">
        <path
           style="fill:none;stroke:#000000;stroke-width:0.765;stroke-linecap:butt;stroke-linejoin:miter;stroke-opacity:1;stroke-miterlimit:4;stroke-dasharray:none"
           d="M 49.689411,65.886514 38.4338,32.394202"
           id="path1664" />
        <path
           sodipodi:type="star"
           style="opacity:1;fill:#000000;stroke:none;stroke-width:0.801;stroke-linecap:round;stroke-linejoin:round;stroke-miterlimit:4;stroke-dasharray:none;paint-order:markers fill stroke"
           id="path1666"
           sodipodi:sides="3"
           sodipodi:cx="40.639872"
           sodipodi:cy="38.411449"
           sodipodi:r1="6.4089007"
           sodipodi:r2="3.2044501"
           sodipodi:arg1="0.17219093"
           sodipodi:arg2="1.2193885"
           inkscape:flatsided="true"
           inkscape:rounded="0"
           inkscape:randomized="0"
           d="M 46.953998,39.509559 36.531821,43.330587 38.433802,32.394203 Z"
           inkscape:transform-center-x="-1.1030353"
           inkscape:transform-center-y="-0.54905505" />
      </g>
      <path
         style="fill:none;stroke:#000000;stroke-width:0.965;stroke-linecap:butt;stroke-linejoin:miter;stroke-opacity:1;stroke-miterlimit:4;stroke-dasharray:none"
         d="M 133.96924,63.690295 41.453599,41.590862"
         id="path1672" />
      <text
         xml:space="preserve"
         style="font-size:10.5833px;line-height:1.25;font-family:sans-serif;letter-spacing:0px;word-spacing:0px;stroke-width:0.264583"
         x="155.93141"
         y="148.7937"
         id="text1676"><tspan
           sodipodi:role="line"
           id="tspan1674"
           x="155.93141"
           y="148.7937"
           style="stroke-width:0.264583">ureters</tspan></text>
      <path
         style="fill:none;stroke:#000000;stroke-width:0.264583px;stroke-linecap:butt;stroke-linejoin:miter;stroke-opacity:1"
         d="m 73.959722,164.61376 94.924678,-0.58236 0.19412,-11.84132"
         id="path1678" />
      <path
         style="fill:none;stroke:#000000;stroke-width:0.264583px;stroke-linecap:butt;stroke-linejoin:miter;stroke-opacity:1"
         d="m 130.64276,152.42726 38.43576,-0.23718"
         id="path1680"
         sodipodi:nodetypes="cc" />
      <path
         sodipodi:type="star"
         style="opacity:1;fill:#000000;stroke:none;stroke-width:0.964999;stroke-linecap:round;stroke-linejoin:round;stroke-miterlimit:4;stroke-dasharray:none;paint-order:markers fill stroke"
         id="path1682"
         sodipodi:sides="3"
         sodipodi:cx="169.07852"
         sodipodi:cy="152.19008"
         sodipodi:r1="3.2592454"
         sodipodi:r2="1.6296227"
         sodipodi:arg1="-1.5615304"
         sodipodi:arg2="-0.51433288"
         inkscape:flatsided="true"
         inkscape:rounded="0"
         inkscape:randomized="0"
         d="m 169.10872,148.93097 2.77717,4.91482 -5.64494,-0.0523 z"
         inkscape:transform-center-x="0.015101823"
         inkscape:transform-center-y="-0.80170157" />
      <text
         xml:space="preserve"
         style="font-size:10.5833px;line-height:1.25;font-family:sans-serif;letter-spacing:0px;word-spacing:0px;stroke-width:0.264583"
         x="143.58554"
         y="223.25751"
         id="text1686"><tspan
           sodipodi:role="line"
           id="tspan1684"
           x="143.58554"
           y="223.25751"
           style="stroke-width:0.264583">urinary </tspan><tspan
           sodipodi:role="line"
           x="143.58554"
           y="236.48663"
           style="stroke-width:0.264583"
           id="tspan1688">bladder</tspan></text>
      <path
         style="fill:none;stroke:#000000;stroke-width:0.264583px;stroke-linecap:butt;stroke-linejoin:miter;stroke-opacity:1"
         d="m 117.63672,224.2086 19.99436,0.19412"
         id="path1690" />
      <path
         sodipodi:type="star"
         style="opacity:1;fill:#000000;stroke:none;stroke-width:0.964999;stroke-linecap:round;stroke-linejoin:round;stroke-miterlimit:4;stroke-dasharray:none;paint-order:markers fill stroke"
         id="path1692"
         sodipodi:sides="3"
         sodipodi:cx="137.14578"
         sodipodi:cy="222.46152"
         sodipodi:r1="2.0009384"
         sodipodi:r2="1.0004692"
         sodipodi:arg1="1.3258184"
         sodipodi:arg2="2.373016"
         inkscape:flatsided="true"
         inkscape:rounded="0"
         inkscape:randomized="0"
         d="m 137.63108,224.40271 -2.40907,-2.49151 3.36225,-0.84056 z"
         inkscape:transform-center-x="0.57430802"
         inkscape:transform-center-y="-2.8068211"
         transform="rotate(-76.417493,137.63108,224.40272)" />
    </g>
  </g>
</svg>
