<?xml version="1.0" encoding="UTF-8" standalone="no"?>
<svg
   xmlns:dc="http://purl.org/dc/elements/1.1/"
   xmlns:cc="http://creativecommons.org/ns#"
   xmlns:rdf="http://www.w3.org/1999/02/22-rdf-syntax-ns#"
   xmlns:svg="http://www.w3.org/2000/svg"
   xmlns="http://www.w3.org/2000/svg"
   xmlns:sodipodi="http://sodipodi.sourceforge.net/DTD/sodipodi-0.dtd"
   xmlns:inkscape="http://www.inkscape.org/namespaces/inkscape"
   width="210mm"
   height="297mm"
   viewBox="0 0 210 297"
   version="1.1"
   id="svg8"
   inkscape:version="1.0.2 (e86c870879, 2021-01-15, custom)"
   sodipodi:docname="food.svg">
  <defs
     id="defs2" />
  <sodipodi:namedview
     id="base"
     pagecolor="#ffffff"
     bordercolor="#666666"
     borderopacity="1.0"
     inkscape:pageopacity="0.0"
     inkscape:pageshadow="2"
     inkscape:zoom="0.68149425"
     inkscape:cx="920.43742"
     inkscape:cy="427.15245"
     inkscape:document-units="mm"
     inkscape:current-layer="layer1"
     inkscape:document-rotation="0"
     showgrid="false"
     inkscape:window-width="1920"
     inkscape:window-height="1017"
     inkscape:window-x="-8"
     inkscape:window-y="-8"
     inkscape:window-maximized="1" />
  <metadata
     id="metadata5">
    <rdf:RDF>
      <cc:Work
         rdf:about="">
        <dc:format>image/svg+xml</dc:format>
        <dc:type
           rdf:resource="http://purl.org/dc/dcmitype/StillImage" />
        <dc:title></dc:title>
      </cc:Work>
    </rdf:RDF>
  </metadata>
  <g
     inkscape:label="Layer 1"
     inkscape:groupmode="layer"
     id="layer1">
    <g
       id="g1021"
       transform="translate(-35.718081,-32.612161)">
      <path
         id="path863"
         style="fill:#e6e6e6;stroke:#000000;stroke-width:1;stroke-linecap:butt;stroke-linejoin:miter;stroke-miterlimit:4;stroke-dasharray:none;stroke-opacity:1"
         d="m 74.808645,199.99302 c 1.88174,-10.81414 9.563466,-19.25419 17.092304,-26.64674 8.617681,-6.70359 19.168331,-9.90988 29.577671,-12.57714 9.76114,-1.01096 19.549,-1.79702 29.32731,-0.47002 9.08189,-0.6095 16.96277,3.34525 24.60717,7.75581 7.18408,3.29097 12.34117,9.47706 18.06071,14.7351 5.20553,8.31029 9.51491,18.33936 6.49654,28.23983 -2.04586,13.4245 -13.5592,22.8899 -25.55051,27.67474 -22.69727,10.86329 -49.83736,10.3957 -72.98206,1.09485 -9.156348,-5.03216 -17.138597,-12.20244 -22.678823,-21.07891 -3.879169,-5.52368 -2.320107,-12.51599 -3.950312,-18.72752 z" />
      <path
         id="path865"
         style="fill:#008080;stroke:#000000;stroke-width:1;stroke-linecap:butt;stroke-linejoin:miter;stroke-miterlimit:4;stroke-dasharray:none;stroke-opacity:1"
         d="m 79.68626,201.01126 c -0.473654,13.3175 9.02193,25.23739 20.109566,31.57144 11.060134,5.65987 23.354754,8.80321 35.756044,9.37878 9.45261,-0.24798 18.84834,-1.94297 28.14622,-3.55972 7.79498,-3.13738 15.88337,-7.28908 21.3905,-13.72151 5.83309,-7.97078 11.81825,-18.23105 9.17128,-28.44592 -1.09949,-7.4929 -6.67478,-13.07328 -12.79411,-16.98261 -5.99175,-4.86711 -12.01671,-9.79233 -19.55816,-11.96759 -7.77038,-2.63521 -16.19494,-1.99913 -24.27195,-3.00712 -10.25409,-0.5843 -20.72524,0.61841 -30.50881,3.69524 -5.88857,3.22279 -12.580356,5.54061 -16.738929,11.13029 -5.786867,4.68342 -7.335164,11.96152 -10.152304,18.37918 -0.333263,1.14649 -0.518486,2.33592 -0.549347,3.52954 z" />
      <path
         style="fill:#e6e6e6;stroke:#000000;stroke-width:1;stroke-linecap:butt;stroke-linejoin:miter;stroke-miterlimit:4;stroke-dasharray:none;stroke-opacity:1"
         d="m 100.84534,172.52415 c 9.91609,8.30819 19.14537,9.4582 27.68196,4.28766 1.69191,-1.02478 3.20593,-2.10665 4.03605,-5.52934 -0.0442,13.70763 -4.70946,19.04222 -13.81044,17.74188 -14.60379,1.03422 -17.52742,-6.77059 -17.90757,-16.5002 z"
         id="path859"
         sodipodi:nodetypes="csccc" />
      <path
         style="fill:#f3ba22;fill-opacity:1;stroke:#000000;stroke-width:1;stroke-linecap:butt;stroke-linejoin:miter;stroke-miterlimit:4;stroke-dasharray:none;stroke-opacity:1"
         d="m 83.66572,191.30526 c 5.19963,-14.28696 29.08595,-17.49379 35.54324,-8.70857 0,0 1.39963,1.07341 2.43569,1.58579 2.22994,1.10281 3.94244,4.16234 4.53335,7.02572 -0.55107,6.31926 -0.32511,6.06194 -2.36346,7.73179 -22.36075,18.31831 -43.359215,0.20135 -40.14882,-7.63473 z"
         id="path847"
         sodipodi:nodetypes="csscsc" />
      <path
         style="fill:#ececec;stroke:#000000;stroke-width:1;stroke-linecap:butt;stroke-linejoin:miter;stroke-miterlimit:4;stroke-dasharray:none;stroke-opacity:1"
         d="m 83.568661,194.89648 c 0.349162,4.79502 0.998791,9.28957 2.620621,12.81192 10.967417,14.03685 26.810018,13.0974 38.532818,0.19412 0.95661,-3.3509 1.00307,-6.8535 0.87354,-10.38542 -3.53453,2.51554 -7.93839,5.97804 -12.75143,7.62852 -10.61737,3.64089 -22.827854,2.31156 -29.275549,-10.24914 z"
         id="path849"
         sodipodi:nodetypes="ccccsc" />
      <path
         style="fill:#791c00;fill-opacity:1;stroke:#000000;stroke-width:1;stroke-linecap:butt;stroke-linejoin:miter;stroke-miterlimit:4;stroke-dasharray:none;stroke-opacity:1"
         d="m 159.50027,179.54075 c 4.60409,-11.68606 17.4455,-10.60542 26.30175,-4.39897 1.64141,1.1503 1.78664,2.0844 2.93539,5.08529 -9.2077,12.01885 -22.76314,11.43118 -29.23714,-0.68632 z"
         id="path851"
         sodipodi:nodetypes="cscc" />
      <path
         style="fill:#ececec;stroke:#000000;stroke-width:1;stroke-linecap:butt;stroke-linejoin:miter;stroke-miterlimit:4;stroke-dasharray:none;stroke-opacity:1"
         d="m 159.10168,178.62415 1.02948,-4.76991 0.75495,-1.13243 2.95116,-2.40211 1.92169,-1.23537 2.64233,-0.8579 3.74043,-0.99516 4.66696,0.24021 2.47075,0.41179 2.19621,0.65201 2.05896,1.26968 1.85305,0.8579 1.44127,0.96085 1.02948,1.61284 1.06379,2.81391 0.10295,3.32864 -2.33348,-4.28949 -3.2257,-2.1619 -5.01011,-1.99032 -4.11791,-0.82358 -2.95117,-0.2059 -3.70611,0.8579 -3.26001,1.37263 -2.64233,1.85306 z"
         id="path853"
         sodipodi:nodetypes="ccccccccccccccccccccccccc" />
      <path
         style="fill:#e6e6e6;stroke:#000000;stroke-width:1;stroke-linecap:butt;stroke-linejoin:miter;stroke-miterlimit:4;stroke-dasharray:none;stroke-opacity:1"
         d="m 159.50027,179.54075 0.34316,7.00044 c 0,0 2.19621,2.3678 2.40211,2.57369 0.20589,0.2059 2.3678,1.7158 2.50506,1.75011 0.13726,0.0343 2.8139,1.13243 3.29432,1.26969 0.48043,0.13726 1.85306,0.51474 3.0198,0.72064 1.16674,0.20589 5.3876,0.54905 6.0396,0.58336 0.652,0.0343 4.35812,0.10295 5.11307,-0.20589 0.75495,-0.30884 2.29916,-0.92653 2.77959,-1.26969 0.48042,-0.34316 1.57853,-1.68148 1.57853,-1.68148 l 0.48042,-1.44126 1.68148,-8.61329 c -12.02852,12.92216 -21.41147,10.6036 -29.23714,-0.68632 z"
         id="path855"
         sodipodi:nodetypes="ccssssssscccc" />
      <path
         style="fill:#ffffff;stroke:#000000;stroke-width:1;stroke-linecap:butt;stroke-linejoin:miter;stroke-miterlimit:4;stroke-dasharray:none;stroke-opacity:1"
         d="m 101.86447,169.02999 c 2.64415,-8.93476 14.1058,-10.42967 22.90097,-6.6026 3.38707,1.47382 5.48026,3.11138 7.52734,6.79672 1.0941,8.109 -6.8183,9.70013 -15.38337,10.81894 -6.65021,-1.51384 -15.62433,-3.33546 -15.04494,-11.01306 z"
         id="path857"
         sodipodi:nodetypes="csccc" />
      <path
         id="path861"
         style="fill:#edd08a;fill-opacity:1;stroke:#000000;stroke-width:1;stroke-linecap:butt;stroke-linejoin:miter;stroke-miterlimit:4;stroke-dasharray:none;stroke-opacity:1"
         d="m 109.87192,229.5469 c 2.91038,-7.31751 10.78187,-11.15915 17.79642,-13.56959 7.26049,-2.15892 16.32544,-2.94048 22.07267,2.99713 5.67278,6.28748 -0.224,14.01582 -5.87532,17.68549 -6.42709,5.4169 -15.30987,2.06413 -22.86881,2.85409 -5.98183,-0.26826 -9.07565,-4.9772 -11.12496,-9.96712 z" />
      <path
         style="opacity:1;fill:#edd08a;fill-opacity:1;stroke:#000000;stroke-width:1;stroke-linecap:round;stroke-linejoin:round;stroke-miterlimit:4;stroke-dasharray:none;paint-order:markers fill stroke"
         d="m 151.70263,234.07759 c -1.18827,-0.28406 -3.19849,-1.72695 -4.32631,-3.10533 -1.58406,-1.93598 -3.28305,-5.3229 -3.07866,-6.13728 0.47629,-1.89769 3.06684,-5.06211 5.87856,-7.1808 5.79,-4.3629 14.21221,-7.25606 21.17929,-7.27542 5.23835,-0.0146 9.09392,1.43767 11.91936,4.48947 3.76071,4.06202 2.96358,9.02747 -2.29021,14.26611 l -2.35418,2.34738 -4.1179,0.61009 c -13.90835,2.06057 -20.20428,2.60868 -22.80995,1.98578 z"
         id="path873" />
      <path
         style="fill:#882f09;fill-opacity:1;stroke:#000000;stroke-width:0.264583px;stroke-linecap:butt;stroke-linejoin:miter;stroke-opacity:1"
         d="m 166.39776,176.00621 c -0.78926,0.17158 -1.956,0.24021 -2.33348,0.61769 -0.37747,0.37747 -0.652,1.09811 -0.4461,1.20105 0.20589,0.10295 0.61768,0.17158 1.06379,0.17158 0.4461,0 1.06379,-0.10294 1.304,-0.17158 0.24021,-0.0686 1.81874,-0.48042 1.81874,-0.48042 0,0 0.24021,-0.82358 0,-0.92653 -0.24021,-0.10294 -0.13726,-0.17158 -0.51473,-0.24021 -0.37748,-0.0686 -0.89222,-0.17158 -0.89222,-0.17158 z"
         id="path875" />
      <path
         style="fill:#882f09;fill-opacity:1;stroke:#000000;stroke-width:0.264583px;stroke-linecap:butt;stroke-linejoin:miter;stroke-opacity:1"
         d="m 170.54999,174.462 c -0.13727,0.0686 -2.05896,0.58337 -2.16191,0.75495 -0.10294,0.17157 -0.652,0.85789 -0.20589,1.02947 0.44611,0.17158 0.8579,0.13727 1.37263,0.13727 0.51474,0 1.20106,-0.24021 1.40696,-0.48043 0.20589,-0.24021 0.34315,-0.37747 0.37747,-0.51474 0.0343,-0.13726 0.13726,-0.54905 -0.10295,-0.72063 -0.24021,-0.17158 -0.68631,-0.20589 -0.68631,-0.20589 z"
         id="path877" />
      <path
         style="fill:#882f09;fill-opacity:1;stroke:#000000;stroke-width:0.264583px;stroke-linecap:butt;stroke-linejoin:miter;stroke-opacity:1"
         d="m 174.15315,176.38369 -2.1619,-0.10295 c 0,0 -0.34316,0.68632 -0.24021,1.02948 0.10295,0.34315 0.30884,0.4461 0.78927,0.68631 0.48042,0.24022 1.44126,0.13727 1.57853,0.0343 0.13726,-0.10295 0.44611,-0.34316 0.44611,-0.54906 0,-0.20589 -0.4118,-1.0981 -0.4118,-1.0981 z"
         id="path879" />
      <path
         style="fill:#882f09;fill-opacity:1;stroke:#000000;stroke-width:0.264583px;stroke-linecap:butt;stroke-linejoin:miter;stroke-opacity:1"
         d="m 175.18263,184.20771 0.68632,-1.16674 c 0,0 1.20105,-0.17158 1.06379,0.37747 -0.13726,0.54906 0.37748,0.65201 -0.48042,1.0638 -0.8579,0.41179 -1.13243,0.4461 -1.64716,0.54905 -0.51474,0.10295 -0.58337,0.17158 -0.61769,0 -0.0343,-0.17158 0.99516,-0.82358 0.99516,-0.82358 z"
         id="path881" />
      <path
         style="fill:#882f09;fill-opacity:1;stroke:#000000;stroke-width:0.264583px;stroke-linecap:butt;stroke-linejoin:miter;stroke-opacity:1"
         d="m 180.63886,177.2759 c -0.37748,0.0343 -2.43643,-0.54905 -2.50506,0.13726 -0.0686,0.68632 -0.41179,0.82359 0.0343,1.37264 0.44611,0.54905 1.33832,0.96084 1.64717,0.96084 0.30884,0 0.99516,-0.0343 1.37263,-0.17158 0.37748,-0.13726 0.75495,-0.17158 0.75495,-0.48042 0,-0.30884 -0.0686,-0.85789 -0.27453,-1.09811 -0.20589,-0.24021 -1.02947,-0.72063 -1.02947,-0.72063 z"
         id="path883" />
      <path
         style="fill:#ffcc00;stroke:#000000;stroke-width:0.264583px;stroke-linecap:butt;stroke-linejoin:miter;stroke-opacity:1"
         d="m 88.294791,191.72289 c -0.921843,-1.29795 0.857898,-1.3378 0.857898,-0.30884"
         id="path885" />
      <path
         style="fill:#ffcc00;stroke:#000000;stroke-width:0.264583px;stroke-linecap:butt;stroke-linejoin:miter;stroke-opacity:1"
         d="m 96.393343,189.8012 c -0.301858,-0.0601 -1.052796,0.28421 -0.960845,0.652 0.0753,0.30119 0.74046,0.2547 0.892212,0.10295"
         id="path887" />
      <path
         style="fill:#d4aa00;stroke:#000000;stroke-width:0.264583px;stroke-linecap:butt;stroke-linejoin:miter;stroke-opacity:1"
         d="m 101.02599,191.24247 c 0.0458,-0.0343 0.083,-0.0849 0.13726,-0.10295 0.17663,-0.0589 0.14099,0.49981 0.13726,0.51474 -0.0417,0.16665 -0.24814,0.45499 -0.37747,0.54905 -0.037,0.0269 -0.0915,0 -0.13726,0 -0.26652,0 -0.55009,-0.0728 -0.61769,-0.34316"
         id="path889" />
      <path
         style="fill:#d4aa00;stroke:#000000;stroke-width:0.264583px;stroke-linecap:butt;stroke-linejoin:miter;stroke-opacity:1"
         d="m 104.7321,198.62039 c -0.35388,-0.0733 -1.43868,0.97271 -0.68631,1.0981 0.15182,0.0253 0.25026,-0.005 0.37747,-0.0686"
         id="path891" />
      <path
         style="fill:#d4aa00;stroke:#000000;stroke-width:0.264583px;stroke-linecap:butt;stroke-linejoin:miter;stroke-opacity:1"
         d="m 106.58516,196.25259 c 0.59045,-0.53948 0.22014,0.53715 0.13726,0.68632 -0.0471,0.0848 -0.13726,0.13726 -0.20589,0.20589"
         id="path893" />
      <path
         style="fill:#ffcc00;stroke:#000000;stroke-width:0.264583px;stroke-linecap:butt;stroke-linejoin:miter;stroke-opacity:1"
         d="m 109.05591,186.02645 c -0.0458,-0.10294 -0.10632,-0.20052 -0.13727,-0.30884 -0.0908,-0.31768 -0.1251,-0.63159 0.10295,-0.89221 0.1625,-0.18572 0.54905,0.0516 0.54905,0.24021"
         id="path895" />
      <path
         style="fill:#ffcc00;stroke:#000000;stroke-width:0.264583px;stroke-linecap:butt;stroke-linejoin:miter;stroke-opacity:1"
         d="m 114.06602,188.73741 c -0.19315,-0.0215 -0.37272,-0.13616 -0.41178,0.13726 -0.0112,0.0784 -0.0386,0.66271 0.0686,0.82358 0.1526,0.2289 0.67662,0.19595 0.82358,0 0.1098,-0.1464 -0.59198,-0.54905 -0.61769,-0.54905"
         id="path897" />
      <path
         style="fill:#ffcc00;stroke:#000000;stroke-width:0.264583px;stroke-linecap:butt;stroke-linejoin:miter;stroke-opacity:1"
         d="m 114.4435,193.57595 c -0.17158,0.0457 -0.35038,0.07 -0.51474,0.13726 -0.15519,0.0635 -0.40601,0.32697 -0.10295,0.37748 0.63764,0.10627 1.69763,-0.17562 0.78927,-0.72064"
         id="path899" />
      <path
         id="path901"
         style="fill:#d4aa00;stroke:#000000;stroke-width:0.264583px;stroke-linecap:butt;stroke-linejoin:miter;stroke-opacity:1"
         d="m 103.49673,183.86455 c -0.58608,-0.20548 -1.31022,0.24872 -1.35749,0.87196 0.003,0.35918 0.44723,0.51995 0.73981,0.39782" />
      <path
         style="fill:#ffcc00;stroke:#000000;stroke-width:0.264583px;stroke-linecap:butt;stroke-linejoin:miter;stroke-opacity:1"
         d="m 106.85969,181.53107 c 0.17329,-0.32781 0.36749,-0.58857 0.61769,-0.17158 0.0225,0.0376 0.0965,0.18212 0.10294,0.24021 0.0218,0.19629 -0.0343,0.38807 -0.0343,0.58337"
         id="path903" />
      <path
         style="fill:none;stroke:#000000;stroke-width:0.264583px;stroke-linecap:butt;stroke-linejoin:miter;stroke-opacity:1"
         d="m 105.65863,170.37841 c 0,-0.13727 0,-0.27453 0,-0.4118 0,-0.24487 -0.0444,-0.19242 0.0686,-0.34316 0.16965,-0.22619 0.3874,0.75039 0.4118,0.82359"
         id="path905" />
      <path
         style="fill:none;stroke:#000000;stroke-width:0.264583px;stroke-linecap:butt;stroke-linejoin:miter;stroke-opacity:1"
         d="m 107.0999,170.37841 c 0.0801,-0.12583 0.14865,-0.25975 0.24021,-0.37748 0.16781,-0.21576 0.47153,-0.45309 0.51474,-0.37748 0.1178,0.20616 0.0686,0.46116 0.0686,0.68632"
         id="path907" />
      <path
         style="fill:#ececec;stroke:#000000;stroke-width:0.264583px;stroke-linecap:butt;stroke-linejoin:miter;stroke-opacity:1"
         d="m 109.50201,168.97145 c -0.0457,0.0114 -0.0957,0.0567 -0.13726,0.0343 -0.36224,-0.19505 -1.21249,-1.55565 0.0686,-0.75495 0.0951,0.0594 0.14683,0.15162 0.2059,0.24021"
         id="path909" />
      <path
         style="fill:#ececec;stroke:#000000;stroke-width:0.264583px;stroke-linecap:butt;stroke-linejoin:miter;stroke-opacity:1"
         d="m 110.84033,168.52535 c 0.0808,-0.32327 0.10466,-0.48623 0.48043,-0.78927 0.16893,-0.13624 0.40768,-0.15111 0.61768,-0.20589 0.54962,-0.14338 0.24021,1.02699 0.24021,1.23537"
         id="path911" />
      <path
         style="fill:none;stroke:#000000;stroke-width:0.264583px;stroke-linecap:butt;stroke-linejoin:miter;stroke-opacity:1"
         d="m 114.13466,167.46155 c -0.11026,-0.0758 -0.3786,-0.81251 0,-0.68631 0.12592,0.042 0.12972,0.23266 0.20589,0.30884"
         id="path913" />
      <path
         style="fill:#ececec;stroke:#000000;stroke-width:0.264583px;stroke-linecap:butt;stroke-linejoin:miter;stroke-opacity:1"
         d="m 115.12982,167.53019 c -0.102,-0.21607 0.53295,-1.20873 0.61768,-0.44611 0.0335,0.30169 0.0437,0.25584 -0.0343,0.41179"
         id="path915" />
      <path
         style="fill:#ececec;stroke:#000000;stroke-width:0.264583px;stroke-linecap:butt;stroke-linejoin:miter;stroke-opacity:1"
         d="m 116.57109,168.18219 c -0.0629,-0.27003 -0.10664,-1.27461 0.41179,-0.58337 0.0728,0.097 0.17158,0.25468 0.17158,0.37747"
         id="path917" />
      <path
         style="fill:#ececec;stroke:#000000;stroke-width:0.264583px;stroke-linecap:butt;stroke-linejoin:miter;stroke-opacity:1"
         d="m 117.15446,169.82935 c 0.15259,-0.79932 0.30012,-0.85796 1.02947,-0.51474 0.11247,0.0529 0.10295,0.0335 0.10295,0.10295 0,0.0823 -0.0436,0.41179 -0.10295,0.41179"
         id="path919" />
      <path
         style="fill:none;stroke:#000000;stroke-width:0.264583px;stroke-linecap:butt;stroke-linejoin:miter;stroke-opacity:1"
         d="m 116.91425,171.99125 c -0.63407,-0.56685 0.30884,-0.84206 0.30884,-0.24021"
         id="path921" />
      <path
         style="fill:none;stroke:#000000;stroke-width:0.264583px;stroke-linecap:butt;stroke-linejoin:miter;stroke-opacity:1"
         d="m 122.30184,174.05021 c -0.0686,-0.17158 -0.1441,-0.34059 -0.2059,-0.51474 -0.0641,-0.18071 -0.11094,-0.36715 -0.17157,-0.54906 -0.0545,-0.16354 0.2046,-0.17998 0.24021,-0.13726 0.15905,0.19086 0.0972,0.19441 0.17158,0.34316 0.0457,0.0915 0.0343,-0.10295 0.0343,0.0343"
         id="path923" />
      <path
         style="fill:none;stroke:#000000;stroke-width:0.264583px;stroke-linecap:butt;stroke-linejoin:miter;stroke-opacity:1"
         d="m 123.67448,172.50599 c -0.042,-0.3063 -0.002,0.34122 -0.0686,0.27453 -0.0667,-0.0667 0.0315,-0.18783 0.0686,-0.27453 0.0444,-0.10355 0.0631,-0.22406 0.13726,-0.30884 0.0919,-0.10508 0.21996,-0.17451 0.34316,-0.24021 0.52082,-0.27778 0.50229,0.59581 0.34316,0.75495"
         id="path925" />
      <path
         style="fill:none;stroke:#000000;stroke-width:0.264583px;stroke-linecap:butt;stroke-linejoin:miter;stroke-opacity:1"
         d="m 126.24817,173.02073 c -0.0686,-0.1487 -0.14507,-0.29405 -0.2059,-0.44611 -0.12744,-0.31861 -0.148,-0.63669 0.27453,-0.27452 0.0925,0.0793 0.12663,0.22958 0.2059,0.30884"
         id="path927" />
      <path
         style="fill:none;stroke:#000000;stroke-width:0.264583px;stroke-linecap:butt;stroke-linejoin:miter;stroke-opacity:1"
         d="m 127.34628,171.92262 c 0.17538,-1.36663 0.652,-0.0458 0.652,0.51474"
         id="path929" />
      <path
         style="fill:none;stroke:#000000;stroke-width:0.264583px;stroke-linecap:butt;stroke-linejoin:miter;stroke-opacity:1"
         d="m 124.94416,168.76556 c 0.1832,-0.29598 0.19203,-0.33138 0.51474,-0.37748 0.0253,-0.004 0.0533,-0.0548 0.0686,-0.0343 0.13036,0.17381 0,0.53128 0,0.72063"
         id="path931" />
      <path
         style="fill:none;stroke:#000000;stroke-width:0.264583px;stroke-linecap:butt;stroke-linejoin:miter;stroke-opacity:1"
         d="m 126.17954,167.35861 c -0.082,-0.14494 -0.30938,-0.69926 0.0686,-0.652 0.0416,0.005 0.23223,0.0395 0.27453,0.10294 0.057,0.0855 0.0686,0.27787 0.0686,0.37748"
         id="path933" />
      <path
         style="fill:none;stroke:#000000;stroke-width:0.264583px;stroke-linecap:butt;stroke-linejoin:miter;stroke-opacity:1"
         d="m 126.79722,164.7506 c -0.0372,-0.2582 0.44872,-0.58076 0.58337,-0.44611 0.12079,0.12079 0.13727,0.62441 0.13727,0.78927"
         id="path935" />
      <path
         style="fill:none;stroke:#000000;stroke-width:0.264583px;stroke-linecap:butt;stroke-linejoin:miter;stroke-opacity:1"
         d="m 128.37575,166.02029 c 0.0114,-0.0572 0.0126,-0.11743 0.0343,-0.17158 0.0489,-0.12236 0.1049,-0.21315 0.24021,-0.24021 0.40877,-0.0818 0.37747,0.52965 0.37747,0.78926"
         id="path937" />
      <path
         style="fill:none;stroke:#000000;stroke-width:0.264583px;stroke-linecap:butt;stroke-linejoin:miter;stroke-opacity:1"
         d="m 115.16414,177.89359 c 0.0166,-0.4018 -0.12269,-0.63235 0.30884,-0.78927 0.0443,-0.0161 0.0907,-0.0421 0.13726,-0.0343 0.10345,0.0173 0.13177,0.22923 0.17158,0.30885"
         id="path939" />
      <path
         style="fill:none;stroke:#000000;stroke-width:0.264583px;stroke-linecap:butt;stroke-linejoin:miter;stroke-opacity:1"
         d="m 112.69339,175.38852 c 0.27742,-0.0534 0.23201,-0.21527 0.48042,0.0686 0.0831,0.095 0.13727,0.18557 0.13727,0.30884"
         id="path941" />
      <path
         style="fill:none;stroke:#000000;stroke-width:0.264583px;stroke-linecap:butt;stroke-linejoin:miter;stroke-opacity:1"
         d="m 110.05107,175.86895 c 0.12887,-0.5429 0.23964,-0.67635 0.75495,-0.82358 0.033,-0.009 0.0848,-0.0291 0.10294,0 0.10781,0.17249 0.0686,0.42867 0.0686,0.61768"
         id="path943" />
      <path
         style="fill:none;stroke:#000000;stroke-width:0.264583px;stroke-linecap:butt;stroke-linejoin:miter;stroke-opacity:1"
         d="m 107.34011,165.43692 c -0.17228,0.0664 -0.27972,-0.89158 -0.13726,-0.72064 0.11105,0.13326 0.19111,0.25974 0.30884,0.37748"
         id="path945" />
      <path
         style="fill:none;stroke:#000000;stroke-width:0.264583px;stroke-linecap:butt;stroke-linejoin:miter;stroke-opacity:1"
         d="m 108.02643,164.51039 c 0,-0.11439 -0.006,-0.22893 0,-0.34316 0.005,-0.10344 -5.3e-4,-0.2113 0.0343,-0.30884 0.0539,-0.15104 0.39431,-0.47233 0.54905,-0.24021 0.0262,0.0392 0.0132,0.0951 0.0343,0.13726 0.0458,0.0915 0.0343,-0.10295 0.0343,0.0343"
         id="path947" />
      <path
         style="fill:none;stroke:#000000;stroke-width:0.264583px;stroke-linecap:butt;stroke-linejoin:miter;stroke-opacity:1"
         d="m 111.86981,164.06428 c 0.21384,-0.32069 0.44357,-0.49476 0.82358,-0.54905 0.0453,-0.006 0.0975,-0.0227 0.13726,0 0.17277,0.0987 0.086,0.32618 0.2059,0.4461"
         id="path949" />
      <path
         style="opacity:1;fill:#deaa87;fill-opacity:1;stroke:none;stroke-width:1;stroke-linecap:round;stroke-linejoin:round;stroke-miterlimit:4;stroke-dasharray:none;paint-order:markers fill stroke"
         id="path955"
         d="m 114.92041,228.08704 c -0.0631,0.11188 -0.14069,0.21672 -0.1892,0.33564 -0.46691,1.14464 -0.25617,2.42128 0.4638,3.42615 0.26284,0.36685 0.6184,0.65746 0.92759,0.98619 0.43477,0.28025 0.84033,0.61206 1.30429,0.84075 2.24026,1.10424 5.08605,1.12678 7.48976,0.71666 0.58521,-0.0999 1.14035,-0.33074 1.71052,-0.49611 1.80523,-0.84523 1.00861,-0.34796 2.42491,-1.43414 0.14985,-0.12126 -1.56509,-2.24043 -1.71494,-2.11916 v 0 c -1.34052,0.45228 -0.61558,0.21532 -2.1771,0.70388 -0.45518,0.11493 -0.91137,0.22595 -1.36554,0.34481 -0.20401,0.0534 -0.39895,0.1515 -0.60884,0.17186 -0.46996,0.0456 -0.94416,0.031 -1.41629,0.0246 -1.2485,-0.0171 -2.47714,-0.1497 -3.66504,-0.55529 -0.53841,-0.2789 -0.77243,-0.31627 -1.13682,-0.78385 -0.38649,-0.49594 -0.26612,-1.15909 -0.28143,-1.74148 0.0297,-0.12485 -1.73594,-0.5453 -1.76567,-0.42045 z" />
      <path
         style="opacity:1;fill:#deaa87;fill-opacity:1;stroke:none;stroke-width:1;stroke-linecap:round;stroke-linejoin:round;stroke-miterlimit:4;stroke-dasharray:none;paint-order:markers fill stroke"
         id="path957"
         d="m 147.85857,223.55834 c -0.51865,1.41503 -0.23084,3.0001 0.53754,4.27657 0.21942,0.3645 0.51113,0.68026 0.76669,1.02039 0.36253,0.32057 0.69012,0.68566 1.08759,0.96172 1.99246,1.38388 4.5898,1.63945 6.92227,1.19177 0.52657,-0.10107 1.0059,-0.37167 1.50885,-0.5575 0.40027,-0.27088 0.80054,-0.54175 1.2008,-0.81263 0.15372,-0.12713 -1.64412,-2.30109 -1.79784,-2.17396 v 0 c -0.29352,0.1295 -0.58704,0.259 -0.88056,0.38849 -0.36715,0.099 -0.73762,0.1865 -1.10144,0.29712 -0.14561,0.0443 -0.27334,0.15372 -0.42496,0.16696 -0.41277,0.036 -0.82955,0.008 -1.24283,-0.0214 -1.08862,-0.0779 -2.1114,-0.32132 -3.03943,-0.91431 -0.19337,-0.19873 -0.40798,-0.37881 -0.5801,-0.5962 -0.68644,-0.86697 -0.94334,-1.97223 -1.1335,-3.03591 0.0135,-0.12891 -1.80957,-0.32004 -1.82308,-0.19113 z" />
    </g>
  </g>
</svg>
