<?xml version="1.0" encoding="UTF-8" standalone="no"?>
<svg
   xmlns:dc="http://purl.org/dc/elements/1.1/"
   xmlns:cc="http://creativecommons.org/ns#"
   xmlns:rdf="http://www.w3.org/1999/02/22-rdf-syntax-ns#"
   xmlns:svg="http://www.w3.org/2000/svg"
   xmlns="http://www.w3.org/2000/svg"
   xmlns:sodipodi="http://sodipodi.sourceforge.net/DTD/sodipodi-0.dtd"
   xmlns:inkscape="http://www.inkscape.org/namespaces/inkscape"
   width="210mm"
   height="297mm"
   viewBox="0 0 210 297"
   version="1.1"
   id="svg8"
   inkscape:version="1.0.2 (e86c870879, 2021-01-15, custom)"
   sodipodi:docname="gardenpeas.svg">
  <defs
     id="defs2" />
  <sodipodi:namedview
     id="base"
     pagecolor="#ffffff"
     bordercolor="#666666"
     borderopacity="1.0"
     inkscape:pageopacity="0.0"
     inkscape:pageshadow="2"
     inkscape:zoom="0.2409446"
     inkscape:cx="-606.2407"
     inkscape:cy="-643.46467"
     inkscape:document-units="mm"
     inkscape:current-layer="layer1"
     inkscape:document-rotation="0"
     showgrid="false"
     inkscape:window-width="1920"
     inkscape:window-height="1017"
     inkscape:window-x="-8"
     inkscape:window-y="-8"
     inkscape:window-maximized="1" />
  <metadata
     id="metadata5">
    <rdf:RDF>
      <cc:Work
         rdf:about="">
        <dc:format>image/svg+xml</dc:format>
        <dc:type
           rdf:resource="http://purl.org/dc/dcmitype/StillImage" />
        <dc:title></dc:title>
      </cc:Work>
    </rdf:RDF>
  </metadata>
  <g
     inkscape:label="Layer 1"
     inkscape:groupmode="layer"
     id="layer1">
    <g
       id="g950">
      <path
         style="fill:#a0892c;stroke:#000000;stroke-width:0.765;stroke-linecap:butt;stroke-linejoin:miter;stroke-miterlimit:4;stroke-dasharray:none;stroke-opacity:1"
         d="m 61.219552,171.03041 0.41179,-22.2367 -5.490541,-19.07964 -7.961289,-18.11879 -0.411789,-30.19798 c 0,0 -0.549056,-5.76507 -0.960845,-6.86318 -0.411792,-1.09811 -3.019801,-5.62781 -3.019801,-6.86318 0,-1.23537 -0.549053,-3.29433 0.411792,-4.11791 0.960845,-0.82358 1.784427,-1.64716 1.784427,-1.64716 l -2.058953,3.43159 3.706117,8.92213 1.647161,7.96129 -1.235372,15.373518 2.882535,15.098992 c 0,0 6.863178,14.13815 7.137707,14.96173 0.274526,0.82358 4.117906,10.98109 4.117906,10.98109 l 1.235371,12.90277 1.92169,15.37352 -0.960845,4.66696 z"
         id="path872" />
      <path
         style="fill:none;stroke:#000000;stroke-width:0.765;stroke-linecap:butt;stroke-linejoin:miter;stroke-miterlimit:4;stroke-dasharray:none;stroke-opacity:1"
         d="m 49.277621,103.634 c 0,0 5.765069,-10.432034 6.039598,-11.530143 0.274527,-1.09811 4.25517,-8.235814 6.314123,-10.432027 2.058953,-2.19622 9.608449,-8.09856 9.608449,-8.09856 l 9.882979,-4.1179"
         id="path874" />
      <path
         style="fill:#c8ab37;stroke:#000000;stroke-width:0.765;stroke-linecap:butt;stroke-linejoin:miter;stroke-miterlimit:4;stroke-dasharray:none;stroke-opacity:1"
         d="m 59.778285,130.74355 3.706116,-6.17686 c 0,0 5.010121,-5.97096 5.627807,-7.00044 0.617685,-1.02948 2.745271,-5.97097 4.598328,-8.37308 1.85306,-2.40211 3.225695,-4.5297 3.225695,-4.5297 v -3.63748 l 0.343159,4.18654 -5.421911,8.16718 -3.362957,7.06907 -3.84338,5.83371 -2.127586,4.94148 -1.92169,3.50022 z"
         id="path878" />
      <path
         style="fill:none;stroke:#000000;stroke-width:0.765;stroke-linecap:butt;stroke-linejoin:miter;stroke-miterlimit:4;stroke-dasharray:none;stroke-opacity:1"
         d="m 45.983296,61.90587 5.902333,-2.26485 c 0,0 3.50022,-1.09811 3.84338,-2.12758 0.343159,-1.02948 0.892214,-1.99033 1.029478,-2.95117 0.137263,-0.96085 0.892212,-3.36296 0.549052,-4.18654 -0.343159,-0.82358 -1.441267,-1.57853 -1.441267,-1.57853 0,0 -1.235371,-0.54905 -1.166738,0.61769 0.06863,1.16674 -0.205897,1.5099 1.235371,1.57853 1.441267,0.0686 3.774747,-0.2059 3.774747,-0.2059"
         id="path880" />
      <path
         style="fill:#abc837;stroke:#000000;stroke-width:0.765;stroke-linecap:butt;stroke-linejoin:miter;stroke-miterlimit:4;stroke-dasharray:none;stroke-opacity:1"
         d="m 46.171518,69.87246 c 0,0 0.87354,-1.40737 1.01913,-1.57723 0.145592,-0.16985 0.994865,-0.84927 1.091928,-0.8978 0.09706,-0.0485 -0.04853,0.31545 0.436768,-0.0728 0.485299,-0.38824 0.266915,0 0.679421,-0.65515 0.412504,-0.65516 1.140455,-2.03826 1.140455,-2.03826 0,0 0.655153,0.75221 0.800746,1.50443 0.145589,0.75221 0.09706,2.52356 -0.02426,2.9118 -0.121324,0.38824 -0.800743,1.91693 -0.800743,1.91693 l 0.436769,0.24265 c 0,0 0.09706,0.29118 0.02426,0.46104 -0.07279,0.16986 -0.994866,1.01913 -0.994866,1.01913 l -2.669148,0.4853 z"
         id="path882" />
      <path
         style="fill:#37c837;stroke:#000000;stroke-width:0.765;stroke-linecap:butt;stroke-linejoin:miter;stroke-miterlimit:4;stroke-dasharray:none;stroke-opacity:1"
         d="m 48.622285,78.0255 c 0,0 1.213249,-0.60663 1.334574,-0.60663 0.121325,0 0.436771,0.0728 0.727951,0.16986 0.291179,0.0971 0.82501,0.0971 1.383104,0.0243 0.558096,-0.0728 1.188984,-0.24265 2.547826,-0.24265 1.358839,0 2.936065,0.0971 2.936065,0.0971 l 0.29118,0.29118 c 0,0 -1.601492,1.38311 -1.747081,1.5287 -0.14559,0.14559 -1.334574,1.50443 -1.747081,1.60149 -0.412504,0.0971 -1.455899,0.55809 -1.455899,0.55809 0,0 0.07279,0.53383 0.315444,0.80075 0.242652,0.26691 0.266917,1.213247 0.266917,1.213247 0,0 -1.504431,-0.04853 -1.89267,-0.242647 -0.388242,-0.19412 -2.304994,-0.99733 -2.304994,-0.99733 z"
         id="path886" />
      <path
         style="fill:#abc837;stroke:#000000;stroke-width:0.765;stroke-linecap:butt;stroke-linejoin:miter;stroke-miterlimit:4;stroke-dasharray:none;stroke-opacity:1"
         d="m 43.409604,64.47956 -0.857898,-1.54421 -0.926529,-0.2059 c 0,0 -0.789265,-0.89221 -1.68148,-1.09811 -0.892212,-0.20589 -1.818741,-0.24021 -1.956004,-0.24021 -0.137264,0 -0.857897,0.0686 -0.75495,0.37748 0.102948,0.30884 0.686318,3.29432 0.686318,3.29432 0,0 0.171579,1.26969 0.823582,1.57853 0.652002,0.30885 -0.411791,0.72064 -0.411791,0.72064 l 0.686317,0.85789 2.058953,0.51474 3.191378,0.4118 c 0,0 -0.446106,-0.99517 -0.446106,-1.13243 0,-0.13726 -0.41179,-3.53454 -0.41179,-3.53454 z"
         id="path888" />
      <path
         style="fill:#37c837;stroke:#000000;stroke-width:0.765;stroke-linecap:butt;stroke-linejoin:miter;stroke-miterlimit:4;stroke-dasharray:none;stroke-opacity:1"
         d="m 46.875508,75.5636 c 0,0 -2.024636,-0.34316 -2.402112,-0.30885 -0.377473,0.0343 -2.642322,-0.61768 -3.054115,-0.72063 -0.411789,-0.10295 -2.161899,-0.54906 -2.161899,-0.17158 0,0.37748 0.03431,0.58337 0.03431,0.58337 L 34.72768,74.0537 32.703042,74.39686 c 0,0 -1.269688,0.17158 0.102948,0.37747 1.372636,0.2059 2.436428,0.2059 2.745271,0.61769 0.308843,0.41179 0.720634,1.13242 1.132425,2.02463 0.411791,0.89222 1.16674,1.95601 1.33832,2.09327 0.171579,0.13727 0.789264,0.54906 1.441266,0.72064 0.652002,0.17158 2.745272,0.17158 2.916851,0.20589 0.17158,0.0343 0.754952,0.30885 0.583372,0.54906 -0.17158,0.24021 -1.372637,1.13242 -1.372637,1.13242 0,0 1.132425,1.20106 1.5099,1.20106 0.377473,0 1.92169,-0.44611 2.127586,-0.51474 0.205894,-0.0686 2.539376,-1.40695 2.539376,-1.40695 z"
         id="path890" />
      <path
         style="fill:#abc837;stroke:#000000;stroke-width:0.765;stroke-linecap:butt;stroke-linejoin:miter;stroke-miterlimit:4;stroke-dasharray:none;stroke-opacity:1"
         d="m 49.071727,88.329108 c 0,0 2.196216,-0.892212 2.402112,-0.926529 0.205894,-0.03432 1.029476,-0.03432 1.784425,-0.411792 0.754951,-0.377473 1.990322,-1.029475 2.161902,-1.201055 0.17158,-0.171579 0.308843,-0.514739 0.343159,-0.308842 0.03432,0.205896 -0.446106,2.230532 -1.029478,3.534537 -0.583369,1.304004 -2.367796,3.019798 -2.916851,3.362957 -0.549053,0.343159 -2.127583,0.892212 -2.333479,0.926528 -0.205896,0.03432 -0.995162,-0.720632 -0.995162,-0.720632 z"
         id="path892" />
      <path
         style="fill:#37c837;stroke:#000000;stroke-width:0.765;stroke-linecap:butt;stroke-linejoin:miter;stroke-miterlimit:4;stroke-dasharray:none;stroke-opacity:1"
         d="m 47.52751,88.020265 c 0,0 -2.1619,-0.308843 -2.676638,-0.583369 -0.514739,-0.274529 -0.892215,-0.514739 -1.201058,-0.652002 -0.308843,-0.137263 -0.960845,-0.549056 -1.475581,-0.652002 -0.514739,-0.10295 -1.578533,-0.308843 -2.196219,-0.274529 -0.617686,0.03432 -1.132425,-0.03431 -1.647162,0.137265 -0.514739,0.17158 -0.720634,-0.240212 -2.024638,0.102947 -1.304004,0.34316 -4.42675,1.406951 -4.42675,1.406951 0,0 -1.029477,0.720635 -0.789266,1.063795 0.240212,0.343156 2.573692,0.617685 3.225694,0.892212 0.652002,0.274526 1.235372,0.926528 1.304004,1.269687 0.06863,0.34316 -0.102948,1.68148 -0.102948,1.68148 0,0 -0.274527,-0.03432 1.750111,0.549053 2.024636,0.583372 2.161902,0.480423 2.573692,0.926529 0.411792,0.446108 0.720635,0.411792 0.857898,0.995161 0.137263,0.583372 0.24021,0.926531 0.377473,0.995161 0.137266,0.06863 2.299166,0.480423 2.505062,0.446106 0.205893,-0.03431 4.426749,-0.205893 4.426749,-0.205893 l -0.446106,-8.235815"
         id="path894" />
      <path
         style="fill:#d4ff2a;stroke:#000000;stroke-width:0.765;stroke-linecap:butt;stroke-linejoin:miter;stroke-miterlimit:4;stroke-dasharray:none;stroke-opacity:1"
         d="m 54.562268,94.197127 c 0,0 3.26001,-1.098111 3.6718,-1.063794 0.411792,0.03432 2.093269,0.480422 3.019801,0.549055 0.926528,0.06863 2.676638,0.17158 3.431587,0.205894 0.754952,0.03432 3.6718,-0.24021 3.6718,-0.24021 0,0 0.137266,1.33832 -0.06863,1.612847 -0.205896,0.274526 -1.887373,2.573692 -2.196216,3.294324 -0.308846,0.720635 -0.34316,1.372637 -0.34316,1.372637 l 0.34316,1.75011 c 0,0 1.681477,0.0343 0.102946,0.34316 -1.57853,0.30884 -3.912012,0.48042 -3.912012,0.48042 l 1.990323,1.13243 c 0,0 -1.475584,0.99516 -2.09327,1.02947 -0.617686,0.0343 -3.122747,0.37748 -4.735594,0.48043 -1.612847,0.10294 -3.91201,0.27452 -4.564013,0.34315 -0.652002,0.0686 -3.157061,0.65201 -3.157061,0.65201 L 49.277621,103.634 Z"
         id="path896" />
      <path
         style="fill:#d4ff2a;stroke:#000000;stroke-width:0.765;stroke-linecap:butt;stroke-linejoin:miter;stroke-miterlimit:4;stroke-dasharray:none;stroke-opacity:1"
         d="m 47.767723,103.35947 c 0,0 -1.5099,-0.68632 -2.058953,-1.20106 -0.549056,-0.51474 -1.578533,-1.13242 -2.710958,-1.64716 -1.132425,-0.51474 -2.230533,-1.063792 -4.323802,-1.235372 -2.093269,-0.17158 -3.534536,-0.411792 -4.735593,-0.17158 -1.201056,0.24021 -2.230533,0.720633 -4.735593,0.892212 -2.50506,0.17158 -3.6718,0.17158 -3.6718,0.17158 0,0 0.754949,0.44611 2.230533,1.68148 1.475583,1.23537 2.264849,1.68148 2.333481,2.05895 0.06863,0.37748 -1.406952,0.58337 0.343158,1.30401 1.750111,0.72063 1.304004,0.68632 2.402113,0.72063 1.098108,0.0343 2.50506,-0.41179 2.710955,-0.24021 0.205896,0.17158 0.960845,0.54906 1.063793,1.09811 0.102948,0.54905 -0.17158,1.68148 -0.102948,1.85306 0.06863,0.17158 1.5099,0.54905 1.5099,0.54905 0,0 0.480422,1.64716 0.41179,1.85306 -0.06863,0.20589 -0.137263,0.75495 0.137264,0.75495 0.274526,0 2.436429,-0.0686 3.019798,-0.17158 0.583372,-0.10295 4.152223,0.37748 4.495382,0.48042 0.343159,0.10295 2.093269,-0.51474 2.093269,-0.51474 z"
         id="path898" />
      <path
         style="fill:#ccff00;stroke:#000000;stroke-width:0.765;stroke-linecap:butt;stroke-linejoin:miter;stroke-miterlimit:4;stroke-dasharray:none;stroke-opacity:1"
         d="m 76.936231,101.02599 c 0,0 -2.059215,-0.33698 -2.253338,-1.064931 -0.194119,-0.727951 -0.291179,-0.994865 -0.194119,-1.334574 0.09706,-0.339709 0.194119,-0.436772 0.315447,-0.436772 0.121324,0 0.946332,0.800746 1.06766,0.800746 0.121324,0 0.752213,0.121325 0.800742,-0.363974 0.04853,-0.485302 0,-0.363977 0.04853,-1.358839 0.04853,-0.994865 0.218387,-2.377972 0.218387,-2.377972 0,0 0.655154,0.558096 0.727949,0.82501 0.07279,0.266915 0.194122,1.431634 0.363976,2.353705 0.169855,0.92207 0.412504,0.897805 0.363974,1.577226 -0.04853,0.679425 -0.315444,1.116195 -0.606626,1.286045 -0.291179,0.16985 -0.852582,0.0943 -0.852582,0.0943 z"
         id="path900" />
      <path
         style="fill:none;stroke:#000000;stroke-width:0.765;stroke-linecap:butt;stroke-linejoin:miter;stroke-miterlimit:4;stroke-dasharray:none;stroke-opacity:1"
         d="m 77.157925,102.99418 c 0,0 1.01913,-0.72795 1.188984,-0.72795 0.169855,0 0.558097,0.12133 1.091925,0.12133 0.533832,0 0.800746,-0.0971 1.383104,-0.12133 0.582361,-0.0243 0.339712,0.50957 0.02426,0.80075 -0.315445,0.29118 -0.655154,0.58236 -0.558094,0.70369 0.09706,0.12132 0.266914,-0.12133 0.363974,0.26691 0.09706,0.38824 0.242652,0.5581 0.04853,0.82501 -0.194119,0.26691 -1.091925,0.60663 -1.504429,0.58236 -0.412506,-0.0243 -2.259954,-0.78148 -2.259954,-0.78148 z"
         id="path902" />
      <path
         style="fill:#ccff00;stroke:#000000;stroke-width:0.765;stroke-linecap:butt;stroke-linejoin:miter;stroke-miterlimit:4;stroke-dasharray:none;stroke-opacity:1"
         d="m 72.232129,110.49207 c 0,0 -1.552961,-2.37797 -1.552961,-2.79047 0,-0.41251 0.02426,-0.92207 0.0728,-1.38311 0.04853,-0.46103 0.169854,-1.09193 0.169854,-1.60149 0,-0.50957 -0.339712,-1.96546 -0.339712,-1.96546 0,0 -0.582358,-0.80075 0.363977,0.43676 0.946335,1.23752 1.383104,1.67429 1.722813,1.74708 0.339712,0.0728 0.679421,-0.0728 1.043395,0.16986 0.363977,0.24265 0.946335,1.14045 0.946335,1.14045 l 0.509567,0.80075 z"
         id="path904" />
      <path
         style="fill:#abc837;stroke:#000000;stroke-width:0.765;stroke-linecap:butt;stroke-linejoin:miter;stroke-miterlimit:4;stroke-dasharray:none;stroke-opacity:1"
         d="m 71.576973,114.71418 c 0,0 2.08679,-0.50957 2.572092,-0.36398 0.485298,0.14559 0.849275,0.36398 1.286044,0.16986 0.436772,-0.19412 1.722816,-0.65515 2.208115,-0.70368 0.485301,-0.0485 1.819875,-0.31545 2.232382,-0.31545 0.412504,0 1.577223,-0.0485 1.965462,0.0728 0.388242,0.12132 0.873541,0.43677 0.873541,0.43677 0,0 -1.650019,1.40737 -1.868406,1.77134 -0.218384,0.36398 -0.412504,0.9706 -0.436769,1.35884 -0.02426,0.38824 0.07279,0.82501 -0.72795,1.18899 -0.800743,0.36397 0.655156,0.38824 -1.771343,0.65515 -2.426502,0.26692 -5.969191,-0.14559 -5.969191,-0.14559 l -1.819875,-1.69855 z"
         id="path906" />
      <path
         style="fill:#ccff00;stroke:#000000;stroke-width:0.765;stroke-linecap:butt;stroke-linejoin:miter;stroke-miterlimit:4;stroke-dasharray:none;stroke-opacity:1"
         d="m 68.179874,118.28113 c 0,0 -0.800745,-1.81987 -0.994865,-2.15958 -0.194119,-0.33971 -0.752215,-0.12132 -1.286044,-1.31031 -0.533831,-1.18898 -0.994865,-2.45077 -0.994865,-3.17871 0,-0.72795 -0.582361,-2.81474 -0.630891,-3.08166 -0.04853,-0.26692 -0.315444,-1.11619 -0.07279,-1.06766 0.242649,0.0485 1.625756,0.67942 2.96033,1.16472 1.334574,0.4853 2.936066,1.16472 3.372835,1.74708 0.436771,0.58236 0.9706,1.48017 1.043394,1.74708 0.07279,0.26691 0.07279,0.41251 0.07279,0.41251 l -2.547823,4.97432 z"
         id="path908" />
      <path
         style="fill:#abc837;stroke:#000000;stroke-width:0.765;stroke-linecap:butt;stroke-linejoin:miter;stroke-miterlimit:4;stroke-dasharray:none;stroke-opacity:1"
         d="m 65.77764,124.83269 c 0,0 2.887536,-0.26692 3.081655,-0.26692 0.19412,0 1.504429,-0.19412 2.305175,0 0.800745,0.19412 2.741945,0.84927 3.469893,1.40737 0.727951,0.55809 1.431637,1.35884 1.674286,1.65002 0.24265,0.29118 0.388239,0.84927 0.388239,0.84927 0,0 -0.169854,0.43678 -0.800742,0.46104 -0.630892,0.0243 -1.358842,0.0971 -2.232383,0.0728 -0.873537,-0.0243 -2.159584,0.0485 -3.154449,-0.31545 -0.994865,-0.36397 -2.013996,-0.55809 -2.717679,-0.84927 -0.703686,-0.29118 -1.771345,-0.82501 -2.013995,-0.9706 -0.242652,-0.14559 -0.800745,-1.18899 -0.800745,-1.18899 l 0.9706,-0.8978"
         id="path910" />
      <path
         style="fill:#abc837;stroke:#000000;stroke-width:0.765;stroke-linecap:butt;stroke-linejoin:miter;stroke-miterlimit:4;stroke-dasharray:none;stroke-opacity:1"
         d="m 62.695985,124.75989 c 0,0.12133 0.776478,-0.99486 -0.655156,-1.81987 -1.431634,-0.82501 -2.572091,-0.43678 -3.081655,-1.38311 -0.509566,-0.94634 -0.9706,-2.06253 -1.01913,-3.22725 -0.04853,-1.16472 0,-2.25664 -0.315444,-2.86327 -0.315447,-0.60662 -0.630891,-1.26178 -0.630891,-1.26178 0,0 0.339709,0.48531 1.310309,1.11619 0.970601,0.6309 1.237518,0.5581 2.596357,0.89781 1.358839,0.33971 2.062525,0.33971 2.887535,1.11619 0.825011,0.77648 1.310309,1.23751 1.455899,1.89267 0.14559,0.65516 0.242649,1.33457 0.291179,1.57723 0.04853,0.24265 0.121328,1.09192 0.121328,1.09192 l -2.171915,2.67007 z"
         id="path912" />
      <path
         style="fill:#abc837;stroke:#000000;stroke-width:0.765;stroke-linecap:butt;stroke-linejoin:miter;stroke-miterlimit:4;stroke-dasharray:none;stroke-opacity:1"
         d="m 53.184103,123.49811 c 0,0 -1.89267,-0.53383 -3.736808,-0.58236 -1.84414,-0.0485 -4.222109,0.0485 -5.775071,0.24265 -1.552961,0.19412 -3.93093,0.87354 -5.19271,1.55296 -1.26178,0.67942 -3.15445,0.72795 -3.34857,0.72795 -0.19412,0 -2.9118,-0.9706 -0.4853,0.14559 2.4265,1.11619 4.99859,1.55296 5.435359,1.60149 0.436771,0.0485 1.358842,-0.0485 2.086792,0.33971 0.727949,0.38824 2.23238,2.23238 3.20298,2.86327 0.9706,0.63089 1.9412,1.55296 2.911801,1.69855 0.970597,0.14559 5.872128,0.29118 5.872128,0.29118 l 2.572091,-0.82501 -0.585994,-1.84002 z"
         id="path916" />
      <path
         style="fill:#71c837;stroke:#000000;stroke-width:0.765;stroke-linecap:butt;stroke-linejoin:miter;stroke-miterlimit:4;stroke-dasharray:none;stroke-opacity:1"
         d="m 61.631342,148.79371 c 0,0 -6.457508,-4.81594 -7.622228,-5.3983 -1.16472,-0.58236 -3.97946,-1.65002 -4.853001,-1.69855 -0.873537,-0.0485 -1.698548,0.14559 -2.766208,0 -1.06766,-0.14559 -2.08679,-1.06766 -2.669151,-1.40737 -0.582361,-0.33971 -1.84414,-0.9706 -1.747081,-0.67942 0.09706,0.29118 1.16472,3.68828 2.377972,5.53242 1.21325,1.84414 1.455899,2.18385 2.329439,4.12505 0.873541,1.9412 1.21325,3.3971 2.426499,3.83387 1.213253,0.43677 1.698551,0.4853 2.280912,0.58236 0.582359,0.0971 3.30004,1.65002 3.30004,1.65002 0,0 0.9706,0.38824 1.747081,0.38824 0.776478,0 1.650018,0.0971 2.280909,0 0.630888,-0.0971 2.863271,-0.53383 2.863271,-0.53383 z"
         id="path918" />
      <path
         style="fill:#71c837;stroke:#000000;stroke-width:0.765;stroke-linecap:butt;stroke-linejoin:miter;stroke-miterlimit:4;stroke-dasharray:none;stroke-opacity:1"
         d="m 62.744515,146.30721 c 0,0 0.679418,-2.9118 1.11619,-3.54269 0.436769,-0.63089 1.261779,-1.89267 2.03826,-2.57209 0.776481,-0.67942 2.766211,-2.32944 3.688278,-2.71768 0.922071,-0.38824 4.222113,-1.69855 4.853001,-2.18385 0.630891,-0.4853 3.20298,-2.18385 3.688281,-2.62062 0.485299,-0.43677 2.03826,-2.28091 2.03826,-2.28091 0,0 0.04853,0.82501 0.09706,2.23238 0.04853,1.40737 -0.09706,2.47503 0.436769,3.59122 0.533831,1.11619 1.213249,1.31031 1.06766,2.86327 -0.14559,1.55296 -0.873541,4.95006 -1.11619,5.48389 -0.24265,0.53383 -2.28091,4.46476 -2.475029,4.65888 -0.19412,0.19412 -4.707411,2.23238 -4.99859,2.28091 -0.29118,0.0485 -3.30004,1.65002 -3.979461,1.65002 -0.679421,0 -5.8236,0.0485 -5.8236,0.0485 z"
         id="path920" />
      <path
         style="fill:#89a02c;stroke:#000000;stroke-width:0.765;stroke-linecap:butt;stroke-linejoin:miter;stroke-miterlimit:4;stroke-dasharray:none;stroke-opacity:1"
         d="m 80.991796,63.22385 c 0,0 -1.892671,0.33971 -2.232383,0.24265 -0.339709,-0.0971 -2.572088,-0.82501 -2.280909,-0.24265 0.291179,0.58236 1.601491,1.89267 1.844141,2.28091 0.242649,0.38824 -0.19412,1.4559 0.242649,1.89267 0.436771,0.43677 1.130805,0.46562 1.84414,1.26178 0.713336,0.79616 1.650021,1.21325 1.650021,1.21325 0,0 0.24265,1.65002 0.485299,1.98973 0.24265,0.33971 2.23238,0.77648 2.23238,0.77648 0,0 1.01913,-0.38824 1.79561,0.0485 0.776481,0.43677 0.873541,0.53383 1.698551,1.21325 0.825011,0.67942 0.630889,1.35884 1.407369,1.01913 0.776481,-0.33971 1.601491,-2.32944 1.601491,-2.32944 l -0.388241,-0.0485 c 0,0 -3.930931,-0.77648 -4.27064,-0.82501 -0.339709,-0.0485 -1.261779,-0.43677 -2.523559,-1.06766 -1.261782,-0.63089 -2.426501,-2.57209 -2.620621,-3.10592 -0.194119,-0.53383 -0.679421,-1.79561 -0.679421,-2.37797 0,-0.58236 0.194123,-1.9412 0.194123,-1.9412 z"
         id="path922" />
      <path
         style="fill:#ddafe9;stroke:#000000;stroke-width:0.765;stroke-linecap:butt;stroke-linejoin:miter;stroke-miterlimit:4;stroke-dasharray:none;stroke-opacity:1"
         d="m 80.991796,63.22385 1.261779,-3.78534 c 0,0 1.213249,-1.06766 1.552959,-1.4559 0.339711,-0.38824 1.89267,-1.4559 2.232382,-1.69855 0.339709,-0.24265 0.776478,-0.43677 0.776478,-0.43677 0,0 -0.04853,1.69855 0.04853,2.18385 0.09706,0.4853 -0.436769,1.21325 -0.33971,1.4559 0.09706,0.24265 1.601492,0.43677 1.795611,0.43677 0.19412,0 1.11619,0.92207 1.358839,1.55296 0.24265,0.63089 1.552962,0.82501 1.747081,0.82501 0.194119,0 1.261779,-0.24265 1.601489,-0.0485 0.339711,0.19412 0.77648,1.16472 0.82501,1.60149 0.04853,0.43677 3.10592,1.16472 3.10592,1.16472 0,0 1.06766,0.63089 1.06766,1.65002 0,1.01913 -3.639749,3.10592 -3.639749,3.10592 l 1.795608,1.84414 c 0,0 2.086793,0.82501 2.086793,1.01913 0,0.19412 -1.504432,0.82501 -2.232382,0.82501 -0.727948,0 -4.755941,-0.87357 -4.755941,-0.87357 -9.000341,-0.83536 -10.940528,-4.59031 -10.288357,-9.36626"
         id="path924"
         sodipodi:nodetypes="ccsscssssssscsccsscc" />
    </g>
  </g>
</svg>
