<?xml version="1.0" encoding="UTF-8" standalone="no"?>
<svg
   xmlns:dc="http://purl.org/dc/elements/1.1/"
   xmlns:cc="http://creativecommons.org/ns#"
   xmlns:rdf="http://www.w3.org/1999/02/22-rdf-syntax-ns#"
   xmlns:svg="http://www.w3.org/2000/svg"
   xmlns="http://www.w3.org/2000/svg"
   xmlns:sodipodi="http://sodipodi.sourceforge.net/DTD/sodipodi-0.dtd"
   xmlns:inkscape="http://www.inkscape.org/namespaces/inkscape"
   width="210mm"
   height="297mm"
   viewBox="0 0 210 297"
   version="1.1"
   id="svg1078"
   inkscape:version="1.0.2 (e86c870879, 2021-01-15, custom)"
   sodipodi:docname="kidney.svg">
  <defs
     id="defs1072" />
  <sodipodi:namedview
     id="base"
     pagecolor="#ffffff"
     bordercolor="#666666"
     borderopacity="1.0"
     inkscape:pageopacity="0.0"
     inkscape:pageshadow="2"
     inkscape:zoom="0.28281609"
     inkscape:cx="400"
     inkscape:cy="560"
     inkscape:document-units="mm"
     inkscape:current-layer="layer1"
     inkscape:document-rotation="0"
     showgrid="false"
     inkscape:window-width="1267"
     inkscape:window-height="1040"
     inkscape:window-x="130"
     inkscape:window-y="0"
     inkscape:window-maximized="0" />
  <metadata
     id="metadata1075">
    <rdf:RDF>
      <cc:Work
         rdf:about="">
        <dc:format>image/svg+xml</dc:format>
        <dc:type
           rdf:resource="http://purl.org/dc/dcmitype/StillImage" />
        <dc:title></dc:title>
      </cc:Work>
    </rdf:RDF>
  </metadata>
  <g
     inkscape:label="Layer 1"
     inkscape:groupmode="layer"
     id="layer1">
    <g
       id="kidney"
       transform="matrix(0.60825652,0,0,0.76795248,46.770819,-46.01196)">
      <g
         id="g985">
        <path
           style="fill:#d45500;stroke:#000000;stroke-width:1.6;stroke-linecap:butt;stroke-linejoin:miter;stroke-miterlimit:4;stroke-dasharray:none;stroke-opacity:1"
           d="m 126.37212,156.2666 c -5.86752,4.78069 -10.96142,9.51147 -8.92952,13.78252 0.36426,9.34542 4.30112,8.69787 6.01772,18.82964 -2.28917,7.05526 -5.17687,7.82595 -7.95892,9.706 -4.27725,0.86237 -8.58933,2.17755 -12.6178,-0.19412 -4.980713,-1.7672 -9.483915,-4.22896 -11.647201,-10.09424 -4.044326,-6.05516 -2.83633,-12.66321 -2.135319,-19.21788 -0.268984,-5.30595 2.016429,-10.61189 4.270642,-15.91784 3.620543,-3.1763 8.042558,-8.58671 10.482478,-8.92952 3.96693,-3.36582 8.01237,-2.41106 12.22956,-2.52356 4.76347,0.55045 7.08978,3.05063 9.31776,5.62948 1.66499,2.97651 2.15078,5.95301 0.9706,8.92952 z"
           id="path949"
           sodipodi:nodetypes="cccccccccccc" />
        <path
           style="fill:#d45500;stroke:#000000;stroke-width:1.6;stroke-linecap:butt;stroke-linejoin:miter;stroke-miterlimit:4;stroke-dasharray:none;stroke-opacity:1"
           d="m 147.32051,151.22754 c 5.27261,5.24391 9.80424,10.37489 7.51074,14.46574 -1.08811,9.28445 -4.82781,8.31755 -7.28013,18.27528 1.64758,7.21865 4.36731,8.22259 6.8978,10.32357 4.0505,1.2088 8.09882,2.87175 12.16495,0.837 4.93534,-1.35453 9.46569,-3.4403 12.01149,-9.10932 4.37203,-5.70464 3.73024,-12.38927 3.57241,-18.97929 0.67764,-5.26626 -1.10432,-10.74112 -2.85625,-16.21345 -3.23558,-3.46137 -7.06664,-9.21484 -9.38899,-9.75577 -3.55416,-3.67855 -7.52483,-3.05736 -11.57667,-3.5139 -4.63016,0.15959 -7.06743,2.46143 -9.4162,4.84971 -1.83807,2.83059 -2.54069,5.75748 -1.63915,8.82043 z"
           id="path949-5"
           sodipodi:nodetypes="cccccccccccc" />
        <path
           style="fill:#37abc8;stroke:#000000;stroke-width:0.8;stroke-linecap:butt;stroke-linejoin:miter;stroke-miterlimit:4;stroke-dasharray:none;stroke-opacity:1"
           d="m 128.89568,144.42528 0.38824,23.7797 v 1.55296 l -5.14418,-0.43677 c 0,0 -1.74708,-0.33971 -2.37797,-0.43677 -0.63089,-0.0971 -0.9706,-0.33971 -2.03826,-0.33971 -1.06766,0 -2.76621,-0.63089 -2.76621,-0.63089 0,0 2.08679,0.9706 2.28091,1.01913 0.19412,0.0485 0.77648,0.14559 0.87354,0.33971 0.0971,0.19412 0.19412,0.72795 0.19412,0.9706 0,0.24265 -0.0971,0.53383 -0.4853,0.67942 -0.38824,0.14559 -0.4853,0.29118 -1.01913,0.38824 -0.53383,0.0971 -1.21325,0.19412 -1.21325,0.19412 l -0.0485,0.82501 c 0,0 1.11619,-0.14559 1.74708,-0.33971 0.63089,-0.19412 1.65002,-0.29118 2.47503,-0.29118 0.82501,0 1.9412,0 2.52356,0.19412 0.58236,0.19412 2.28091,0.33971 2.76621,0.63089 0.4853,0.29118 1.79561,1.21325 1.89267,1.60149 0.0971,0.38824 2.08679,31.98127 2.08679,31.98127 0,0 1.65002,0.53383 1.98973,0.58236 0.33971,0.0485 1.11619,-0.14559 1.11619,-0.14559 l -0.19412,-35.57249 c 0,0 0.29118,-0.77648 0.63089,-1.21325 0.33971,-0.43677 0.9706,-1.31031 2.28091,-1.98973 1.31031,-0.67942 4.65888,-1.50443 5.3383,-1.50443 0.67942,0 2.32944,0.19412 3.00886,0.24265 0.67942,0.0485 2.62062,0.24265 2.62062,0.24265 0,0 0.72795,0.33971 1.21325,0.4853 0.4853,0.14559 1.60149,0.87354 1.79561,1.16472 0.19412,0.29118 2.76621,3.00886 2.76621,3.00886 l 0.24265,-1.06766 c 0,0 -1.26178,-1.50443 -1.69855,-1.98973 -0.43677,-0.4853 -1.55296,-1.06766 -2.03826,-1.50443 -0.4853,-0.43677 -1.01913,-0.24265 -0.63089,-0.58236 0.38824,-0.33971 0.87354,-0.38824 0.87354,-0.38824 l 4.31917,0.92207 c 0,0 0.16614,-1.10433 0.16614,-1.10433 0,0 -2.49558,-0.0604 -3.02941,-0.25451 -0.53383,-0.19412 -0.9706,-0.33971 -1.06766,-0.58236 -0.0971,-0.24265 -1.06766,-0.58236 0.24265,-1.16472 1.31031,-0.58236 1.4559,-0.4853 1.65002,-0.58236 0.19412,-0.0971 2.52356,-1.06766 2.52356,-1.06766 l -0.24265,-1.11619 c 0,0 -1.74708,1.50443 -3.63975,1.69855 -1.89267,0.19412 -4.02799,1.01913 -6.21184,1.11619 -2.18385,0.0971 -4.22211,-0.24265 -5.48389,0.19412 -1.26178,0.43677 -3.49416,1.11619 -4.61035,1.74708 -1.11619,0.63089 -2.03826,0.77648 -2.03826,0.77648 l 0.53383,-21.93556 c 0,0 0.53383,-0.14559 -0.67942,-0.24265 -1.21325,-0.0971 -0.87354,-0.29118 -1.84414,-0.14559 -0.9706,0.14559 -2.03826,0.29118 -2.03826,0.29118 z"
           id="path971" />
        <path
           style="fill:#ff2a2a;stroke:#000000;stroke-width:0.8;stroke-linecap:butt;stroke-linejoin:miter;stroke-miterlimit:4;stroke-dasharray:none;stroke-opacity:1"
           d="m 135.54429,143.6488 2.28091,-0.4853 1.11619,0.24265 1.16472,18.19875 c 0,0 0.53383,-0.14559 1.55296,-0.33971 1.01913,-0.19412 1.74708,-0.67942 2.62062,-0.82501 0.87354,-0.14559 2.23238,-0.33971 3.34857,-0.29118 1.11619,0.0485 1.9412,0.24265 2.76621,0.29118 0.82501,0.0485 4.02799,-0.53383 4.02799,-0.53383 l -0.29118,0.43677 c 0,0 -5.87213,0.67942 -6.26037,0.67942 -0.38824,0 -2.03826,0.14559 -3.10592,0.33971 -1.06766,0.19412 -3.00886,0.67942 -3.00886,0.67942 l -1.16472,1.65002 -4.12505,43.09464 -2.32941,-0.24265 1.89264,-33.04893 c 0,0 -0.63089,-0.53383 -1.16472,-0.92207 -0.53383,-0.38824 -5.92066,-3.44563 -6.16331,-3.63975 -0.24265,-0.19412 -2.37797,-0.9706 -3.49416,-1.16472 -1.11619,-0.19412 -3.83387,-0.19412 -3.83387,-0.19412 l -4.41623,0.33971 v 0 l 0.82501,-0.92207 1.50443,0.19412 1.06766,-0.0485 c 0,0 0.43677,-0.0485 0,-0.4853 -0.43677,-0.43677 -1.01913,-0.72795 -1.35884,-0.87354 -0.33971,-0.14559 -1.11619,-1.06766 -1.11619,-1.06766 l 0.33971,-0.29118 1.16472,0.9706 c 0,0 0.14559,0.4853 0.43677,0.19412 0.29118,-0.29118 0.33971,-0.4853 0.29118,-0.67942 -0.0485,-0.19412 -0.4853,-1.01913 -0.4853,-1.01913 l -0.43677,-0.92207 c 0,0 0,-0.4853 0.14559,-0.24265 0.14559,0.24265 0.0971,0.72795 0.67942,1.16472 0.58236,0.43677 1.9412,1.11619 2.32944,1.26178 0.38824,0.14559 2.62062,0.33971 2.81474,0.33971 0.19412,0 1.40737,-0.0971 1.60149,-0.0971 0.19412,0 0.63089,0 1.55296,0.19412 0.92207,0.19412 2.57209,0.33971 3.15445,0.82501 0.58236,0.4853 5.24124,3.44563 5.24124,3.44563 z"
           id="path973" />
      </g>
    </g>
  </g>
</svg>
