<?xml version="1.0" encoding="UTF-8" standalone="no"?>
<svg
   xmlns:dc="http://purl.org/dc/elements/1.1/"
   xmlns:cc="http://creativecommons.org/ns#"
   xmlns:rdf="http://www.w3.org/1999/02/22-rdf-syntax-ns#"
   xmlns:svg="http://www.w3.org/2000/svg"
   xmlns="http://www.w3.org/2000/svg"
   width="210mm"
   height="297mm"
   viewBox="0 0 210 297"
   version="1.1"
   id="svg3307">
  <defs
     id="defs3301" />
  <metadata
     id="metadata3304">
    <rdf:RDF>
      <cc:Work
         rdf:about="">
        <dc:format>image/svg+xml</dc:format>
        <dc:type
           rdf:resource="http://purl.org/dc/dcmitype/StillImage" />
        <dc:title></dc:title>
      </cc:Work>
    </rdf:RDF>
  </metadata>
  <g
     id="layer1">
    <g
       id="g4315"
       transform="matrix(0.42567974,0,0,0.4009099,95.212466,110.86246)">
      <path
         style="fill:#ff8080;stroke:#000000;stroke-width:3.86335;stroke-linecap:butt;stroke-linejoin:miter;stroke-miterlimit:4;stroke-dasharray:none;stroke-opacity:1"
         d="m 111.54565,-9.0789656 c 1.77077,-0.8785899 4.42908,-3.0607814 4.99627,-4.9536194 3.16922,-10.576768 17.53352,-13.281004 28.36283,-18.160188 5.23237,-10.543285 11.73547,-10.449029 17.95018,-11.255116 -1.86188,-11.558303 10.66957,-8.135158 17.86894,-10.261945 7.16984,1.244443 13.75944,0.229369 22.86639,9.017257 3.12709,4.497489 5.21138,10.287057 4.2453,19.856182 3.96593,15.4752453 13.19567,30.1446662 -0.77188,48.365288 4.31958,15.874207 4.81706,30.25067 -4.43825,40.805366 9.71528,17.468401 7.05839,27.521057 0.67542,35.340357 9.19384,20.852404 -0.37631,25.171794 -1.44724,36.979884 6.12776,24.54121 -3.88985,25.03418 -8.29754,33.88301 11.5798,20.53018 4.5498,27.54623 0.0964,36.43338 5.88379,10.69418 3.77893,20.33255 -3.18389,29.32886 3.15285,23.7036 -5.65817,32.85855 -17.55991,38.25503 -9.61851,19.43419 -24.56268,19.91817 -40.81216,15.75741 -21.31744,22.05844 -41.427089,25.16083 -60.687669,14.9377 -0.92328,1.92161 -4.20695,2.55825 -4.75434,4.4006 -5.1887,17.4639 -14.26559,20.81309 -22.64677,28.8448 4.57684,9.68435 -3.91473,18.26779 -8.68672,19.48018 -0.937,0.23804 -2.00889,1.41792 -2.50528,0.9225 -2.433401,-2.4286 -6.049641,25.03471 -4.631171,25.50339 -8.66867,2.34751 -16.5332,2.96968 -22.384,-0.72868 -1.02811,-8.1321 0.19007,-15.87147 -7.332686,-25.13898 -8.161233,-6.54072 -10.632825,-14.17334 -4.920621,-26.0499 -20.731048,-10.45374 -23.21111,-32.89214 -16.498551,-59.56854 -3.846586,-3.71263 -7.55313,-9.96559 -5.402915,-16.03078 -7.258433,4.25634 -14.934528,5.35842 -22.421097,7.89189 10.068283,26.86449 -5.920299,23.47545 -17.136952,25.62688 -9.055104,7.07266 -17.821058,15.08115 -29.330757,14.20901 -2.567618,-0.8101 -16.247081,0.13195 -23.927721,-9.83699 -2.38203,-7.85438 -8.00612,-14.72936 -1.92966,-25.139 -9.58137,-7.31923 -15.58388,-17.67919 -14.27945,-34.24736 -5.28688,-10.11682 -14.36907,-20.16055 -2.70151,-30.60402 -8.11424,-6.4236 -10.58128,-17.78349 -8.87642,-32.79005 -9.31666,-9.71649 -11.88374,-21.63862 -2.31558,-37.52634 -11.84386,-20.65059 -7.19561,-31.72017 -0.38593,-41.534054 -12.86929,-7.123291 -14.1148,-21.286057 -7.71862,-40.076696 -1.73932,-8.915401 -11.40777,-12.987278 3.90316,-32.317793 l -1.58758,-3.386902 c -1.76529,-4.893654 -2.16005,-9.7010678 1.50092,-14.2532108 0.98863,-6.9223389 1.12563,-13.0718112 8.91922,-19.9941492 6.52979,-4.086798 15.30302,-2.455273 23.54179,-2.186002 6.78429,3.034712 15.44015,2.671692 19.21705,11.1661911 l 4.903671,-0.7826829 c 7.625736,0.5375103 11.562662,2.8991099 13.8027,6.0998104 l 5.905946,6.4136386 17.017188,3.118419 c -1.149622,9.3308218 11.399856,18.3537278 17.252202,27.5271578 13.611067,3.425303 27.785443,14.082662 39.691828,-4.378347 3.521889,-1.027311 5.728249,-9.001098 6.290644,-9.263725 1.219246,-0.56936 2.819211,0.782646 4.806181,1.028025 3.04735,0.376307 6.72825,-0.282823 9.17937,-2.21804 2.31663,1.738355 3.45526,3.839542 6.99164,3.788116 3.83341,-0.05574 5.56034,-0.28331 9.53498,-2.263196 2.862951,-1.426123 7.408161,0.817949 9.100091,-4.057838 0.41043,-1.182733 2.25424,2.295234 3.27563,2.45013 1.95369,0.296298 3.9105,-0.94244 7.46617,-2.892935 1.0015,-0.549391 1.30014,-2.309873 2.73565,-2.815534 2.20934,-0.778234 8.31835,2.893649 10.77016,-2.802302 0.2038,-0.473491 1.17454,-0.9600258 1.17454,-0.9600258 0.6139,-0.767311 1.72861,-0.468367 2.4301,-0.168353 2.02649,0.8664648 2.98667,-1.77135 7.29239,-2.451163 10.70089,-1.689519 28.582169,-7.9748371 35.807919,-16.3359298 z"
         id="path859" />
      <path
         style="fill:#ffffff;fill-opacity:1;stroke:#000000;stroke-width:3.86335;stroke-linecap:butt;stroke-linejoin:miter;stroke-miterlimit:4;stroke-dasharray:none;stroke-opacity:1"
         d="m -97.242949,54.497251 c 0,0 -1.543725,2.368169 -2.122621,3.096836 -0.578897,0.728667 -3.08745,2.732502 -3.66634,3.461169 -0.5789,0.728667 -0.96483,2.914669 -1.1578,4.372004 -0.19304,1.457334 -0.38593,2.914669 -0.38593,4.736337 0,1.821668 0.96483,9.837007 0.96483,9.837007 0,0 0.5789,0.728668 0.5789,1.639502 0,0.910834 0,0.728667 -1.54373,2.186002 -1.54372,1.457334 -2.50855,1.821668 -3.08745,2.732502 -0.57889,0.910834 -1.54372,3.096839 -1.54372,3.096839 l -1.92966,4.371997 c 0,0 -0.38593,2.55034 -0.77186,4.55417 -0.38593,2.003844 0.38593,5.100674 0.38593,7.833174 0,2.73251 0,6.55801 0.19305,8.19751 0.19304,1.6395 0.77186,5.28284 1.73669,8.56184 0.96483,3.279 0.77186,6.558 2.12262,10.93001 1.35076,4.37202 6.17489,10.01919 6.17489,10.01919 0,0 2.122625,2.7325 4.05228,3.64334 1.929655,0.91083 -0.193045,1.27517 4.052276,1.45731 4.245241,0.18206 5.210069,0.18206 6.560827,0.18206 h 3.47338 c 0,0 0.578896,7.1045 -1.543725,12.56955 -2.12262,5.46498 -2.315586,4.00766 -2.315586,6.19367 0,2.18596 -0.578896,6.74017 -0.578896,7.651 0,0.91084 2.701517,17.67015 2.508551,18.39883 -0.193045,0.72869 2.894483,8.01534 3.666345,9.47266 0.771862,1.45737 4.438207,6.37587 5.596,7.46886 1.157793,1.09301 7.525655,4.73635 7.525655,4.73635 l 2.508551,0.72863 -4.438206,5.28284 c 0,0 -3.859311,14.57336 -4.631173,15.30205 -0.771862,0.72863 -3.087448,6.37582 -2.315586,9.47265 0.771862,3.09684 2.508552,8.74403 3.666345,10.93003 1.157793,2.186 2.122621,4.9185 5.596,6.37582 3.473379,1.45733 5.210069,1.82167 5.210069,1.82167 h 8.297516 c 0.771862,0 0.964828,-1.27517 3.087449,-1.63952 2.12262,-0.3643 5.403034,-1.45732 5.403034,-1.45732 l 4.631172,-1.45731 c 0,0 6.753793,-1.09304 7.911586,-1.82167 1.157793,-0.72869 5.017103,-2.55036 5.017103,-2.55036 0,0 -0.578896,2.00388 -0.578896,2.91469 0,0.91084 0.578896,4.91851 1.157793,6.55797 0.578896,1.63952 2.12262,3.64334 3.85931,5.46504 1.736689,1.82167 3.087448,3.27899 5.210069,4.00767 2.12262,0.72865 6.174896,1.82167 8.104551,2.5503 1.929655,0.72869 4.824138,1.45737 6.174896,1.63952 1.350759,0.18205 2.894483,0.5465 2.894483,0.5465 l 2.122621,9.47269 c 0,0 -1.543725,3.82549 2.894486,7.83316 4.4382,4.00767 7.13972,6.01152 8.87641,7.1045 1.73669,1.09302 5.0171,2.00386 6.75379,2.36815 1.73669,0.36435 11.38497,1.09304 12.3498,0.91084 0.96482,-0.18225 10.034201,-1.45732 10.034201,-1.45732 0,0 15.43724,-3.27898 16.40207,-3.64334 0.96483,-0.36433 3.85931,-2.73248 5.78897,-3.82552 1.92965,-1.09298 9.45531,-6.9223 9.45531,-6.9223 0,0 3.66634,-7.83319 3.66634,-9.83701 0,-2.00385 0.19304,-5.28283 0,-7.46885 -0.19305,-2.18601 -0.5789,-5.10069 -0.5789,-5.10069 0,0 10.03421,2.3682 10.99904,2.55035 0.96482,0.18224 7.91158,0.91083 10.0342,0 2.12262,-0.91083 8.876419,-3.09684 9.455309,-4.00767 0.5789,-0.91083 3.08745,-2.18602 4.24524,-3.82548 1.1578,-1.63952 6.1749,-8.56188 6.1749,-8.56188 l 1.54373,-2.73248 10.80606,-5.82934 6.56083,-6.55803 c 0,0 2.31559,-2.36815 2.50853,-4.18981 0.19305,-1.82165 0.19305,-5.46499 0.19305,-7.28666 0,-1.8217 -1.15782,-10.93003 -1.15782,-10.93003 0,0 -0.77182,-0.54648 -1.73664,-3.82552 -0.96483,-3.27898 -4.82414,-10.74782 -4.82414,-10.74782 l 4.82414,-4.18982 c 0,0 0.57887,-2.9147 0.57887,-5.10071 0,-2.186 0,-3.64331 -0.38593,-4.7363 -0.38595,-1.09302 -0.96483,-3.09683 -0.96483,-3.09683 l 6.94678,-8.01534 c 0,0 0.77182,-3.82552 0.96481,-5.10071 0.19304,-1.27517 3.28043,-5.28284 3.28043,-7.28665 0,-2.00386 -1.15783,-14.20901 -1.15783,-14.20901 l 7.13976,-8.01534 c 0,0 1.15778,-6.74016 1.15778,-8.01534 0,-1.27517 -1.15778,-4.73634 -2.70154,-6.19368 -1.5437,-1.45733 -3.85929,-4.73633 -5.78895,-5.64717 -1.92965,-0.91083 -4.05229,-2.186 -4.05229,-2.186 l -1.92966,-2.36817 7.52566,-4.55417 4.63119,-3.09683 c 0,0 1.35076,-2.55034 1.73671,-3.46117 0.38593,-0.91084 1.15777,-4.18984 0.77182,-5.46501 -0.38589,-1.27516 -1.15777,-3.461174 -2.1226,-4.554174 -0.96481,-1.093 -5.01712,-5.64717 -5.01712,-5.64717 l -8.49046,-9.654836 -2.7015,-1.457334 4.05225,-8.561841 c 0,0 0.38594,-4.55417 0.38594,-5.647171 0,-1.093 0.38595,-6.558005 0.38595,-9.654841 0,-3.096835 0,-5.282837 -0.96483,-8.015339 -0.96483,-2.732502 -3.85931,-11.294342 -3.85931,-11.294342 l -0.77188,-3.096836 c 0,0 -1.54371,-0.728667 -3.28042,-0.728667 -1.73669,0 -13.12165,1.093 -14.47241,1.639501 -1.35076,0.5465 -9.06938,3.279002 -10.99903,4.55417 -1.92966,1.275168 -2.31559,1.457335 -5.596,3.461169 -3.280419,2.003835 -6.174899,2.914669 -8.490489,4.736338 -2.31558,1.821668 -3.66634,3.643336 -6.36786,4.918503 -2.70152,1.275168 -5.98193,2.368169 -10.99903,3.279003 -5.01711,0.910834 -7.52566,1.457334 -10.03421,1.821668 -2.50855,0.364334 -16.59503,2.368169 -17.36689,2.550335 -0.77187,0.182242 -4.63118,1.275168 -7.33269,2.368169 -2.70152,1.093001 -5.40304,1.639501 -6.56083,2.914669 -1.157791,1.275168 -2.701521,2.732502 -3.280411,3.825503 -0.5789,1.093001 -0.5789,1.821668 -0.96483,4.00767 -0.38593,2.186001 -1.1578,3.461169 -0.19305,7.104505 0.96483,3.643337 1.92966,16.030674 2.31559,16.759344 0.38593,0.72867 3.280411,2.732504 5.210071,3.825504 1.92965,1.093 1.92965,0.5465 4.24524,2.55034 2.31558,2.00383 -5.21007,1.6395 -5.98193,1.82167 -0.77186,0.18224 -6.560831,3.279 -7.525661,3.64333 -0.96482,0.36434 -5.21007,2.36817 -6.36786,3.82551 -1.15779,1.45733 -4.43821,6.74017 -4.82414,7.46883 -0.38593,0.72867 -5.21007,11.11218 -5.40303,12.38737 -0.19305,1.27516 -1.35076,5.64713 -0.96483,7.1045 0.38593,1.45732 -5.98193,-2.3682 -7.332688,-2.3682 -1.350758,0 -3.087448,0 -5.403034,0.54653 -2.315586,0.54649 -4.438207,1.63947 -4.438207,1.63947 l 0.385931,-7.83314 c 0,0 -0.964827,-6.55802 -1.736689,-7.65102 -0.771862,-1.093 -3.087448,-4.91851 -3.087448,-4.91851 0,0 2.508551,-0.36433 6.174896,0.5465 3.666345,0.91084 0.578896,2.73251 6.753793,1.27517 l 6.174896,-1.45733 7.52565,-8.19751 4.82414,-12.02301 -0.67253,-12.782921 -2.22195,-11.080931 -6.1749,-8.197506 -24.506616,-0.728667 c 0,0 -0.578897,0.182242 -2.701517,0.5465 -2.122621,0.364334 -5.981931,1.275168 -8.876414,2.003835 -2.894482,0.728667 -4.631172,0.728667 -6.174896,2.368169 -1.543724,1.639501 -4.052276,7.286672 -4.052276,7.286672 0,0 -1.929655,-5.100671 -2.508551,-6.011505 -0.578897,-0.910834 -5.835785,-1.556469 -7.76544,-2.831637 0,0 -8.843312,-2.160101 -10.772967,-3.253102 -1.929655,-1.093001 -6.627031,-5.660121 -8.363721,-5.660121 -1.736689,0 -15.470362,-2.053403 -15.470362,-2.053403 l -7.200242,-3.757617 z"
         id="path855" />
      <path
         style="fill:none;stroke:#000000;stroke-width:3.86335;stroke-linecap:butt;stroke-linejoin:miter;stroke-miterlimit:4;stroke-dasharray:none;stroke-opacity:1"
         d="m -150.30846,23.893227 c 0,0 2.50855,2.550335 4.63117,4.372003 2.12262,1.821668 3.08745,3.46117 5.21007,5.465005 2.12262,2.003835 10.42013,5.647171 10.42013,5.647171 l 6.36787,-2.186002 c 0,0 1.92965,3.096836 2.89448,4.918504 0.96483,1.821668 4.24524,4.55417 7.13972,6.375838 2.89449,1.821668 16.402071,6.011505 16.402071,6.011505"
         id="path933" />
      <path
         style="fill:none;stroke:#000000;stroke-width:3.86335;stroke-linecap:butt;stroke-linejoin:miter;stroke-miterlimit:4;stroke-dasharray:none;stroke-opacity:1"
         d="m -112.10129,52.948833 c 0,0 1.35076,1.821668 1.83317,3.187919 0.48241,1.366251 0.96483,2.368169 1.44724,3.73442 0.48241,1.366251 0.38593,2.186002 0.67538,3.916586 0.28945,1.730585 0.5789,3.643337 0.0964,5.829338 -0.48241,2.186002 -0.67538,2.914669 -1.06131,5.100671 -0.38593,2.186002 -2.70152,7.377756 -3.56986,8.28859 -0.86835,0.910834 -2.89448,3.825503 -2.89448,3.825503 l 3.08744,4.280916"
         id="path935" />
      <path
         style="fill:none;stroke:#000000;stroke-width:3.86335;stroke-linecap:butt;stroke-linejoin:miter;stroke-miterlimit:4;stroke-dasharray:none;stroke-opacity:1"
         d="m -96.278122,151.04566 c 0,1.09302 -1.447241,4.09874 -1.929655,5.73826 -0.482414,1.63952 -1.350759,4.09875 -1.350759,4.09875 0,0 3.666345,3.1879 4.631173,4.28094 0.964827,1.09296 1.350758,1.45731 2.605034,2.73248 1.254276,1.27519 1.833172,1.36625 2.315586,2.64142 0.482414,1.27519 0.675379,2.36817 0.675379,2.36817"
         id="path937" />
      <path
         style="fill:none;stroke:#000000;stroke-width:3.86335;stroke-linecap:butt;stroke-linejoin:miter;stroke-miterlimit:4;stroke-dasharray:none;stroke-opacity:1"
         d="m -75.437847,213.61998 c 0,0 0.67538,2.09488 0.868345,3.82547 0.193045,1.7306 0.09642,-2.0038 0.193045,4.9185 0.09642,6.92236 0,8.65296 0,8.65296"
         id="path939" />
      <path
         style="fill:#ffd42a;stroke:#000000;stroke-width:2.263;stroke-linecap:butt;stroke-linejoin:miter;stroke-miterlimit:4;stroke-dasharray:none;stroke-opacity:1"
         d="m -138.63405,35.369736 c 0.37814,8.379035 -2.95665,13.545039 -5.49492,19.400296 3.53447,11.357911 8.70662,21.363009 6.41472,37.533694 6.03575,10.644564 3.81197,26.068104 2.11798,41.185114 7.59397,8.49951 12.6738,18.18575 8.01998,32.46646 6.33607,7.02934 13.57294,13.15512 7.94934,32.18048 4.41823,3.33782 9.45619,4.981 6.65731,28.05369 4.93822,1.80793 8.99395,6.55157 8.58697,26.14096 14.324038,4.57423 24.869386,17.9128 28.655375,41.89838 l 3.569862,-1.8217 c -3.88935,-15.50062 -6.789658,-34.01218 -24.892551,-46.36144 -1.873412,-6.25397 -2.591953,-13.28667 -0.87409,-21.96228 -9.695256,-5.97514 -7.939976,-17.12016 -6.072666,-28.31576 -7.81654,-9.21838 -12.72306,-21.41284 -17.51537,-33.72413 1.64106,-26.4131 -6.15058,-20.76882 -9.29415,-30.92116 5.02187,-16.21157 0.72285,-27.87178 -1.24311,-40.671204 2.58049,-11.790601 -1.77706,-23.843189 -5.3941,-35.867813 1.41109,-4.216788 2.78537,-8.120799 4.69487,-16.572168 z"
         id="path941" />
      <path
         style="fill:none;stroke:#000000;stroke-width:3.86335;stroke-linecap:butt;stroke-linejoin:miter;stroke-miterlimit:4;stroke-dasharray:none;stroke-opacity:1"
         d="m 14.83888,70.367892 3.95696,-1.416926 c 0,0 3.00184,0.901675 4.22988,0.901675 1.22801,0 3.54761,-0.128752 3.54761,-0.128752"
         id="path943" />
      <path
         style="fill:none;stroke:#000000;stroke-width:3.86335;stroke-linecap:butt;stroke-linejoin:miter;stroke-miterlimit:4;stroke-dasharray:none;stroke-opacity:1"
         d="m 127.40785,33.270201 10.5064,-6.054128 c 0,0 2.59253,0.128751 7.36816,-1.030483 4.77569,-1.15931 18.28391,-5.925339 18.28391,-5.925339 0,0 3.13828,-0.901675 4.09343,-2.189793 0.95514,-1.288099 3.54763,-8.3727288 3.54763,-8.3727288"
         id="path945" />
      <path
         style="fill:none;stroke:#000000;stroke-width:3.86335;stroke-linecap:butt;stroke-linejoin:miter;stroke-miterlimit:4;stroke-dasharray:none;stroke-opacity:1"
         d="m 172.43544,15.494241 c 2.04669,-0.386443 9.41485,-1.545753 9.96064,-2.060985 0.54576,-0.515251 3.41113,-2.96266 4.36628,-3.9931618 0.95514,-1.030483 3.00184,-4.379586 3.13828,-5.667704 0.13639,-1.288099 1.91031,-10.9489645 1.91031,-10.9489645"
         id="path947" />
      <path
         style="fill:none;stroke:#000000;stroke-width:3.86335;stroke-linecap:butt;stroke-linejoin:miter;stroke-miterlimit:4;stroke-dasharray:none;stroke-opacity:1"
         d="m 195.77518,-2.1566268 c 1.44724,-0.8197507 4.63119,-2.459252 5.69248,-3.6433363 1.06131,-1.1840842 5.21007,-5.9204209 5.21007,-5.9204209 l 0.0964,-0.455418 -0.0964,0.182242"
         id="path949" />
      <path
         style="fill:#ffd42a;stroke:#000000;stroke-width:2.263;stroke-linecap:butt;stroke-linejoin:miter;stroke-miterlimit:4;stroke-dasharray:none;stroke-opacity:1"
         d="m 163.64644,21.433975 c 1.09298,6.489444 -1.5244,11.102435 -5.49954,15.028762 9.13562,8.807744 11.62308,18.835853 1.15782,31.241608 6.20304,11.710608 13.45247,23.213241 2.89448,38.255035 4.8809,11.51126 8.54404,23.15705 -3.37694,36.52446 3.52887,12.85881 2.79283,25.20722 -6.56079,36.52443 9.77238,15.10513 -2.4395,27.04139 -12.87821,30.65929 9.44871,6.06796 15.18092,13.00582 2.84397,24.17292 2.28807,9.7761 2.51708,18.34886 -2.798,23.68166 -6.43554,6.05676 -13.07231,3.94544 -19.68244,2.91469 l -19.62841,13.96827 -21.626869,3.60674 -1.70559,7.79312 c 11.49508,-9.63322 30.580889,-5.56686 47.892999,-4.70166 3.04243,-20.66465 16.93005,-16.60296 29.19966,-16.2302 -7.23336,-15.53825 -5.29967,-26.04989 17.73815,-24.98942 -13.50526,-6.92641 -21.39863,-15.21601 -4.09343,-29.62662 -8.6206,-8.58229 -9.38371,-18.81301 0,-31.17237 -8.49756,-15.50683 -0.31652,-26.32036 9.82421,-36.58244 -11.32847,-12.8686 -2.43275,-27.29578 3.27474,-41.47726 -12.5923,-8.863204 -4.75151,-23.493416 -0.54579,-37.097669 -16.25696,-12.686982 -0.9732,-23.320468 1.63738,-34.779071 -7.29326,-0.348006 -11.07084,-4.214123 -9.2784,-13.654009 z"
         id="path951" />
      <path
         style="fill:#ffd42a;stroke:#000000;stroke-width:2.563;stroke-linecap:butt;stroke-linejoin:miter;stroke-miterlimit:4;stroke-dasharray:none;stroke-opacity:1"
         d="m 176.66527,-51.10126 c -7.30484,5.93994 -8.24638,12.586608 -9.55132,19.192904 -8.6902,-1.095535 -16.46151,4.401714 -23.33242,16.359053 -13.6398,0.65211 -26.19321,3.075665 -31.92868,16.6166682 -10.5759,-0.136447 -19.305169,4.603419 -25.515619,12.3658908 -9.76219,-0.0351 -12.06708,2.097208 -15.55499,5.023645 -13.3527,-2.488475 -20.00762,2.011586 -26.60722,6.569379 C 35.095761,23.682438 26.02056,22.320372 15.52112,27.344881 8.92925,29.09322 4.5751,28.306577 -0.306767,28.117748 L -59.43831,21.017052 c -6.288059,-3.60518 -7.210739,-1.019654 -10.592983,-1.272033 -6.566514,-8.230539 -14.588618,-9.8195158 -23.332485,-8.115132 -5.664112,-5.9476168 -11.007502,-12.1677329 -23.741812,-12.1082559 -1.91025,-3.1149096 -3.82052,-4.3121318 -5.73078,-3.9931616 -1.30926,-4.6668561 -2.99834,-9.6500175 -7.36815,-13.3963925 l -9.5513,0.257635 c 4.90334,4.510064 8.86411,9.7121972 10.50644,16.6166681 3.56418,1.078268 7.00901,2.3537361 9.14195,5.7965121 11.17382,-1.033054 18.30021,4.756983 24.42405,12.2370828 9.319184,-0.886717 18.551548,-0.708022 27.153007,7.213438 l 5.123149,1.689256 7.839338,0.629345 56.079801,7.59988 C 5.15233,33.210198 10.02689,33.826874 14.6477,32.686163 24.48958,30.256565 34.145471,26.68774 44.720821,30.9516 c 9.84852,-7.728914 18.48689,-10.561734 25.78853,-7.986305 5.66246,-2.769983 10.92577,-7.675199 17.60169,-5.023645 7.27356,-6.958862 14.062029,-15.4747378 24.833379,-11.2065808 6.52387,-10.0615914 15.05418,-18.3512322 32.74734,-18.5488452 6.68238,-8.506567 12.23039,-16.944911 25.24274,-16.487861 5.01495,-8.042892 7.89814,-20.357732 17.87455,-22.155546 -3.03816,-2.59095 -9.20542,-5.052285 -12.14378,-0.644077 z"
         id="path1041" />
    </g>
  </g>
</svg>
