<?xml version="1.0" encoding="UTF-8" standalone="no"?>
<svg
   xmlns:dc="http://purl.org/dc/elements/1.1/"
   xmlns:cc="http://creativecommons.org/ns#"
   xmlns:rdf="http://www.w3.org/1999/02/22-rdf-syntax-ns#"
   xmlns:svg="http://www.w3.org/2000/svg"
   xmlns="http://www.w3.org/2000/svg"
   xmlns:sodipodi="http://sodipodi.sourceforge.net/DTD/sodipodi-0.dtd"
   xmlns:inkscape="http://www.inkscape.org/namespaces/inkscape"
   width="210mm"
   height="297mm"
   viewBox="0 0 210 297"
   version="1.1"
   id="svg8"
   inkscape:version="1.0.2 (e86c870879, 2021-01-15, custom)"
   sodipodi:docname="lungs.svg">
  <defs
     id="defs2" />
  <sodipodi:namedview
     id="base"
     pagecolor="#ffffff"
     bordercolor="#666666"
     borderopacity="1.0"
     inkscape:pageopacity="0.0"
     inkscape:pageshadow="2"
     inkscape:zoom="0.53612051"
     inkscape:cx="330.73336"
     inkscape:cy="611.37909"
     inkscape:document-units="mm"
     inkscape:current-layer="layer1"
     inkscape:document-rotation="0"
     showgrid="false"
     inkscape:window-width="1267"
     inkscape:window-height="1040"
     inkscape:window-x="932"
     inkscape:window-y="3"
     inkscape:window-maximized="0" />
  <metadata
     id="metadata5">
    <rdf:RDF>
      <cc:Work
         rdf:about="">
        <dc:format>image/svg+xml</dc:format>
        <dc:type
           rdf:resource="http://purl.org/dc/dcmitype/StillImage" />
        <dc:title />
      </cc:Work>
    </rdf:RDF>
  </metadata>
  <g
     inkscape:label="Layer 1"
     inkscape:groupmode="layer"
     id="layer1">
    <g
       id="g1045">
      <g
         id="g1012"
         transform="matrix(0.63070236,0,0,0.65560655,-26.557335,-155.49246)">
        <g
           id="g1003">
          <path
             style="fill:#ff8080;stroke:#000000;stroke-width:1.665;stroke-linecap:butt;stroke-linejoin:miter;stroke-miterlimit:4;stroke-dasharray:none;stroke-opacity:1"
             d="m 185.3846,433.27584 c -3.21078,0.5852 -4.33996,-3.29015 -5.8236,-6.40596 l 3.49416,-21.74145 c -0.73127,-6.52392 2.97645,-16.2439 -3.49416,-18.6355 -18.52287,-0.22192 -33.74692,17.25264 -48.33588,34.94159 -13.79874,19.29211 -24.14312,41.56752 -26.59444,70.65968 -0.0402,14.53699 -1.11176,30.76528 5.04712,35.13571 2.61135,1.68617 4.37423,2.46378 7.22246,1.79524 20.19231,-4.73952 52.32392,-11.44784 73.14322,-33.04854 5.2229,-16.66836 -6.81678,-25.7862 -4.27064,-42.31817 0.82524,-3.36068 0.89345,-6.78445 4.65888,-9.90011 l 3.66956,-7.96517 z"
             id="path885"
             sodipodi:nodetypes="cccccccsccccc" />
          <path
             style="fill:#ff8080;stroke:#000000;stroke-width:1.665;stroke-linecap:butt;stroke-linejoin:miter;stroke-miterlimit:4;stroke-dasharray:none;stroke-opacity:1"
             d="m 234.99523,435.12552 c 3.19255,-6.05242 6.75335,-11.29467 7.46065,-22.81463 -1.76789,-7.85468 -4.13157,-15.55258 -1.16472,-24.65324 2.98746,-8.7789 14.85639,-3.45194 26.40031,1.35882 5.44377,3.29328 11.85213,6.57463 17.66994,13.79738 5.54968,6.88986 11.12687,16.18215 14.94224,26.77371 9.53768,14.83921 10.81956,40.578 16.11195,60.75957 -1.93954,14.28239 1.79199,30.99525 -6.60008,42.51227 -15.21498,7.04643 -37.99074,-6.93554 -61.34192,-22.51792 -8.42914,-6.76815 -22.33757,-9.59506 -17.08256,-26.20619 0.47867,-6.51103 1.49739,-13.84762 1.47365,-21.25682 -0.0358,-11.18162 -0.95792,-22.15662 2.13054,-27.75295 z"
             id="path887"
             sodipodi:nodetypes="ccccscccccsc" />
        </g>
        <path
           id="path970"
           style="fill:#d35f5f;stroke:#000000;stroke-width:0.765;stroke-linecap:butt;stroke-linejoin:miter;stroke-miterlimit:4;stroke-dasharray:none;stroke-opacity:1"
           d="m 171.71672,445.55753 c -6.31485,10.45538 -9.98651,22.88837 -19.2482,31.19343 -2.70224,8.56245 -14.35031,2.89496 -15.73309,2.37109 4.06312,1.31893 9.05625,5.77783 1.85539,7.19016 -3.22038,2.34681 -8.8542,14.04138 -3.40249,5.46779 3.48469,-5.9232 15.9906,-8.18844 9.63441,1.33776 -1.05744,3.65662 -5.61451,13.04113 -4.70458,12.89323 3.92676,-7.53108 9.03932,-14.8561 9.90534,-23.16568 3.32938,-4.89161 12.26253,-13.82725 11.0628,-2.36996 -0.75316,4.70141 -2.31214,9.28167 -3.37046,13.94803 2.50548,-6.94654 6.76358,-13.95093 4.01458,-21.51232 2.11385,-8.0093 10.31914,-12.67094 12.78977,-20.72865 1.71413,-2.76749 0.925,-6.59179 -2.80347,-6.62488 z" />
        <path
           id="path972"
           style="fill:#d35f5f;stroke:#000000;stroke-width:0.765;stroke-linecap:butt;stroke-linejoin:miter;stroke-miterlimit:4;stroke-dasharray:none;stroke-opacity:1"
           d="m 179.54075,448.7146 c 1.40067,10.07505 -5.12628,20.86517 0.89385,30.2509 1.61086,4.38926 5.71738,19.59182 0.84289,8.16001 -1.7676,-4.57101 -4.99799,-9.44665 -4.16582,-1.70359 -2.36583,9.02392 -11.9049,13.26071 -18.02571,19.46581 -6.80139,5.6553 -15.21736,11.98371 -23.07485,4.58555 8.48406,5.38159 15.78363,-2.92755 23.1708,-6.00417 6.18657,-6.64656 16.63319,-12.88154 14.33929,-23.48837 -2.89721,-12.09877 -8.45419,11.78179 -8.43054,10.79545 0.16899,-7.77439 2.77856,-14.79473 7.91917,-20.56033 3.39841,-5.99645 1.28382,-18.50131 6.53092,-21.50126 z" />
        <path
           id="path974"
           style="fill:#d35f5f;stroke:#000000;stroke-width:0.765;stroke-linecap:butt;stroke-linejoin:miter;stroke-miterlimit:4;stroke-dasharray:none;stroke-opacity:1"
           d="m 171.71672,445.55753 c -7.18983,0.0822 -18.67701,-1.96971 -17.13607,9.25067 -0.42169,4.24332 -0.77322,8.56574 -0.2435,1.79164 -0.44644,-11.77068 -12.23925,-4.82973 -14.82276,2.03884 -1.89462,3.91511 -13.29727,4.28112 -4.21032,1.40754 7.27368,-1.64682 6.04002,-8.61116 -1.19783,-5.8119 -3.97509,-1.51122 -6.73432,-7.80705 -1.91151,-1.9964 8.97973,3.97047 15.25042,-6.58001 23.738,-7.67761 5.9575,-1.35867 12.77056,-2.65435 15.78399,0.99722 z" />
        <path
           id="path976"
           style="fill:#d35f5f;stroke:#000000;stroke-width:0.765;stroke-linecap:butt;stroke-linejoin:miter;stroke-miterlimit:4;stroke-dasharray:none;stroke-opacity:1"
           d="m 177.13864,437.87078 c -8.42795,-5.47996 -7.03633,-16.455 1.69462,-19.26604 -3.06823,2.11834 -3.11354,-12.25891 -2.77727,-4.27318 -0.15697,8.94977 -7.69488,3.03966 -3.60726,-2.49784 2.42198,-4.28134 7.66461,-0.62194 7.46247,-6.03126 -9.38119,3.95526 2.44717,-9.20842 -0.53126,-10.40257 0.0953,8.11903 -6.11415,9.0138 -11.63146,5.21361 -4.97748,-1.68336 -17.45574,3.38607 -5.64559,1.18858 6.23715,-3.96248 14.82174,8.50125 6.08743,8.51178 -0.55087,-4.54908 -13.85869,-7.38797 -5.05429,-3.34117 7.20233,7.02437 -7.47153,2.40102 -11.09934,2.58432 -6.0222,0.95941 8.15574,1.38568 9.97795,2.92039 11.98294,-3.7327 8.29472,20.96755 -0.008,9.76242 -3.60018,-3.20234 -11.87489,-4.64049 -4.34267,-0.7216 -0.35804,4.32041 -10.85939,1.45945 -9.69745,3.99223 6.51922,-1.48084 15.34877,-2.19143 20.29002,3.53818 2.55991,3.30408 2.37799,13.15677 8.88195,8.82215 z" />
      </g>
      <g
         id="g999"
         transform="matrix(0.63070236,0,0,0.65560655,-27.427408,-155.5154)">
        <path
           style="fill:#ff2a2a;stroke:#000000;stroke-width:1.665;stroke-linecap:butt;stroke-linejoin:miter;stroke-miterlimit:4;stroke-dasharray:none;stroke-opacity:1"
           d="m 216.34674,445.60246 -3.10592,0.67942 -1.84414,1.4559 -0.87354,2.03827 c 0,0 -0.38824,0.29117 -0.19412,1.4559 0.19412,1.16472 0.58236,2.23237 0.58236,2.23237 l 1.06766,0.58237 c 0,0 0.58236,-0.0971 1.74708,0 1.16472,0.097 2.62062,0 3.97946,0.19412 1.35884,0.1941 3.59122,0.6794 3.59122,0.6794 0,0 1.55296,0.19413 2.23238,0.19413 0.67942,0 1.4559,0.67942 1.65002,-0.19413 0.19412,-0.87352 0.38824,-1.06764 0.38824,-1.84412 0,-0.7765 -1.35884,-3.20299 -1.4559,-3.59124 -0.0971,-0.38822 -1.55296,-2.52354 -2.52356,-3.10592 -0.9706,-0.58234 -5.24124,-0.77647 -5.24124,-0.77647 z"
           id="path889" />
        <path
           style="fill:#ff2a2a;stroke:#000000;stroke-width:1.665;stroke-linecap:butt;stroke-linejoin:miter;stroke-miterlimit:4;stroke-dasharray:none;stroke-opacity:1"
           d="m 192.76116,455.69671 4.17358,-6.89126 5.3383,-4.07654 c 0,0 3.30004,-1.16472 3.8824,-1.06764 0.58236,0.097 1.9412,0.29117 1.9412,0.29117 0,0 0.58236,0 0.87354,-0.38825 0.29118,-0.38822 0.4853,-1.4559 1.35884,-1.35882 0.87354,0.097 6.01772,3.39709 6.01772,3.39709 l -4.95006,2.13532 -0.87354,2.03827 0.38824,3.68827 c 0,0 -5.3383,0 -5.72654,0 -0.38824,0 -5.14418,0.87354 -5.14418,0.87354 l -2.9118,1.65003 -2.03826,2.13531 -2.62062,-0.67942 z"
           id="path891" />
        <path
           style="fill:#ff2a2a;stroke:#000000;stroke-width:1.665;stroke-linecap:butt;stroke-linejoin:miter;stroke-miterlimit:4;stroke-dasharray:none;stroke-opacity:1"
           d="m 195.0906,458.1232 -1.84414,3.20297 c 0,0 -0.4853,2.81474 -0.4853,3.20299 0,0.38825 0,1.55298 0.9706,3.10592 0.9706,1.55297 5.43536,9.31775 5.43536,9.31775 l 7.08538,6.79421 c 0,0 3.20298,1.74707 3.30004,0.77647 0.0971,-0.97059 0.4853,-4.65886 0.77648,-5.72653 0.29118,-1.06765 2.52356,-13.10309 2.52356,-13.10309 l 2.23238,-10.09425 0.77648,-1.74707 -3.8824,0.19412 -1.06766,-0.58237 -10.87072,0.87354 -2.9118,1.65003 -2.03826,2.13531"
           id="path893" />
        <path
           style="fill:#ff2a2a;stroke:#000000;stroke-width:1.665;stroke-linecap:butt;stroke-linejoin:miter;stroke-miterlimit:4;stroke-dasharray:none;stroke-opacity:1"
           d="m 215.86144,453.85257 8.92952,1.35884 c 0,0 2.03826,3.68827 2.23238,4.27064 0.19412,0.58235 1.26178,3.00884 1.35884,3.88239 0.0971,0.87355 0.0971,5.62949 0.0971,6.21184 0,0.58237 -1.84414,10.57955 -1.84414,10.57955 0,0 -4.27064,6.01771 -4.853,6.40596 -0.58236,0.38824 -2.71768,1.26177 -3.78534,1.26177 -1.06766,0 -4.3677,-1.74707 -4.75594,-1.9412 -0.38824,-0.19412 -3.59122,-3.20296 -3.59122,-3.20296 l 0.77648,-3.88242 z"
           id="path895" />
      </g>
      <g
         id="g1042"
         transform="matrix(0.63070236,0,0,0.65560655,-26.557335,-155.49246)">
        <path
           style="fill:#e9afaf;stroke:#000000;stroke-width:0.965;stroke-linecap:butt;stroke-linejoin:miter;stroke-miterlimit:4;stroke-dasharray:none;stroke-opacity:1"
           d="m 192.58079,333.825 14.00088,-5.21602 1.55961,5.18191 2.43301,5.84931 0.30108,0.72383 7.7855,18.71746 3.01979,38.57106 -1.64716,20.31503 c 4.08724,6.77814 8.68906,12.95089 14.96173,17.15794 l -2.05895,6.17685 -15.37352,-12.35371 -8.09855,-0.68633 -29.92346,20.45227 -6.72592,-2.608 -3.84338,-1.5099 2.88254,-2.74526 2.74527,-3.0198 3.84338,-0.27453 c 2.33891,-1.02207 5.04625,0.9684 7.08331,-0.68103 6.95013,-5.62756 14.57,-10.65196 22.01657,-17.57504 l 1.5099,-33.21777 -6.0396,-29.37441 -7.54537,-17.94553 c -0.0648,-0.72364 0.54498,-1.69256 -0.81749,-1.9443 z"
           id="path883"
           sodipodi:nodetypes="ccccccccccccccccccscccccc" />
        <path
           style="fill:#d35f5f;stroke:#000000;stroke-width:1.665;stroke-linecap:butt;stroke-linejoin:miter;stroke-miterlimit:4;stroke-dasharray:none;stroke-opacity:1"
           d="m 195.12016,332.65827 c 0,0 -2.53937,1.16673 -2.53937,1.16673 0,0 -0.41179,2.53936 0,2.8139 0.41179,0.27453 1.02947,0.34316 1.71579,0.61769 0.68632,0.27453 7.20634,-1.0981 7.20634,-1.0981 0,0 4.73559,-1.78443 5.01012,-1.99033 0.27453,-0.2059 2.40211,-1.23536 2.40211,-1.71579 0,-0.48043 -0.48042,-2.3335 -0.82358,-2.67663 -0.34316,-0.34317 -3.84338,-0.27454 -3.84338,-0.27454 z"
           id="path897" />
        <path
           style="fill:#d35f5f;stroke:#000000;stroke-width:1.665;stroke-linecap:butt;stroke-linejoin:miter;stroke-miterlimit:4;stroke-dasharray:none;stroke-opacity:1"
           d="m 198.55175,338.69786 c 0,0 -1.304,0.68633 -1.99032,1.0981 -0.68632,0.41179 -1.99032,0.96086 -2.12758,1.37263 -0.13727,0.4118 1.50989,2.05896 1.78442,2.19623 0.27453,0.13726 0.68632,0.20589 1.7158,0.13726 1.02947,-0.0686 2.40211,-0.0686 3.22569,-0.4118 0.82358,-0.34316 7.68676,-3.08842 7.68676,-3.08842 l 2.40211,-0.96084 c 0,0 0.27453,-0.54906 0.27453,-1.02949 0,-0.48041 -0.68632,-2.33347 -0.68632,-2.33347 0,0 -0.89221,-0.68633 -1.71579,-0.61769 -0.82358,0.0686 -10.5693,3.63749 -10.5693,3.63749 z"
           id="path899" />
        <path
           style="fill:#d35f5f;stroke:#000000;stroke-width:1.665;stroke-linecap:butt;stroke-linejoin:miter;stroke-miterlimit:4;stroke-dasharray:none;stroke-opacity:1"
           d="m 201.84608,344.53155 c -0.27453,0 -2.33348,0.48043 -2.67664,0.68633 -0.34316,0.2059 -1.7158,0.48043 -1.64716,1.0981 0.0686,0.61769 0.61768,1.5099 1.23537,1.71579 0.61768,0.2059 1.304,0.6177 2.47074,0.2059 1.16674,-0.41179 11.39288,-3.43159 11.39288,-3.43159 0,0 1.64716,-0.8922 1.64716,-1.23537 0,-0.34316 -0.82358,-2.74526 -0.82358,-2.74526 0,0 -1.5099,-0.27453 -2.60801,0.13727 -1.09811,0.41177 -8.99076,3.56883 -8.99076,3.56883 z"
           id="path901" />
        <path
           style="fill:#d35f5f;stroke:#000000;stroke-width:1.665;stroke-linecap:butt;stroke-linejoin:miter;stroke-miterlimit:4;stroke-dasharray:none;stroke-opacity:1"
           d="m 206.6503,349.33577 c -0.34315,0.13727 -3.43159,1.30403 -4.18653,1.5099 -0.75496,0.2059 -2.40212,1.37266 -2.40212,1.37266 0,0 0.34316,0.75494 0.68632,1.0981 0.34316,0.34316 0.13726,0.82357 1.37264,0.6863 1.23537,-0.13724 0.96084,0 2.608,-0.41177 1.64717,-0.4118 3.08843,-0.61769 3.91201,-0.96086 0.82359,-0.34314 2.19622,-0.4804 3.08844,-0.75494 0.89221,-0.27453 2.95116,-0.89222 2.95116,-0.89222 0,0 0.75495,0.0686 0.89222,-0.48041 0.13726,-0.54906 0.13726,-1.92169 0.13726,-1.92169 l -1.64716,-1.02947 c 0,0 -0.82358,-0.0686 -1.92169,0.27451 -1.09811,0.34316 -5.49055,1.50989 -5.49055,1.50989 z"
           id="path903" />
        <path
           style="fill:#d35f5f;stroke:#000000;stroke-width:1.665;stroke-linecap:butt;stroke-linejoin:miter;stroke-miterlimit:4;stroke-dasharray:none;stroke-opacity:1"
           d="m 210.56231,355.51266 c 0,0 -3.84338,0.82357 -4.46106,0.96083 -0.61769,0.13727 -3.08843,1.23537 -3.08843,1.23537 0,0 0,0 0,0 0,0 -0.68632,2.05896 -0.48042,2.40212 0.20589,0.34314 0.13726,0.75494 1.37263,0.82357 1.23537,0.0686 2.33348,-0.27453 3.50022,-0.48043 1.16674,-0.20587 3.70612,-0.75493 4.59833,-1.02947 0.89222,-0.27453 4.5297,-1.23536 4.5297,-1.23536 0,0 1.71579,-0.27453 1.71579,-0.96086 0,-0.68631 -0.34315,-2.1962 -0.54905,-2.47074 -0.20589,-0.27453 -0.96084,-0.8922 -2.19622,-0.75496 -1.23537,0.13727 -4.94149,1.50993 -4.94149,1.50993 z"
           id="path905" />
        <path
           style="fill:#d35f5f;stroke:#000000;stroke-width:1.665;stroke-linecap:butt;stroke-linejoin:miter;stroke-miterlimit:4;stroke-dasharray:none;stroke-opacity:1"
           d="m 213.37622,363.54258 c 0,0 -2.05895,0.34313 -3.56885,0.54903 -1.5099,0.2059 -2.19622,0 -3.36296,0.75496 -1.16674,0.75494 -1.5099,1.23537 -1.57853,1.64717 -0.0686,0.41177 0,1.44126 0.75495,1.71579 0.75495,0.27451 1.02947,0.54904 2.67664,0.34314 1.64716,-0.20587 5.01012,-1.16673 6.52002,-1.37263 1.50989,-0.2059 4.94148,-0.6863 5.21601,-0.8922 0.27453,-0.2059 0.89222,-0.89223 0.82358,-1.304 -0.0686,-0.4118 -0.68632,-1.30403 -1.85305,-1.5099 -1.16675,-0.2059 -0.96085,-0.41179 -2.40212,-0.27453 -1.44126,0.13727 -3.22569,0.34317 -3.22569,0.34317 z"
           id="path907" />
        <path
           style="fill:#d35f5f;stroke:#000000;stroke-width:1.665;stroke-linecap:butt;stroke-linejoin:miter;stroke-miterlimit:4;stroke-dasharray:none;stroke-opacity:1"
           d="m 214.95475,371.43523 c -0.48042,0.0686 -5.21602,0.4804 -5.62781,0.54904 -0.41179,0.0686 -1.5099,0.20589 -1.57853,0.48043 -0.0686,0.27453 0.0686,2.12759 0.0686,2.12759 0,0 -1.16674,0.75494 1.02948,0.75494 2.19622,0 2.67664,-0.13727 4.25517,-0.13727 1.57853,0 6.10823,-0.27453 6.10823,-0.27453 l 1.92169,-0.82357 c 0,0 0.54905,-1.16673 0.13726,-1.7158 -0.41179,-0.54906 -0.41179,-1.16673 -1.02947,-1.16673 -0.61769,0 -5.28465,0.2059 -5.28465,0.2059 z"
           id="path909" />
        <path
           style="fill:#d35f5f;stroke:#000000;stroke-width:1.665;stroke-linecap:butt;stroke-linejoin:miter;stroke-miterlimit:4;stroke-dasharray:none;stroke-opacity:1"
           d="m 215.29791,377.81798 c 0,0 -2.67664,0 -3.63748,0.27451 -0.96085,0.27453 -2.53938,-0.27451 -2.74528,0.4118 -0.20589,0.68633 -0.34316,1.92169 0.27453,2.26486 0.61769,0.34316 1.23537,0.34316 3.70612,0.34316 2.47074,0 5.01012,-0.34316 5.01012,-0.34316 0,0 1.85305,-0.13727 2.12758,-0.2059 0.27453,-0.0686 0.75495,-0.6177 0.75495,-0.6177 l -0.82358,-2.05893 z"
           id="path911" />
        <path
           style="fill:#d35f5f;stroke:#000000;stroke-width:1.665;stroke-linecap:butt;stroke-linejoin:miter;stroke-miterlimit:4;stroke-dasharray:none;stroke-opacity:1"
           d="m 215.02338,383.44578 c 0,0 -1.16674,-0.0686 -2.53938,0 -1.37263,0.0686 -1.99032,0.27453 -2.40211,0.48043 -0.41179,0.2059 -0.61768,0.61767 -0.61768,0.8922 0,0.27453 -0.41179,2.26486 -0.41179,2.26486 0,0 -2.47075,-0.48043 0,0 2.47074,0.48043 4.25517,0.4118 5.21601,0.4118 0.96085,0 7.00044,-0.34317 7.00044,-0.34317 l 0.68632,-1.71579 c 0,0 -0.20589,-1.16674 -0.89221,-1.304 -0.68632,-0.13727 -6.0396,-0.68633 -6.0396,-0.68633 z"
           id="path913" />
        <path
           style="fill:#d35f5f;stroke:#000000;stroke-width:1.665;stroke-linecap:butt;stroke-linejoin:miter;stroke-miterlimit:4;stroke-dasharray:none;stroke-opacity:1"
           d="m 212.34674,390.51486 c 0,0 -1.64716,-0.2059 -2.33348,0.13727 -0.68632,0.34314 -0.96084,0.13726 -1.304,0.8922 -0.34316,0.75496 -0.82358,0.4118 -0.82358,0.75496 0,0.34314 0,1.0981 0.41179,1.37263 0.41179,0.27453 1.304,0.34317 2.53937,0.4118 1.23537,0.0686 5.8337,-0.27453 6.2455,-0.34316 0.41179,-0.0686 4.25516,-0.54907 4.25516,-0.54907 l 0.82359,-0.54906 -1.44127,-1.9903 -3.36296,-0.27453 z"
           id="path915" />
        <path
           style="fill:#d35f5f;stroke:#000000;stroke-width:1.665;stroke-linecap:butt;stroke-linejoin:miter;stroke-miterlimit:4;stroke-dasharray:none;stroke-opacity:1"
           d="m 215.77833,397.03488 -5.8337,-0.13726 c 0,0 -0.89221,-0.13727 -1.16674,0.34316 -0.27453,0.48041 -0.48042,1.02947 -0.48042,1.37263 0,0.34314 -0.0686,1.44127 0.34315,1.7158 0.4118,0.2745 1.37264,0.34314 1.64717,0.41177 0.27452,0.0686 11.39287,-0.34314 11.39287,-0.34314 0,0 0.61769,-0.54906 0.61769,-0.89223 0,-0.34316 -0.61769,-1.85306 -0.61769,-1.85306 z"
           id="path917" />
        <path
           style="fill:#d35f5f;stroke:#000000;stroke-width:1.665;stroke-linecap:butt;stroke-linejoin:miter;stroke-miterlimit:4;stroke-dasharray:none;stroke-opacity:1"
           d="m 219.34718,404.79027 c 0,0 -4.59833,-0.0686 -5.07875,-0.0686 -0.48042,0 -4.11791,0.2059 -4.11791,0.2059 l -1.304,0.75493 c 0,0 -0.2059,0.89223 -0.13726,1.23539 0.0686,0.34314 1.09811,1.71577 1.37263,1.85304 0.27453,0.13727 0.0686,0.2059 1.09811,0.2059 1.02948,0 3.43159,-0.2059 3.98065,-0.27453 0.54905,-0.0686 3.15706,-0.48041 3.77474,-0.48041 0.61769,0 1.30401,0.0686 1.85306,-0.0686 0.54905,-0.13727 1.16674,-1.7158 1.16674,-1.7158 z"
           id="path919" />
        <path
           style="fill:#d35f5f;stroke:#000000;stroke-width:1.665;stroke-linecap:butt;stroke-linejoin:miter;stroke-miterlimit:4;stroke-dasharray:none;stroke-opacity:1"
           d="m 218.31771,412.06523 -7.82403,0.0686 c 0,0 -1.5099,0.34316 -1.5099,0.82359 0,0.48041 -0.0686,1.7158 0.13727,1.99033 0.20589,0.27451 1.78442,0.54904 2.33348,0.61767 0.54905,0.0686 5.42191,-0.2059 5.69644,-0.2059 0.27452,0 1.85306,-0.27453 2.53937,-0.41177 0.68632,-0.13726 1.37264,-0.89223 1.37264,-0.89223 l -0.54906,-1.71579 z"
           id="path921" />
        <path
           style="fill:#d35f5f;stroke:#000000;stroke-width:1.665;stroke-linecap:butt;stroke-linejoin:miter;stroke-miterlimit:4;stroke-dasharray:none;stroke-opacity:1"
           d="m 209.32694,419.47748 c 0,0 -2.74527,0.20589 -3.15706,0.4804 -0.41179,0.27453 -1.37264,0.27453 -0.82358,1.37266 0.54905,1.0981 1.37263,1.5099 2.12759,1.85303 0.75494,0.34317 1.57853,0.8236 1.85305,1.09813 0.27453,0.27453 0.68632,1.7158 0.75495,2.05894 0.0686,0.34316 -0.61768,1.92169 -0.61768,1.92169 0,0 0.75495,0.75496 1.85306,1.09813 1.0981,0.34314 3.56885,0.82357 3.77474,0.4804 0.2059,-0.34316 0.61769,-0.4118 0.68632,-1.02947 0.0686,-0.61769 0.34316,-1.37263 0.48042,-1.92169 0.13727,-0.54906 0.48043,-1.304 0.82359,-1.5099 0.34315,-0.2059 2.53937,-1.23537 3.01979,-1.44126 0.48043,-0.2059 2.05896,-1.02947 2.33348,-1.304 0.27453,-0.27453 0.75495,-1.37263 0.75495,-1.37263 l -0.61768,-1.30403 -1.30401,-0.96083 c 0,0 -1.304,0.68632 -1.57853,1.02946 -0.27453,0.34317 -0.54905,0.54907 -1.304,0.68633 -0.75495,0.13727 -2.12759,0.0686 -2.95117,0.13727 -0.82358,0.0686 -3.63748,0.0686 -3.63748,0.0686 z"
           id="path923" />
        <path
           style="fill:#d35f5f;stroke:#000000;stroke-width:0.765;stroke-linecap:butt;stroke-linejoin:miter;stroke-miterlimit:4;stroke-dasharray:none;stroke-opacity:1"
           d="m 201.15976,424.2817 4.66696,4.18653 1.30401,1.44126 0.0686,0.96086 -2.33348,0.48041 -3.77475,-3.15706 c 0,0 -1.30401,-1.0981 -1.44127,-1.37263 -0.13726,-0.27454 -0.27453,-1.57854 -0.27453,-1.57854 z"
           id="path925" />
        <path
           style="fill:#d35f5f;stroke:#000000;stroke-width:0.765;stroke-linecap:butt;stroke-linejoin:miter;stroke-miterlimit:4;stroke-dasharray:none;stroke-opacity:1"
           d="m 197.38501,428.3996 4.11791,3.98065 c 0,0 0.27453,0.75494 0.34316,1.0981 0.0686,0.34317 0.82358,0.68633 -0.27453,0.82357 -1.09811,0.13727 -4.3238,-2.33347 -4.3238,-2.33347 l -1.5099,-1.64716 v -1.16673 l 1.23537,-0.75496 z"
           id="path927" />
        <path
           style="fill:#d35f5f;stroke:#000000;stroke-width:0.765;stroke-linecap:butt;stroke-linejoin:miter;stroke-miterlimit:4;stroke-dasharray:none;stroke-opacity:1"
           d="m 193.26711,432.10572 3.70611,3.15706 0.61769,0.96084 0.0686,0.89222 -1.57853,0.2059 -4.25517,-3.91202 -0.27453,-1.16673 z"
           id="path929" />
        <path
           style="fill:#d35f5f;stroke:#000000;stroke-width:0.765;stroke-linecap:butt;stroke-linejoin:miter;stroke-miterlimit:4;stroke-dasharray:none;stroke-opacity:1"
           d="m 190.31594,434.91962 3.22569,3.70612 -0.41179,1.304 c 0,0 -1.16674,0.54906 -1.44127,0.34317 -0.27452,-0.2059 -3.36295,-3.77476 -3.36295,-3.77476 v -1.02947 c 0,0 0,-0.27453 0.54905,-0.48043 0.54906,-0.2059 1.44127,-0.0686 1.44127,-0.0686 z"
           id="path931" />
        <path
           style="fill:#d35f5f;stroke:#000000;stroke-width:0.765;stroke-linecap:butt;stroke-linejoin:miter;stroke-miterlimit:4;stroke-dasharray:none;stroke-opacity:1"
           d="m 182.08013,438.28258 3.15706,-0.0686 2.8139,3.29433 c 0,0 0.24531,1.86182 0.24531,1.86182 l -2.51016,0.12851 -1.57853,-1.99033 c 0,0 -0.54905,-1.23536 -1.02948,-1.85306 -0.48042,-0.61767 -1.0981,-1.37263 -1.0981,-1.37263 z"
           id="path933" />
        <path
           style="fill:#d35f5f;stroke:#000000;stroke-width:0.765;stroke-linecap:butt;stroke-linejoin:miter;stroke-miterlimit:4;stroke-dasharray:none;stroke-opacity:1"
           d="m 182.08013,438.28258 -3.63749,0.27453 c 0,0 0.89221,0.96083 1.16674,1.5099 0.27453,0.54906 0.75495,1.44126 1.23537,2.05896 0.48042,0.61767 2.19622,2.4021 2.53938,2.67663 0.34316,0.27453 0.0686,0.54906 1.02947,0.48043 0.96085,-0.0686 1.37264,-1.7844 1.37264,-1.7844 z"
           id="path935" />
        <path
           style="fill:#d35f5f;stroke:#000000;stroke-width:0.365;stroke-linecap:butt;stroke-linejoin:miter;stroke-miterlimit:4;stroke-dasharray:none;stroke-opacity:1"
           d="m 225.18088,425.96318 c -1.40695,0.72062 -5.6278,3.84336 -5.76507,3.98063 -0.13726,0.13727 -1.06379,1.02949 -0.92652,1.47558 0.13726,0.44612 1.0981,0.78928 1.304,0.6177 0.2059,-0.17158 1.95601,-1.33832 2.57369,-1.75012 0.61769,-0.41179 1.88738,-0.99515 2.53938,-1.37263 0.652,-0.37748 1.16674,-0.48043 1.40695,-0.85791 0.24021,-0.37745 0.51474,-0.54904 0.27453,-1.0981 -0.24021,-0.54906 -1.68148,-0.99515 -1.68148,-0.99515"
           id="path937" />
        <path
           style="fill:#d35f5f;stroke:#000000;stroke-width:0.365;stroke-linecap:butt;stroke-linejoin:miter;stroke-miterlimit:4;stroke-dasharray:none;stroke-opacity:1"
           d="m 226.17605,428.33096 c 0.58337,-0.0686 0.75494,-0.13726 0.78926,0.17159 0.0343,0.30884 0.13726,0.65201 0,0.92654 -0.13726,0.27451 -0.4461,0.41177 -1.06379,0.92652 -0.61769,0.51474 -1.81874,1.64716 -2.1619,1.78443 -0.34316,0.13726 -0.89221,0.41179 -1.44127,0.2059 -0.54905,-0.2059 -0.68632,-0.54907 -0.68632,-0.75497 0,-0.2059 0.51474,-1.06378 0.51474,-1.06378 z"
           id="path939" />
        <path
           style="fill:none;stroke:#000000;stroke-width:0.565;stroke-linecap:butt;stroke-linejoin:miter;stroke-miterlimit:4;stroke-dasharray:none;stroke-opacity:1"
           d="m 227.17121,429.46338 c 0,0 0.17158,-0.51472 0.72063,-0.41177 0.54906,0.10295 0.61769,0 0.75495,0.2059 0.13726,0.20587 0.30884,0.58335 0.27453,0.75493 -0.0343,0.17159 -0.54906,1.0295 -0.68632,1.16674 -0.13726,0.13726 -2.53938,1.61284 -2.53938,1.61284 0,0 -0.82358,0.48043 -0.99516,0.51475 -0.17158,0.0343 -0.24021,0.10295 -0.54905,0.13727 -0.30884,0.0343 -0.92653,-0.10295 -0.92653,-0.30885 0,-0.2059 0.34316,-0.92652 0.34316,-0.92652 z"
           id="path941" />
        <path
           style="fill:#d35f5f;stroke:#000000;stroke-width:0.365;stroke-linecap:butt;stroke-linejoin:miter;stroke-miterlimit:4;stroke-dasharray:none;stroke-opacity:1"
           d="m 228.64679,430.73309 0.34316,-0.17158 c 0,0 0.44611,0.27453 0.51474,0.41179 0.0686,0.13724 0.24021,0.30883 0.0686,0.68631 -0.17158,0.37748 -0.652,0.99515 -0.96085,1.304 -0.30884,0.30884 0.0343,0.61769 -1.13242,1.02949 -1.16674,0.41177 -1.26969,0.4804 -1.54421,0.51472 -0.27453,0.0343 -0.54906,-0.17158 -0.58338,-0.51472 -0.0343,-0.34317 0.37748,-1.13244 0.61769,-1.26971 0.24021,-0.13724 2.67664,-1.9903 2.67664,-1.9903 z"
           id="path943" />
        <path
           style="fill:#d35f5f;stroke:#000000;stroke-width:0.365;stroke-linecap:butt;stroke-linejoin:miter;stroke-miterlimit:4;stroke-dasharray:none;stroke-opacity:1"
           d="m 229.71058,431.79687 0.96085,-0.4118 c 0,0 0.20589,0.2059 0.30884,0.44612 0.10295,0.24021 0.2059,0.78928 0.13726,0.99515 -0.0686,0.2059 -0.4461,0.78928 -0.89221,1.20108 -0.4461,0.41177 -0.72063,0.6863 -1.40695,1.06378 -0.68632,0.37748 -1.304,0.78925 -1.7158,0.8922 -0.41179,0.10295 -0.72063,0.4118 -0.96084,0.24022 -0.24021,-0.17159 -0.58337,-0.54904 -0.48042,-0.85789 0.10295,-0.30885 1.13242,-1.09813 1.13242,-1.09813 z"
           id="path945" />
        <path
           style="fill:#d35f5f;stroke:#000000;stroke-width:0.365;stroke-linecap:butt;stroke-linejoin:miter;stroke-miterlimit:4;stroke-dasharray:none;stroke-opacity:1"
           d="m 230.87732,433.64993 c 0,0 0.48043,-0.61769 0.65201,-0.61769 0.17158,0 0.652,-0.0343 0.68631,0.24021 0.0343,0.27454 0.2059,0.58338 -0.10294,1.06379 -0.30885,0.48043 -1.47559,1.40697 -1.68148,1.64716 -0.2059,0.24022 -0.82358,0.85791 -1.0638,0.96086 -0.24021,0.10295 -0.72063,0.51475 -1.23537,0.34317 -0.51474,-0.17159 -0.61768,-0.54907 -0.58337,-0.68633 0.0343,-0.13727 1.06379,-1.33832 1.06379,-1.33832 z"
           id="path947" />
        <path
           style="fill:#d35f5f;stroke:#000000;stroke-width:0.365;stroke-linecap:butt;stroke-linejoin:miter;stroke-miterlimit:4;stroke-dasharray:none;stroke-opacity:1"
           d="m 232.45585,434.40487 0.89222,-0.58335 c 0,0 0.34316,-0.2059 0.54905,0.10295 0.2059,0.30884 0.37748,0.41177 0.37748,0.75493 0,0.34317 -0.27453,1.0295 -0.61769,1.40695 -0.34316,0.37748 -0.68632,0.96086 -1.26969,1.44127 -0.58337,0.48043 -0.92653,0.65201 -1.23537,0.85791 -0.30884,0.2059 -0.0686,0.41179 -0.89221,0.48043 -0.82358,0.0686 -1.16674,0 -1.30401,-0.24022 -0.13726,-0.24021 -0.30884,-0.58338 -0.17158,-0.85791 0.13727,-0.27453 0.8579,-1.06378 0.8579,-1.06378 z"
           id="path949" />
      </g>
      <g
         id="g993"
         transform="matrix(0.63070236,0,0,0.65560655,-27.047063,-150.40181)">
        <path
           style="fill:#ffccaa;stroke:#000000;stroke-width:1.665;stroke-linecap:butt;stroke-linejoin:miter;stroke-miterlimit:4;stroke-dasharray:none;stroke-opacity:1"
           d="m 95.260918,570.74191 c 3.244303,-2.98073 7.584282,-4.21679 10.823682,-7.00144 35.2202,-30.27592 69.05098,-50.54609 103.65413,-56.13979 39.88737,1.17034 73.98144,41.9283 109.81086,70.82801 -6.04244,0.36091 -8.81526,6.60714 -11.25561,13.45181 -16.35523,-33.7011 -46.51847,-74.68019 -97.73167,-80.71096 -51.41907,0.29121 -82.13012,43.80702 -105.96747,73.57327 -2.81696,-4.91226 -2.62096,-12.33531 -9.333922,-14.0009 z"
           id="path951"
           sodipodi:nodetypes="cscccccc" />
        <path
           style="fill:#ff7f2a;stroke:#000000;stroke-width:1.665;stroke-linecap:butt;stroke-linejoin:miter;stroke-miterlimit:4;stroke-dasharray:none;stroke-opacity:1"
           d="m 95.260916,570.74191 c -1.715101,9.15742 1.457851,14.81663 5.000344,16.08767 1.479,0.53066 3.10255,-2.98938 4.33358,-2.08677 -2.56501,-5.62299 -3.89997,-13.39857 -9.333924,-14.0009 z"
           id="path953"
           sodipodi:nodetypes="cscc" />
        <path
           style="fill:#ff6600;stroke:#000000;stroke-width:1.665;stroke-linecap:butt;stroke-linejoin:miter;stroke-miterlimit:4;stroke-dasharray:none;stroke-opacity:1"
           d="m 319.54959,578.42869 c -4.82812,0.17892 -8.49742,4.99316 -11.25561,13.45181 3.94259,6.76857 18.11199,-3.89015 11.25561,-13.45181 z"
           id="path957"
           sodipodi:nodetypes="ccc" />
      </g>
      <path
         style="fill:none;stroke:#000000;stroke-width:0.264583px;stroke-linecap:butt;stroke-linejoin:miter;stroke-opacity:1"
         d="m 163.84687,227.51026 0.49351,35.53305 v 0"
         id="path877" />
      <path
         sodipodi:type="star"
         style="fill:#000000;stroke-width:1.165;stroke-linecap:round;stroke-linejoin:round;paint-order:markers fill stroke"
         id="path879"
         sodipodi:sides="3"
         sodipodi:cx="159.3037"
         sodipodi:cy="258.14877"
         sodipodi:r1="9.3962383"
         sodipodi:r2="4.6981201"
         sodipodi:arg1="0.54678884"
         sodipodi:arg2="1.5939864"
         inkscape:flatsided="true"
         inkscape:rounded="0"
         inkscape:randomized="0"
         d="m 167.32995,263.03432 -16.27039,-0.37738 8.46202,-13.90188 z"
         inkscape:transform-center-x="-0.0035752413"
         inkscape:transform-center-y="1.0244129"
         transform="matrix(-0.52050488,0.00949981,-0.01131265,-0.4370945,250.26791,373.45043)" />
      <text
         xml:space="preserve"
         style="font-size:10.5833px;line-height:1.25;font-family:sans-serif;letter-spacing:0px;word-spacing:0px;stroke-width:0.264583"
         x="139.06357"
         y="279.17407"
         id="text883"><tspan
           sodipodi:role="line"
           id="tspan881"
           x="139.06357"
           y="279.17407"
           style="stroke-width:0.264583">diaphragm</tspan></text>
      <text
         xml:space="preserve"
         style="font-size:10.5833px;line-height:1.25;font-family:sans-serif;letter-spacing:0px;word-spacing:0px;stroke-width:0.264583"
         x="180.62636"
         y="140.40491"
         id="text887"><tspan
           sodipodi:role="line"
           id="tspan885"
           x="180.62636"
           y="140.40491"
           style="stroke-width:0.264583">lung</tspan></text>
      <path
         style="fill:none;stroke:#000000;stroke-width:0.264583px;stroke-linecap:butt;stroke-linejoin:miter;stroke-opacity:1"
         d="m 154.78387,169.57654 26.58988,-23.57582 v 0"
         id="path877-6"
         inkscape:transform-center-x="30.310505"
         inkscape:transform-center-y="26.309958" />
      <path
         sodipodi:type="star"
         style="fill:#000000;stroke-width:1.165;stroke-linecap:round;stroke-linejoin:round;paint-order:markers fill stroke"
         id="path879-3"
         sodipodi:sides="3"
         sodipodi:cx="159.3037"
         sodipodi:cy="258.14877"
         sodipodi:r1="9.3962383"
         sodipodi:r2="4.6981201"
         sodipodi:arg1="0.54678884"
         sodipodi:arg2="1.5939864"
         inkscape:flatsided="true"
         inkscape:rounded="0"
         inkscape:randomized="0"
         inkscape:transform-center-x="18.368732"
         inkscape:transform-center-y="15.988976"
         transform="matrix(0.34706952,0.38801845,-0.32366112,0.29397799,208.88605,8.8280307)"
         d="m 167.32995,263.03432 -16.27039,-0.37738 8.46202,-13.90188 z" />
      <path
         style="fill:none;stroke:#000000;stroke-width:0.264583px;stroke-linecap:butt;stroke-linejoin:miter;stroke-opacity:1"
         d="M 59.682023,158.62309 33.429097,134.67262 v 0"
         id="path877-7"
         inkscape:transform-center-x="12.759932"
         inkscape:transform-center-y="2.4965239" />
      <path
         sodipodi:type="star"
         style="fill:#000000;stroke-width:1.165;stroke-linecap:round;stroke-linejoin:round;paint-order:markers fill stroke"
         id="path879-7"
         sodipodi:sides="3"
         sodipodi:cx="159.3037"
         sodipodi:cy="258.14877"
         sodipodi:r1="9.3962383"
         sodipodi:r2="4.6981201"
         sodipodi:arg1="0.54678884"
         sodipodi:arg2="1.5939864"
         inkscape:flatsided="true"
         inkscape:rounded="0"
         inkscape:randomized="0"
         inkscape:transform-center-x="24.576553"
         inkscape:transform-center-y="-7.9487454"
         transform="matrix(0.34918173,-0.38611875,0.32652542,0.29079328,-105.88247,121.8056)"
         d="m 167.32995,263.03432 -16.27039,-0.37738 8.46202,-13.90188 z" />
      <text
         xml:space="preserve"
         style="font-size:8.47035px;line-height:1.25;font-family:sans-serif;letter-spacing:0px;word-spacing:0px;stroke-width:0.211759"
         x="2.9393706"
         y="119.28115"
         id="text927"
         transform="scale(0.9174706,1.0899532)"><tspan
           sodipodi:role="line"
           id="tspan925"
           x="2.9393706"
           y="119.28115"
           style="stroke-width:0.211759">bronchioles</tspan></text>
      <text
         xml:space="preserve"
         style="font-size:9.0952px;line-height:1.25;font-family:sans-serif;letter-spacing:0px;word-spacing:0px;stroke-width:0.22738"
         x="16.062305"
         y="105.24635"
         id="text931"
         transform="scale(1.0487186,0.95354463)"><tspan
           sodipodi:role="line"
           id="tspan929"
           x="16.062305"
           y="105.24635"
           style="stroke-width:0.22738">bronchi</tspan></text>
      <path
         style="fill:none;stroke:#000000;stroke-width:0.264583px;stroke-linecap:butt;stroke-linejoin:miter;stroke-opacity:1"
         d="M 85.748171,135.3464 55.273643,101.91078 120.35613,133.82826"
         id="path979" />
      <path
         sodipodi:type="star"
         style="fill:#000000;stroke-width:1.165;stroke-linecap:round;stroke-linejoin:round;paint-order:markers fill stroke"
         id="path981"
         sodipodi:sides="3"
         sodipodi:cx="55.273643"
         sodipodi:cy="101.91078"
         sodipodi:r1="4.4227424"
         sodipodi:r2="2.2113712"
         sodipodi:arg1="-0.40122911"
         sodipodi:arg2="0.64596844"
         inkscape:flatsided="true"
         inkscape:rounded="0"
         inkscape:randomized="0"
         d="m 59.345139,100.18348 -4.611355,6.11697 -2.991776,-7.052035 z"
         inkscape:transform-center-x="-0.14454785"
         inkscape:transform-center-y="0.53759475"
         transform="matrix(0.53550253,0,0,0.62246861,27.565667,40.131757)" />
    </g>
  </g>
</svg>
