<?xml version="1.0" encoding="UTF-8" standalone="no"?>
<svg
   xmlns:dc="http://purl.org/dc/elements/1.1/"
   xmlns:cc="http://creativecommons.org/ns#"
   xmlns:rdf="http://www.w3.org/1999/02/22-rdf-syntax-ns#"
   xmlns:svg="http://www.w3.org/2000/svg"
   xmlns="http://www.w3.org/2000/svg"
   xmlns:sodipodi="http://sodipodi.sourceforge.net/DTD/sodipodi-0.dtd"
   xmlns:inkscape="http://www.inkscape.org/namespaces/inkscape"
   width="210mm"
   height="297mm"
   viewBox="0 0 210 297"
   version="1.1"
   id="svg956"
   inkscape:version="1.0.2 (e86c870879, 2021-01-15, custom)"
   sodipodi:docname="neuron.svg">
  <defs
     id="defs950" />
  <sodipodi:namedview
     id="base"
     pagecolor="#ffffff"
     bordercolor="#666666"
     borderopacity="1.0"
     inkscape:pageopacity="0.0"
     inkscape:pageshadow="2"
     inkscape:zoom="0.2409446"
     inkscape:cx="-358.09463"
     inkscape:cy="-128.84032"
     inkscape:document-units="mm"
     inkscape:current-layer="layer1"
     inkscape:document-rotation="0"
     showgrid="false"
     inkscape:window-width="1920"
     inkscape:window-height="1017"
     inkscape:window-x="-8"
     inkscape:window-y="-8"
     inkscape:window-maximized="1" />
  <metadata
     id="metadata953">
    <rdf:RDF>
      <cc:Work
         rdf:about="">
        <dc:format>image/svg+xml</dc:format>
        <dc:type
           rdf:resource="http://purl.org/dc/dcmitype/StillImage" />
        <dc:title></dc:title>
      </cc:Work>
    </rdf:RDF>
  </metadata>
  <g
     inkscape:label="Layer 1"
     inkscape:groupmode="layer"
     id="layer1">
    <g
       id="g1783">
      <g
         id="g1048"
         transform="matrix(1.7698523,0,0,1.7261132,-175.4109,-39.252607)">
        <path
           id="path871"
           style="fill:#ffd42a;stroke:#000000;stroke-width:0.264583px;stroke-linecap:butt;stroke-linejoin:miter;stroke-opacity:1"
           d="m 187.3258,69.59202 c -0.42067,2.351155 -0.0107,5.021854 1.59063,6.857929 1.42341,0.543239 1.43912,-2.394471 2.7294,-2.975625 0.47443,-0.740885 3.55975,-2.402038 1.50658,-0.746453 -1.53982,1.096938 -2.83305,2.821728 -2.45361,4.815712 0.57651,1.445315 0.81774,3.64045 1.74625,4.584222 1.50536,-1.406706 3.29377,-2.988503 3.34349,-5.228944 0.13662,-0.961553 0.21401,-4.571671 0.55894,-1.932805 -0.0155,2.890017 -1.01488,5.847314 -3.18818,7.826954 -1.47697,1.794216 -2.96724,3.628607 -3.76337,5.837196 -0.84461,1.785711 -1.99792,4.094947 -0.65832,5.893974 -0.24894,0.924142 -3.49756,0.585575 -2.1812,-1.02362 0.49861,-2.642903 1.33132,-5.256031 2.9223,-7.454894 1.19396,-1.742683 2.03994,-3.896641 1.37247,-6.009802 -0.57848,-1.650451 -2.67488,-2.242223 -3.04276,-4.058977 -1.01852,-1.733928 -1.63361,-3.891628 -0.6734,-5.795086 l 0.10195,-0.294134 0.0889,-0.295652 z" />
        <path
           id="path873"
           style="fill:#ffd42a;stroke:#000000;stroke-width:0.264583px;stroke-linecap:butt;stroke-linejoin:miter;stroke-opacity:1"
           d="m 184.82651,74.954587 c -1.54381,2.092463 0.21262,4.596779 0.32897,6.836356 0.1643,1.312875 0.15086,4.506797 1.67968,2.204479 0.6375,-0.516535 1.83685,-3.825507 1.16849,-1.411188 -0.57703,1.959164 -2.68566,3.14957 -2.92196,5.286524 -0.79073,1.688483 -1.71934,3.622044 -1.14204,5.500169 1.40483,1.02337 2.23159,2.673366 0.077,3.524485 -0.79143,1.074215 -2.58688,1.288608 -1.90385,-0.589709 1.04622,-2.553369 -1.11675,-3.973643 -2.95099,-5.231722 -1.05608,-1.793359 -3.21068,-1.668883 -5.0111,-1.734288 -0.99604,0.04597 -3.10316,0.390177 -1.05235,-0.194094 1.05105,-0.624763 5.39336,0.554727 3.05246,-1.063043 -1.80067,-0.688414 -3.58605,-1.353669 -5.21272,-2.407853 -1.52572,-0.82445 -3.68699,-0.319117 -4.63101,-2.087646 -1.18283,-2.241285 1.23412,1.201782 2.49211,0.829804 2.20932,0.129036 4.07059,1.223406 6.01785,2.115743 2.16844,-0.757261 -1.08378,-3.18927 -1.90989,-4.290821 -0.38865,-1.557881 1.50065,1.470398 2.25012,1.503135 1.27762,2.051833 1.82317,4.725491 4.13809,6.223733 0.53215,1.432474 2.64179,1.858142 1.74419,-0.108771 -0.78145,-1.820758 -1.44626,-3.664191 -1.42481,-5.681561 0.45325,-1.766167 -2.3856,-4.870735 -2.03642,-5.080718 3.11405,2.410525 2.60719,6.705102 4.16007,9.973893 0.24378,1.164956 1.21462,2.739194 1.60075,0.615261 1.26722,-1.818212 -0.21927,-3.526192 -1.0968,-5.072522 -1.37771,-2.044907 1.14872,0.911575 1.33825,1.700032 1.99347,1.534763 1.06625,-2.948431 0.98816,-4.078869 -0.20964,-2.096219 -0.94734,-4.184691 -0.7942,-6.287011 0.12775,-0.486147 0.49547,-1.009522 1.05193,-0.993798 z" />
        <path
           id="path877"
           style="fill:#ffd42a;stroke:#000000;stroke-width:0.264583px;stroke-linecap:butt;stroke-linejoin:miter;stroke-opacity:1"
           d="m 179.70659,101.33064 c -2.20344,0.75899 -5.57727,3.93957 -7.36542,1.99546 -0.31382,-2.8908 -0.26534,-6.01991 -2.47162,-8.316523 -1.38538,-1.923209 -3.59312,-3.874622 -3.57877,-6.192847 -1.11621,2.938744 1.84741,5.114307 3.26873,7.294824 1.39018,1.001919 1.62076,5.453736 -0.51852,2.52305 -1.34725,-1.33698 -2.47277,-0.213139 -0.2913,0.307685 1.84114,0.75343 3.23028,6.285791 0.16394,3.690201 -2.19788,-2.07083 -6.13134,-5.216273 -4.24074,-8.527347 1.40709,-1.304758 -0.57168,-5.275964 -0.008,-1.888514 0.006,3.95486 -3.60812,2.782338 -5.98645,1.946753 -1.82262,-0.243085 -3.00239,1.296907 -0.45801,0.721771 4.01806,-0.116225 6.09892,3.438589 7.77178,6.465567 -1.71715,0.69008 -4.64729,-2.052025 -6.94234,-1.07692 -1.75329,0.68793 -1.41993,1.78032 0.17613,0.4424 2.12468,-1.027784 5.70632,2.42202 1.68132,2.26182 -1.36801,0.52431 -2.84765,3.45195 -0.66421,1.12358 2.36317,-1.00529 5.07729,-1.945 7.46596,-0.51298 2.62579,0.69004 3.64983,2.90023 0.34368,3.20014 -1.58551,0.33126 -3.56771,2.27531 -0.89032,0.94357 3.2913,-0.94793 6.49758,-2.16102 9.77592,-3.13627 -1.66192,1.75914 -3.45241,3.88045 -5.85385,4.45598 -1.73638,0.0175 -4.59055,2.83318 -1.60773,0.99619 2.26699,-1.25468 2.76939,0.7898 1.12693,2.20667 -1.3203,3.23777 2.66243,-2.32484 3.25963,-3.38346 2.19893,-1.41934 3.40877,-4.37637 5.87812,-5.1131 1.8169,1.34867 1.12167,-2.72592 -0.0348,-2.4277 z" />
        <path
           id="path893"
           style="fill:#deaa87;stroke:#000000;stroke-width:0.264583px;stroke-linecap:butt;stroke-linejoin:miter;stroke-opacity:1"
           d="m 187.15888,118.1153 c -0.89221,0 -1.78443,0 -2.67664,0 -0.19446,0.2059 -0.38891,0.41179 -0.58337,0.61769 -0.20862,0.54763 -0.46381,1.115 -0.38145,1.71615 0.0382,1.65277 0.045,3.30774 0.11,4.95899 0.0721,0.39806 -0.0461,0.89588 0.29542,1.19428 0.31077,0.14647 0.68193,0.14334 1.02104,0.19996 0.32797,-8.9e-4 0.69597,0.13496 0.99484,-0.0305 0.35143,-0.16426 0.83873,-0.17835 1.03736,-0.56238 0.22341,-0.73517 0.57704,-1.46018 0.53504,-2.24675 0.0322,-1.69628 0.13296,-3.40303 -0.0797,-5.09163 -0.0469,-0.26432 -0.11364,-0.53422 -0.27253,-0.75577 z" />
        <path
           id="path893-8"
           style="fill:#deaa87;stroke:#000000;stroke-width:0.264583px;stroke-linecap:butt;stroke-linejoin:miter;stroke-opacity:1"
           d="m 186.59947,126.60241 c -0.89221,0 -1.78442,0 -2.67663,0 -0.19446,0.2059 -0.38892,0.41179 -0.58337,0.61769 -0.20862,0.54763 -0.46381,1.115 -0.38145,1.71615 0.0382,1.65277 0.045,3.30774 0.11,4.95899 0.0721,0.39806 -0.0461,0.89588 0.29542,1.19428 0.31077,0.14647 0.68193,0.14334 1.02104,0.19996 0.32797,-8.9e-4 0.69597,0.13496 0.99484,-0.0305 0.35143,-0.16426 0.83873,-0.17835 1.03736,-0.56238 0.22341,-0.73517 0.57704,-1.46018 0.53504,-2.24675 0.0322,-1.69628 0.13296,-3.40303 -0.0797,-5.09163 -0.0469,-0.26432 -0.11364,-0.53422 -0.27253,-0.75577 z" />
        <path
           id="path893-2"
           style="fill:#deaa87;stroke:#000000;stroke-width:0.264583px;stroke-linecap:butt;stroke-linejoin:miter;stroke-opacity:1"
           d="m 186.04008,135.08952 c -0.89221,0 -1.78443,0 -2.67664,0 -0.19446,0.2059 -0.38891,0.41179 -0.58337,0.61769 -0.20862,0.54763 -0.46381,1.115 -0.38145,1.71615 0.0382,1.65277 0.045,3.30774 0.11,4.95899 0.0721,0.39806 -0.0461,0.89588 0.29542,1.19428 0.31077,0.14647 0.68193,0.14334 1.02104,0.19996 0.32797,-8.9e-4 0.69597,0.13496 0.99484,-0.0305 0.35143,-0.16426 0.83873,-0.17835 1.03736,-0.56238 0.22341,-0.73517 0.57704,-1.46018 0.53504,-2.24675 0.0322,-1.69628 0.13296,-3.40303 -0.0797,-5.09163 -0.0469,-0.26432 -0.11364,-0.53422 -0.27253,-0.75577 z" />
        <path
           id="path893-0"
           style="fill:#deaa87;stroke:#000000;stroke-width:0.264583px;stroke-linecap:butt;stroke-linejoin:miter;stroke-opacity:1"
           d="m 186.50172,143.77659 c -0.89221,0 -1.78443,0 -2.67664,0 -0.19446,0.2059 -0.38891,0.41179 -0.58337,0.61769 -0.20862,0.54763 -0.46381,1.115 -0.38145,1.71615 0.0382,1.65277 0.045,3.30774 0.11,4.95899 0.0721,0.39806 -0.0461,0.89588 0.29542,1.19428 0.31077,0.14647 0.68193,0.14334 1.02104,0.19996 0.32797,-8.9e-4 0.69597,0.13496 0.99484,-0.0305 0.35143,-0.16426 0.83873,-0.17835 1.03736,-0.56238 0.22341,-0.73517 0.57704,-1.46018 0.53504,-2.24675 0.0322,-1.69628 0.13296,-3.40303 -0.0797,-5.09163 -0.0469,-0.26432 -0.11364,-0.53422 -0.27253,-0.75577 z" />
        <path
           id="path893-6"
           style="fill:#deaa87;stroke:#000000;stroke-width:0.264583px;stroke-linecap:butt;stroke-linejoin:miter;stroke-opacity:1"
           d="m 185.94232,152.2637 c -0.89221,0 -1.78443,0 -2.67664,0 -0.19446,0.2059 -0.38891,0.41179 -0.58337,0.61769 -0.20862,0.54763 -0.46381,1.115 -0.38145,1.71615 0.0382,1.65277 0.045,3.30774 0.11,4.95899 0.0721,0.39806 -0.0461,0.89588 0.29542,1.19428 0.31077,0.14647 0.68193,0.14334 1.02104,0.19996 0.32797,-8.9e-4 0.69597,0.13496 0.99484,-0.0305 0.35143,-0.16426 0.83873,-0.17835 1.03736,-0.56238 0.22341,-0.73517 0.57704,-1.46018 0.53504,-2.24675 0.0322,-1.69628 0.13296,-3.40303 -0.0797,-5.09163 -0.0469,-0.26432 -0.11364,-0.53422 -0.27253,-0.75577 z" />
        <path
           id="path879"
           style="fill:#ffd42a;stroke:#000000;stroke-width:0.264583px;stroke-linecap:butt;stroke-linejoin:miter;stroke-opacity:1"
           d="m 181.81765,107.37262 c -0.44058,1.55319 -0.58492,3.15735 -0.6938,4.7573 -0.37769,1.92366 -0.8368,3.91803 -1.98389,5.54069 -1.18554,0.91117 -2.44846,1.84225 -3.96272,2.10339 -1.62584,0.39812 1.11055,0.0923 1.55952,-0.22753 1.06287,-0.76288 2.47741,-1.17743 3.23508,-2.28656 0.4579,-0.74489 0.82464,-2.63564 1.61632,-1.15279 0.81104,1.00974 0.44637,2.36347 0.5381,3.54851 -0.0942,1.49147 -0.85627,2.82798 -1.5462,4.12013 0.59998,-1.34737 2.00256,-2.49353 2.02849,-3.98529 -0.12008,-2.15904 -0.76652,-4.24323 -1.04112,-6.37562 0.0641,-1.38158 0.18018,-3.06635 1.43498,-3.91774 1.09365,0.0666 2.46406,-0.63397 0.93446,-1.43096 -0.59535,-0.45387 -1.34383,-0.87592 -2.11922,-0.69353 z" />
        <path
           id="path881"
           style="fill:#ffd42a;stroke:#000000;stroke-width:0.264583px;stroke-linecap:butt;stroke-linejoin:miter;stroke-opacity:1"
           d="m 190.84423,109.38662 c 1.70557,-0.87808 3.26711,-2.00894 4.74483,-3.22602 0.59051,1.77772 2.53778,2.41888 3.94733,3.3981 1.89335,1.3644 3.29841,3.30695 4.21159,5.43974 0.53957,1.1281 1.18315,2.31267 2.31938,2.93723 0.37213,0.63854 1.964,1.04063 1.87885,1.45092 -1.46764,-0.23302 -3.10995,-0.83846 -3.70549,-2.33094 -1.56045,-2.27045 -3.54662,-4.19499 -5.41531,-6.20446 -1.50911,-0.71747 -2.84465,-1.9992 -4.59921,-2.0453 -1.37565,0.12376 -0.81514,1.60981 -0.34234,2.37179 0.27349,0.89993 0.56096,1.80353 0.81501,2.71391 0.30276,0.94982 -0.10094,1.8781 -0.31687,2.79075 -0.42397,1.48769 -1.24,2.89462 -1.25361,4.47622 0.6204,1.20976 0.95089,2.6597 2.0663,3.5388 1.20999,0.429 2.66624,0.35194 3.61997,1.33023 1.17359,0.6061 1.93985,1.74189 2.56058,2.86809 -1.177,-0.99777 -2.10174,-2.67623 -3.83516,-2.6827 -1.51962,-0.15397 -2.7593,-1.12489 -4.07147,-1.81081 -0.56365,-0.76945 -0.43905,-1.98753 -1.27126,-2.54153 -0.82232,0.27376 -1.35289,1.23023 -1.53646,2.06379 -0.19605,1.11767 -0.16448,2.29838 -0.36604,3.39168 -0.62661,-2.1627 0.31551,-4.32396 0.79635,-6.41187 0.4833,-1.24007 1.62262,-2.07235 2.14481,-3.29097 -0.13153,-1.71151 0.11235,-3.49365 -0.50681,-5.13506 -1.17414,-0.78794 -1.38471,1.01814 -1.45192,1.81012 -0.16926,0.95643 -0.69435,1.79304 -0.88607,2.75229 -0.006,0.76121 -1.20313,1.95961 -0.59109,0.59073 0.84396,-2.2995 1.59103,-4.73075 1.44892,-7.20485 -0.0815,-0.3657 -0.27044,-0.69326 -0.40481,-1.03988 z" />
        <path
           id="path883"
           style="fill:#ffd42a;stroke:#000000;stroke-width:0.264583px;stroke-linecap:butt;stroke-linejoin:miter;stroke-opacity:1"
           d="m 195.98841,104.53362 c 0.10484,-2.39715 2.71702,-1.31703 3.94821,-0.5248 2.27378,0.72821 3.00512,3.2423 2.99559,5.39881 0.28726,2.80802 0.009,-1.10797 -0.0314,-2.06645 0.21917,-1.66468 -1.28559,-2.74981 -2.28518,-3.86417 -1.6492,-0.67942 -3.11906,-3.05323 -0.30291,-2.9444 2.17276,-0.30951 3.76857,1.58556 5.85972,1.79368 1.95242,0.55907 3.95331,0.008 5.45471,-1.33144 1.05002,-0.71315 -1.86409,0.56513 -2.58871,0.57807 -1.72685,0.54877 -3.59543,0.51527 -5.11442,-0.56176 -1.81447,-1.518219 -4.37275,-1.547244 -6.40469,-0.47288 -2.3187,0.71763 -1.58705,-1.450953 -0.0909,-1.919924 1.88548,-1.967083 2.94154,-4.565226 4.32195,-6.886451 0.49068,-0.925601 3.7673,-0.887777 3.44246,-1.515253 -2.1148,-0.0031 -4.32378,0.861612 -5.66176,2.548398 0.39059,-2.202998 0.42924,-4.509991 1.43163,-6.551549 -1.12157,1.891639 -2.30366,3.883358 -2.05491,6.175921 0.40979,2.005462 -1.02555,3.722645 -2.33332,5.058944 -2.28192,1.409354 -2.80994,-1.673618 -2.5747,-3.297033 -0.50416,-1.820652 0.64454,-3.014656 2.31964,-3.532415 1.34544,-0.526097 0.96473,-1.098758 -0.38183,-0.552218 -1.57526,-0.382698 1.54565,-2.51548 2.27928,-3.128973 1.9483,-1.389291 3.51984,-3.228687 5.29363,-4.825011 0.49697,-0.972658 1.55072,-4.0126 1.17334,-3.747411 -0.99133,2.808561 -2.82838,5.525377 -5.65308,6.721045 -0.80246,0.647466 -1.9401,0.980059 -0.83363,-0.170955 1.03187,-1.512563 1.93142,-3.134402 2.6361,-4.819554 0.32474,-1.168478 -0.21363,-2.355508 -0.48204,-0.587367 -1.01928,2.858463 -2.59737,5.513372 -4.34284,7.985792 -0.72281,0.847193 -1.9385,2.828329 -1.78952,0.623582 -0.24427,-1.903394 1.91965,-2.635202 2.17664,-4.368387 0.3348,-0.967707 -0.18697,-2.71465 -0.15187,-0.731285 0.26289,1.010113 -1.38989,3.535977 -1.27777,1.285303 -0.24688,-1.246832 -0.75865,-1.481963 -0.30316,-0.06938 0.30923,2.004246 -1.17259,3.820656 -1.06644,5.869339 -0.22347,1.903928 -0.46445,5.373632 -2.81004,5.244432 2.77082,0.233663 3.29014,2.762479 4.55097,4.78209 0.36769,1.44057 0.7036,2.9047 0.65123,4.40366 z" />
        <path
           id="path885"
           style="fill:#ffd42a;stroke:none;stroke-width:0.264583px;stroke-linecap:butt;stroke-linejoin:miter;stroke-opacity:1"
           d="m 182.44857,97.982068 c -0.7405,0.865937 -1.481,1.731875 -2.2215,2.597812 0.70384,1.7883 0.20508,3.82501 1.09746,5.57333 0.26609,1.78747 2.5294,1.19196 3.13229,2.78579 0.616,1.37754 2.00706,1.74951 3.38759,1.51644 2.15819,-0.0851 3.81282,-1.70965 5.54132,-2.81802 1.58854,-0.8097 3.02613,-2.00555 2.57927,-3.99023 -0.0525,-1.74509 -0.3509,-3.53123 -1.47434,-4.933101 -0.64209,-1.409309 -1.20695,-3.019441 -3.0454,-3.102751 -1.63208,-0.80693 -3.49796,-0.805391 -5.26763,-0.689105 -1.2569,0.538116 -1.77462,2.008707 -3.10951,2.592602 -0.20907,0.152306 -0.41673,0.306834 -0.61955,0.467233 z" />
        <path
           style="fill:#ff7f2a;stroke:#000000;stroke-width:0.264583px;stroke-linecap:butt;stroke-linejoin:miter;stroke-opacity:1"
           d="m 186.71277,100.6142 -1.37263,0.82358 c 0,0 -0.24022,0.4461 -0.37748,0.652 -0.13726,0.2059 -0.34316,1.06379 -0.34316,1.33832 0,0.27453 0.0686,1.304 0.27453,1.57853 0.20589,0.27453 0.652,0.82358 0.78926,0.96085 0.13727,0.13726 0.61769,0.61768 1.33832,0.652 0.72064,0.0343 1.40695,0.20589 1.85306,-0.10295 0.44611,-0.30884 0.89221,-0.54905 1.20106,-0.96085 0.30884,-0.41179 0.652,-0.85789 0.72063,-1.26968 0.0686,-0.41179 0.44611,-1.02948 0.10295,-1.61285 -0.34316,-0.58337 -0.652,-0.99516 -0.8579,-1.304 -0.20589,-0.30885 -1.61285,-0.92653 -1.61285,-0.92653 0,0 -0.0686,-0.0343 -0.41179,-0.0343 -0.34315,0 -1.304,0.2059 -1.304,0.2059 z"
           id="path887" />
        <path
           style="fill:#0000ff;stroke:#000000;stroke-width:0.264583px;stroke-linecap:butt;stroke-linejoin:miter;stroke-opacity:1"
           d="m 188.51436,103.66831 c 0,0 -0.37748,0.27453 -0.46327,0.39463 -0.0858,0.12011 -0.15442,0.48043 -0.13726,0.60053 0.0171,0.12011 0.13726,0.27453 0.30884,0.48042 0.17158,0.2059 0.13726,0.36032 0.42895,0.34316 0.29168,-0.0172 0.56621,-0.0172 0.652,-0.1201 0.0858,-0.10295 0.36032,-0.18874 0.39463,-0.39464 0.0343,-0.20589 0.12011,-0.54905 0.0343,-0.75494 -0.0858,-0.2059 -0.12011,-0.34316 -0.25737,-0.46327 -0.13726,-0.12011 -0.49758,-0.17158 -0.49758,-0.17158 z"
           id="path889" />
        <path
           id="path893-25"
           style="fill:#deaa87;stroke:#000000;stroke-width:0.264583px;stroke-linecap:butt;stroke-linejoin:miter;stroke-opacity:1"
           d="m 186.40396,160.95077 c -0.89221,0 -1.78443,0 -2.67664,0 -0.19446,0.2059 -0.38891,0.41179 -0.58337,0.61769 -0.20862,0.54763 -0.46381,1.115 -0.38145,1.71615 0.0382,1.65277 0.045,3.30774 0.11,4.95899 0.0721,0.39806 -0.0461,0.89588 0.29542,1.19428 0.31077,0.14647 0.68193,0.14334 1.02104,0.19996 0.32797,-8.9e-4 0.69597,0.13496 0.99484,-0.0305 0.35143,-0.16426 0.83873,-0.17835 1.03736,-0.56238 0.22341,-0.73517 0.57704,-1.46018 0.53504,-2.24675 0.0322,-1.69628 0.13296,-3.40303 -0.0797,-5.09163 -0.0469,-0.26432 -0.11364,-0.53422 -0.27253,-0.75577 z" />
        <path
           style="fill:#ffb380;stroke:#000000;stroke-width:0.264583px;stroke-linecap:butt;stroke-linejoin:miter;stroke-opacity:1"
           d="m 185.85487,110.46286 -0.34316,6.55433 -0.27452,4.70128 -0.65201,11.6674 v 16.84911 l -0.0686,16.74615 -0.89221,9.88298 c 0,0 -1.16674,1.33832 -1.40695,1.44127 -0.24021,0.10295 -1.81874,0.72063 -2.47075,1.23537 -0.652,0.51474 -1.88737,2.1619 -1.99032,2.29916 -0.10295,0.13727 -1.61284,2.16191 -1.61284,2.16191 0,0 -0.24022,1.20105 -0.30885,1.40695 -0.0686,0.20589 -0.20589,0.61768 -0.20589,0.61768 l 2.02463,-2.84822 0.96085,-1.37263 c 0,0 0.96084,-0.72064 1.13242,-0.89222 0.17158,-0.17158 1.20106,-0.96084 1.37264,-1.0981 0.17158,-0.13727 2.1619,-0.8579 2.1619,-0.8579 l 0.30884,-0.0686 -2.53937,3.6718 -2.8139,5.04443 c 0,0 0.10294,0.61769 0.17158,0.44611 0.0686,-0.17158 2.57369,-4.35812 2.57369,-4.35812 l 2.98548,-3.74043 c 0,0 0.0343,1.37264 0,1.57853 -0.0343,0.2059 -0.75495,2.8139 -0.96085,3.29433 -0.20589,0.48042 -1.0981,3.12274 -0.92652,2.8139 0.17157,-0.30884 2.05895,-4.76991 2.05895,-4.76991 0,0 0.20589,-1.02948 0.41179,-0.82358 0.20589,0.20589 0.61769,1.304 0.68632,1.47558 0.0686,0.17158 0.72063,2.57369 0.72063,2.57369 v 1.92169 c 0,0 0.75495,-1.57853 0.78927,-1.85306 0.0343,-0.27452 -0.58338,-3.80906 -0.68632,-4.08358 -0.10295,-0.27453 -0.61769,-1.20106 -0.78927,-1.47559 -0.17158,-0.27453 -0.24021,-0.54905 -0.41179,-1.06379 -0.17158,-0.51474 -0.30884,-0.652 -0.13726,-0.58337 0.17158,0.0686 0.89221,1.40695 1.02948,1.61284 0.13726,0.2059 2.19621,2.95117 2.40211,3.0198 0.20589,0.0686 2.12758,1.23538 2.23053,1.44127 0.10295,0.2059 1.44127,3.0198 1.44127,3.0198 l -0.82358,-3.08843 -2.91686,-4.11791 c 0,0 -2.12758,-2.50506 -2.43642,-2.98548 -0.30884,-0.48042 -1.30401,-3.84338 -1.26969,-4.35812 0.0343,-0.51474 0.44611,-4.63264 0.44611,-4.63264 l 0.17158,-14.34405 v -11.32424 l 0.20589,-12.01056 0.54906,-10.53498 1.02947,-7.92697 c 0,0 1.47558,-1.57853 1.54422,-1.7158 0.0686,-0.13726 0.4461,-0.652 0.4461,-0.652 z"
           id="path891" />
        <path
           style="fill:#ff7f2a;stroke:#000000;stroke-width:0.264583px;stroke-linecap:butt;stroke-linejoin:miter;stroke-opacity:1"
           d="m 183.38413,120.92921 c 0,0 -0.75495,0.27452 -0.82358,0.54905 -0.0686,0.27453 -0.0343,0.652 -0.0343,0.82358 0,0.17158 0.0343,0.61769 0.2059,0.75495 0.17158,0.13726 0.37747,0.17158 0.37747,0.17158 l 0.30884,-0.2059 z"
           id="path895" />
        <path
           style="fill:#ff7f2a;stroke:#000000;stroke-width:0.264583px;stroke-linecap:butt;stroke-linejoin:miter;stroke-opacity:1"
           d="m 182.82472,129.41632 c 0,0 -0.75495,0.27452 -0.82358,0.54905 -0.0686,0.27453 -0.0343,0.652 -0.0343,0.82358 0,0.17158 0.0343,0.61769 0.20591,0.75495 0.17158,0.13726 0.37746,0.17158 0.37746,0.17158 l 0.30884,-0.2059 z"
           id="path895-2" />
        <path
           style="fill:#ff7f2a;stroke:#000000;stroke-width:0.264583px;stroke-linecap:butt;stroke-linejoin:miter;stroke-opacity:1"
           d="m 182.26533,137.90343 c 0,0 -0.75495,0.27452 -0.82358,0.54905 -0.0686,0.27453 -0.0343,0.652 -0.0343,0.82358 0,0.17158 0.0343,0.61769 0.2059,0.75495 0.17158,0.13726 0.37747,0.17158 0.37747,0.17158 l 0.30884,-0.2059 z"
           id="path895-6" />
        <path
           style="fill:#ff7f2a;stroke:#000000;stroke-width:0.264583px;stroke-linecap:butt;stroke-linejoin:miter;stroke-opacity:1"
           d="m 182.72697,146.5905 c 0,0 -0.75495,0.27452 -0.82358,0.54905 -0.0686,0.27453 -0.0343,0.652 -0.0343,0.82358 0,0.17158 0.0343,0.61769 0.2059,0.75495 0.17158,0.13726 0.37747,0.17158 0.37747,0.17158 l 0.30884,-0.2059 z"
           id="path895-23" />
        <path
           style="fill:#ff7f2a;stroke:#000000;stroke-width:0.264583px;stroke-linecap:butt;stroke-linejoin:miter;stroke-opacity:1"
           d="m 182.16757,155.07761 c 0,0 -0.75495,0.27452 -0.82358,0.54905 -0.0686,0.27453 -0.0343,0.652 -0.0343,0.82358 0,0.17158 0.0343,0.61769 0.2059,0.75495 0.17158,0.13726 0.37747,0.17158 0.37747,0.17158 l 0.30884,-0.2059 z"
           id="path895-8" />
        <path
           style="fill:#ff7f2a;stroke:#000000;stroke-width:0.264583px;stroke-linecap:butt;stroke-linejoin:miter;stroke-opacity:1"
           d="m 182.62921,163.76468 c 0,0 -0.75495,0.27452 -0.82358,0.54905 -0.0686,0.27453 -0.0343,0.652 -0.0343,0.82358 0,0.17158 0.0343,0.61769 0.2059,0.75495 0.17158,0.13726 0.37747,0.17158 0.37747,0.17158 l 0.30884,-0.2059 z"
           id="path895-4" />
        <path
           style="fill:none;stroke:#000000;stroke-width:0.264583px;stroke-linecap:butt;stroke-linejoin:miter;stroke-opacity:1"
           d="m 185.39161,95.381023 0.78602,-0.45879 0.50082,-0.0045"
           id="path993" />
        <path
           style="fill:none;stroke:#000000;stroke-width:0.264583px;stroke-linecap:butt;stroke-linejoin:miter;stroke-opacity:1"
           d="m 183.06812,97.514835 -2.84105,3.065045 0.24021,0.99516"
           id="path995" />
        <path
           style="fill:none;stroke:#000000;stroke-width:0.264583px;stroke-linecap:butt;stroke-linejoin:miter;stroke-opacity:1"
           d="m 180.7418,103.83989 0.58273,2.31332 0.49312,1.21941"
           id="path997" />
        <path
           style="fill:none;stroke:#000000;stroke-width:0.264583px;stroke-linecap:butt;stroke-linejoin:miter;stroke-opacity:1"
           d="m 184.4994,109.05591 0.96084,1.13242 0.39463,0.27453"
           id="path999" />
        <path
           style="fill:none;stroke:#000000;stroke-width:0.264583px;stroke-linecap:butt;stroke-linejoin:miter;stroke-opacity:1"
           d="m 188.77175,110.35994 2.07248,-0.97332"
           id="path1001" />
        <path
           style="fill:none;stroke:#000000;stroke-width:0.264583px;stroke-linecap:butt;stroke-linejoin:miter;stroke-opacity:1"
           d="m 195.98841,104.53362 -0.39935,1.62698"
           id="path1003" />
        <path
           style="fill:none;stroke:#000000;stroke-width:0.264583px;stroke-linecap:butt;stroke-linejoin:miter;stroke-opacity:1"
           d="m 188.61628,94.863888 2.16991,0.48398"
           id="path1005"
           sodipodi:nodetypes="cc" />
      </g>
      <text
         xml:space="preserve"
         style="font-size:18.498px;line-height:1.25;font-family:sans-serif;letter-spacing:0px;word-spacing:0px;stroke-width:0.46245"
         x="94.072906"
         y="27.078962"
         id="text1058"
         transform="scale(1.0125905,0.98756603)"><tspan
           sodipodi:role="line"
           id="tspan1056"
           x="94.072906"
           y="27.078962"
           style="font-size:12.3321px;stroke-width:0.46245">Motor </tspan><tspan
           sodipodi:role="line"
           x="94.072906"
           y="50.201458"
           style="font-size:12.3321px;stroke-width:0.46245"
           id="tspan1060">neuron</tspan></text>
      <path
         style="fill:none;stroke:#e40000;stroke-width:1.63081;stroke-linecap:butt;stroke-linejoin:miter;stroke-miterlimit:4;stroke-dasharray:none;stroke-opacity:1"
         d="m 152.43123,182.55043 -81.850406,0.35533 v 0 l -23.755626,-0.17194"
         id="path1064"
         sodipodi:nodetypes="cccc" />
      <text
         xml:space="preserve"
         style="font-size:12.3321px;line-height:1.25;font-family:sans-serif;letter-spacing:0px;word-spacing:0px;stroke-width:0.46245"
         x="11.532034"
         y="188.51251"
         id="text1068"
         transform="scale(1.0125905,0.98756603)"><tspan
           sodipodi:role="line"
           id="tspan1066"
           x="11.532034"
           y="188.51251"
           style="font-size:12.3321px;stroke-width:0.46245">axon</tspan></text>
      <path
         style="fill:none;stroke:#e40000;stroke-width:1.16231;stroke-linecap:butt;stroke-linejoin:miter;stroke-miterlimit:4;stroke-dasharray:none;stroke-opacity:1"
         d="M 130.60924,102.70602 130.02217,85.126867 88.794517,84.959328"
         id="path1070" />
      <text
         xml:space="preserve"
         style="font-size:12.3321px;line-height:1.25;font-family:sans-serif;letter-spacing:0px;word-spacing:0px;stroke-width:0.46245"
         x="29.162588"
         y="88.40406"
         id="text1074"
         transform="scale(1.0125905,0.98756602)"><tspan
           sodipodi:role="line"
           id="tspan1072"
           x="29.162588"
           y="88.40406"
           style="font-size:12.3321px;stroke-width:0.46245">dendrite</tspan></text>
    </g>
  </g>
</svg>
