<?xml version="1.0" encoding="UTF-8" standalone="no"?>
<svg
   xmlns:dc="http://purl.org/dc/elements/1.1/"
   xmlns:cc="http://creativecommons.org/ns#"
   xmlns:rdf="http://www.w3.org/1999/02/22-rdf-syntax-ns#"
   xmlns:svg="http://www.w3.org/2000/svg"
   xmlns="http://www.w3.org/2000/svg"
   xmlns:sodipodi="http://sodipodi.sourceforge.net/DTD/sodipodi-0.dtd"
   xmlns:inkscape="http://www.inkscape.org/namespaces/inkscape"
   width="210mm"
   height="297mm"
   viewBox="0 0 210 297"
   version="1.1"
   id="svg8"
   inkscape:version="1.0.2 (e86c870879, 2021-01-15, custom)"
   sodipodi:docname="organs.svg">
  <defs
     id="defs2" />
  <sodipodi:namedview
     id="base"
     pagecolor="#ffffff"
     bordercolor="#666666"
     borderopacity="1.0"
     inkscape:pageopacity="0.0"
     inkscape:pageshadow="2"
     inkscape:zoom="0.2283734"
     inkscape:cx="145.48116"
     inkscape:cy="377.8901"
     inkscape:document-units="mm"
     inkscape:current-layer="layer1"
     inkscape:document-rotation="0"
     showgrid="false"
     inkscape:window-width="1920"
     inkscape:window-height="1017"
     inkscape:window-x="-8"
     inkscape:window-y="-8"
     inkscape:window-maximized="1" />
  <metadata
     id="metadata5">
    <rdf:RDF>
      <cc:Work
         rdf:about="">
        <dc:format>image/svg+xml</dc:format>
        <dc:type
           rdf:resource="http://purl.org/dc/dcmitype/StillImage" />
        <dc:title />
      </cc:Work>
    </rdf:RDF>
  </metadata>
  <g
     inkscape:label="Layer 1"
     inkscape:groupmode="layer"
     id="layer1">
    <g
       id="g984">
      <g
         id="heart"
         transform="translate(290.59288,110.33036)">
        <path
           style="fill:#0088aa;stroke:#000000;stroke-width:1.6;stroke-linecap:butt;stroke-linejoin:miter;stroke-miterlimit:4;stroke-dasharray:none;stroke-opacity:1"
           d="m -157.2372,-82.9863 -3.00886,-5.435361 -3.8824,-2.03826 -2.62062,-1.26178 c 0,0 -0.4853,0.873541 -0.4853,-0.388239 0,-1.261782 0.38824,-2.232382 0.77648,-3.300042 0.38824,-1.06766 1.55296,-1.844138 1.55296,-1.844138 0,0 3.59122,1.552959 4.27064,2.23238 0.67942,0.679418 3.10592,2.814741 3.10592,2.814741 0,0 0.87354,1.358839 1.26178,2.03826 0.38824,0.679418 1.84414,2.911797 2.32944,3.688278 0.4853,0.776481 1.84414,2.329439 2.13532,1.747081 0.29118,-0.582361 0.19412,-4.17358 0.19412,-4.561822 0,-0.388239 -0.67942,-4.270639 -0.67942,-4.755938 0,-0.485301 -0.0971,-4.367702 -0.0971,-4.367702 0,0 -0.67942,-1.06766 -0.0971,-1.16472 0.58236,-0.09706 4.853,0.09706 4.853,0.09706 0,0 0.67942,-1.358838 1.06766,0.776481 0.38824,2.13532 0.4853,3.00886 0.4853,4.07652 0,1.06766 0.0971,3.300039 0.0971,4.07652 0,0.776481 0.0971,2.329439 0,2.9118 -0.0971,0.582361 -0.4853,2.03826 0.19412,1.16472 0.67942,-0.87354 0.58236,-0.9706 1.55296,-2.814741 0.9706,-1.844138 2.13532,-3.10592 3.00886,-3.979457 0.87354,-0.873541 2.62062,-2.232383 3.30004,-2.717681 0.67942,-0.485302 2.52356,-1.358839 3.00886,-1.552962 0.4853,-0.194119 0.87354,-0.9706 1.26178,-0.485298 0.38824,0.485298 1.35884,1.9412 1.35884,1.9412 l 1.4559,1.261779 c 0,0 0.19412,0.679421 -0.4853,1.26178 -0.67942,0.582361 -2.23238,1.747081 -3.3971,2.329442 -1.16472,0.582358 -2.4265,0.970597 -3.10592,2.426499 -0.67942,1.455899 -1.16472,3.591218 -1.16472,3.591218 0,0 0.19412,1.164723 0.58236,1.455902 0.38824,0.291179 2.4265,0.9706 2.9118,0.9706 0.4853,0 1.9412,0.194119 2.71768,-0.485301 0.77648,-0.679419 -7.18244,3.688281 -7.18244,3.688281 0,0 -2.62062,0.291179 -6.60008,1.74708 -3.97946,1.455899 -4.65888,1.844138 -5.3383,1.941201 -0.67942,0.09706 -1.4559,-0.873541 -1.4559,-0.873541 0,0 -0.77648,-0.291182 -1.16472,-0.291182 -0.38824,0 -4.27064,-0.291179 -4.27064,-0.291179 0,0 -2.23238,-0.485299 -2.23238,-1.164719 0,-0.679421 1.16472,-2.32944 1.65002,-2.620622 0.4853,-0.291179 2.13532,-1.844138 2.13532,-1.844138 z"
           id="path847" />
        <path
           style="fill:#ff0000;stroke:#000000;stroke-width:1.6;stroke-linecap:butt;stroke-linejoin:miter;stroke-miterlimit:4;stroke-dasharray:none;stroke-opacity:1"
           d="m -166.4579,-87.74224 -3.10592,0.77648 c 0,0 -0.4853,0.679418 -0.19412,1.844141 0.29118,1.164719 0.29118,4.950057 0.29118,4.950057 0,0 -5.04712,8.541282 -5.14418,8.929521 -0.0971,0.388242 -1.35884,4.367699 -1.35884,5.3383 0,0.9706 0.67942,8.444222 0.67942,8.444222 v 2.620618 c 0,1.16472 -0.77648,3.20298 -0.0971,4.853001 0.67942,1.650021 2.03826,5.726541 3.97946,8.347159 1.9412,2.620621 5.24124,5.726541 5.53242,6.3089 0.29118,0.582361 9.41482,11.841321 9.41482,11.841321 0,0 4.95006,4.3677 5.43536,4.853 0.4853,0.4853 3.97946,2.03826 4.75594,1.9412 0.77648,-0.09706 6.89126,-3.00886 6.89126,-3.00886 0,0 4.65888,-3.68828 5.14418,-4.75594 0.4853,-1.06766 3.00886,-3.97946 3.68828,-5.726541 0.67942,-1.747078 1.84414,-3.979461 2.62062,-4.561819 0.77648,-0.582361 2.52356,-0.9706 3.3971,-3.20298 0.87354,-2.232379 1.9412,-4.561821 1.9412,-5.92066 0,-1.358839 0.67942,-3.30004 0.29118,-6.21184 -0.38824,-2.9118 -0.67942,-5.338299 -0.77648,-7.570682 -0.0971,-2.232379 -0.19412,-2.717678 -0.19412,-4.658878 0,-1.9412 0,-3.688281 0.58236,-5.14418 0.58236,-1.455902 1.55296,-2.814741 2.03826,-3.397099 0.4853,-0.582361 1.35884,-1.164722 2.23238,-1.552961 0.87354,-0.388239 1.65002,-0.679421 2.4265,-0.970601 0.77648,-0.291179 0.9706,-0.77648 0.9706,-0.77648 0,0 -0.38824,-0.582359 -0.4853,-1.552959 -0.0971,-0.9706 0,-3.300039 0,-3.300039 0,0 -1.9412,0.873538 -2.4265,0.970597 -0.4853,0.09706 2.81474,-0.291179 -1.65002,0.388242 -4.46476,0.679421 -4.95006,0.679421 -5.72654,0.388239 -0.77648,-0.291179 4.46476,-3.494159 4.46476,-3.494159 l 3.30004,-2.23238 c 0,0 -1.74708,-0.388241 -2.71768,-1.455901 -0.9706,-1.06766 -2.32944,-2.814741 -2.32944,-2.814741 l -1.06766,-1.844138 -9.31776,6.11478 -6.98836,3.397102 c -4.91173,0.357354 -12.65178,5.268178 -13.39428,2.814738 l -3.39706,-0.485301 c -2.61864,0.115722 -4.64425,-0.392004 -4.75594,-2.911801 l -0.0971,-5.144179 0.19412,-0.970601 c 0,0 -0.9706,-0.582358 -1.4559,-0.776478 -0.4853,-0.194122 -3.59122,-0.67942 -3.59122,-0.67942 z"
           id="path849"
           sodipodi:nodetypes="ccsccscscsscsscsssssscssssscccsssccscccccccccscc" />
        <path
           style="fill:none;stroke:#000000;stroke-width:1.6;stroke-linecap:butt;stroke-linejoin:miter;stroke-miterlimit:4;stroke-dasharray:none;stroke-opacity:1"
           d="m -148.9996,-69.729894 c -0.54906,0.686318 -1.02568,1.437468 -1.64717,2.058956 -0.44005,0.440052 -1.02394,0.709342 -1.5099,1.098108 -0.64219,0.513754 -2.35147,2.04453 -2.95116,2.676638 -0.75567,0.796513 -1.66478,1.795159 -2.26485,2.745272 -0.53618,0.848945 -0.96695,1.763419 -1.5099,2.608009 -0.70053,1.089705 -1.45213,2.073465 -1.92169,3.294324 -0.68535,1.781903 -1.31733,5.439217 -1.09811,7.412233 0.064,0.575665 0.2456,1.137312 0.27453,1.715794 0.0574,1.148413 -0.0272,2.281132 0.0686,3.43159 0.0946,1.134946 0.39855,2.047097 0.68632,3.157061 0.13924,0.537099 -0.0264,0.230132 0.27452,0.892215 0.10824,0.238117 0.2932,0.449128 0.4118,0.686316"
           id="path851" />
        <path
           style="fill:none;stroke:#000000;stroke-width:1.6;stroke-linecap:butt;stroke-linejoin:miter;stroke-miterlimit:4;stroke-dasharray:none;stroke-opacity:1"
           d="m -151.81351,-67.808204 c -1.78644,0.356192 -3.61699,-0.09563 -5.42191,0.137266 -1.37678,0.177646 -2.7436,0.601919 -4.11791,0.823579 -3.74415,0.603898 -6.69379,1.239768 -8.51034,4.872857"
           id="path853" />
        <path
           style="fill:none;stroke:#000000;stroke-width:1.6;stroke-linecap:butt;stroke-linejoin:miter;stroke-miterlimit:4;stroke-dasharray:none;stroke-opacity:1"
           d="m -151.81351,-67.808204 c 0.57193,0.571934 1.17284,1.116285 1.7158,1.715796 1.14614,1.265534 2.13384,2.684981 3.15706,4.049273 0.53496,0.713288 1.03478,1.539434 1.71579,2.127586 0.20192,0.174382 0.47654,0.246962 0.68632,0.411793 0.11519,0.0905 0.16614,0.24462 0.27453,0.343159 0.64244,0.584033 1.57756,1.147757 2.40211,1.372634 2.07708,0.566476 4.32557,0.701599 6.45139,0.960845 0.87038,0.106143 1.75602,0.135919 2.60801,0.34316 1.03943,0.252833 1.82507,0.638008 2.74527,1.098108"
           id="path855" />
        <path
           style="fill:none;stroke:#000000;stroke-width:1.6;stroke-linecap:butt;stroke-linejoin:miter;stroke-miterlimit:4;stroke-dasharray:none;stroke-opacity:1"
           d="m -141.99916,-57.376173 c 0.40674,0.645618 1.06768,1.117314 1.44127,1.784427 1.1201,2.000197 2.14094,5.513631 2.33348,7.824025 0.14391,1.726988 -0.12804,3.487584 0,5.216014 0.089,1.201 0.38301,2.45146 0.54905,3.637484 0.27967,1.99767 0.0558,1.452822 0.75495,3.500223 0.46611,1.365023 1.26914,2.743475 2.26485,3.774747 1.04676,1.084149 1.02947,0.429199 1.02947,0.960845"
           id="path857" />
        <path
           style="fill:none;stroke:#000000;stroke-width:1.6;stroke-linecap:butt;stroke-linejoin:miter;stroke-miterlimit:4;stroke-dasharray:none;stroke-opacity:1"
           d="m -137.67536,-45.983297 c 1.92708,2.332778 0.9255,1.329103 3.91201,3.706117 1.38157,1.099616 2.34938,1.737563 2.53938,3.637486 0.0423,0.423077 0.13726,0.807183 0.13726,1.235371"
           id="path859" />
        <path
           style="fill:none;stroke:#000000;stroke-width:1.6;stroke-linecap:butt;stroke-linejoin:miter;stroke-miterlimit:4;stroke-dasharray:none;stroke-opacity:1"
           d="m -158.059,-56.552591 c -0.36791,2.737371 1.77504,4.709226 3.08843,6.86318 1.12863,1.850951 2.08267,3.631517 3.91201,4.872855 0.2372,0.160957 0.51311,0.257895 0.75495,0.411792 0.7169,0.456206 1.36179,1.027243 2.05895,1.509898 0.38087,0.263676 0.81088,0.458399 1.16675,0.754952 0.64436,0.536971 1.37263,1.817237 1.37263,2.676638"
           id="path861" />
        <path
           style="fill:none;stroke:#000000;stroke-width:1.6;stroke-linecap:butt;stroke-linejoin:miter;stroke-miterlimit:4;stroke-dasharray:none;stroke-opacity:1"
           d="m -153.11751,-46.395086 c 0.74173,1.946118 0.95681,3.52439 0.61768,5.559173 -0.0739,0.443352 -0.27121,0.860333 -0.34315,1.304004 -0.36539,2.253229 -0.0365,4.612296 1.23537,6.520022 0.17832,0.267488 1.40913,1.853057 1.57853,1.853057"
           id="path863" />
        <path
           style="fill:none;stroke:#000000;stroke-width:1.6;stroke-linecap:butt;stroke-linejoin:miter;stroke-miterlimit:4;stroke-dasharray:none;stroke-opacity:1"
           d="m -163.34365,-62.249028 c -0.22555,0.375915 -0.31032,0.563218 -0.68631,0.892212 -0.65473,0.572886 -1.59339,0.935305 -2.33349,1.372637 -1.04593,0.618054 -2.10169,1.555271 -2.88253,2.470743 -0.894,1.048136 -1.2011,1.997424 -1.44127,3.294327 -0.21109,1.139894 -0.41179,2.194176 -0.41179,3.362957"
           id="path865" />
        <path
           style="fill:none;stroke:#000000;stroke-width:1.6;stroke-linecap:butt;stroke-linejoin:miter;stroke-miterlimit:4;stroke-dasharray:none;stroke-opacity:1"
           d="m -168.97145,-56.552591 c 0,0.183017 -0.0152,0.36667 0,0.549055 0.16995,2.039448 0.22764,1.491202 0.27452,3.225694 0.0111,0.411639 -0.071,0.829744 0,1.235372 0.0936,0.534773 0.58249,1.788429 0.82359,2.402112 0.28588,0.727713 0.50603,1.481751 0.82358,2.196216 0.67866,1.526998 1.64648,2.881852 2.8139,4.049276"
           id="path867" />
      </g>
      <g
         id="lungs"
         transform="translate(206.02513,33.462759)">
        <path
           style="fill:#ffaaaa;stroke:#000000;stroke-width:1.6;stroke-linecap:butt;stroke-linejoin:miter;stroke-miterlimit:4;stroke-dasharray:none;stroke-opacity:1"
           d="M -150.15182,46.491741 -150.443,37.8534 c 0,0 -1.06766,-2.23238 -1.55296,-2.814741 -0.4853,-0.582358 -1.35884,-1.455899 -2.81474,-1.650018 -1.4559,-0.19412 -2.52356,-0.776481 -3.8824,-0.388242 -1.35884,0.388242 -3.3971,-0.09706 -6.21184,2.329442 -2.81474,2.426499 -7.86186,5.726539 -8.44422,6.405959 -0.58236,0.679421 -10.57954,16.111961 -11.1619,17.179621 -0.58236,1.06766 -3.68828,6.01772 -5.04712,8.832458 -1.35884,2.814741 -5.43536,10.288363 -5.04712,11.938381 0.38824,1.650021 1.74708,11.1619 2.4265,12.520739 0.67942,1.358842 2.62062,4.173583 3.8824,4.755941 1.26178,0.582362 8.34716,0.873541 9.12364,0.679421 0.77648,-0.194119 11.1619,-1.74708 11.93838,-2.329442 0.77648,-0.582358 10.09424,-4.950057 10.09424,-4.950057 0,0 5.04712,-4.561822 5.3383,-5.435362 0.29118,-0.873541 2.03826,-6.40596 2.23238,-7.37656 0.19412,-0.9706 0.0971,-10.385419 0.0971,-10.385419 z"
           id="path869" />
        <path
           style="fill:#ffaaaa;stroke:#000000;stroke-width:1.6;stroke-linecap:butt;stroke-linejoin:miter;stroke-miterlimit:4;stroke-dasharray:none;stroke-opacity:1"
           d="m -140.15464,45.1329 0.0971,-6.600079 c 0,0 1.55296,-3.688281 2.03826,-4.367699 0.4853,-0.679421 1.84414,-1.747081 2.23238,-1.747081 0.38824,0 4.56182,-0.485302 7.08538,0.09706 2.52356,0.582358 9.90012,4.95006 9.90012,4.95006 0,0 11.35602,18.53846 11.74426,19.023758 0.38824,0.485302 5.72654,13.103101 5.92066,13.491342 0.19412,0.388239 2.523559,4.3677 2.717678,5.532419 0.194122,1.16472 0.9706,8.15304 0.9706,8.638342 0,0.485299 -0.09706,6.503019 -0.388239,7.279499 -0.291179,0.776478 -5.144179,5.629479 -5.144179,5.629479 0,0 -7.66774,1.455902 -9.31776,1.358842 -1.65002,-0.09706 -8.54128,-1.261782 -8.92952,-1.455902 -0.38824,-0.194119 -5.92066,-2.135319 -6.7942,-2.717681 -0.87354,-0.582358 -7.18244,-6.503019 -7.57068,-6.891258 -0.38824,-0.388241 -4.3677,-4.95006 -4.3677,-5.629481 0,-0.679421 -1.84414,-11.06484 -1.84414,-11.06484 z"
           id="path871" />
        <path
           style="fill:#a02c2c;stroke:#000000;stroke-width:1.6;stroke-linecap:butt;stroke-linejoin:miter;stroke-miterlimit:4;stroke-dasharray:none;stroke-opacity:1"
           d="m -147.5312,36.73721 c 0,0 1.16472,-0.388239 1.50443,-0.533828 0.33971,-0.145593 1.06766,-0.436772 1.79561,-0.436772 0.72795,0 1.98973,0.242649 1.98973,0.242649 0,0 -1.11619,22.51792 -0.87354,22.906162 0.24265,0.388239 0.82501,1.552959 1.55296,1.9412 0.72795,0.388239 1.06766,0.92207 1.74708,1.16472 0.67942,0.242649 1.74708,0.291179 1.74708,0.291179 l 12.86045,8.783931 5.96919,1.601489 c 0,0 -4.46476,-0.24265 -4.75594,-0.29118 -0.29118,-0.04853 -3.44563,-0.9706 -4.27064,-1.552961 -0.82501,-0.582358 -7.52215,-3.494159 -7.95892,-3.833868 -0.43677,-0.339712 -4.3677,-3.10592 -4.90153,-3.397102 -0.53383,-0.291179 -2.71768,-2.03826 -3.20298,-2.232379 -0.4853,-0.19412 -0.67942,-1.21325 -1.40737,-0.485299 -0.72795,0.727948 -1.21325,1.698548 -2.23238,2.766208 -1.01913,1.067663 2.52356,0.194122 -3.00886,2.475032 -5.53242,2.280909 -5.92066,2.717681 -7.23097,3.05739 -1.31031,0.339709 -3.34857,0.9706 -4.80447,1.407369 -1.4559,0.436771 -2.47503,0.82501 -3.59122,1.11619 -1.11619,0.291181 -3.10592,0.9706 -3.10592,0.9706 l 4.90153,-2.13532 c 0,0 3.34857,-0.92207 5.04712,-1.9412 1.69855,-1.01913 5.53242,-3.30004 6.60008,-3.979461 1.06766,-0.679418 4.853,-3.494159 4.853,-3.494159 0,0 1.40737,-2.086789 1.35884,-2.523558 -0.0485,-0.436772 -0.58236,-21.887032 -0.58236,-21.887032 z"
           id="path873" />
        <path
           style="fill:none;stroke:#000000;stroke-width:1.6;stroke-linecap:butt;stroke-linejoin:miter;stroke-miterlimit:4;stroke-dasharray:none;stroke-opacity:1"
           d="m -152.56846,62.523557 c -1.87053,0.161555 -2.48028,-1.389256 -3.70611,-2.264849 -0.19167,-0.136903 -0.42473,-0.20809 -0.61769,-0.343159 -0.0419,-0.02934 -0.0287,-0.105307 -0.0686,-0.137264 -0.19323,-0.154585 -0.41179,-0.274529 -0.61769,-0.411792 -0.18302,-0.183017 -0.35346,-0.379539 -0.54905,-0.549053 -0.41633,-0.360822 -1.04469,-0.638984 -1.37264,-1.09811 -0.20813,-0.291386 -0.32028,-0.640562 -0.48042,-0.960845 -0.97056,-1.941116 -0.80248,-3.183319 -0.61769,-5.216015 0.0344,-0.378777 0.16715,-0.779293 0.2059,-1.166741 0.0521,-0.520493 -0.0373,-1.056724 0,-1.57853 0.0798,-1.116547 0.0686,-2.238703 0.0686,-3.362958"
           id="path875" />
        <path
           style="fill:none;stroke:#000000;stroke-width:1.6;stroke-linecap:butt;stroke-linejoin:miter;stroke-miterlimit:4;stroke-dasharray:none;stroke-opacity:1"
           d="m -159.5689,53.189634 c -0.0225,-0.617665 0.23411,-1.230228 0.48042,-1.784427 0.17457,-0.392779 0.37595,-0.773316 0.54906,-1.166741 0.2328,-0.529092 0.34168,-1.173284 0.68631,-1.647163 0.23849,-0.327917 0.59522,-0.624917 0.89222,-0.892212 0.74674,-0.672066 1.14101,-1.479892 1.5099,-2.402113 0.10286,-0.257146 0.20589,-0.542724 0.20589,-0.823581"
           id="path877" />
        <path
           style="fill:none;stroke:#000000;stroke-width:1.6;stroke-linecap:butt;stroke-linejoin:miter;stroke-miterlimit:4;stroke-dasharray:none;stroke-opacity:1"
           d="m -161.28469,55.79764 c -1.04009,-0.830358 -1.9319,-1.780434 -2.47075,-3.019798 -0.32213,-0.74091 -0.20589,-1.690172 -0.20589,-2.470743"
           id="path879" />
        <path
           style="fill:none;stroke:#000000;stroke-width:1.6;stroke-linecap:butt;stroke-linejoin:miter;stroke-miterlimit:4;stroke-dasharray:none;stroke-opacity:1"
           d="m -155.79415,59.435126 c 0.44528,-1.363268 2.2993,-1.701371 2.88254,-2.951168 0.11323,-0.242649 0.16577,-0.510257 0.27452,-0.754948 0.42331,-0.952455 0.75495,-0.980316 0.75495,-2.127586 0,-0.606211 0.18403,-1.325875 -0.27453,-1.784427"
           id="path881" />
        <path
           style="fill:none;stroke:#000000;stroke-width:1.6;stroke-linecap:butt;stroke-linejoin:miter;stroke-miterlimit:4;stroke-dasharray:none;stroke-opacity:1"
           d="m -154.35288,56.278062 c -0.70548,-1.180904 -0.82358,-2.501868 -0.82358,-3.84338 0,-0.16634 -0.0712,-0.546486 0.0686,-0.686315"
           id="path883" />
        <path
           style="fill:none;stroke:#000000;stroke-width:1.6;stroke-linecap:butt;stroke-linejoin:miter;stroke-miterlimit:4;stroke-dasharray:none;stroke-opacity:1"
           d="m -155.72552,63.690295 c -1.22381,-0.18357 -2.6278,-0.358732 -3.77475,-0.754948 -1.3261,-0.458108 -3.91255,-2.367452 -4.59833,-3.431591 -0.44905,-0.696804 -0.81081,-1.447548 -1.16674,-2.196216 -0.11859,-0.249462 -1.5281,-3.998849 -1.78442,-4.255169"
           id="path885" />
        <path
           style="fill:none;stroke:#000000;stroke-width:1.6;stroke-linecap:butt;stroke-linejoin:miter;stroke-miterlimit:4;stroke-dasharray:none;stroke-opacity:1"
           d="m -159.50027,64.9943 c -0.63487,-0.531972 0.20748,0.402534 0.0686,0.411792 -0.97185,0.06479 -1.91834,-0.07945 -2.88253,-0.205896 -1.5554,-0.203989 -3.28786,-0.390335 -4.80423,-0.823582 -0.24114,-0.0689 -1.23224,-0.895342 -1.37263,-0.754949 -0.11324,0.113237 0,0.320281 0,0.480423"
           id="path887" />
        <path
           style="fill:none;stroke:#000000;stroke-width:1.6;stroke-linecap:butt;stroke-linejoin:miter;stroke-miterlimit:4;stroke-dasharray:none;stroke-opacity:1"
           d="m -161.55922,65.749249 c -2.37629,-0.02048 -4.57081,1.156443 -6.93181,1.304004 -1.15855,0.07241 -2.33826,0 -3.50022,0"
           id="path889" />
        <path
           style="fill:none;stroke:#000000;stroke-width:1.6;stroke-linecap:butt;stroke-linejoin:miter;stroke-miterlimit:4;stroke-dasharray:none;stroke-opacity:1"
           d="m -163.41228,68.906312 c -0.51374,0.128434 -0.91527,0.236572 -1.5099,0.274527 -1.75797,0.11221 -3.5231,0 -5.28465,0 -2.19621,0 -4.39243,0 -6.58865,0 -0.1575,0 -3.63748,-0.291179 -3.63748,0.411789"
           id="path891" />
        <path
           style="fill:none;stroke:#000000;stroke-width:1.6;stroke-linecap:butt;stroke-linejoin:miter;stroke-miterlimit:4;stroke-dasharray:none;stroke-opacity:1"
           d="m -155.72552,68.974943 c 0.0971,0.73847 0.35192,1.453798 0.41179,2.196219 0.0662,0.820914 0.21143,1.674764 0,2.470742 -0.27067,1.019001 -1.63701,2.433958 -2.26485,3.294327 -0.92221,1.26378 -1.1182,1.968572 -1.71579,3.362958 -0.65932,1.538393 -1.02948,1.57944 -1.02948,3.294324 0,1.105493 -0.0647,1.515758 0.48042,2.333482"
           id="path893" />
        <path
           style="fill:none;stroke:#000000;stroke-width:1.6;stroke-linecap:butt;stroke-linejoin:miter;stroke-miterlimit:4;stroke-dasharray:none;stroke-opacity:1"
           d="m -157.16679,76.524439 c 0,0.510725 -0.0203,1.859158 0.0686,2.333482 0.088,0.469509 0.27452,0.915091 0.41179,1.372635 0.0294,0.098 0.12279,0.173246 0.13726,0.274529 0.0405,0.283789 0,0.712613 0,1.029475"
           id="path895" />
        <path
           style="fill:none;stroke:#000000;stroke-width:1.6;stroke-linecap:butt;stroke-linejoin:miter;stroke-miterlimit:4;stroke-dasharray:none;stroke-opacity:1"
           d="m -159.84343,70.896633 c -0.34686,2.195099 -1.89962,3.990832 -3.01979,5.833702 -1.20811,2.174597 -0.17178,0.387591 -1.23538,2.058953 -0.70334,1.105263 -1.32105,2.289263 -2.33348,3.157064 -1.11205,0.953183 -2.45408,1.230911 -3.70611,1.92169 -0.33338,0.183933 -0.62391,0.440351 -0.96085,0.617686 -0.10323,0.05433 -0.24424,0.0068 -0.34316,0.06863 -0.73745,0.460907 -1.39013,1.048993 -2.12758,1.5099 -0.26951,0.168445 -0.54234,0.332399 -0.82359,0.480423 -0.18107,0.0953 -0.69374,0.129839 -0.54905,0.274526 0.009,0.0092 0.0439,-0.124891 0.2059,-0.205896"
           id="path897" />
        <path
           style="fill:none;stroke:#000000;stroke-width:1.6;stroke-linecap:butt;stroke-linejoin:miter;stroke-miterlimit:4;stroke-dasharray:none;stroke-opacity:1"
           d="m -163.41228,76.936231 c -1.06212,1.006142 -2.65835,0.490723 -3.91201,0.960845 -0.46376,0.173911 -0.72768,0.789496 -1.02948,1.166739"
           id="path899" />
        <path
           style="fill:none;stroke:#000000;stroke-width:1.6;stroke-linecap:butt;stroke-linejoin:miter;stroke-miterlimit:4;stroke-dasharray:none;stroke-opacity:1"
           d="m -169.70941,72.69794 c -0.18868,0.223147 -0.37736,0.446291 -0.56605,0.669438 -0.45754,0.297405 -0.98676,0.506338 -1.37263,0.892212 -0.51697,0.516964 -0.62209,1.222764 -0.89222,1.853059 -0.15738,0.367229 -0.28639,0.748853 -0.48042,1.098109 -0.22207,0.399729 -0.20589,0.06696 -0.20589,0.274526"
           id="path901" />
        <path
           style="fill:none;stroke:#000000;stroke-width:1.6;stroke-linecap:butt;stroke-linejoin:miter;stroke-miterlimit:4;stroke-dasharray:none;stroke-opacity:1"
           d="m -137.88126,52.228789 c -0.0963,2.339298 -0.13111,3.575005 1.57854,5.284647"
           id="path903" />
        <path
           style="fill:none;stroke:#000000;stroke-width:1.6;stroke-linecap:butt;stroke-linejoin:miter;stroke-miterlimit:4;stroke-dasharray:none;stroke-opacity:1"
           d="m -135.75367,52.091526 c -0.0454,0.705403 0.0587,1.423284 0,2.127583 -0.067,0.804222 -0.48722,2.643876 -0.2059,3.43159 0.20506,0.574152 0.63652,0.954773 0.96085,1.441268 0.0523,0.07848 0.0265,0.190159 0.0686,0.274526 0.27263,0.545261 0.34316,1.084451 0.34316,1.715797"
           id="path905" />
        <path
           style="fill:none;stroke:#000000;stroke-width:1.6;stroke-linecap:butt;stroke-linejoin:miter;stroke-miterlimit:4;stroke-dasharray:none;stroke-opacity:1"
           d="m -136.43999,62.386291 c -0.29972,-0.569709 5.11768,-2.466205 5.90234,-3.362957 0.21726,-0.248304 0.33783,-0.570114 0.54905,-0.823582 0.52475,-0.629695 1.16989,-1.345557 1.78443,-1.92169 1.09903,-1.03034 3.15706,-2.508811 3.15706,-4.186536"
           id="path907" />
        <path
           style="fill:none;stroke:#000000;stroke-width:1.6;stroke-linecap:butt;stroke-linejoin:miter;stroke-miterlimit:4;stroke-dasharray:none;stroke-opacity:1"
           d="m -130.53765,57.444803 c -0.25074,-1.125569 -0.2059,-2.287185 -0.2059,-3.431587 0,-1.164887 0.31773,-1.921005 0.54905,-3.019801 0.15244,-0.724093 0.18204,-2.566199 0,-3.294324 -0.24604,-0.984171 -1.09022,-1.982444 -1.78442,-2.676639 -0.0855,-0.0855 -0.68632,-0.499139 -0.68632,-0.617688"
           id="path909" />
        <path
           style="fill:none;stroke:#000000;stroke-width:1.6;stroke-linecap:butt;stroke-linejoin:miter;stroke-miterlimit:4;stroke-dasharray:none;stroke-opacity:1"
           d="m -130.81218,51.062048 c -0.32742,-0.436549 -0.49999,-0.65291 -0.82358,-1.235371 -0.37455,-0.674182 -0.60524,-1.823601 -1.02948,-2.402113 -0.25988,-0.354383 -0.58594,-0.659815 -0.82358,-1.029478 -0.14427,-0.224419 -0.25672,-0.46922 -0.41179,-0.686318 -0.50993,-0.713899 -0.0344,0.119983 -0.54905,-0.480423 -0.39462,-0.46038 -0.82391,-1.238279 -0.89222,-1.853057 -0.0322,-0.289409 0.0686,-0.580958 0.0686,-0.823581"
           id="path911" />
        <path
           style="fill:none;stroke:#000000;stroke-width:1.6;stroke-linecap:butt;stroke-linejoin:miter;stroke-miterlimit:4;stroke-dasharray:none;stroke-opacity:1"
           d="m -133.55745,63.758928 c 0.0915,-0.06863 0.16832,-0.163414 0.27452,-0.205896 0.68485,-0.273936 0.71222,-0.04791 1.5099,-0.617685 0.0931,-0.06649 0.12501,-0.193644 0.2059,-0.274527 0.0189,-0.01886 1.12489,-1.016701 1.23537,-1.098108 0.64189,-0.472972 1.38558,-0.700878 1.92169,-1.304004 0.63061,-0.709433 1.09837,-1.603801 1.71579,-2.333482 0.16837,-0.198975 0.67564,-0.699826 0.89222,-0.823582 0.12306,-0.07032 0.34316,0.0016 0.34316,-0.137263"
           id="path913" />
        <path
           style="fill:none;stroke:#000000;stroke-width:1.6;stroke-linecap:butt;stroke-linejoin:miter;stroke-miterlimit:4;stroke-dasharray:none;stroke-opacity:1"
           d="m -131.08671,66.023778 c 1.18178,-0.0047 2.3609,-0.170802 3.43159,-0.686319 0.19904,-0.09583 1.77272,-1.055071 1.85306,-1.098108 0.41598,-0.222848 1.69119,-0.756005 2.05895,-0.892215 0.22398,-0.08295 0.47047,-0.103648 0.68632,-0.205893 0.67292,-0.318752 1.26391,-0.86214 1.85306,-1.304005 0.0676,-0.0507 0.48042,-0.389366 0.48042,-0.06863"
           id="path915" />
        <path
           style="fill:none;stroke:#000000;stroke-width:1.6;stroke-linecap:butt;stroke-linejoin:miter;stroke-miterlimit:4;stroke-dasharray:none;stroke-opacity:1"
           d="m -126.9688,65.268826 c 1.08793,-0.292973 2.12276,-0.344061 3.22569,-0.137263 0.64675,0.121266 1.03811,0.35066 1.64717,0.274529 1.39049,-0.173813 2.6002,-0.613788 3.84338,-1.235374"
           id="path917" />
        <path
           style="fill:none;stroke:#000000;stroke-width:1.6;stroke-linecap:butt;stroke-linejoin:miter;stroke-miterlimit:4;stroke-dasharray:none;stroke-opacity:1"
           d="m -125.93932,69.455365 c 0.50329,0 1.00757,0.0314 1.50989,0 2.32918,-0.145574 4.56994,-0.538956 6.93181,-0.617686 0.27453,0 0.54906,0 0.82359,0 0.0457,0.02289 0.0864,0.06299 0.13726,0.06863 0.5033,0.05592 0.48042,-0.168129 0.48042,0.06863"
           id="path919" />
        <path
           style="fill:none;stroke:#000000;stroke-width:1.6;stroke-linecap:butt;stroke-linejoin:miter;stroke-miterlimit:4;stroke-dasharray:none;stroke-opacity:1"
           d="m -139.45979,66.298304 c 0.50134,1.838246 0.62787,1.780492 0.41179,4.049276 -0.0522,0.548388 -0.60125,1.850152 -0.41179,2.608008 0.29159,1.166334 2.35789,1.652043 3.36296,1.853057"
           id="path921" />
        <path
           style="fill:none;stroke:#000000;stroke-width:1.6;stroke-linecap:butt;stroke-linejoin:miter;stroke-miterlimit:4;stroke-dasharray:none;stroke-opacity:1"
           d="m -136.09683,68.769049 c 1.38953,2.202995 3.54059,4.268602 3.77475,7.000441 0.12048,1.405602 -0.16201,2.850716 -0.20589,4.255172 -0.01,0.309221 -0.0893,0.964089 0.13726,1.304002 0.007,0.01058 0.32784,0 0.34316,0"
           id="path923" />
        <path
           style="fill:none;stroke:#000000;stroke-width:1.6;stroke-linecap:butt;stroke-linejoin:miter;stroke-miterlimit:4;stroke-dasharray:none;stroke-opacity:1"
           d="m -132.45934,74.877278 c 1.07131,1.635916 2.23314,3.209195 3.36295,4.804225 0.33272,0.469712 0.62086,0.964017 1.02948,1.372634"
           id="path925" />
        <path
           style="fill:none;stroke:#000000;stroke-width:1.6;stroke-linecap:butt;stroke-linejoin:miter;stroke-miterlimit:4;stroke-dasharray:none;stroke-opacity:1"
           d="m -129.85134,71.582951 c 0.62703,1.016035 1.49488,1.857529 2.19622,2.813905 0.70522,0.961665 0.92543,1.456404 1.44127,2.402112 0.54226,0.994151 1.21514,2.032381 1.64716,3.088428 0.3136,0.766586 0.43016,1.79554 0.54906,2.608009 0.16393,1.120219 0.19721,2.026385 0.48042,3.088431 0.11012,0.412951 0.18973,0.836475 0.34316,1.235371 0.0821,0.213524 0.33944,0.766088 0.41179,0.549055 0.0667,-0.200093 0.0706,-0.417591 0.13726,-0.617685"
           id="path927" />
        <path
           style="fill:none;stroke:#000000;stroke-width:1.6;stroke-linecap:butt;stroke-linejoin:miter;stroke-miterlimit:4;stroke-dasharray:none;stroke-opacity:1"
           d="m -125.4589,77.485284 c 0.95267,-0.211704 0.40677,-0.137263 1.64716,-0.137263 1.49224,0 1.70309,0.05554 2.95117,0.823582"
           id="path929" />
        <path
           style="fill:#ffaaaa;stroke:#000000;stroke-width:1.6;stroke-linecap:butt;stroke-linejoin:miter;stroke-miterlimit:4;stroke-dasharray:none;stroke-opacity:1"
           d="m -124.08627,79.544237 c 1.65501,0.675204 3.098,1.690338 4.5297,2.745272 0.20603,0.15181 0.65961,0.686318 0.96085,0.686318"
           id="path931" />
      </g>
      <g
         id="eye"
         transform="translate(-95.521104,-153.67514)">
        <g
           id="g979"
           transform="translate(0,43.924343)">
          <ellipse
             style="opacity:1;fill:#f9f9f9;stroke:#000000;stroke-width:1.6;stroke-linecap:round;stroke-linejoin:round;stroke-miterlimit:4;stroke-dasharray:none;paint-order:markers fill stroke"
             id="path939"
             cx="138.0193"
             cy="290.59766"
             rx="34.046131"
             ry="31.134333" />
          <ellipse
             style="opacity:1;fill:#d45500;stroke:#000000;stroke-width:1.6;stroke-linecap:round;stroke-linejoin:round;stroke-miterlimit:4;stroke-dasharray:none;paint-order:markers fill stroke"
             id="path941"
             cx="128.79861"
             cy="293.60654"
             rx="21.947159"
             ry="18.064758" />
          <ellipse
             style="opacity:1;fill:#000000;stroke:#000000;stroke-width:1.6;stroke-linecap:round;stroke-linejoin:round;stroke-miterlimit:4;stroke-dasharray:none;paint-order:markers fill stroke"
             id="path943"
             cx="126.08096"
             cy="294.383"
             rx="10.868281"
             ry="10.480042" />
          <ellipse
             style="opacity:1;fill:#ffffff;stroke:#000000;stroke-width:1.6;stroke-linecap:round;stroke-linejoin:round;stroke-miterlimit:4;stroke-dasharray:none;paint-order:markers fill stroke"
             id="path945"
             cx="132.9722"
             cy="302.14777"
             rx="3.30004"
             ry="3.5912201" />
        </g>
      </g>
      <g
         id="kidney"
         transform="matrix(0.60825652,0,0,0.76795248,5.7756537,112.88302)">
        <g
           id="g985">
          <path
             style="fill:#d45500;stroke:#000000;stroke-width:1.6;stroke-linecap:butt;stroke-linejoin:miter;stroke-miterlimit:4;stroke-dasharray:none;stroke-opacity:1"
             d="m 126.37212,156.2666 c -5.86752,4.78069 -10.96142,9.51147 -8.92952,13.78252 0.36426,9.34542 4.30112,8.69787 6.01772,18.82964 -2.28917,7.05526 -5.17687,7.82595 -7.95892,9.706 -4.27725,0.86237 -8.58933,2.17755 -12.6178,-0.19412 -4.980713,-1.7672 -9.483915,-4.22896 -11.647201,-10.09424 -4.044326,-6.05516 -2.83633,-12.66321 -2.135319,-19.21788 -0.268984,-5.30595 2.016429,-10.61189 4.270642,-15.91784 3.620543,-3.1763 8.042558,-8.58671 10.482478,-8.92952 3.96693,-3.36582 8.01237,-2.41106 12.22956,-2.52356 4.76347,0.55045 7.08978,3.05063 9.31776,5.62948 1.66499,2.97651 2.15078,5.95301 0.9706,8.92952 z"
             id="path949"
             sodipodi:nodetypes="cccccccccccc" />
          <path
             style="fill:#d45500;stroke:#000000;stroke-width:1.6;stroke-linecap:butt;stroke-linejoin:miter;stroke-miterlimit:4;stroke-dasharray:none;stroke-opacity:1"
             d="m 147.32051,151.22754 c 5.27261,5.24391 9.80424,10.37489 7.51074,14.46574 -1.08811,9.28445 -4.82781,8.31755 -7.28013,18.27528 1.64758,7.21865 4.36731,8.22259 6.8978,10.32357 4.0505,1.2088 8.09882,2.87175 12.16495,0.837 4.93534,-1.35453 9.46569,-3.4403 12.01149,-9.10932 4.37203,-5.70464 3.73024,-12.38927 3.57241,-18.97929 0.67764,-5.26626 -1.10432,-10.74112 -2.85625,-16.21345 -3.23558,-3.46137 -7.06664,-9.21484 -9.38899,-9.75577 -3.55416,-3.67855 -7.52483,-3.05736 -11.57667,-3.5139 -4.63016,0.15959 -7.06743,2.46143 -9.4162,4.84971 -1.83807,2.83059 -2.54069,5.75748 -1.63915,8.82043 z"
             id="path949-5"
             sodipodi:nodetypes="cccccccccccc" />
          <path
             style="fill:#37abc8;stroke:#000000;stroke-width:0.8;stroke-linecap:butt;stroke-linejoin:miter;stroke-miterlimit:4;stroke-dasharray:none;stroke-opacity:1"
             d="m 128.89568,144.42528 0.38824,23.7797 v 1.55296 l -5.14418,-0.43677 c 0,0 -1.74708,-0.33971 -2.37797,-0.43677 -0.63089,-0.0971 -0.9706,-0.33971 -2.03826,-0.33971 -1.06766,0 -2.76621,-0.63089 -2.76621,-0.63089 0,0 2.08679,0.9706 2.28091,1.01913 0.19412,0.0485 0.77648,0.14559 0.87354,0.33971 0.0971,0.19412 0.19412,0.72795 0.19412,0.9706 0,0.24265 -0.0971,0.53383 -0.4853,0.67942 -0.38824,0.14559 -0.4853,0.29118 -1.01913,0.38824 -0.53383,0.0971 -1.21325,0.19412 -1.21325,0.19412 l -0.0485,0.82501 c 0,0 1.11619,-0.14559 1.74708,-0.33971 0.63089,-0.19412 1.65002,-0.29118 2.47503,-0.29118 0.82501,0 1.9412,0 2.52356,0.19412 0.58236,0.19412 2.28091,0.33971 2.76621,0.63089 0.4853,0.29118 1.79561,1.21325 1.89267,1.60149 0.0971,0.38824 2.08679,31.98127 2.08679,31.98127 0,0 1.65002,0.53383 1.98973,0.58236 0.33971,0.0485 1.11619,-0.14559 1.11619,-0.14559 l -0.19412,-35.57249 c 0,0 0.29118,-0.77648 0.63089,-1.21325 0.33971,-0.43677 0.9706,-1.31031 2.28091,-1.98973 1.31031,-0.67942 4.65888,-1.50443 5.3383,-1.50443 0.67942,0 2.32944,0.19412 3.00886,0.24265 0.67942,0.0485 2.62062,0.24265 2.62062,0.24265 0,0 0.72795,0.33971 1.21325,0.4853 0.4853,0.14559 1.60149,0.87354 1.79561,1.16472 0.19412,0.29118 2.76621,3.00886 2.76621,3.00886 l 0.24265,-1.06766 c 0,0 -1.26178,-1.50443 -1.69855,-1.98973 -0.43677,-0.4853 -1.55296,-1.06766 -2.03826,-1.50443 -0.4853,-0.43677 -1.01913,-0.24265 -0.63089,-0.58236 0.38824,-0.33971 0.87354,-0.38824 0.87354,-0.38824 l 4.31917,0.92207 c 0,0 0.16614,-1.10433 0.16614,-1.10433 0,0 -2.49558,-0.0604 -3.02941,-0.25451 -0.53383,-0.19412 -0.9706,-0.33971 -1.06766,-0.58236 -0.0971,-0.24265 -1.06766,-0.58236 0.24265,-1.16472 1.31031,-0.58236 1.4559,-0.4853 1.65002,-0.58236 0.19412,-0.0971 2.52356,-1.06766 2.52356,-1.06766 l -0.24265,-1.11619 c 0,0 -1.74708,1.50443 -3.63975,1.69855 -1.89267,0.19412 -4.02799,1.01913 -6.21184,1.11619 -2.18385,0.0971 -4.22211,-0.24265 -5.48389,0.19412 -1.26178,0.43677 -3.49416,1.11619 -4.61035,1.74708 -1.11619,0.63089 -2.03826,0.77648 -2.03826,0.77648 l 0.53383,-21.93556 c 0,0 0.53383,-0.14559 -0.67942,-0.24265 -1.21325,-0.0971 -0.87354,-0.29118 -1.84414,-0.14559 -0.9706,0.14559 -2.03826,0.29118 -2.03826,0.29118 z"
             id="path971" />
          <path
             style="fill:#ff2a2a;stroke:#000000;stroke-width:0.8;stroke-linecap:butt;stroke-linejoin:miter;stroke-miterlimit:4;stroke-dasharray:none;stroke-opacity:1"
             d="m 135.54429,143.6488 2.28091,-0.4853 1.11619,0.24265 1.16472,18.19875 c 0,0 0.53383,-0.14559 1.55296,-0.33971 1.01913,-0.19412 1.74708,-0.67942 2.62062,-0.82501 0.87354,-0.14559 2.23238,-0.33971 3.34857,-0.29118 1.11619,0.0485 1.9412,0.24265 2.76621,0.29118 0.82501,0.0485 4.02799,-0.53383 4.02799,-0.53383 l -0.29118,0.43677 c 0,0 -5.87213,0.67942 -6.26037,0.67942 -0.38824,0 -2.03826,0.14559 -3.10592,0.33971 -1.06766,0.19412 -3.00886,0.67942 -3.00886,0.67942 l -1.16472,1.65002 -4.12505,43.09464 -2.32941,-0.24265 1.89264,-33.04893 c 0,0 -0.63089,-0.53383 -1.16472,-0.92207 -0.53383,-0.38824 -5.92066,-3.44563 -6.16331,-3.63975 -0.24265,-0.19412 -2.37797,-0.9706 -3.49416,-1.16472 -1.11619,-0.19412 -3.83387,-0.19412 -3.83387,-0.19412 l -4.41623,0.33971 v 0 l 0.82501,-0.92207 1.50443,0.19412 1.06766,-0.0485 c 0,0 0.43677,-0.0485 0,-0.4853 -0.43677,-0.43677 -1.01913,-0.72795 -1.35884,-0.87354 -0.33971,-0.14559 -1.11619,-1.06766 -1.11619,-1.06766 l 0.33971,-0.29118 1.16472,0.9706 c 0,0 0.14559,0.4853 0.43677,0.19412 0.29118,-0.29118 0.33971,-0.4853 0.29118,-0.67942 -0.0485,-0.19412 -0.4853,-1.01913 -0.4853,-1.01913 l -0.43677,-0.92207 c 0,0 0,-0.4853 0.14559,-0.24265 0.14559,0.24265 0.0971,0.72795 0.67942,1.16472 0.58236,0.43677 1.9412,1.11619 2.32944,1.26178 0.38824,0.14559 2.62062,0.33971 2.81474,0.33971 0.19412,0 1.40737,-0.0971 1.60149,-0.0971 0.19412,0 0.63089,0 1.55296,0.19412 0.92207,0.19412 2.57209,0.33971 3.15445,0.82501 0.58236,0.4853 5.24124,3.44563 5.24124,3.44563 z"
             id="path973" />
        </g>
      </g>
      <g
         id="stomach"
         transform="matrix(0.61022759,0,0,0.52605762,58.800958,153.24288)">
        <path
           style="fill:#ff5555;stroke:#000000;stroke-width:1.71828;stroke-linecap:butt;stroke-linejoin:miter;stroke-miterlimit:4;stroke-dasharray:none;stroke-opacity:1"
           d="m 122.10148,13.753359 c 0.58236,2.910456 1.16472,4.477624 1.16472,4.477624 0,0 0.77648,2.238811 1.35884,3.134336 0.58236,0.895526 3.8824,2.686574 3.8824,2.686574 l 4.07652,-7.164197 5.43536,-3.582099 c 0,0 5.24124,-2.238812 6.98832,-2.238812 1.74708,0 5.24124,-0.671643 7.18244,-0.671643 1.9412,0 6.21184,2.01493 6.98832,2.686574 0.77648,0.671643 3.8824,1.343287 4.65888,3.134336 0.77648,1.79105 4.853,7.835841 5.24124,8.731366 0.38824,0.895525 2.9118,8.059723 3.10592,9.85077 0.19412,1.791051 -0.38824,12.761227 -0.38824,12.761227 0,0 -1.55296,9.626889 -2.13532,10.970176 -0.58236,1.34329 -5.24124,12.537347 -5.8236,13.432873 -0.58236,0.895524 -6.7942,5.149265 -9.706,6.268671 -2.9118,1.119406 -7.57068,3.134338 -10.09424,3.805979 -2.52356,0.671645 -6.60008,1.56717 -10.09424,1.791052 -3.49416,0.22388 -0.58236,1.567167 -8.15304,-0.447762 -7.57068,-2.014931 -7.37656,-0.895525 -11.25896,-2.910457 -3.8824,-2.014932 -8.34716,-4.701505 -8.34716,-4.701505 0,0 -3.10592,-1.343287 -3.30004,-0.447761 -0.19412,0.895526 0.19412,3.134334 0.58236,4.477625 0.38824,1.343286 3.49416,6.716432 3.49416,6.716432 0,0 -3.68828,2.910457 -5.04712,3.134338 -1.35884,0.22388 -3.105919,0.447761 -4.464758,0 C 96.0894,89.201315 96.865881,89.201315 96.0894,88.52967 95.312919,87.858024 92.206999,79.126661 91.624641,76.440087 91.04228,73.753511 90.84816,68.828126 90.84816,68.828126 c 0,0 -2.135319,-6.044791 -0.77648,-8.059723 1.358841,-2.014928 2.9118,-6.268671 5.435362,-6.492551 2.523558,-0.223882 7.376558,0.895524 8.347158,1.343285 0.9706,0.447762 1.16472,0.671645 4.65888,1.567167 3.49416,0.895526 4.65888,0.895526 7.18244,0.895526 2.52356,0 7.18244,2.014932 9.51188,0 2.32944,-2.014931 3.68828,-4.925384 3.68828,-6.492552 0,-1.56717 1.35884,-6.492555 -0.19412,-9.179128 -1.55296,-2.686577 -1.16472,-3.80598 -3.49416,-6.940316 -2.32944,-3.134338 -3.8824,-5.373151 -5.43536,-7.388079 -1.55296,-2.01493 -1.9412,-2.238812 -3.10592,-4.925388 -1.16472,-2.686573 -1.66667,-3.487033 -1.66667,-3.487033 1.69247,-1.54751 2.2945,-0.386847 5.92976,-4.166397 z"
           id="path947"
           sodipodi:nodetypes="ccscccsssssscssssssscsscsssscsssssssssssccc" />
        <path
           style="fill:#c83737;stroke:none;stroke-width:0.264583px;stroke-linecap:butt;stroke-linejoin:miter;stroke-opacity:1"
           d="m 169.52051,43.787078 c 0,0 -3.43159,7.961289 -5.76507,10.569294 -2.33348,2.608009 -3.15706,4.117909 -5.35328,6.314125 -2.19622,2.196217 -7.68676,7.412234 -10.29477,9.059397 -2.60801,1.647161 -4.66696,2.745272 -7.27497,3.706117 -2.60801,0.960845 -8.51034,1.784424 -9.47118,2.470742 -0.96085,0.686319 -1.09811,2.333482 -0.4118,3.157062 0.68632,0.823581 3.56886,2.470745 4.66697,2.882537 1.0981,0.41179 15.09899,-4.255172 15.09899,-4.255172 0,0 8.51034,-4.255169 8.92213,-5.078751 0.41179,-0.823582 3.43159,-5.35328 4.80423,-8.373078 1.37263,-3.019798 4.52969,-9.882979 4.52969,-11.255613 0,-1.372637 0.54906,-9.19666 0.54906,-9.19666 z"
           id="path987" />
      </g>
    </g>
    <g
       id="brain"
       transform="translate(-701.93793,-543.53601)">
      <path
         style="opacity:1;fill:#e6e6e6;stroke:#000000;stroke-width:1.6;stroke-linecap:butt;stroke-linejoin:miter;stroke-miterlimit:4;stroke-dasharray:none;stroke-opacity:1"
         d="m 102.35532,103.09025 c -0.82809,-5.047894 2.11034,-7.716924 8.23582,-8.373074 2.44905,-5.66063 6.75351,-5.38395 10.98109,-5.35328 2.46878,-6.23748 6.46282,-9.80578 13.31456,-8.37308 3.52446,-2.93785 8.23684,-4.24232 14.6872,-3.15706 3.3344,-2.68787 7.19244,-2.23385 11.25562,-0.54906 2.91138,-1.54435 5.66159,-0.98191 6.74304,1.13361 5.00547,-2.81686 5.05646,0.42174 7.12058,1.19987 4.09394,0.8519 10.33656,-0.82561 11.6674,6.58865 4.62407,0.87325 6.29409,4.01884 7.40523,7.59433 0,0 0.56294,1.97622 0.83058,2.97497 2.54437,0.69054 2.93017,2.46037 1.81693,4.979714 2.05058,1.54833 2.76638,3.2635 1.88919,5.17779 4.56897,5.60823 2.85348,7.88939 1.37263,10.29477 -1.62958,1.57015 -1.03621,4.69975 -2.03217,6.14318 -1.35535,1.96428 -4.13382,2.20913 -5.38006,4.15159 -5.10454,1.88009 -10.11387,3.12547 -14.13815,-2.19622 -0.43612,2.7258 -5.49441,4.82243 -10.1505,4.54819 -4.40149,-0.25926 -8.45816,-2.85621 -7.41923,-1.66565 2.29706,2.63231 -14.1081,8.85328 -17.98153,3.15706 -4.71197,1.46239 -6.0881,-1.15236 -7.59825,-3.6033 -4.94612,1.30779 -4.46913,-1.32849 -5.71631,-2.71082 -5.10697,2.77702 -7.25494,-2.11635 -8.97928,-1.88726 -6.13775,0.81544 -7.21564,0.98237 -8.4532,-1.26981 -8.40225,4.51826 -8.43472,-0.81026 -11.11835,-3.0198 -0.48231,-2.25445 -3.067563,-3.38707 -2.163643,-6.73468 0.878753,-3.25442 -0.770924,-6.54918 3.536283,-10.01147"
         id="path933"
         sodipodi:nodetypes="cccccccccsccccsccsscccsccsc" />
      <path
         style="fill:#ffaaaa;stroke:#000000;stroke-width:1.6;stroke-linecap:butt;stroke-linejoin:miter;stroke-miterlimit:4;stroke-dasharray:none;stroke-opacity:1"
         d="m 192.26296,127.52317 1.16674,2.88253 c 0,0 0.2059,1.57853 0.2059,2.33348 0,0.75495 -0.13726,1.99032 -0.75495,2.74528 -0.61769,0.75495 -1.09811,1.37263 -1.85306,2.05895 -0.75495,0.68632 -1.44127,1.78443 -2.67664,1.92169 -1.23537,0.13726 -2.95117,0.27453 -3.91201,0.13726 -0.96085,-0.13726 -2.67664,-0.48042 -5.42191,-1.16674 -2.74527,-0.68632 -3.56885,-1.09811 -5.8337,-1.71579 -2.26485,-0.61769 -2.40212,-1.09811 -4.18654,-1.44127 -1.78443,-0.34316 -0.61769,0.34316 -3.63749,-1.02948 -3.0198,-1.37263 -5.6278,-4.04927 -5.6278,-4.04927 l 0.89221,-2.33348 17.5011,-2.53938 14.13815,2.19622"
         id="path935" />
      <path
         style="fill:#c8b7b7;stroke:#000000;stroke-width:1.6;stroke-linecap:butt;stroke-linejoin:miter;stroke-miterlimit:4;stroke-dasharray:none;stroke-opacity:1"
         d="m 154.44685,133.21961 c 1.304,0.82358 2.33348,1.23537 2.88253,1.78442 0.54906,0.54906 2.47075,1.92169 2.88254,2.40212 0.41179,0.48042 3.15706,4.1179 3.50022,4.52969 0.34316,0.41179 2.67664,4.7356 2.95117,5.14739 0.27452,0.41179 1.5099,2.8139 2.05895,2.8139 0.54905,0 3.56885,-0.54905 3.63748,-0.82358 0.0686,-0.27453 0.0686,-0.68632 0.0686,-0.68632 l -1.50989,-9.26529 -0.27453,-3.29433 -10.91245,-5.6278 z"
         id="path937" />
      <path
         style="fill:none;stroke:#000000;stroke-width:1.165;stroke-linecap:butt;stroke-linejoin:miter;stroke-miterlimit:4;stroke-dasharray:none;stroke-opacity:1"
         d="m 114.33668,94.827621 c 1.46041,1.099867 4.61553,1.67342 6.50302,1.358839 0.0714,-0.01188 0.12942,-0.06471 0.19412,-0.09706 0.19412,-0.03235 0.38614,-0.08196 0.58236,-0.09706 0.50789,-0.03907 1.56504,0.182044 1.9412,-0.194119 0.64607,-0.64607 -0.14199,0.0674 0.0971,-0.291179 0.11805,-0.17707 0.62672,-0.626719 0.77648,-0.776481 0.48352,-0.483516 1.06832,-0.777137 1.55296,-1.26178"
         id="path1054" />
      <path
         style="fill:none;stroke:#000000;stroke-width:1.165;stroke-linecap:butt;stroke-linejoin:miter;stroke-miterlimit:4;stroke-dasharray:none;stroke-opacity:1"
         d="m 116.76318,96.96294 c -0.19695,1.102749 -1.25816,2.011164 -1.9412,2.814741 -1.96914,2.316639 -3.51609,3.288369 -6.40596,4.076519 -0.77345,0.21094 -3.59424,0.39126 -3.78534,0.58236"
         id="path1056" />
      <path
         style="fill:none;stroke:#000000;stroke-width:1.165;stroke-linecap:butt;stroke-linejoin:miter;stroke-miterlimit:4;stroke-dasharray:none;stroke-opacity:1"
         d="m 112.00724,103.17478 c 1.07721,1.79131 2.46935,3.49309 4.07652,4.853 0.95556,0.80855 0.22665,-0.0645 1.16472,0.87354 0.51377,0.51376 0.85038,1.23862 1.35884,1.74708 0.48554,0.48554 0.94863,0.77018 1.4559,1.16472 1.28913,1.00265 1.49747,1.06766 3.10592,1.06766"
         id="path1058" />
      <path
         style="fill:none;stroke:#000000;stroke-width:1.165;stroke-linecap:butt;stroke-linejoin:miter;stroke-miterlimit:4;stroke-dasharray:none;stroke-opacity:1"
         d="m 107.7366,105.01892 c -0.27188,2.0763 -1.12266,3.46675 -2.52356,4.95006 -0.10396,0.11008 -1.4211,1.29658 -1.35884,1.35884 0.0458,0.0457 0.12941,0 0.19412,0 0.61471,0 1.23364,-0.0718 1.84414,0 0.49882,0.0587 0.98227,0.22108 1.4559,0.38824 0.34935,0.1233 0.6132,1.1712 0.67942,1.35884 0.30515,0.8646 0.56672,1.81604 0.67942,2.71768 0.067,0.5356 -0.0971,1.02585 -0.0971,1.55296"
         id="path1060" />
      <path
         style="fill:none;stroke:#000000;stroke-width:1.165;stroke-linecap:butt;stroke-linejoin:miter;stroke-miterlimit:4;stroke-dasharray:none;stroke-opacity:1"
         d="m 110.93958,115.21022 c 0.60961,1.48196 1.33496,2.52148 2.52356,3.59122 0.28958,0.26062 0.52252,0.60747 0.87354,0.77648 0.91302,0.4396 1.95047,0.5531 2.9118,0.87354 1.40052,0.46684 2.95115,1.05168 4.46476,0.77648 0.76146,-0.13845 0.90998,-0.64911 1.55296,-0.9706"
         id="path1062" />
      <path
         style="fill:none;stroke:#000000;stroke-width:1.165;stroke-linecap:butt;stroke-linejoin:miter;stroke-miterlimit:4;stroke-dasharray:none;stroke-opacity:1"
         d="m 126.08094,101.52476 c 0.85231,0 0.13858,0.0832 0.9706,-0.29118 0.24899,-0.11204 1.72524,-0.60609 2.13532,-0.9706 0.93617,-0.832147 1.75924,-2.319219 2.4265,-3.397099 0.15232,-0.246047 0.28077,-0.507799 0.38824,-0.776481 0.0906,-0.226473 -0.11,-0.194119 0.0971,-0.194119"
         id="path1064" />
      <path
         style="fill:none;stroke:#000000;stroke-width:1.165;stroke-linecap:butt;stroke-linejoin:miter;stroke-miterlimit:4;stroke-dasharray:none;stroke-opacity:1"
         d="m 130.0604,100.26298 c 4.84059,1.8213 9.47317,5.66875 10.77366,10.87072"
         id="path1066" />
      <path
         style="fill:none;stroke:#000000;stroke-width:1.165;stroke-linecap:butt;stroke-linejoin:miter;stroke-miterlimit:4;stroke-dasharray:none;stroke-opacity:1"
         d="m 136.8546,96.768821 c 0.0747,1.437354 0.91481,2.498868 1.9412,3.494159 2.95801,2.86837 6.57855,3.10592 10.48248,3.10592"
         id="path1068" />
      <path
         style="fill:none;stroke:#000000;stroke-width:1.165;stroke-linecap:butt;stroke-linejoin:miter;stroke-miterlimit:4;stroke-dasharray:none;stroke-opacity:1"
         d="m 140.2517,84.053959 c -0.59263,0.148159 -0.70737,0.121272 -1.26178,0.776481 -1.7192,2.031788 -2.63191,5.385647 -2.4265,8.05598 0.0277,0.360657 0.14297,0.709576 0.19412,1.06766 0.0183,0.128114 -0.0915,0.29673 0,0.388242 0.0825,0.08248 0.15723,-0.180515 0.19412,-0.291182"
         id="path1070" />
      <path
         style="fill:none;stroke:#000000;stroke-width:1.165;stroke-linecap:butt;stroke-linejoin:miter;stroke-miterlimit:4;stroke-dasharray:none;stroke-opacity:1"
         d="m 136.27224,89.295202 c -0.44206,-0.294709 -1.20742,-0.829773 -1.65002,-0.9706 -1.13427,-0.360905 -3.88503,-0.135359 -5.04712,0.09706 -0.40967,0.08193 -1.06691,-0.0016 -1.26178,0.388239"
         id="path1072" />
      <path
         style="fill:none;stroke:#000000;stroke-width:1.165;stroke-linecap:butt;stroke-linejoin:miter;stroke-miterlimit:4;stroke-dasharray:none;stroke-opacity:1"
         d="m 146.0753,80.75392 c 0.0324,0.355888 0.0748,0.711002 0.0971,1.06766 0.0387,0.619278 -0.12174,1.33251 0,1.9412 0.13776,0.688803 1.16472,1.659006 1.16472,2.13532"
         id="path1074" />
      <path
         style="fill:none;stroke:#000000;stroke-width:1.165;stroke-linecap:butt;stroke-linejoin:miter;stroke-miterlimit:4;stroke-dasharray:none;stroke-opacity:1"
         d="m 147.33712,85.8981 c 0.16175,0.09706 0.60472,0.145182 0.48526,0.291182 -0.33036,0.403751 -0.92745,0.483132 -1.35884,0.776478 -0.38024,0.258567 -0.75251,0.538694 -1.06766,0.87354 -0.20919,0.222263 -0.38372,0.488659 -0.4853,0.776481 -0.2283,0.646861 -0.40249,3.118569 -0.19412,3.785341 0.10789,0.345254 0.28465,0.669628 0.4853,0.9706 0.14063,0.210941 0.9172,0.856358 1.16472,0.9706 0.46419,0.214238 0.69691,0.105801 1.06766,0.291179"
         id="path1076" />
      <path
         style="fill:none;stroke:#000000;stroke-width:1.165;stroke-linecap:butt;stroke-linejoin:miter;stroke-miterlimit:4;stroke-dasharray:none;stroke-opacity:1"
         d="m 162.47844,84.151022 c -1.67741,1.344366 -5.23442,1.640046 -6.50302,3.494159 -1.71416,2.50531 -0.53722,6.186455 0.29118,8.735401 0.2119,0.651983 0.4296,1.302782 0.67942,1.941198 0.44858,1.14636 1.33939,2.01845 1.4559,3.30004 0.11139,1.2253 0.20879,3.68128 -0.38824,4.75594 -0.11347,0.20424 -1.16472,1.74042 -1.16472,1.16472"
         id="path1078" />
      <path
         style="fill:none;stroke:#000000;stroke-width:1.165;stroke-linecap:butt;stroke-linejoin:miter;stroke-miterlimit:4;stroke-dasharray:none;stroke-opacity:1"
         d="m 152.8695,110.26016 c 1.70006,2.99141 4.14751,5.10988 6.89126,7.08538 0.59441,0.42797 1.94083,1.4559 2.71768,1.4559"
         id="path1080" />
      <path
         style="fill:none;stroke:#000000;stroke-width:1.165;stroke-linecap:butt;stroke-linejoin:miter;stroke-miterlimit:4;stroke-dasharray:none;stroke-opacity:1"
         d="m 156.2666,116.08376 c -0.19412,0.0971 -0.40957,0.15986 -0.58236,0.29118 -0.63983,0.48627 -1.19529,1.0788 -1.84414,1.55296 -1.28998,0.94268 -3.46318,0.80972 -4.853,0.67942 -0.71053,-0.0666 -0.67942,0.0227 -0.67942,-0.29118"
         id="path1082" />
      <path
         style="fill:none;stroke:#000000;stroke-width:1.165;stroke-linecap:butt;stroke-linejoin:miter;stroke-miterlimit:4;stroke-dasharray:none;stroke-opacity:1"
         d="m 140.83406,111.1337 c -0.49036,0.87762 -1.90323,0.60961 -2.62062,1.26178 -2.74715,2.4974 -1.51121,6.4553 0.58236,8.92952 0.47397,0.56015 2.43875,2.56502 3.10592,2.62062 0.29017,0.0242 0.58256,-0.0108 0.87354,0 0.26695,0.01 4.56182,0.4986 4.56182,0.0971"
         id="path1084" />
      <path
         style="fill:none;stroke:#000000;stroke-width:1.165;stroke-linecap:butt;stroke-linejoin:miter;stroke-miterlimit:4;stroke-dasharray:none;stroke-opacity:1"
         d="m 166.36084,115.69552 c 0.14291,0.46657 -0.12504,0.98699 0,1.4559 0.43849,1.64435 2.02409,1.92518 3.49416,2.03826 0.38429,0.0296 0.40869,-0.0971 0.67942,-0.0971"
         id="path1086" />
      <path
         style="fill:none;stroke:#000000;stroke-width:1.165;stroke-linecap:butt;stroke-linejoin:miter;stroke-miterlimit:4;stroke-dasharray:none;stroke-opacity:1"
         d="m 167.4285,119.18968 c -0.11771,0.94167 -0.14517,1.57378 -0.67942,2.52356 -0.71988,1.27979 -2.54552,2.82206 -3.97946,3.30004 -0.30693,0.10231 -0.6477,0.0202 -0.9706,0 -0.73879,-0.0462 -0.9059,0.0647 -1.35884,-0.38824 -0.20293,-0.20293 -0.83512,-1.35884 -0.67942,-1.35884"
         id="path1088" />
      <path
         style="fill:none;stroke:#000000;stroke-width:1.165;stroke-linecap:butt;stroke-linejoin:miter;stroke-miterlimit:4;stroke-dasharray:none;stroke-opacity:1"
         d="m 166.4579,101.23358 c -1.3005,1.48616 -1.92749,1.52118 -1.84414,3.68828 0.0591,1.53697 0.90297,2.68327 2.4265,2.9118 0.48495,0.0727 1.50826,0.17667 2.03826,0 1.29738,-0.43246 2.87463,-1.76979 3.49416,-3.00886 0.41899,-0.83798 0.29051,-1.648 0.58236,-2.52356 0.14649,-0.43946 0.41745,-0.8289 0.58236,-1.26178 0.43389,-1.138951 0.32498,-2.801879 0.0971,-3.97946 -0.15064,-0.778311 -0.87354,-1.983478 -0.87354,-2.814741"
         id="path1090" />
      <path
         style="fill:none;stroke:#000000;stroke-width:1.165;stroke-linecap:butt;stroke-linejoin:miter;stroke-miterlimit:4;stroke-dasharray:none;stroke-opacity:1"
         d="m 160.73136,89.97462 c 1.3901,-0.178118 2.42569,0.679019 3.59122,1.261779 0.15093,0.07547 0.24218,-1.890339 0.29118,-2.135319 0.0229,-0.114385 0.14195,-0.395515 0.19412,-0.29118 0.30616,0.61231 -0.339,2.367341 -0.38824,3.10592 -0.0754,1.131094 -0.18342,2.751307 0,3.882401 0.0918,0.565909 0.34626,1.093835 0.4853,1.650021 0.0574,0.229595 0.24665,1.261779 0.4853,1.261779"
         id="path1092" />
      <path
         style="fill:none;stroke:#000000;stroke-width:1.165;stroke-linecap:butt;stroke-linejoin:miter;stroke-miterlimit:4;stroke-dasharray:none;stroke-opacity:1"
         d="m 169.17558,89.87756 c -0.17476,1.971495 -0.50069,3.20298 2.13532,3.20298 0.38959,0 0.79157,0.0149 1.16472,-0.09706 0.29235,-0.0877 0.53814,-0.294629 0.77648,-0.485299 1.18835,-0.950677 0.50541,-1.857544 1.35884,-2.426501 0.52144,-0.347623 0.95337,-0.499544 1.55296,-0.679419 1.88705,-0.566115 2.81054,-0.495305 4.27064,0.873541 0.43257,0.405527 0.87878,0.827807 1.16472,1.358839 0.097,0.180163 0.10261,0.399341 0.19412,0.582358 0.37441,0.748822 0.98826,1.358922 1.06766,2.232383 0.38823,4.270472 -2.087,8.882058 -2.9118,13.006038 -0.21604,1.08022 -0.36942,1.73982 0.29118,2.62062 0.082,0.10927 0.18883,0.29118 0.29118,0.29118"
         id="path1094" />
      <path
         style="fill:none;stroke:#000000;stroke-width:1.165;stroke-linecap:butt;stroke-linejoin:miter;stroke-miterlimit:4;stroke-dasharray:none;stroke-opacity:1"
         d="m 173.54328,112.97784 c 0.4206,0.25883 0.96131,0.38456 1.26178,0.77648 0.4757,0.62048 0.75581,1.38355 0.9706,2.13532 0.0712,0.24926 0.12453,3.16177 -0.0971,3.49416 -0.15438,0.23157 -0.29808,0.47349 -0.4853,0.67942 -0.1296,0.14256 -1.26178,0.93749 -1.26178,0.67942"
         id="path1096" />
      <path
         style="fill:none;stroke:#000000;stroke-width:1.165;stroke-linecap:butt;stroke-linejoin:miter;stroke-miterlimit:4;stroke-dasharray:none;stroke-opacity:1"
         d="m 176.26096,114.91904 c 1.24051,-0.68917 1.80295,-1.03007 3.3971,-1.65002 0.14461,-0.0562 1.13012,-0.15615 1.26178,-0.4853 0.42069,-1.05173 0.77303,-2.35703 1.4559,-3.30004 1.1187,-1.54487 2.53033,-2.47543 4.3677,-3.00886 0.63752,-0.18508 1.4524,-0.0971 2.13532,-0.0971"
         id="path1098" />
      <path
         style="fill:none;stroke:#000000;stroke-width:1.165;stroke-linecap:butt;stroke-linejoin:miter;stroke-miterlimit:4;stroke-dasharray:none;stroke-opacity:1"
         d="m 191.49938,102.78654 c 1.01273,1.26591 0.77855,0.92518 1.84414,2.52356 1.18476,1.77713 1.80328,3.07524 1.26178,5.24124 -0.0773,0.30913 -0.22124,0.60216 -0.38824,0.87354 -0.29204,0.47457 -0.38148,0.31902 -0.77648,0.58236 -0.19051,0.12701 -0.19412,0.3609 -0.19412,0.19412"
         id="path1100" />
      <path
         style="fill:none;stroke:#000000;stroke-width:1.165;stroke-linecap:butt;stroke-linejoin:miter;stroke-miterlimit:4;stroke-dasharray:none;stroke-opacity:1"
         d="m 190.81996,96.283519 c -1.15145,1.067039 -5.35711,1.677475 -6.01772,3.494162 -0.18514,0.509139 0,1.497929 0,2.038259"
         id="path1102" />
      <path
         style="fill:none;stroke:#000000;stroke-width:1.165;stroke-linecap:butt;stroke-linejoin:miter;stroke-miterlimit:4;stroke-dasharray:none;stroke-opacity:1"
         d="m 191.49938,115.0161 c 0.0647,0.29118 0.0287,0.62535 0.19412,0.87354 0.0762,0.11428 3.94841,3.29809 4.27064,2.81474 0.0864,-0.12961 0.2135,-0.427 0.29118,-0.58236"
         id="path1104" />
      <path
         style="fill:none;stroke:#000000;stroke-width:1.165;stroke-linecap:butt;stroke-linejoin:miter;stroke-miterlimit:4;stroke-dasharray:none;stroke-opacity:1"
         d="m 182.56986,115.69552 c 0.92536,0.94808 2.10951,1.51264 2.03826,3.00886 -0.0723,1.51812 -1.73033,2.38968 -2.81474,3.20298 -0.0259,0.0194 0.0657,0.008 0.0971,0 0.2285,-0.0571 0.45597,-0.11964 0.67942,-0.19412 1.99725,-0.66575 -0.768,0.11921 2.03826,-0.58236 1.17377,-0.29344 2.42651,-0.33969 3.30004,0.67942 0.25557,0.29816 0.32738,0.71562 0.58236,0.9706"
         id="path1106" />
      <path
         style="fill:none;stroke:#000000;stroke-width:1.165;stroke-linecap:butt;stroke-linejoin:miter;stroke-miterlimit:4;stroke-dasharray:none;stroke-opacity:1"
         d="m 168.78734,127.82802 c 1.81189,0.83514 3.9022,1.02456 5.8236,1.4559 1.78525,0.40077 0.95647,0.33736 2.4265,0.58236 1.03672,0.17279 2.37174,0.17961 3.30004,0.19412 1.87627,0.0293 3.75461,0.0781 5.62948,0 0.59009,-0.0246 0.57167,-0.29118 1.16472,-0.29118"
         id="path1108" />
      <path
         style="fill:none;stroke:#000000;stroke-width:1.165;stroke-linecap:butt;stroke-linejoin:miter;stroke-miterlimit:4;stroke-dasharray:none;stroke-opacity:1"
         d="m 166.16672,128.31332 c 1.55688,1.16906 3.69172,1.71587 5.53242,2.32944 2.10401,0.70134 4.52761,1.67454 6.7942,1.9412 1.64155,0.19313 3.30069,0.18361 4.95006,0.29118 1.18384,0.0772 2.50851,0.36266 3.68828,0.19412 1.12454,-0.16065 2.28893,-0.40238 3.3971,-0.67942"
         id="path1110" />
      <path
         style="fill:none;stroke:#000000;stroke-width:1.165;stroke-linecap:butt;stroke-linejoin:miter;stroke-miterlimit:4;stroke-dasharray:none;stroke-opacity:1"
         d="m 163.83728,129.18686 c 3.71711,2.37934 7.16163,4.4184 11.55014,5.24124 1.82989,0.34311 3.71032,0.37157 5.53242,0.77648 0.70361,0.15636 1.25044,0.45677 1.9412,0.58236 1.70832,0.31061 5.704,0.98187 7.2795,0.19412"
         id="path1112" />
    </g>
  </g>
</svg>
