<?xml version="1.0" encoding="UTF-8" standalone="no"?>
<svg
   xmlns:dc="http://purl.org/dc/elements/1.1/"
   xmlns:cc="http://creativecommons.org/ns#"
   xmlns:rdf="http://www.w3.org/1999/02/22-rdf-syntax-ns#"
   xmlns:svg="http://www.w3.org/2000/svg"
   xmlns="http://www.w3.org/2000/svg"
   xmlns:sodipodi="http://sodipodi.sourceforge.net/DTD/sodipodi-0.dtd"
   xmlns:inkscape="http://www.inkscape.org/namespaces/inkscape"
   width="210mm"
   height="297mm"
   viewBox="0 0 210 297"
   version="1.1"
   id="svg8"
   inkscape:version="1.0.2 (e86c870879, 2021-01-15, custom)"
   sodipodi:docname="protien.svg">
  <defs
     id="defs2">
    <clipPath
       clipPathUnits="userSpaceOnUse"
       id="clipPath873">
      <path
         id="path875"
         style="fill:#ff0000;fill-opacity:1;fill-rule:nonzero;stroke:none;stroke-width:0.264583"
         d="m 131.25865,115.12424 -24.38249,0.002 v 28.93261 h 10.17974 c -0.024,-0.016 -0.0471,-0.0342 -0.0667,-0.0563 -2e-4,-1.2e-4 -8e-4,-0.001 -10e-4,-0.001 -0.002,-0.002 -0.002,-0.005 -0.004,-0.007 -0.002,-0.002 -0.01,-0.008 -0.007,-0.006 0.002,0.001 0.004,0.003 0.006,0.004 -10e-4,-0.001 -0.002,-0.003 -0.003,-0.004 -0.16054,-0.1011 -0.23488,-0.20492 -0.11989,-0.0507 0.0219,0.0141 0.0431,0.028 0.0651,0.0419 0.007,0.002 0.0142,0.004 0.0212,0.006 0.004,0.001 -0.01,7.9e-4 -0.0129,-0.001 -0.003,-0.002 -0.005,-0.004 -0.008,-0.005 -0.0577,-0.0158 -0.11733,-0.0294 -0.16588,-0.0667 -0.0841,-0.0561 -0.0346,-0.0164 -0.0165,-0.0305 0.007,-0.005 -0.0307,7.9e-4 -0.0259,-0.006 0.006,-0.009 0.0203,-2.5e-4 0.0305,-5.2e-4 -0.0566,-0.0153 -0.11291,-0.0307 -0.1695,-0.046 -0.009,-0.007 -0.0175,-0.0135 -0.0263,-0.0202 -0.0471,-0.0176 -0.0904,-0.044 -0.13436,-0.0687 -0.0189,-0.003 -0.0382,-0.007 -0.0569,-0.0108 -0.0141,-0.003 -0.0287,-0.006 -0.0408,-0.0139 -0.004,-0.002 0.0131,-0.006 0.009,-0.007 -0.14529,-0.0356 -0.14955,-0.0327 -0.19224,-0.0615 -0.0517,-0.008 -0.0847,-0.0239 -0.12506,-0.0486 -0.008,-0.005 -0.0168,-0.008 -0.0248,-0.0145 -0.005,-0.004 0.0215,0.006 0.0165,0.003 -0.006,-0.003 -0.0196,5.3e-4 -0.0186,-0.006 0.001,-0.007 0.0136,-0.002 0.0207,-0.002 l -0.0796,-0.009 c -0.006,-0.003 -0.0124,-0.006 -0.0186,-0.009 -0.008,-0.002 -0.0197,-8e-4 -0.0243,-0.004 -0.003,-0.002 -0.005,-0.005 -0.008,-0.008 -10e-4,-2.3e-4 -0.002,2.6e-4 -0.004,0 -0.0331,-0.009 -0.12411,-0.0581 -0.092,-0.046 0.0309,0.0116 0.0602,0.0266 0.0899,0.0408 -0.10903,-0.0889 -0.18062,-0.22724 -0.30696,-0.28887 -0.0596,-0.0291 0.0513,0.12193 0.077,0.18293 0.0359,0.0236 0.0719,0.0475 0.10801,0.0708 0.006,0.004 -0.0131,-0.007 -0.0202,-0.009 -0.0252,-0.007 -0.0589,0.003 -0.076,-0.0176 -0.28053,-0.32199 -0.26254,-0.53855 -0.26303,-0.28009 0.0662,0.14927 0.0323,0.12765 0.1695,0.21756 -0.0125,-0.003 -0.025,-0.005 -0.0372,-0.009 -0.0314,-0.009 -0.0433,-0.0132 -0.0641,-0.0202 h -5.3e-4 c -0.0124,-0.002 -0.0252,-0.007 -0.0367,-0.009 -0.0429,-0.008 -0.0846,-0.0219 -0.12661,-0.0336 -0.002,0 -0.005,-0.002 -0.004,-0.002 0.0227,0.004 0.0901,0.0194 0.0677,0.0134 -0.0256,-0.006 -0.0521,-0.011 -0.078,-0.016 -0.0282,-0.0116 -0.014,-0.005 -0.0274,-0.0114 -0.0263,-0.004 -0.0521,-0.008 -0.0786,-0.0114 -0.002,-2.6e-4 -0.007,-0.001 -0.005,-0.001 -0.0802,-0.0183 -0.16252,-0.0291 -0.24339,-0.0434 -0.0357,-0.006 -0.0717,-0.0106 -0.10697,-0.0196 -0.0167,-0.004 -0.0315,-0.0166 -0.0486,-0.0186 -0.0294,-0.003 -0.0589,0.003 -0.0884,0.004 -0.0598,-0.0178 -0.11938,-0.0359 -0.17932,-0.0532 -5.3e-4,-7.9e-4 -2.2e-4,-7.9e-4 -5.3e-4,-0.002 -0.001,1.4e-4 -0.002,2.5e-4 -0.003,5.3e-4 l -5.3e-4,5.3e-4 c 5.3e-4,1.6e-4 0.002,2.6e-4 0.003,5.3e-4 7.9e-4,0.001 0.001,0.002 5.3e-4,0.002 -0.001,-2.6e-4 -0.003,-10e-4 -0.004,-0.002 2.7e-4,-1.4e-4 5.3e-4,-5.3e-4 0.001,-5.3e-4 -0.001,-2.5e-4 -0.002,-2.3e-4 -0.003,-5.3e-4 -7.9e-4,1.6e-4 -0.002,10e-4 -0.003,10e-4 -0.0904,0.0103 -0.18638,0.001 -0.27389,-0.0217 0.0161,-0.003 0.0326,-0.005 0.0486,-0.009 0.009,-0.002 -0.0184,0.003 -0.0274,0.004 -0.0212,0.003 -0.0424,0.008 -0.0636,0.006 -0.0758,-0.006 -0.10495,-0.0151 -0.13539,-0.0294 -0.023,-0.001 -0.0429,-0.002 -0.061,-0.001 h -5.3e-4 c -7.9e-4,0.009 -0.0186,0 -0.0284,0 h -0.43977 -0.8599 l -0.003,-5.3e-4 c -0.62454,0 -0.62454,-0.63097 0,-0.63097 h 0.8599 0.43976 c 0.005,0 0.012,-0.002 0.0181,-0.004 0.006,-10e-4 0.0108,-10e-4 0.0108,0.004 h 0.11162 c 0.006,0 0.0126,-0.001 0.0186,0 0.0416,0.01 0.0828,0.0215 0.12402,0.0326 0.0336,0.003 0.0672,0.005 0.10077,0.008 0.0825,0.0202 0.0421,0.0185 0.0873,0.0155 0.002,-2.6e-4 0.004,-2.5e-4 0.006,-5.3e-4 0.009,-0.001 0.0111,-0.002 0.0165,-0.003 0.001,-9e-5 -0.002,5.3e-4 -0.003,10e-4 0.0182,-0.002 0.037,-0.004 0.0553,-0.006 0.0924,-0.005 0.18105,0.0243 0.26355,0.0641 0.0513,0.005 0.1025,0.009 0.15348,0.015 0.0425,0.006 0.0844,0.0157 0.12661,0.0227 0.0959,0.0169 0.19129,0.0317 0.28628,0.0527 0.0114,0.004 0.0206,0.007 0.0336,0.0108 0.0272,0.002 0.0545,0.002 0.0811,0.008 0.0114,0.002 0.12748,0.0599 0.0444,0.0191 -0.0207,-0.004 -0.082,-0.0215 -0.062,-0.0145 0.0284,0.0102 0.0578,0.0172 0.0868,0.0253 2.7e-4,1.2e-4 8e-4,5.3e-4 0.001,5.3e-4 0.006,0.002 0.0121,0.002 0.0181,0.004 0.0281,0.005 0.0561,0.0108 0.0842,0.016 0.022,0.01 0.0433,0.0219 0.0662,0.0289 0.003,0.001 0.003,-0.004 0.004,-0.006 0.0143,0.003 0.029,0.004 0.0429,0.009 0.0648,0.0212 0.11893,0.0417 0.16743,0.0816 0.0134,0.004 0.027,0.008 0.0403,0.0119 0.0399,0.0129 0.0571,0.0223 0.076,0.0357 0.0171,0.002 0.0348,0.002 0.0512,0.008 0.006,0.002 0.0106,0.007 0.016,0.009 -0.0152,-0.003 -0.0606,-0.0105 -0.0455,-0.008 v 5.2e-4 c 0.0155,0.003 0.031,0.006 0.0465,0.008 5.2e-4,2.1e-4 0.001,2.6e-4 0.002,5.3e-4 0.0181,0.003 0.0363,0.006 0.0543,0.01 0.0744,0.0157 0.14128,0.0521 0.20568,0.091 0.006,0.003 0.0229,0.0123 0.017,0.0103 -0.14733,-0.0496 -0.1291,-0.0441 -0.185,-0.0331 0.0933,0.024 0.18579,0.0513 0.27854,0.0775 -0.006,-0.005 -0.0112,-0.0113 -0.0181,-0.015 -0.0255,-0.014 -0.11286,-0.0247 -0.0842,-0.0207 0.0477,0.007 0.0947,0.018 0.14159,0.0295 0.0796,0.0196 0.0463,0.0322 0.077,0.0191 -0.0917,-0.0189 0.13673,0.0276 0.14883,0.0424 0.01,0.0118 0.0141,0.0269 0.0212,0.0403 0.008,0.002 0.0107,2.6e-4 0.0155,0.003 0.008,0.004 0.0147,0.01 0.0217,0.0145 0.0261,0.011 -0.008,-0.003 0.0248,0.0108 0.003,0.002 0.004,0.003 0.008,0.007 0.0347,0.0104 0.0538,0.0171 0.0631,0.0196 0.0188,0.004 0.0355,0.0138 0.0532,0.0207 0.0429,-0.0152 0.0831,-0.042 0.11679,-0.0889 0.009,-0.0138 0.0173,-0.0274 0.0269,-0.0393 0.0142,-0.0272 0.0266,-0.0587 0.0372,-0.0956 0.008,-0.0275 0.0176,0.002 0.03,0.0336 0.0431,-0.0291 0.0901,-0.0455 0.13798,-0.046 0.15836,-0.002 0.31894,0.15283 0.32194,0.46509 2.5e-4,0.0285 2.7e-4,0.0123 0,0.0486 -7.9e-4,0.0227 -7.9e-4,0.0464 -0.002,0.0698 0.0773,0.0528 0.10354,0.18325 0.12713,0.24753 -0.003,0.0388 -0.007,0.0779 -0.0114,0.11679 -0.002,0.0252 -0.007,0.0422 -0.0109,0.061 h 13.56558 z m -15.75201,27.63294 c -0.008,-0.002 -0.0328,-0.005 -0.0248,-0.003 0.0109,0.002 0.0216,0.004 0.0326,0.006 -0.003,-0.001 -0.005,-0.002 -0.008,-0.003 z m -1.06918,-0.19689 c -0.004,5.3e-4 -0.009,0.001 -0.0134,0.002 0.004,-9e-5 0.007,-5e-5 0.0114,-5.3e-4 8e-4,0 8e-4,-5.3e-4 0.002,-0.001 z m 0.2589,0.0517 c 0.0117,0.001 0.0234,0.003 0.0351,0.004 -0.001,-5.3e-4 -0.002,-5.3e-4 -0.003,-0.002 -0.0107,-0.001 -0.0427,-0.003 -0.032,-0.002 z m 0.60409,0.0956 c -0.0147,-0.002 -0.0591,1.3e-4 -0.0444,0.002 0.0298,0.004 0.0598,0.007 0.0899,0.009 -0.015,-0.004 -0.0301,-0.009 -0.0455,-0.0109 z m 0.6258,0.21859 -5.3e-4,5.3e-4 c 2.6e-4,2.6e-4 2.6e-4,7.9e-4 5.3e-4,10e-4 0.002,2.6e-4 0.004,8e-4 0.007,0.001 -5.3e-4,-5.3e-4 -5.3e-4,-0.001 -0.001,-0.002 -10e-4,-0.002 -0.003,-6e-5 -0.006,-5.3e-4 z m -1.37252,0.25166 c 0.002,-2.1e-4 -0.005,0.001 -0.005,0.002 0.002,-2.7e-4 0.003,-8e-4 0.005,-0.001 z m -0.005,0.002 c -0.0137,0.002 -0.0272,0.005 -0.0408,0.007 0.0107,-2.6e-4 0.0213,-5.3e-4 0.032,-10e-4 0.004,-1.8e-4 -0.007,-5.3e-4 -0.0114,-5.3e-4 0.006,-0.002 0.0176,-0.004 0.0202,-0.005 z m 2.12855,0.0181 c 0.0311,0.013 0.0419,0.0155 0.0631,0.0233 -5.3e-4,-7.9e-4 -0.001,-0.002 -0.002,-0.004 0.0109,0.005 0.0347,0.0153 0.0388,0.0176 -0.01,-0.003 -0.0247,-0.009 -0.0372,-0.0139 0.003,0.006 0.007,0.012 0.01,0.0186 0.0101,8e-4 0.0267,0.004 0.0465,0.008 -7.9e-4,-10e-4 -0.002,-0.004 -0.003,-0.005 -0.001,-0.001 -0.003,-0.002 -0.004,-0.003 -1.4e-4,-7e-5 -0.002,-0.001 -0.003,-0.002 -0.005,-0.004 -0.0111,-0.008 -0.0165,-0.0114 v 5.3e-4 c -0.036,-0.0152 -0.0112,-0.004 -0.0351,-0.0145 7.9e-4,0.002 0.002,0.003 0.003,0.004 -0.008,-0.004 -0.0184,-0.009 -0.0289,-0.0134 -0.0143,-0.002 -0.0414,-0.01 -0.0315,-0.006 z m 0.0455,0.009 c 0.007,0.003 0.004,0.002 0.0119,0.005 h 5.3e-4 c -5.3e-4,-0.001 -10e-4,-0.002 -0.002,-0.003 -0.005,-0.002 -0.005,-7.9e-4 -0.0104,-0.002 z m 0.0315,0.0398 c 0.005,0.0144 0.009,0.0299 0.0129,0.045 0.018,0.003 0.0356,0.008 0.0537,0.008 -0.005,-0.0106 -0.009,-0.0259 -0.0145,-0.0346 -0.0179,-0.005 -0.0358,-0.0103 -0.0522,-0.0186 z m 0.14418,0.0413 v 5.3e-4 c 2.6e-4,2.4e-4 0.001,7.9e-4 0.002,0.001 5.3e-4,-1.4e-4 0.001,-2.7e-4 0.002,-5.3e-4 -0.001,-2.7e-4 -0.002,-5.3e-4 -0.003,-0.001 z m 0.40204,0.0537 c 2.6e-4,0.002 7.9e-4,0.003 0.001,0.005 0.003,0.004 0.0136,0.0124 0.0165,0.016 -0.008,-0.009 -0.009,-0.0111 -0.0176,-0.0207 z m 0.0196,0.0238 c 0.0114,0.0144 0.0294,0.053 0.0429,0.0786 0.0151,-0.006 -0.0101,-0.0404 -0.0429,-0.0786 z m -1.76165,0.0548 c 0.0101,0.002 0.02,0.004 0.03,0.007 0.009,0.002 -0.0197,-1.8e-4 -0.0274,-0.005 -7.9e-4,-7.9e-4 -0.002,-0.001 -0.003,-0.002 z m 0.31161,0.1235 c 0.002,0.002 0.004,0.004 0.006,0.005 0.002,2.6e-4 0.004,-1.9e-4 0.006,0 -0.004,-0.002 -0.008,-0.003 -0.0114,-0.005 z m 0.53847,0.17105 c 0.001,0.002 0.001,0.005 0.002,0.007 0.0158,0.004 0.0324,0.006 0.0486,0.008 -0.0176,-0.004 -0.034,-0.01 -0.0506,-0.015 z m 0.0646,0.0351 c 0.0627,0.024 0.12456,0.0476 0.093,0.0217 -0.009,-0.008 -0.0211,-0.0114 -0.032,-0.0165 -0.0187,-0.001 -0.044,-0.004 -0.061,-0.005 z m 0.95085,0.21291 c -0.0435,0.0316 -0.0875,0.0628 -0.13074,0.0946 h 0.20154 c -0.023,-0.0275 -0.0469,-0.0622 -0.0708,-0.0946 z m -0.44132,0.0279 c 5.3e-4,8e-4 8e-4,0.002 0.002,0.003 0.004,0.004 0.009,0.009 0.0165,0.0129 0.001,7.9e-4 0.002,0.001 0.003,0.002 0.005,0.002 0.0108,0.003 0.016,0.005 -0.0122,-0.008 -0.0245,-0.0162 -0.0372,-0.0233 z" />
    </clipPath>
  </defs>
  <sodipodi:namedview
     id="base"
     pagecolor="#ffffff"
     bordercolor="#666666"
     borderopacity="1.0"
     inkscape:pageopacity="0.0"
     inkscape:pageshadow="2"
     inkscape:zoom="0.48188921"
     inkscape:cx="861.56357"
     inkscape:cy="743.28995"
     inkscape:document-units="mm"
     inkscape:current-layer="layer1"
     inkscape:document-rotation="0"
     showgrid="false"
     showguides="false"
     inkscape:window-width="1920"
     inkscape:window-height="1017"
     inkscape:window-x="-8"
     inkscape:window-y="-8"
     inkscape:window-maximized="1" />
  <metadata
     id="metadata5">
    <rdf:RDF>
      <cc:Work
         rdf:about="">
        <dc:format>image/svg+xml</dc:format>
        <dc:type
           rdf:resource="http://purl.org/dc/dcmitype/StillImage" />
        <dc:title></dc:title>
      </cc:Work>
    </rdf:RDF>
  </metadata>
  <g
     inkscape:label="Layer 1"
     inkscape:groupmode="layer"
     id="layer1">
    <g
       id="g880">
      <path
         style="fill:#ff8080;stroke:#000000;stroke-width:0.264583px;stroke-linecap:butt;stroke-linejoin:miter;stroke-opacity:1"
         d="m 104.13634,118.9879 0.29235,16.48874 0.35083,1.52024 3.44977,-1.4033 4.73612,-2.28036 2.63119,-1.22788 c 0,0 2.45577,-1.05248 2.74812,-1.05248 0.29235,0 1.81259,-0.23388 2.8066,0.0585 0.994,0.29235 3.04047,1.16941 3.27435,1.34482 0.23389,0.17541 1.22789,1.92953 1.22789,1.92953 0,0 0.76012,1.16942 0.87706,1.8126 0.11694,0.64318 0.35082,2.63118 0.11694,3.27436 -0.23388,0.64318 -0.76012,1.92953 -0.87706,2.28036 -0.11694,0.35082 -0.70165,1.40329 -2.04647,1.988 -1.34483,0.58471 -2.63119,0.70165 -3.09895,0.87706 -0.46777,0.17541 -1.75412,0.81859 -1.75412,0.81859 l -0.70165,0.29235 -0.46777,2.16342 -1.75412,1.52024 c 0,0 -1.63718,0.0585 -1.92953,-0.0585 -0.29235,-0.11694 -1.34483,-0.52624 -1.69565,-0.81859 -0.35083,-0.29236 -0.93553,-0.76012 -1.05247,-1.28636 -0.11695,-0.52623 -0.52624,-1.75412 -0.52624,-2.04647 0,-0.29236 0.35082,-1.22789 0.58471,-1.63718 0.23388,-0.4093 0.40929,-0.93553 0.93553,-1.16942 0.52623,-0.23388 4.3853,-1.11094 4.3853,-1.11094 l 3.44977,-0.64318 c 0,0 0.87706,-0.23388 1.05248,-0.64318 0.17541,-0.40929 0.70164,-0.64317 0.46776,-1.34482 -0.23388,-0.70165 -0.64318,-1.34483 -0.994,-1.63718 -0.35083,-0.29236 -1.22789,-0.70165 -1.75412,-0.70165 -0.52624,0 -4.67766,1.75412 -4.67766,1.75412 0,0 -3.8006,2.22189 -4.3853,2.57271 -0.58471,0.35082 -1.22789,0.81859 -1.87107,1.22789 -0.64317,0.40929 -2.3973,0.76012 -3.44977,0.64318 -1.05247,-0.11695 -3.33283,-0.64318 -3.74212,-1.16942 -0.4093,-0.52624 -0.935535,-2.28036 -1.052475,-2.98201 -0.116944,-0.70164 -0.409298,-6.66566 -0.409298,-6.66566 l 0.175414,-11.63567 0.11694,-5.32083 -0.11694,-1.92954 1.052469,-1.75412 c 0,0 0.87706,-1.34483 1.11095,-1.46177 0.23388,-0.11694 1.87106,-0.11694 1.87106,-0.11694 0,0 0.87706,0.46777 0.994,0.93553 0.11694,0.46777 0.23388,1.87107 0.23388,1.87107 0,0 -0.0585,0.76012 -0.17541,1.28635 -0.11694,0.52624 -0.29235,2.3973 -0.17541,2.86507 0.11694,0.46776 -0.23388,2.57271 -0.23388,2.57271 z"
         id="path847" />
      <path
         style="fill:#ff8080;stroke:#000000;stroke-width:0.264583px;stroke-linecap:butt;stroke-linejoin:miter;stroke-opacity:1"
         d="m 127.24566,122.73237 2.03826,1.16472 1.4559,0.0971 1.9412,-0.43677 c 0,0 0.9706,-0.77648 1.01913,-1.11619 0.0485,-0.33971 -0.29118,-2.28091 -0.29118,-2.28091 l -1.55296,-1.98973 -5.8236,-1.35884 -7.7648,-0.14559 -9.51188,-0.29118 -3.68828,0.29118 -5.629478,2.23238 -2.377972,2.86327 c 0,0 -0.776481,1.35884 -0.92207,1.69855 -0.14559,0.33971 -0.679418,1.4559 -0.533829,2.4265 0.14559,0.9706 0.14559,3.00886 0.24265,3.44563 0.09706,0.43677 0.145589,1.55296 1.06766,2.71768 0.92207,1.16472 0.92207,1.40737 1.601491,1.89267 0.679418,0.4853 1.698548,0.77648 2.280908,0.82501 0.58236,0.0485 4.22211,0.19412 4.70741,0 0.4853,-0.19412 4.80447,-1.65002 6.11478,-2.13532 1.31031,-0.4853 5.09565,-2.13532 5.43536,-2.32944 0.33971,-0.19412 2.4265,-1.31031 2.66915,-1.4559 0.24265,-0.14559 2.81474,-0.33971 2.81474,-0.33971 0,0 1.79561,-0.14559 1.84414,-0.9706 0.0485,-0.82501 -0.0485,-2.13532 -0.63089,-2.57209 -0.58236,-0.43677 -2.08679,-0.67942 -2.96033,-0.53383 -0.87354,0.14559 -3.49416,0.77648 -4.41623,1.11619 -0.92207,0.33971 -1.79561,0.87354 -3.63975,1.50443 -1.84414,0.63089 -1.84414,0.82501 -3.59122,1.16472 -1.74708,0.33971 -3.63975,0.67942 -4.51329,0.67942 -0.87354,0 -1.84414,0.0485 -2.4265,-0.33971 -0.58236,-0.38824 -1.16472,-0.9706 -1.4559,-1.65002 -0.29118,-0.67942 -0.4853,-1.84414 -0.0971,-2.32944 0.38824,-0.4853 1.65002,-1.84414 2.62062,-2.18385 0.9706,-0.33971 2.86327,-0.4853 4.07652,-0.4853 1.21325,0 13.92811,0 13.92811,0 0,0 3.30004,0 3.63975,0.0971 0.33971,0.0971 2.32944,0.72795 2.32944,0.72795 z"
         id="path849" />
      <path
         style="fill:#ff8080;stroke:#000000;stroke-width:0.264583px;stroke-linecap:butt;stroke-linejoin:miter;stroke-opacity:1"
         d="m 117.68525,143.84292 -1.16472,-4.95006 -1.55296,-4.31917 -2.03826,-6.74567 -1.89267,-6.11478 -0.14559,-1.60149 c 0,0 -0.4853,-1.01913 0.77648,0.0971 1.26178,1.11619 3.93093,3.15445 4.51329,3.54269 0.58236,0.38824 3.97946,3.54269 4.22211,3.68828 0.24265,0.14559 3.59122,2.86327 3.59122,2.86327 0,0 0.33971,0.72795 0.43677,0.92207 0.0971,0.19412 1.06766,1.21325 1.31031,1.69855 0.24265,0.4853 1.06766,1.26178 1.40737,1.4559 0.33971,0.19412 1.21325,0.33971 1.89267,0.29118 0.67942,-0.0485 1.50443,-0.72795 1.60149,-0.9706 0.0971,-0.24265 0.4853,-1.84414 0.4853,-2.03826 0,-0.19412 -0.0485,-1.60149 -0.24265,-1.9412 -0.19412,-0.33971 -1.16472,-1.74708 -1.4559,-1.98973 -0.29118,-0.24265 -4.65888,-3.00886 -4.80447,-3.20298 -0.14559,-0.19412 -8.05598,-6.26037 -8.05598,-6.26037 l -4.02799,-3.00886 c 0,0 -2.47503,0.0485 -2.71768,0.29118 -0.24265,0.24265 -1.60149,1.01913 -1.89267,1.55296 -0.29118,0.53383 -0.92207,2.18385 -0.92207,2.37797 0,0.19412 0.53383,5.09565 0.53383,5.09565 l 1.16472,6.26037 2.13532,7.81333 1.69855,4.17358 2.66915,0.0485 z"
         id="path851"
         clip-path="url(#clipPath873)" />
    </g>
  </g>
</svg>
