<?xml version="1.0" encoding="UTF-8" standalone="no"?>
<svg
   xmlns:dc="http://purl.org/dc/elements/1.1/"
   xmlns:cc="http://creativecommons.org/ns#"
   xmlns:rdf="http://www.w3.org/1999/02/22-rdf-syntax-ns#"
   xmlns:svg="http://www.w3.org/2000/svg"
   xmlns="http://www.w3.org/2000/svg"
   xmlns:sodipodi="http://sodipodi.sourceforge.net/DTD/sodipodi-0.dtd"
   xmlns:inkscape="http://www.inkscape.org/namespaces/inkscape"
   width="210mm"
   height="297mm"
   viewBox="0 0 210 297"
   version="1.1"
   id="svg1045"
   inkscape:version="1.0.2 (e86c870879, 2021-01-15, custom)"
   sodipodi:docname="small_intestine.svg">
  <defs
     id="defs1039" />
  <sodipodi:namedview
     id="base"
     pagecolor="#ffffff"
     bordercolor="#666666"
     borderopacity="1.0"
     inkscape:pageopacity="0.0"
     inkscape:pageshadow="2"
     inkscape:zoom="0.14140805"
     inkscape:cx="-625.02877"
     inkscape:cy="830.02321"
     inkscape:document-units="mm"
     inkscape:current-layer="layer1"
     inkscape:document-rotation="0"
     showgrid="false"
     inkscape:window-width="1267"
     inkscape:window-height="1040"
     inkscape:window-x="156"
     inkscape:window-y="0"
     inkscape:window-maximized="0" />
  <metadata
     id="metadata1042">
    <rdf:RDF>
      <cc:Work
         rdf:about="">
        <dc:format>image/svg+xml</dc:format>
        <dc:type
           rdf:resource="http://purl.org/dc/dcmitype/StillImage" />
        <dc:title></dc:title>
      </cc:Work>
    </rdf:RDF>
  </metadata>
  <g
     inkscape:label="Layer 1"
     inkscape:groupmode="layer"
     id="layer1">
    <g
       id="g2050"
       transform="matrix(0.69476735,0,0,0.68940353,19.765197,34.801102)">
      <path
         style="fill:#ff5555;fill-opacity:1;stroke:#000000;stroke-width:3.86335;stroke-linecap:butt;stroke-linejoin:miter;stroke-miterlimit:4;stroke-dasharray:none;stroke-opacity:1"
         d="m 14.085287,73.207879 c 0,0 -1.543725,2.368169 -2.122621,3.096836 -0.578897,0.728667 -3.087448,2.732502 -3.666345,3.461169 -0.578896,0.728667 -0.964827,2.914669 -1.157793,4.372004 -0.193045,1.457334 -0.385931,2.914669 -0.385931,4.736337 0,1.821668 0.964828,9.837007 0.964828,9.837007 0,0 0.578896,0.728668 0.578896,1.639498 0,0.91084 0,0.72867 -1.543724,2.18601 -1.543724,1.45733 -2.508551,1.82166 -3.087448,2.7325 -0.578896,0.91083 -1.543724,3.09684 -1.543724,3.09684 l -1.929655,4.37199 c 0,0 -0.385931,2.55034 -0.771862,4.55417 -0.385931,2.00384 0.385931,5.10067 0.385931,7.83317 0,2.73251 0,6.55801 0.193045,8.19751 0.193045,1.6395 0.771862,5.28284 1.73669,8.56184 0.964827,3.279 0.771862,6.558 2.12262,10.93001 1.350759,4.37202 6.174896,10.01919 6.174896,10.01919 0,0 2.122621,2.7325 4.052276,3.64334 1.929655,0.91083 -0.193045,1.27517 4.052276,1.45731 4.245241,0.18206 5.210069,0.18206 6.560827,0.18206 h 3.47338 c 0,0 0.578896,7.1045 -1.543725,12.56955 -2.12262,5.46498 -2.315586,4.00766 -2.315586,6.19367 0,2.18596 -0.578896,6.74017 -0.578896,7.651 0,0.91084 2.701517,17.67015 2.508551,18.39883 -0.193045,0.72869 2.894483,8.01534 3.666345,9.47266 0.771862,1.45737 4.438207,6.37587 5.596,7.46886 1.157793,1.09301 7.525655,4.73635 7.525655,4.73635 l 2.508551,0.72863 -4.438206,5.28284 c 0,0 -3.859311,14.57336 -4.631173,15.30205 -0.771862,0.72863 -3.087448,6.37582 -2.315586,9.47265 0.771862,3.09684 2.508552,8.74403 3.666345,10.93003 1.157793,2.186 2.122621,4.9185 5.596,6.37582 3.473379,1.45733 5.210069,1.82167 5.210069,1.82167 h 8.297516 c 0.771862,0 0.964828,-1.27517 3.087449,-1.63952 2.12262,-0.3643 5.403034,-1.45732 5.403034,-1.45732 l 4.631172,-1.45731 c 0,0 6.753793,-1.09304 7.911586,-1.82167 1.157793,-0.72869 5.017103,-2.55036 5.017103,-2.55036 0,0 -0.578896,2.00388 -0.578896,2.91469 0,0.91084 0.578896,4.91851 1.157793,6.55797 0.578896,1.63952 2.12262,3.64334 3.85931,5.46504 1.736689,1.82167 3.087448,3.27899 5.210069,4.00767 2.12262,0.72865 6.174896,1.82167 8.104551,2.5503 1.92965,0.72869 4.82414,1.45737 6.1749,1.63952 1.35075,0.18205 2.89448,0.5465 2.89448,0.5465 l 2.12262,9.47269 c 0,0 -1.54373,3.82549 2.89449,7.83316 4.4382,4.00767 7.13972,6.01152 8.87641,7.1045 1.73669,1.09302 5.0171,2.00386 6.75379,2.36815 1.73669,0.36435 11.38497,1.09304 12.3498,0.91084 0.96482,-0.18225 10.0342,-1.45732 10.0342,-1.45732 0,0 15.43724,-3.27898 16.40207,-3.64334 0.96483,-0.36433 3.85931,-2.73248 5.78897,-3.82552 1.92965,-1.09298 9.45531,-6.9223 9.45531,-6.9223 0,0 3.66634,-7.83319 3.66634,-9.83701 0,-2.00385 0.19304,-5.28283 0,-7.46885 -0.19305,-2.18601 -0.5789,-5.10069 -0.5789,-5.10069 0,0 10.03421,2.3682 10.99904,2.55035 0.96482,0.18224 7.91158,0.91083 10.0342,0 2.12262,-0.91083 8.87642,-3.09684 9.45531,-4.00767 0.5789,-0.91083 3.08745,-2.18602 4.24524,-3.82548 1.1578,-1.63952 6.1749,-8.56188 6.1749,-8.56188 l 1.54373,-2.73248 10.80606,-5.82934 6.56083,-6.55803 c 0,0 2.31559,-2.36815 2.50853,-4.18981 0.19305,-1.82165 0.19305,-5.46499 0.19305,-7.28666 0,-1.8217 -1.15782,-10.93003 -1.15782,-10.93003 0,0 -0.77182,-0.54648 -1.73664,-3.82552 -0.96483,-3.27898 -4.82414,-10.74782 -4.82414,-10.74782 l 4.82414,-4.18982 c 0,0 0.57887,-2.9147 0.57887,-5.10071 0,-2.186 0,-3.64331 -0.38593,-4.7363 -0.38595,-1.09302 -0.96483,-3.09683 -0.96483,-3.09683 l 6.94678,-8.01534 c 0,0 0.77182,-3.82552 0.96481,-5.10071 0.19304,-1.27517 3.28043,-5.28284 3.28043,-7.28665 0,-2.00386 -1.15783,-14.20901 -1.15783,-14.20901 l 7.13976,-8.01534 c 0,0 1.15778,-6.74016 1.15778,-8.01534 0,-1.27517 -1.15778,-4.73634 -2.70154,-6.19368 -1.5437,-1.45733 -3.85929,-4.73633 -5.78895,-5.64717 -1.92965,-0.91083 -4.05229,-2.186 -4.05229,-2.186 l -1.92966,-2.36817 7.52566,-4.55417 4.63119,-3.09683 c 0,0 1.35076,-2.55034 1.73671,-3.46117 0.38593,-0.91084 1.15777,-4.18984 0.77182,-5.46501 -0.38589,-1.27516 -1.15777,-3.46117 -2.1226,-4.55417 -0.96481,-1.093 -5.01712,-5.64717 -5.01712,-5.64717 l -8.49046,-9.65483 -2.7015,-1.45734 4.05225,-8.561837 c 0,0 0.38594,-4.55417 0.38594,-5.647171 0,-1.093 0.38595,-6.558005 0.38595,-9.654841 0,-3.096835 0,-5.282837 -0.96483,-8.015339 -0.96483,-2.732502 -3.85931,-11.294342 -3.85931,-11.294342 l -0.77188,-3.096836 c 0,0 -1.54371,-0.728667 -3.28042,-0.728667 -1.73669,0 -13.12165,1.093 -14.47241,1.639501 -1.35076,0.5465 -9.06938,3.279002 -10.99903,4.55417 -1.92966,1.275168 -2.31559,1.457335 -5.596,3.461169 -3.28042,2.003835 -6.1749,2.914669 -8.49049,4.736338 -2.31558,1.821668 -3.66634,3.643336 -6.36786,4.918503 -2.70152,1.275168 -5.98193,2.368169 -10.99903,3.279003 -5.01711,0.910834 -7.52566,1.457334 -10.03421,1.821668 -2.50855,0.364334 -16.59503,2.368169 -17.36689,2.550335 -0.77187,0.182242 -4.63118,1.275168 -7.33269,2.368169 -2.70152,1.093001 -5.40304,1.639501 -6.56083,2.914669 -1.15779,1.275168 -2.70152,2.732502 -3.28041,3.825503 -0.5789,1.093001 -0.5789,1.821668 -0.96483,4.00767 -0.38593,2.186001 -1.1578,3.461169 -0.19305,7.104505 0.96483,3.64334 1.92966,16.03067 2.31559,16.75934 0.38593,0.72867 3.28041,2.7325 5.21007,3.8255 1.92965,1.093 1.92965,0.5465 4.24524,2.55034 2.31558,2.00383 -5.21007,1.6395 -5.98193,1.82167 -0.77186,0.18224 -6.56083,3.279 -7.52566,3.64333 -0.96482,0.36434 -5.21007,2.36817 -6.36786,3.82551 -1.15779,1.45733 -4.43821,6.74017 -4.82414,7.46883 -0.38593,0.72867 -5.21007,11.11218 -5.40303,12.38737 -0.19305,1.27516 -1.35076,5.64713 -0.96483,7.1045 0.38593,1.45732 -5.98193,-2.3682 -7.33269,-2.3682 -1.35076,0 -3.08745,0 -5.40304,0.54653 -2.31558,0.54649 -4.4382,1.63947 -4.4382,1.63947 l 0.38593,-7.83314 c 0,0 -0.96483,-6.55802 -1.73669,-7.65102 -0.77186,-1.093 -3.087449,-4.91851 -3.087449,-4.91851 0,0 2.508549,-0.36433 6.174899,0.5465 3.66634,0.91084 0.57889,2.73251 6.75379,1.27517 l 6.1749,-1.45733 7.52565,-8.19751 4.82414,-12.02301 -0.67253,-12.78291 -2.22195,-11.080934 -6.1749,-8.197506 -24.50662,-0.728667 c 0,0 -0.578897,0.182242 -2.701517,0.5465 -2.122621,0.364334 -5.981931,1.275168 -8.876414,2.003835 -2.894482,0.728667 -4.631172,0.728667 -6.174896,2.368169 -1.543724,1.639501 -4.052276,7.286672 -4.052276,7.286672 0,0 -1.929655,-5.100671 -2.508551,-6.011505 -0.578897,-0.910834 -5.835785,-1.556469 -7.76544,-2.831637 0,0 -8.843312,-2.160101 -10.772967,-3.253102 -1.929655,-1.093001 -6.627031,-5.660121 -8.363721,-5.660121 -1.736689,0 -15.470362,-2.053403 -15.470362,-2.053403 l -7.200242,-3.757617 z"
         id="path855"
         sodipodi:nodetypes="csssscsssccssssscssscsssssscccsssscssccscssssssccsssscsscsscssssccccsscsccssccssccsssccccsssccccsssccsssssssssssssssssssssssssccscsscccccccssscssssccc" />
      <path
         style="fill:none;stroke:#000000;stroke-width:3.86335;stroke-linecap:butt;stroke-linejoin:miter;stroke-miterlimit:4;stroke-dasharray:none;stroke-opacity:1"
         d="m 74.999405,110.46119 c 0,0 0,2.44743 3.411171,2.70505 3.411191,0.25761 6.958826,0.77286 8.732634,0.51525 1.773807,-0.25764 6.00368,-0.51525 7.368137,-1.28812 1.364476,-0.77287 5.321462,-2.44741 6.003683,-2.70505 0.68224,-0.25761 10.37,-4.63719 10.37,-4.63719 l 3.27472,-4.37959"
         id="path861" />
      <path
         style="fill:none;stroke:#000000;stroke-width:3.86335;stroke-linecap:butt;stroke-linejoin:miter;stroke-miterlimit:4;stroke-dasharray:none;stroke-opacity:1"
         d="m 101.60662,109.81713 c 1.96506,2.91486 0.68114,5.39155 0.27288,7.98633"
         id="path863"
         sodipodi:nodetypes="cc" />
      <path
         style="fill:none;stroke:#000000;stroke-width:3.86335;stroke-linecap:butt;stroke-linejoin:miter;stroke-miterlimit:4;stroke-dasharray:none;stroke-opacity:1"
         d="m 111.56726,125.91857 c -1.36447,-2.44743 -6.00368,-6.18296 -6.00368,-6.18296 0,0 -5.594327,-3.22027 -8.32328,-3.47791 -2.728953,-0.25761 -2.728953,-0.51523 -8.050376,-0.51523 -5.321442,0 -7.368157,0 -9.278428,-0.12875 -1.910251,-0.12875 -6.822343,0 -6.822343,0"
         id="path865" />
      <path
         style="fill:none;stroke:#000000;stroke-width:3.86335;stroke-linecap:butt;stroke-linejoin:miter;stroke-miterlimit:4;stroke-dasharray:none;stroke-opacity:1"
         d="m 71.178882,103.76301 c 0,0 0.545795,1.67454 0.545795,4.12197 0,2.4474 1.364476,7.72874 1.364476,7.72874 0,0 -3.00184,1.9321 -7.095269,5.41001 -4.09341,3.47791 -5.184999,3.86434 -5.867218,4.25078 -0.682238,0.38644 -4.912111,1.80335 -5.730793,1.93216 -0.818682,0.12875 -2.183158,0.12875 -2.183158,0.12875"
         id="path867" />
      <path
         style="fill:none;stroke:#000000;stroke-width:3.86335;stroke-linecap:butt;stroke-linejoin:miter;stroke-miterlimit:4;stroke-dasharray:none;stroke-opacity:1"
         d="m 32.291422,95.647898 c 0,0 0.545794,1.932177 4.229873,3.091468 3.684078,1.15931 4.50276,1.803374 6.276568,2.189794 1.773807,0.38644 6.00368,0.64406 6.00368,0.64406 h 1.228013"
         id="path869" />
      <path
         style="fill:none;stroke:#000000;stroke-width:3.86335;stroke-linecap:butt;stroke-linejoin:miter;stroke-miterlimit:4;stroke-dasharray:none;stroke-opacity:1"
         d="m 48.801543,101.57322 c 0,0 0.136384,3.22029 -1.228032,4.76603 -1.364477,1.54573 -1.773808,2.57621 -3.001841,3.99313 -1.228013,1.41693 -2.319602,3.2203 -2.592489,4.25078 -0.272907,1.0305 -0.409351,1.93218 -0.545795,3.47791 -0.136384,1.54574 -0.272887,2.70505 -0.272887,4.5084 0,1.80336 -0.136384,4.37958 1.091569,6.6982 1.228033,2.3186 1.364477,2.57622 3.138284,4.6372 1.773828,2.06099 3.956966,3.99315 3.956966,3.99315"
         id="path871" />
      <path
         style="fill:none;stroke:#000000;stroke-width:3.86335;stroke-linecap:butt;stroke-linejoin:miter;stroke-miterlimit:4;stroke-dasharray:none;stroke-opacity:1"
         d="m 28.607343,100.80035 c 1.091589,0.38644 3.547635,1.03048 4.50276,2.70504 0.955146,1.67455 3.138285,7.8575 3.138285,7.8575 0,0 0.682238,2.70502 0.955145,5.92531 0.272887,3.22028 -0.818682,19.83695 -0.818682,19.83695 0,0 -1.228033,4.89484 -1.364476,6.18295 -0.136384,1.28812 2.183158,0.51524 -0.409351,5.02365 -2.59249,4.50839 -2.59249,4.50839 -2.59249,4.50839"
         id="path873" />
      <path
         style="fill:none;stroke:#000000;stroke-width:3.86335;stroke-linecap:butt;stroke-linejoin:miter;stroke-miterlimit:4;stroke-dasharray:none;stroke-opacity:1"
         d="m 41.296943,140.73187 13.371818,-5.15245 9.551315,-2.70505 c 0,0 0.545795,-0.38642 2.865397,-0.25761 2.319602,0.12875 19.921293,2.3186 19.921293,2.3186 0,0 2.456046,0.38644 3.411171,1.0305 0.955126,0.64406 5.867237,2.83385 5.867237,2.83385"
         id="path875" />
      <path
         style="fill:none;stroke:#000000;stroke-width:3.86335;stroke-linecap:butt;stroke-linejoin:miter;stroke-miterlimit:4;stroke-dasharray:none;stroke-opacity:1"
         d="m 100.92438,162.3722 c 0,0 2.04671,-0.64408 -0.5458,1.80333 -2.592486,2.44741 -9.141961,6.82702 -9.141961,6.82702 l -1.773807,1.03052"
         id="path877" />
      <path
         style="fill:none;stroke:#000000;stroke-width:3.86335;stroke-linecap:butt;stroke-linejoin:miter;stroke-miterlimit:4;stroke-dasharray:none;stroke-opacity:1"
         d="m 79.365721,144.08097 c -0.545794,1.41693 -2.592509,4.37959 -3.684078,6.18296 -1.091569,1.80335 -2.183159,4.12193 -2.728953,6.56939 -0.545775,2.44741 -1.364477,8.50154 -1.364477,10.69131 0,2.1898 -0.136384,3.09149 0.136384,5.66771 0.272888,2.57622 -1.091589,1.80339 1.910252,6.56938 3.00184,4.76601 6.549475,4.25079 6.549475,4.25079 l 6.958806,-0.51525 1.364477,-0.51525"
         id="path879" />
      <path
         style="fill:none;stroke:#000000;stroke-width:3.86335;stroke-linecap:butt;stroke-linejoin:miter;stroke-miterlimit:4;stroke-dasharray:none;stroke-opacity:1"
         d="m 69.132168,157.34852 c 0,0 -8.050376,1.80339 -9.141965,2.18983 -1.091569,0.38644 -2.183158,-0.12875 -4.912092,2.44741 -2.728953,2.57621 -6.413011,5.28126 -7.368157,7.21345 -0.955125,1.93216 -2.456046,8.50154 -2.456046,8.50154 0,0 2.046715,8.24392 3.001841,10.4337 0.955125,2.18979 4.50276,10.30494 4.775648,11.33539 0.272907,1.03052 2.456065,11.97946 2.456065,11.97946 0,0 0.682219,3.2203 0.682219,4.12199 0,0.90169 -0.272888,5.28124 -0.272888,5.28124"
         id="path881" />
      <path
         style="fill:none;stroke:#000000;stroke-width:3.86335;stroke-linecap:butt;stroke-linejoin:miter;stroke-miterlimit:4;stroke-dasharray:none;stroke-opacity:1"
         d="m 104.19911,182.8532 c 2.3196,0.25762 2.5925,0.25762 4.77564,1.15931 2.18316,0.90166 4.36632,1.41691 5.59436,2.70505 1.22801,1.28808 3.27473,2.18977 3.95696,4.37955 0.68224,2.18983 0.95513,3.73554 0.95513,3.73554"
         id="path883" />
      <path
         style="fill:none;stroke:#000000;stroke-width:3.86335;stroke-linecap:butt;stroke-linejoin:miter;stroke-miterlimit:4;stroke-dasharray:none;stroke-opacity:1"
         d="m 114.97844,197.15125 c 0,0 -1.09157,1.54576 -3.27473,2.70503 -2.18316,1.15933 -3.13829,1.41696 -4.50276,3.22029 -1.36448,1.80339 -2.45605,4.12199 -2.45605,4.12199 v 1.67452"
         id="path885" />
      <path
         style="fill:none;stroke:#000000;stroke-width:3.86335;stroke-linecap:butt;stroke-linejoin:miter;stroke-miterlimit:4;stroke-dasharray:none;stroke-opacity:1"
         d="m 112.65883,211.19172 c 0,0 -7.91393,-2.31864 -7.91393,-2.31864 0,0 -5.184998,0.25762 -5.867236,0.51526 -0.682239,0.25763 -3.001841,1.93219 -4.366317,2.4474 -1.364457,0.51526 -2.865377,1.28814 -4.09341,2.18984 -1.228013,0.90163 -3.411171,3.99312 -3.956966,5.28124 -0.545794,1.2881 -4.50276,8.50155 -4.50276,8.50155 0,0 0.272887,-0.12875 -0.545795,2.70503 -0.818682,2.83385 -1.364456,6.5694 -1.364456,6.5694 0,0 0.955125,3.47791 0.955125,4.89481 0,1.41695 0.818682,4.50842 0.682238,5.53894 -0.136384,1.03044 7.09525,17.77596 7.09525,17.77596"
         id="path887" />
      <path
         style="fill:none;stroke:#000000;stroke-width:3.86335;stroke-linecap:butt;stroke-linejoin:miter;stroke-miterlimit:4;stroke-dasharray:none;stroke-opacity:1"
         d="m 71.315326,226.26266 c 0,0 2.592509,6.95578 3.00184,8.11509 0.409351,1.15927 1.228033,1.67454 1.364477,4.12199 0.136384,2.44741 0.272887,5.02363 -0.136384,6.56934 -0.409351,1.54575 -1.228033,3.86436 -2.456046,5.02368 -1.228033,1.15928 -2.319602,2.70503 -4.093429,3.60669 -1.773808,0.90169 -5.730774,3.22027 -7.09525,3.60671 -1.364477,0.38645 -3.411192,1.28814 -3.956966,1.80339 -0.545795,0.51522 -1.50092,1.15927 -0.682239,1.28808 0.818682,0.12875 4.775648,-0.12875 5.867237,-0.64406 1.09157,-0.51521 6.685899,-3.34904 7.777489,-3.73549 1.091569,-0.38644 3.274727,-1.54577 4.50274,-1.54577 1.228033,0 0.955146,-1.54571 2.865397,0.25764 1.910271,1.80339 3.00184,2.83385 3.138284,3.99316 0.136384,1.15927 -0.682218,6.5694 -0.818682,7.08459 -0.136384,0.51527 -2.728933,8.11515 -2.728933,8.11515"
         id="path889" />
      <path
         style="fill:none;stroke:#000000;stroke-width:3.86335;stroke-linecap:butt;stroke-linejoin:miter;stroke-miterlimit:4;stroke-dasharray:none;stroke-opacity:1"
         d="m 74.726577,222.2695 c 0,0 5.048535,-1.54578 6.413012,-2.06097 1.364476,-0.51527 2.046714,-1.28814 3.138284,-2.31866 1.091589,-1.03044 2.592489,-3.09147 2.865396,-4.12193 0.272768,-1.0305 0.136384,-1.41694 0.136384,-1.9322 0,-0.51521 -1.091589,-6.82697 -1.091589,-6.82697 0.409351,0.90167 0.409351,2.44741 3.274748,3.34908 2.865396,0.9017 3.138284,1.0305 4.50276,1.0305 1.364477,0 2.319602,-0.25763 2.319602,-0.25763"
         id="path891" />
      <path
         style="fill:#ffffff;stroke:#000000;stroke-width:3.86335;stroke-linecap:butt;stroke-linejoin:miter;stroke-miterlimit:4;stroke-dasharray:none;stroke-opacity:1"
         d="m 177.81653,95.15898 c -0.5789,0.5465 -6.36787,1.639501 -7.62214,1.639501 -1.25428,0 -6.1749,-0.5465 -7.52566,-0.5465 -1.35076,0 -6.75379,-0.273251 -7.13972,-0.364334 -0.38593,-0.09103 -1.25428,-1.093001 -1.54372,-0.455417 -0.28945,0.637584 -0.77187,1.366251 -0.28945,3.187919 0.48241,1.821671 0.67538,3.005751 1.06131,4.098751 0.38593,1.093 -1.64021,2.45925 1.06131,2.186 2.70151,-0.27325 6.65731,-2.64141 8.10455,-3.55225 1.44724,-0.91083 12.34979,-5.100669 12.34979,-5.100669 z"
         id="path893" />
      <path
         style="fill:#ffffff;stroke:#000000;stroke-width:3.86335;stroke-linecap:butt;stroke-linejoin:miter;stroke-miterlimit:4;stroke-dasharray:none;stroke-opacity:1"
         d="m 196.53418,89.693975 13.60407,-6.102588 11.38496,-6.649088 4.82414,-3.370086 4.72768,11.931926 c 0,0 -11.38499,0.637584 -12.73575,0.81975 -1.35076,0.182242 -5.0171,-0.182241 -10.99903,1.093001 -5.98193,1.275168 -10.80607,2.277085 -10.80607,2.277085 z"
         id="path895" />
      <path
         style="fill:none;stroke:#000000;stroke-width:3.86335;stroke-linecap:butt;stroke-linejoin:miter;stroke-miterlimit:4;stroke-dasharray:none;stroke-opacity:1"
         d="m 162.8617,118.65849 c 0,0 -0.86835,1.27517 5.88545,-1.45733 6.75379,-2.73251 12.25331,-5.92042 17.65634,-7.01343 5.40303,-1.093 18.91062,-3.46115 21.12972,-4.00766 2.21911,-0.5465 9.16587,-1.45733 11.67442,-2.09492 2.50855,-0.63758 16.49853,-2.45925 16.49853,-2.45925 l 0.96483,-0.18224 h 0.0964"
         id="path897" />
      <path
         style="fill:none;stroke:#000000;stroke-width:3.86335;stroke-linecap:butt;stroke-linejoin:miter;stroke-miterlimit:4;stroke-dasharray:none;stroke-opacity:1"
         d="m 244.46686,117.1594 -16.10077,2.70502 c 0,0 -11.59803,2.70505 -13.09895,3.3491 -1.5009,0.64406 -12.41669,6.31177 -12.41669,6.31177 l -11.8709,9.01679 -11.46156,7.9863"
         id="path899" />
      <path
         style="fill:none;stroke:#000000;stroke-width:3.86335;stroke-linecap:butt;stroke-linejoin:miter;stroke-miterlimit:4;stroke-dasharray:none;stroke-opacity:1"
         d="m 172.83207,144.08097 c 0,0 3.27472,-1.41692 4.50276,-2.06098 1.22801,-0.64406 6.00368,-2.57622 8.45972,-3.34911 2.45605,-0.77286 10.23354,-3.99314 10.23354,-3.99314"
         id="path901" />
      <path
         style="fill:none;stroke:#000000;stroke-width:3.86335;stroke-linecap:butt;stroke-linejoin:miter;stroke-miterlimit:4;stroke-dasharray:none;stroke-opacity:1"
         d="m 214.85781,123.21352 c 0,0 4.36632,-2.70504 5.45789,-3.60671 1.09159,-0.90168 1.77381,-1.80335 3.54763,-2.70505 1.77381,-0.90167 1.77381,-1.15929 2.86538,-1.15929 1.09159,0 1.91027,-0.25763 2.59251,0.38643 0.68224,0.64405 1.09157,1.54573 1.09157,1.54573"
         id="path903" />
      <path
         style="fill:none;stroke:#000000;stroke-width:3.86335;stroke-linecap:butt;stroke-linejoin:miter;stroke-miterlimit:4;stroke-dasharray:none;stroke-opacity:1"
         d="m 242.96592,139.70139 c 0,0 -1.63734,2.3186 -7.36811,4.37958 -5.73082,2.06099 -10.23356,3.22028 -13.09895,3.34909 -2.8654,0.12875 -3.68408,0.12875 -6.41304,0.12875 -2.72893,0 -6.00366,-0.51525 -7.64104,-0.51525 -1.63734,0 -2.86538,0 -2.86538,0"
         id="path905" />
      <path
         style="fill:none;stroke:#000000;stroke-width:3.86335;stroke-linecap:butt;stroke-linejoin:miter;stroke-miterlimit:4;stroke-dasharray:none;stroke-opacity:1"
         d="m 152.91077,144.98265 c 0,0 6.00368,-0.38643 12.96249,-0.64406 6.95881,-0.25762 0.27289,-2.70503 6.95881,-0.25762 6.68592,2.44741 1.22803,-2e-5 6.68592,2.44741 5.45788,2.44743 10.64288,6.18296 12.55313,7.5999 1.91027,1.41691 11.87092,11.97947 12.6896,12.8811 0.81868,0.9017 2.72893,4.2508 4.3663,7.08465 1.63738,2.83385 3.00184,4.89482 3.27475,5.66769 0.27288,0.77288 0.95512,1.80335 0.95512,1.80335"
         id="path907" />
      <path
         style="fill:none;stroke:#000000;stroke-width:3.86335;stroke-linecap:butt;stroke-linejoin:miter;stroke-miterlimit:4;stroke-dasharray:none;stroke-opacity:1"
         d="m 196.02809,156.83332 c 0,0 2.72895,0 6.82236,0.25762 4.09343,0.25758 2.59251,0.38639 9.00552,0.64402 6.41301,0.25764 11.18868,0.38644 14.05406,0.25764 2.86539,-0.12876 7.77749,-1.03047 7.77749,-1.03047"
         id="path909" />
      <path
         style="fill:none;stroke:#000000;stroke-width:3.86335;stroke-linecap:butt;stroke-linejoin:miter;stroke-miterlimit:4;stroke-dasharray:none;stroke-opacity:1"
         d="m 119.75409,167.13819 c 0,0 -0.68222,3.09149 2.59251,5.28126 3.27472,2.18983 -1.22804,4.2508 6.82236,3.47791 8.05037,-0.77283 8.86906,-0.64406 13.91761,-2.31858 5.04856,-1.67452 9.14197,-3.47793 14.32696,-4.12199 5.185,-0.64402 13.37182,-2.70504 17.87458,-2.83385 4.50276,-0.12875 12.14381,1.67458 12.96249,2.31864 0.81868,0.64402 4.36632,5.15245 3.54763,7.34223 -0.81868,2.18977 -2.5925,4.25079 -3.95696,5.28126 -1.36448,1.0305 -2.72895,2.44744 -6.27659,2.96266 -3.54761,0.51525 -10.77933,1.54575 -10.77933,1.54575"
         id="path911" />
      <path
         style="fill:none;stroke:#000000;stroke-width:3.86335;stroke-linecap:butt;stroke-linejoin:miter;stroke-miterlimit:4;stroke-dasharray:none;stroke-opacity:1"
         d="m 143.63237,176.54144 c 0.27288,1.54575 -0.95515,4.76599 0.40933,8.1151 1.36447,3.3491 4.50276,9.27442 6.14012,10.69136 1.63738,1.41691 7.5046,6.18296 9.8242,6.69821 2.31961,0.51521 5.04856,1.80335 8.45973,1.93216 3.41119,0.12875 4.22987,0.25763 7.09525,0.12875 2.8654,-0.12875 5.32146,0 9.00552,-1.93214 3.68408,-1.93222 5.73079,-3.47793 8.32328,-5.66776 2.59251,-2.18978 0.5458,-4.25074 5.86724,-4.50838 5.32144,-0.25761 7.23169,-0.12875 9.14197,0.51527 1.91025,0.64406 9.55129,10.17606 9.55129,10.17606 0,0 1.63736,1.41695 4.77565,1.67458 3.1383,0.25762 4.91211,0.38645 6.68592,0.12876 1.77383,-0.25762 5.32144,-0.64406 5.32144,-0.64406"
         id="path913" />
      <path
         style="fill:none;stroke:#000000;stroke-width:3.86335;stroke-linecap:butt;stroke-linejoin:miter;stroke-miterlimit:4;stroke-dasharray:none;stroke-opacity:1"
         d="m 154.95749,204.49352 c 0,0 -0.95515,3.47791 -1.36448,6.31176 -0.40935,2.83385 -0.95514,3.09149 0.40933,8.75917 1.36448,5.66771 1.63737,7.59985 3.27475,10.94895 1.63736,3.3491 2.45605,5.41007 2.86538,6.31176 0.40935,0.9017 1.22803,2.83385 1.22803,2.83385"
         id="path915" />
      <path
         style="fill:none;stroke:#000000;stroke-width:3.86335;stroke-linecap:butt;stroke-linejoin:miter;stroke-miterlimit:4;stroke-dasharray:none;stroke-opacity:1"
         d="m 179.79087,210.67647 c 0.13639,1.03047 1.63737,11.07776 3.13829,14.16924 1.50092,3.09147 9.8242,13.3964 10.64288,13.91161 0.81868,0.51525 3.82052,2.31864 5.32144,5.2813 1.50092,2.96266 4.63921,7.47103 5.45789,10.30488 0.81868,2.83386 1.50092,5.79652 1.50092,7.85754 0,2.06097 0.68224,4.50836 0,5.92532 -0.68224,1.41689 -2.86538,4.76599 -4.22985,5.15243 -1.36448,0.38645 -7.23172,-0.25763 -9.00552,-1.41694 -1.77381,-1.15927 -4.77565,-4.89482 -5.04856,-5.92532 -0.27289,-1.03047 -0.95512,-3.34907 -2.18316,-6.82698 -1.22801,-3.47791 -1.09157,-5.4101 -2.72893,-8.24396 -1.63736,-2.83385 -2.04671,-4.25076 -3.68408,-6.44053 -1.63736,-2.18983 -1.09157,-4.3796 -4.50276,-4.63724 -3.41117,-0.25761 -4.09341,0.90169 -8.59617,0.38644 -4.50276,-0.51525 -6.00368,1.67453 -6.95881,4.50838 -0.95512,2.83391 -1.09158,6.18295 -0.54579,8.75923 0.54579,2.57621 1.91025,6.44051 2.59249,8.50153 0.68224,2.06097 0.95514,6.44058 0.95514,6.44058"
         id="path917" />
      <path
         style="fill:none;stroke:#000000;stroke-width:3.86335;stroke-linecap:butt;stroke-linejoin:miter;stroke-miterlimit:4;stroke-dasharray:none;stroke-opacity:1"
         d="m 188.93284,208.22906 c 0,0 4.22985,1.28808 6.27657,0.77283 2.04671,-0.51525 6.9588,-1.54571 6.9588,-1.54571 0,0 0,-2.06101 1.50092,0.90169 1.50092,2.96266 3.00184,5.02363 4.36632,7.08459 1.36448,2.06097 6.54947,5.92532 8.73261,6.5694 2.18316,0.64406 7.64105,0.64406 9.14197,0.77289 1.50092,0.12875 10.23357,-0.64408 10.23357,-0.64408"
         id="path919" />
      <path
         style="fill:none;stroke:#000000;stroke-width:3.86335;stroke-linecap:butt;stroke-linejoin:miter;stroke-miterlimit:4;stroke-dasharray:none;stroke-opacity:1"
         d="m 189.88796,224.20164 c 0,0 1.22804,3.22029 6.82237,3.86435 5.59435,0.64408 5.86723,0.12875 7.23171,0.90169 1.36446,0.77285 0.95513,-0.25761 3.13828,3.2203 2.18316,3.47787 3.68408,5.53888 5.86722,9.532 2.18316,3.99316 4.22987,7.47109 5.45791,8.6304 1.22801,1.15927 3.8205,2.44741 3.8205,2.44741"
         id="path921" />
      <path
         style="fill:none;stroke:#000000;stroke-width:3.86335;stroke-linecap:butt;stroke-linejoin:miter;stroke-miterlimit:4;stroke-dasharray:none;stroke-opacity:1"
         d="m 132.58013,211.32053 c 0,0 1.77383,3.34907 2.3196,5.5389 0.5458,2.18977 1.63739,3.3491 2.18316,6.82695 0.54579,3.47792 1.50092,6.69821 0.54579,9.78968 -0.95512,3.09149 -1.91027,6.18295 -3.41119,7.98634 -1.5009,1.80335 0.95515,2.83385 -4.63918,4.50838 -5.59435,1.67452 -9.14199,2.4474 -11.18868,2.57621 -2.04671,0.12875 -4.36632,0.25764 -8.18684,0.38645 -3.82053,0.12875 -7.2317,-0.25764 -7.91394,-0.38645 -0.68223,-0.12875 -1.22803,-0.51525 -1.22803,-0.51525"
         id="path923" />
      <path
         style="fill:none;stroke:#000000;stroke-width:3.86335;stroke-linecap:butt;stroke-linejoin:miter;stroke-miterlimit:4;stroke-dasharray:none;stroke-opacity:1"
         d="m 137.49224,239.40138 c 0,0 2.45605,3.86437 5.86722,5.15245 3.41119,1.28814 4.77567,2.31864 6.54947,3.47791 1.77381,1.15933 5.32145,3.47791 5.32145,3.47791"
         id="path925" />
      <path
         style="fill:none;stroke:#000000;stroke-width:3.86335;stroke-linecap:butt;stroke-linejoin:miter;stroke-miterlimit:4;stroke-dasharray:none;stroke-opacity:1"
         d="m 128.48672,277.91598 c 0,0 0.54579,-0.77283 4.36632,-1.41689 3.82052,-0.64408 6.27656,-1.93216 10.09709,-1.15933 3.82052,0.77289 6.82236,1.9322 6.82236,1.9322 l 0.68224,0.25763"
         id="path927" />
      <path
         style="fill:none;stroke:#000000;stroke-width:3.86335;stroke-linecap:butt;stroke-linejoin:miter;stroke-miterlimit:4;stroke-dasharray:none;stroke-opacity:1"
         d="m 129.3054,249.83513 c 1.63737,1.28808 2.45605,1.67452 4.91209,5.02363 2.45607,3.3491 4.09343,3.3491 4.09343,6.95584 0,3.60672 -1.09159,7.08459 -1.09159,7.08459"
         id="path929" />
      <path
         style="fill:none;stroke:#000000;stroke-width:3.86335;stroke-linecap:butt;stroke-linejoin:miter;stroke-miterlimit:4;stroke-dasharray:none;stroke-opacity:1"
         d="m 126.19825,194.53099 c 0,0 6.1749,-0.5465 7.91159,0 1.73669,0.54648 6.36786,4.372 7.52565,5.64713 1.1578,1.27517 3.66635,2.73254 4.82414,4.73636 1.15779,2.00385 4.24524,4.372 4.24524,4.372"
         id="path931" />
      <path
         style="fill:none;stroke:#000000;stroke-width:3.86335;stroke-linecap:butt;stroke-linejoin:miter;stroke-miterlimit:4;stroke-dasharray:none;stroke-opacity:1"
         d="m 15.050114,169.75628 c 0,1.09302 -1.447241,4.09874 -1.929655,5.73826 -0.482414,1.63952 -1.350759,4.09875 -1.350759,4.09875 0,0 3.666345,3.1879 4.631173,4.28094 0.964827,1.09296 1.350758,1.45731 2.605034,2.73248 1.254276,1.27519 1.833172,1.36625 2.315586,2.64142 0.482414,1.27519 0.675379,2.36817 0.675379,2.36817"
         id="path937" />
      <path
         style="fill:none;stroke:#000000;stroke-width:3.86335;stroke-linecap:butt;stroke-linejoin:miter;stroke-miterlimit:4;stroke-dasharray:none;stroke-opacity:1"
         d="m 35.890389,232.3306 c 0,0 0.67538,2.09488 0.868345,3.82547 0.193045,1.7306 0.09642,-2.0038 0.193045,4.9185 0.09642,6.92236 0,8.65296 0,8.65296"
         id="path939" />
      <path
         style="fill:none;stroke:#000000;stroke-width:3.86335;stroke-linecap:butt;stroke-linejoin:miter;stroke-miterlimit:4;stroke-dasharray:none;stroke-opacity:1"
         d="m 126.16712,89.07852 3.95696,-1.416926 c 0,0 3.00184,0.901675 4.22988,0.901675 1.22801,0 3.54761,-0.128752 3.54761,-0.128752"
         id="path943" />
      <path
         style="fill:#ffffff;stroke:none;stroke-width:0.264583px;stroke-linecap:butt;stroke-linejoin:miter;stroke-opacity:1"
         d="m 126.86198,91.433447 c 1.8948,-2.886627 7.15524,-1.145505 11.84132,-0.194119 l 1.65002,27.856212 6.11478,4.56182 -16.59726,8.15304 -11.45308,25.91502 -13.1031,-0.87354 -2.4265,-14.94724 5.24124,2.23238 10.6766,-1.84414 7.47362,-8.54128 4.16393,-13.90912 -0.96095,-24.332513 z"
         id="path1045"
         sodipodi:nodetypes="cccccccccccccc" />
    </g>
  </g>
</svg>
