<?xml version="1.0" encoding="UTF-8" standalone="no"?>
<svg
   xmlns:dc="http://purl.org/dc/elements/1.1/"
   xmlns:cc="http://creativecommons.org/ns#"
   xmlns:rdf="http://www.w3.org/1999/02/22-rdf-syntax-ns#"
   xmlns:svg="http://www.w3.org/2000/svg"
   xmlns="http://www.w3.org/2000/svg"
   xmlns:sodipodi="http://sodipodi.sourceforge.net/DTD/sodipodi-0.dtd"
   xmlns:inkscape="http://www.inkscape.org/namespaces/inkscape"
   width="210mm"
   height="297mm"
   viewBox="0 0 210 297"
   version="1.1"
   id="svg4323"
   inkscape:version="1.0.2 (e86c870879, 2021-01-15, custom)"
   sodipodi:docname="stomata.svg">
  <defs
     id="defs4317" />
  <sodipodi:namedview
     id="base"
     pagecolor="#ffffff"
     bordercolor="#666666"
     borderopacity="1.0"
     inkscape:pageopacity="0.0"
     inkscape:pageshadow="2"
     inkscape:zoom="0.34074713"
     inkscape:cx="-1106.6008"
     inkscape:cy="327.29619"
     inkscape:document-units="mm"
     inkscape:current-layer="layer1"
     inkscape:document-rotation="0"
     showgrid="false"
     inkscape:window-width="1920"
     inkscape:window-height="1017"
     inkscape:window-x="-8"
     inkscape:window-y="-8"
     inkscape:window-maximized="1" />
  <metadata
     id="metadata4320">
    <rdf:RDF>
      <cc:Work
         rdf:about="">
        <dc:format>image/svg+xml</dc:format>
        <dc:type
           rdf:resource="http://purl.org/dc/dcmitype/StillImage" />
        <dc:title></dc:title>
      </cc:Work>
    </rdf:RDF>
  </metadata>
  <g
     inkscape:label="Layer 1"
     inkscape:groupmode="layer"
     id="layer1">
    <g
       id="g5319">
      <g
         id="g5234"
         transform="translate(73.573274,12.079194)">
        <path
           style="fill:#5aa02c;stroke:#000000;stroke-width:1.1;stroke-linecap:butt;stroke-linejoin:miter;stroke-miterlimit:4;stroke-dasharray:none;stroke-opacity:1"
           d="m 16.197101,101.02599 c 3.354858,0.0494 7.834475,5.47481 7.79892,11.80452 -0.04512,8.03258 -5.457603,21.24196 -5.489718,33.08023 -0.03164,11.66346 4.66076,20.72164 4.52652,29.37441 -0.126386,8.14651 -4.662006,13.36297 -9.031939,13.17773 C 4.7856415,188.1033 -2.6145297,182.65627 -7.0421581,175.96739 -31.655251,138.784 -3.6267505,99.220104 16.197101,101.02599 Z"
           id="path4900"
           sodipodi:nodetypes="cssscsc" />
        <path
           style="fill:#447821;stroke:#000000;stroke-width:1.1;stroke-linecap:butt;stroke-linejoin:miter;stroke-miterlimit:4;stroke-dasharray:none;stroke-opacity:1"
           d="m 32.280739,100.84762 c -3.367876,0.0494 -7.864876,5.47481 -7.829184,11.80452 0.04529,8.03258 5.478782,21.24195 5.511021,33.08022 0.03177,11.66346 -4.678846,20.72164 -4.544085,29.37441 0.126877,8.14651 4.680097,13.36297 9.066987,13.17773 9.251,-0.35958 16.514979,-5.91917 21.124697,-12.49549 C 80.23725,140.6555 57.628707,98.774443 32.280739,100.84762 Z"
           id="path4900-7"
           sodipodi:nodetypes="cssscsc" />
        <path
           style="fill:#89a02c;stroke:#000000;stroke-width:1.1;stroke-linecap:butt;stroke-linejoin:miter;stroke-miterlimit:4;stroke-dasharray:none;stroke-opacity:1"
           d="m -5.9023334,90.044901 4.96655162,6.943575 c 0.83733593,7.416234 -9.76433322,15.702844 -15.64819722,23.053294 -6.277048,7.84163 -2.741402,18.93868 -7.886737,27.21849 -1.314239,2.11486 -11.467831,2.39875 -11.904129,2.90609 -4.90057,0.23912 -9.95521,1.82635 -13.443323,-10.29353 0.303028,-8.05951 -1.101648,-14.15515 13.306058,-38.43504 17.621638,-23.297364 25.725288,-21.57602 30.6097766,-11.392879 z"
           id="path4924"
           sodipodi:nodetypes="ccsscccc" />
        <path
           style="fill:#ddff55;stroke:#000000;stroke-width:1.1;stroke-linecap:butt;stroke-linejoin:miter;stroke-miterlimit:4;stroke-dasharray:none;stroke-opacity:1"
           d="m -9.1803259,93.293772 3.463713,3.505319 c 0.7228164,6.529459 -9.3897441,15.884189 -14.4688931,22.355729 -5.418558,6.904 -3.87637,16.94869 -8.317995,24.23847 -1.134496,1.86198 -6.467828,3.21004 -6.844455,3.65672 -4.230336,0.21052 -8.59367,1.60797 -11.604727,-9.06272 0.261584,-7.09583 -0.950979,-12.4626 11.486236,-33.83932 15.211589,-20.511668 22.069667,-19.819729 26.2861211,-10.854198 z"
           id="path4924-6"
           sodipodi:nodetypes="ccsscccc" />
        <path
           style="fill:#554400;stroke:#000000;stroke-width:1.1;stroke-linecap:butt;stroke-linejoin:miter;stroke-miterlimit:4;stroke-dasharray:none;stroke-opacity:1"
           d="m -27.128271,111.32782 c 0,0 -2.13532,0.0485 -2.814738,0.72795 -0.679421,0.67942 -1.455902,1.4559 -1.747081,2.13532 -0.291179,0.67942 -0.582361,1.35884 -0.339709,2.32944 0.242649,0.9706 0.873538,2.23238 1.06766,2.57209 0.194119,0.33971 1.98973,1.16472 1.98973,1.16472 0,0 0.825008,0.19412 1.650018,0.0485 0.825011,-0.14559 1.941201,-0.58236 2.232381,-0.92207 0.29118,-0.33971 1.06766,-1.11619 1.31031,-1.65002 0.24265,-0.53383 0.77648,-1.55296 0.77648,-2.13532 0,-0.58236 -0.09706,-1.74708 -0.29118,-2.32944 -0.19412,-0.58236 -0.33971,-1.06766 -0.9706,-1.55296 -0.63089,-0.4853 -1.11619,-0.63089 -1.35884,-0.63089 -0.24265,0 -1.9412,0.24265 -1.9412,0.24265"
           id="path4946" />
        <path
           style="fill:#a0892c;stroke:#000000;stroke-width:1.1;stroke-linecap:butt;stroke-linejoin:miter;stroke-miterlimit:4;stroke-dasharray:none;stroke-opacity:1"
           d="m -27.51651,113.65726 c 0,0 -1.407369,0.82501 -1.698551,1.35884 -0.291179,0.53383 -0.825008,0.87354 -0.339709,1.4559 0.485299,0.58236 0.582361,0.92207 1.11619,1.01913 0.533831,0.0971 1.74708,0 1.89267,-0.19412 0.14559,-0.19412 0.53383,-0.4853 0.53383,-0.82501 0,-0.33971 0.14559,-1.35884 0.09706,-1.69855 -0.04853,-0.33971 -0.43677,-1.11619 -0.72795,-1.31031 -0.291179,-0.19412 -0.87354,0.19412 -0.87354,0.19412 z"
           id="path4948" />
        <path
           id="path4950"
           style="fill:none;stroke:#000000;stroke-width:1.1;stroke-linecap:butt;stroke-linejoin:miter;stroke-miterlimit:4;stroke-dasharray:none;stroke-opacity:1"
           d="m 3.49416,111.91018 c -1.2291943,0.60359 -3.85314518,0.66684 -3.78939202,2.37124 0.71660726,0.86016 1.96831922,1.16355 3.04066312,1.32828 1.298929,0.0617 2.5349362,-0.40851 3.771844,-0.73191 1.3638544,-0.96321 0.224216,-3.32437 -1.3410048,-3.12849 -0.7622893,0.0647 -1.5024679,0.27649 -2.2644699,0.35511" />
        <path
           style="fill:#bcd35f;stroke:#000000;stroke-width:1.1;stroke-linecap:butt;stroke-linejoin:miter;stroke-miterlimit:4;stroke-dasharray:none;stroke-opacity:1"
           d="m 13.49134,104.92186 c 3.062713,0.9062 6.136226,1.76766 7.431604,9.99567 -0.839556,15.08912 -6.94936,17.7213 -10.455068,26.50861 -0.225315,12.55608 6.449049,19.13245 9.763314,28.62089 2.157634,17.43803 -4.06737,12.87164 -7.61339,15.33757 -2.9643782,4.29835 -22.4666429,-11.17297 -25.309841,-26.64347 -1.071947,-5.83271 -2.20028,-19.17359 -1.866959,-20.04239 6.5659475,-17.11412 12.1631579,-37.56536 28.05034,-33.77688 z"
           id="path4952"
           sodipodi:nodetypes="cccccssc" />
        <path
           style="fill:#806600;stroke:#000000;stroke-width:1.1;stroke-linecap:butt;stroke-linejoin:miter;stroke-miterlimit:4;stroke-dasharray:none;stroke-opacity:1"
           d="m 3.1051156,132.95851 c 0,0 -1.6715487,0.0376 -2.20340347,0.56494 -0.53185716,0.52728 -1.1396938,1.12989 -1.36763147,1.65717 -0.22793766,0.52728 -0.45587768,1.05456 -0.2659274,1.80782 0.18994792,0.75325 0.68381377,1.73249 0.8357743,1.99613 0.15195819,0.26364 1.55757944,0.90391 1.55757944,0.90391 0,0 0.645824,0.15065 1.2916496,0.0376 0.6458264,-0.11299 1.5195904,-0.45196 1.7475289,-0.7156 0.2279384,-0.26364 0.8357743,-0.86624 1.025723,-1.28053 0.1899487,-0.4143 0.6078358,-1.20522 0.6078358,-1.65717 0,-0.45196 -0.075979,-1.35586 -0.2279384,-1.80782 -0.151959,-0.45195 -0.2659282,-0.82858 -0.7597948,-1.20521 -0.4938667,-0.37663 -0.8737641,-0.48962 -1.0637128,-0.48962 -0.1899487,0 -1.5195896,0.18832 -1.5195896,0.18832"
           id="path4946-7" />
        <path
           style="fill:#aa8800;stroke:#000000;stroke-width:1.1;stroke-linecap:butt;stroke-linejoin:miter;stroke-miterlimit:4;stroke-dasharray:none;stroke-opacity:1"
           d="m 2.8011984,134.76633 c 0,0 -1.1017017,0.64027 -1.3296417,1.05456 -0.2279377,0.41429 -0.64582405,0.67793 -0.2659274,1.12988 0.3798966,0.45196 0.4558777,0.7156 0.873764,0.79092 0.417888,0.0754 1.3676307,0 1.4815999,-0.15065 0.1139693,-0.15065 0.4178872,-0.37663 0.4178872,-0.64027 0,-0.26364 0.1139692,-1.05456 0.07598,-1.3182 -0.03799,-0.26364 -0.3419077,-0.86624 -0.5698461,-1.01689 -0.2279377,-0.15066 -0.6838154,0.15065 -0.6838159,0.15065 z"
           id="path4948-9" />
        <path
           style="fill:#bcd35f;stroke:#000000;stroke-width:1.1;stroke-linecap:butt;stroke-linejoin:miter;stroke-miterlimit:4;stroke-dasharray:none;stroke-opacity:1"
           d="m 35.918502,102.3226 c -3.156623,0.94393 -8.071457,0.38536 -9.406555,8.95598 0.865298,15.71742 7.162445,18.4592 10.775646,27.61241 0.232224,13.0789 -6.646793,19.92911 -10.062681,29.81264 -2.223792,18.16413 4.192085,13.4076 7.846835,15.97621 3.055273,4.47733 23.155525,-11.6382 26.085903,-27.75288 1.104815,-6.07558 2.139064,-19.93309 1.924204,-20.87694 -3.568067,-15.67398 -8.581562,-31.35918 -27.163352,-33.72742 z"
           id="path4952-3"
           sodipodi:nodetypes="cccccssc" />
        <path
           style="fill:#554400;stroke:#000000;stroke-width:1.1;stroke-linecap:butt;stroke-linejoin:miter;stroke-miterlimit:4;stroke-dasharray:none;stroke-opacity:1"
           d="m 48.48584,147.66366 c 0,0 -1.936425,0.0441 -2.552559,0.66131 -0.616136,0.61722 -1.320292,1.32262 -1.584349,1.93984 -0.264058,0.61722 -0.528117,1.23444 -0.308067,2.11619 0.220047,0.88174 0.792172,2.02801 0.968213,2.33662 0.176037,0.30861 1.804396,1.0581 1.804396,1.0581 0,0 0.748163,0.17635 1.496328,0.0441 0.748165,-0.13226 1.760388,-0.52905 2.024446,-0.83766 0.264058,-0.30861 0.968212,-1.01401 1.188261,-1.49897 0.220048,-0.48496 0.704155,-1.41079 0.704155,-1.93984 0,-0.52905 -0.08802,-1.58714 -0.264058,-2.11619 -0.176039,-0.52905 -0.308068,-0.96992 -0.880194,-1.41079 -0.572126,-0.44087 -1.012222,-0.57314 -1.232271,-0.57314 -0.220048,0 -1.760387,0.22044 -1.760387,0.22044"
           id="path4946-1" />
        <path
           style="fill:#aa8800;stroke:#000000;stroke-width:1.1;stroke-linecap:butt;stroke-linejoin:miter;stroke-miterlimit:4;stroke-dasharray:none;stroke-opacity:1"
           d="m 48.133764,149.77985 c 0,0 -1.27628,0.74948 -1.54034,1.23444 -0.264057,0.48496 -0.748162,0.79357 -0.308067,1.32262 0.440096,0.52905 0.528117,0.83766 1.012223,0.92583 0.484107,0.0882 1.584348,0 1.716377,-0.17635 0.132029,-0.17635 0.484107,-0.44087 0.484107,-0.74948 0,-0.30861 0.132029,-1.23444 0.08802,-1.54306 -0.04401,-0.30861 -0.396087,-1.014 -0.660145,-1.19035 -0.264057,-0.17635 -0.792174,0.17635 -0.792175,0.17635 z"
           id="path4948-4" />
        <path
           style="fill:#89a02c;stroke:#000000;stroke-width:1.1;stroke-linecap:butt;stroke-linejoin:miter;stroke-miterlimit:4;stroke-dasharray:none;stroke-opacity:1"
           d="m -36.374845,150.16635 6.700238,-0.86054 c 5.495558,2.09872 7.346971,12.23767 10.297864,18.8532 3.148079,7.05762 12.219819,8.6559 16.0949325,15.10641 0.9897969,1.64763 -2.586464,8.6088 -2.3940103,9.08581 -1.6546864,3.39643 -2.4242622,7.38129 -12.1933342,5.38344 -5.521295,-3.10019 -10.304619,-4.34121 -21.921099,-22.79708 -9.734832,-20.27403 -5.518916,-25.12998 3.415409,-24.77124 z"
           id="path4924-7"
           sodipodi:nodetypes="ccsscccc" />
        <path
           style="fill:#ddff55;stroke:#000000;stroke-width:1.1;stroke-linecap:butt;stroke-linejoin:miter;stroke-miterlimit:4;stroke-dasharray:none;stroke-opacity:1"
           d="m -35.322374,153.54798 3.738046,-1.08056 c 4.833094,1.85751 7.613002,12.04978 10.24866,17.80593 2.811788,6.14082 10.406792,8.70769 13.8514427,14.32714 0.8798446,1.43534 -0.1605287,5.52254 0.011709,5.93744 -1.4255147,2.9334 -2.0707547,6.38307 -10.6494287,4.58359 -4.863048,-2.72599 -9.065438,-3.83493 -19.385027,-19.91665 -8.683476,-17.64515 -5.65021,-22.02948 2.1846,-21.65689 z"
           id="path4924-6-2"
           sodipodi:nodetypes="ccsscccc" />
        <path
           style="fill:#554400;stroke:#000000;stroke-width:1.1;stroke-linecap:butt;stroke-linejoin:miter;stroke-miterlimit:4;stroke-dasharray:none;stroke-opacity:1"
           d="m -29.388134,172.15153 c 0,0 -0.759926,1.45993 -0.537542,2.163 0.222361,0.70308 0.47649,1.50657 0.843186,1.94737 0.366695,0.44079 0.733387,0.88159 1.502089,1.06637 0.7687,0.18478 1.885278,0.2119 2.194918,0.20281 0.309638,-0.01 1.553895,-0.92571 1.553895,-0.92571 0,0 0.442404,-0.48759 0.647316,-1.09723 0.204934,-0.60963 0.314569,-1.52058 0.185346,-1.83934 -0.129223,-0.31875 -0.383351,-1.12225 -0.666315,-1.47796 -0.282961,-0.3557 -0.796921,-1.08247 -1.204016,-1.29168 -0.407094,-0.20922 -1.257368,-0.56209 -1.736631,-0.64018 -0.479261,-0.0781 -0.872631,-0.15408 -1.446418,0.0978 -0.573786,0.25185 -0.855975,0.52739 -0.946183,0.6913 -0.09021,0.16392 -0.55204,1.39854 -0.55204,1.39854"
           id="path4946-3" />
        <path
           style="fill:#786721;stroke:#000000;stroke-width:1.1;stroke-linecap:butt;stroke-linejoin:miter;stroke-miterlimit:4;stroke-dasharray:none;stroke-opacity:1"
           d="m -27.904086,173.25069 c 0,0 0.05351,1.24713 0.318433,1.63561 0.264922,0.38849 0.303936,0.87117 0.891448,0.75254 0.587509,-0.11861 0.861066,-0.0622 1.127372,-0.38789 0.266335,-0.32575 0.649497,-1.18022 0.567923,-1.34832 -0.08158,-0.16809 -0.140789,-0.53497 -0.378261,-0.65702 -0.237472,-0.12204 -0.895764,-0.58653 -1.151277,-0.6758 -0.255515,-0.0892 -0.942641,-0.10594 -1.186588,0.021 -0.243948,0.12697 -0.18905,0.65985 -0.18905,0.65985 z"
           id="path4948-7" />
        <path
           style="fill:#89a02c;stroke:#000000;stroke-width:1.1;stroke-linecap:butt;stroke-linejoin:miter;stroke-miterlimit:4;stroke-dasharray:none;stroke-opacity:1"
           d="m -7.7207631,195.517 3.8780102,-7.60533 c 6.198353,-4.15716 18.4349559,1.44005 27.6687939,3.27995 9.850875,1.96284 18.074817,-6.2841 27.793741,-5.52764 2.482443,0.19322 7.408336,9.07644 8.059565,9.23023 2.468094,4.24043 6.203901,7.99708 -2.949944,16.67265 -7.294357,3.44092 -12.059195,7.49385 -40.245891,5.87978 -28.793876,-4.91953 -30.995994,-12.90595 -24.2042751,-21.92964 z"
           id="path4924-1"
           sodipodi:nodetypes="ccsscccc" />
        <path
           style="fill:#ddff55;stroke:#000000;stroke-width:1.1;stroke-linecap:butt;stroke-linejoin:miter;stroke-miterlimit:4;stroke-dasharray:none;stroke-opacity:1"
           d="m -3.3276479,196.93154 1.517459,-4.68848 c 5.463835,-3.64731 18.4235219,1.02403 26.5066789,2.55411 8.623312,1.63232 16.830638,-4.3605 25.34673,-3.77303 2.175209,0.15005 5.826977,4.26421 6.396887,4.39294 2.134185,3.6586 5.383293,6.8889 -2.703623,14.47388 -6.419768,3.0341 -10.625981,6.58098 -35.328324,5.37984 -25.2114809,-4.06229 -27.754096,-10.4691 -21.7358079,-18.33926 z"
           id="path4924-6-8"
           sodipodi:nodetypes="ccsscccc" />
        <path
           style="fill:#554400;stroke:#000000;stroke-width:1.1;stroke-linecap:butt;stroke-linejoin:miter;stroke-miterlimit:4;stroke-dasharray:none;stroke-opacity:1"
           d="m 20.943905,204.56354 c 0,0 1.025979,1.87332 1.941912,2.16371 0.915907,0.29041 1.962658,0.62231 2.699851,0.56806 0.737193,-0.0543 1.474387,-0.10851 2.224345,-0.77071 0.749959,-0.66219 1.579702,-1.80309 1.791923,-2.13179 0.212223,-0.32871 0.11808,-2.30253 0.11808,-2.30253 0,0 -0.207434,-0.82177 -0.716475,-1.48714 -0.509014,-0.66539 -1.41056,-1.45524 -1.846174,-1.55736 -0.435614,-0.10213 -1.482365,-0.43402 -2.067971,-0.40371 -0.585606,0.0303 -1.736074,0.0255 -2.253067,0.2936 -0.516993,0.26807 -1.5063,0.89038 -1.933937,1.33078 -0.427636,0.4404 -0.791446,0.79304 -0.931864,1.57651 -0.140418,0.78347 -0.04627,1.28131 0.06542,1.49672 0.111696,0.21542 1.108981,1.61162 1.108981,1.61162"
           id="path4946-2" />
        <path
           style="fill:#a0892c;stroke:#000000;stroke-width:1.1;stroke-linecap:butt;stroke-linejoin:miter;stroke-miterlimit:4;stroke-dasharray:none;stroke-opacity:1"
           d="m 23.190589,203.83592 c 0,0 1.380242,0.86963 1.988188,0.8824 0.607945,0.0128 1.155254,0.3303 1.448856,-0.3686 0.293601,-0.69889 0.550501,-0.94143 0.390936,-1.46002 -0.15953,-0.51861 -0.80421,-1.55098 -1.043558,-1.59087 -0.239349,-0.0399 -0.676558,-0.25052 -0.978138,-0.0942 -0.301579,0.15638 -1.273334,0.49625 -1.552574,0.69571 -0.27924,0.19946 -0.78985,0.90155 -0.828146,1.2494 -0.0383,0.34785 0.574436,0.68613 0.574436,0.68613 z"
           id="path4948-2" />
        <path
           style="fill:#abc837;stroke:#000000;stroke-width:1.1;stroke-linecap:butt;stroke-linejoin:miter;stroke-miterlimit:4;stroke-dasharray:none;stroke-opacity:1"
           d="m 78.888655,145.20192 -8.247003,-1.43271 c -6.082749,-4.40961 -5.840108,-16.77302 -7.772614,-25.47085 -2.061634,-9.27904 -12.556135,-14.4059 -15.637463,-23.247924 -0.787049,-2.25846 5.194686,-8.99238 5.079723,-9.61217 2.810347,-3.318218 4.701848,-7.635417 15.935791,-1.795328 5.87028,5.573928 11.307001,8.736528 20.758036,34.226412 6.751929,26.90571 0.514366,30.98012 -10.11647,27.33257 z"
           id="path4924-5"
           sodipodi:nodetypes="ccsscccc" />
        <path
           style="fill:#ddff55;stroke:#000000;stroke-width:1.1;stroke-linecap:butt;stroke-linejoin:miter;stroke-miterlimit:4;stroke-dasharray:none;stroke-opacity:1"
           d="m 78.447761,140.92092 -4.746885,-0.10678 c -5.346628,-3.89162 -6.204901,-16.65261 -7.968064,-24.24521 -1.880974,-8.09997 -10.368552,-13.80939 -13.135427,-21.537144 -0.706732,-1.97385 1.534501,-6.31107 1.428697,-6.85192 2.422906,-2.867133 4.035196,-6.61211 13.889295,-1.431664 5.171534,4.904084 9.943451,7.704094 18.415575,29.986448 6.129461,23.49326 1.425267,27.45183 -7.883191,24.18627 z"
           id="path4924-6-0"
           sodipodi:nodetypes="ccsscccc" />
        <path
           style="fill:#786721;stroke:#000000;stroke-width:1.1;stroke-linecap:butt;stroke-linejoin:miter;stroke-miterlimit:4;stroke-dasharray:none;stroke-opacity:1"
           d="m 75.849296,117.31744 c 0,0 1.26638,-1.40869 1.17044,-2.30004 -0.09592,-0.89134 -0.205534,-1.91001 -0.53833,-2.55111 -0.332789,-0.64109 -0.665583,-1.28219 -1.54285,-1.77353 -0.877265,-0.49134 -2.210174,-0.92677 -2.583841,-1.02836 -0.373665,-0.10159 -2.08906,0.50519 -2.08906,0.50519 0,0 -0.649204,0.40221 -1.043164,1.03114 -0.39395,0.62895 -0.746864,1.63984 -0.669291,2.05423 0.07757,0.41439 0.187183,1.43305 0.440211,1.94572 0.25302,0.51265 0.692984,1.53685 1.130516,1.9255 0.437531,0.38864 1.371816,1.10337 1.927782,1.36689 0.555975,0.26353 1.009409,0.49356 1.758944,0.4108 0.749535,-0.0828 1.155014,-0.29841 1.30306,-0.45481 0.148014,-0.15642 1.002087,-1.41313 1.002087,-1.41313"
           id="path4946-8" />
        <path
           style="fill:#c8ab37;stroke:#000000;stroke-width:1.1;stroke-linecap:butt;stroke-linejoin:miter;stroke-miterlimit:4;stroke-dasharray:none;stroke-opacity:1"
           d="m 74.336049,115.51262 c 0,0 0.238843,-1.4577 0.01543,-2.00163 -0.223418,-0.54394 -0.152937,-1.11473 -0.886561,-1.19057 -0.733623,-0.0759 -1.048077,-0.24 -1.446701,0.0393 -0.398665,0.27927 -1.065952,1.12607 -1.008958,1.34944 0.05702,0.22339 0.03891,0.66795 0.294137,0.89466 0.255221,0.22671 0.932073,1.00068 1.216907,1.19611 0.284849,0.1954 1.105087,0.46338 1.428589,0.40525 0.323501,-0.0581 0.387103,-0.69261 0.387103,-0.69261 z"
           id="path4948-6" />
        <path
           style="fill:#89a02c;stroke:#000000;stroke-width:1.1;stroke-linecap:butt;stroke-linejoin:miter;stroke-miterlimit:4;stroke-dasharray:none;stroke-opacity:1"
           d="m -8.3730776,85.789732 c 0,0 0.068632,-3.294327 0.068632,-3.637486 0,-0.34316 0.2745271,-1.578531 1.0981086,-2.402113 0.8235815,-0.823582 3.8433798,-3.637484 4.3238026,-3.91201 0.4804223,-0.274529 3.01979837,-1.029478 4.8728565,-1.647163 1.8530583,-0.617686 4.6669613,-2.127586 6.3827559,-2.333482 1.715794,-0.205894 7.000442,-0.343157 8.235814,-0.274527 1.235372,0.06863 9.95161,0.343159 11.461508,0.411792 1.5099,0.06863 8.304445,-0.411792 10.500664,-0.137265 2.196216,0.274529 4.804224,0.205896 7.000441,1.441267 2.196216,1.235374 3.50022,1.990323 4.323802,2.882535 0.823582,0.892214 2.196219,0.686318 2.539375,2.608008 0.34316,1.92169 0.480423,2.058953 0.27453,3.088431 -0.205897,1.029478 1.263126,2.316866 -0.397915,3.560546 -1.661041,1.243679 -2.82778,3.234002 -3.170939,3.988951 -0.343159,0.754948 -1.715794,3.088431 -2.127586,3.637483 -0.411789,0.549056 -2.196216,3.500221 -2.745272,4.049276 -0.549052,0.549056 -2.745271,1.578531 -3.294324,1.715794 -0.549055,0.137266 -0.686319,0.205896 -2.745272,0.137266 -2.058953,-0.06863 -1.235371,-0.06863 -4.323802,-0.480425 -3.088431,-0.41179 -4.392435,-0.823579 -6.725914,-0.960845 -2.333482,-0.137263 -3.0198,-0.549053 -5.490544,-0.274527 -2.470744,0.274527 -7.274969,0.960845 -8.304446,1.235372 -1.029477,0.274529 -3.019799,0.480425 -3.7747479,0.549055 -0.7549496,0.06863 -4.8042247,0.06863 -5.353279,-0.137263 -0.5490544,-0.205896 -5.19095246,-1.909927 -5.19095246,-1.909927 z"
           id="path5149" />
        <path
           style="fill:#ddff55;stroke:#000000;stroke-width:1.1;stroke-linecap:butt;stroke-linejoin:miter;stroke-miterlimit:4;stroke-dasharray:none;stroke-opacity:1"
           d="m -4.1865388,84.691621 c 0.1372634,-0.823579 0.4804225,-1.92169 1.1667402,-2.676639 0.6863179,-0.754948 1.2353722,-2.539375 3.08843038,-3.637483 C 1.92169,77.279391 4.6669613,76.318546 5.8337018,76.044017 c 1.1667403,-0.274527 3.500221,-0.892212 5.4905432,-1.166739 1.990321,-0.274529 5.490542,-0.343159 7.206337,-0.274529 1.715795,0.06863 5.284647,0.343159 8.510342,0.06863 3.225692,-0.274526 5.078751,-0.480422 7.68676,-0.480422 2.608006,0 5.42191,-2.470746 7.3436,1.99032 1.92169,4.461068 1.509901,6.520021 1.509901,7.549496 0,1.029478 -1.235374,3.77475 -1.990323,4.461068 -0.754949,0.686316 -1.098108,1.509898 -2.951168,2.402113 -1.853057,0.892212 -0.343159,1.372634 -3.019798,1.715793 -2.676639,0.34316 -5.627807,1.647164 -7.755393,1.647164 -2.127584,0 -6.108227,-0.549055 -7.824022,-0.411792 -1.715794,0.137263 -7.824023,1.235374 -9.059395,1.5099 C 9.7457134,95.329548 8.2358142,96.702186 5.4905428,96.084497 2.7452714,95.466812 0.34315892,95.878604 -0.68631783,94.094177 -1.7157946,92.30975 -2.8139032,87.642789 -3.2256939,87.025103 -3.6374845,86.407418 -4.1865388,84.691621 -4.1865388,84.691621 Z"
           id="path5151" />
        <path
           style="fill:#786721;stroke:#000000;stroke-width:1.1;stroke-linecap:butt;stroke-linejoin:miter;stroke-miterlimit:4;stroke-dasharray:none;stroke-opacity:1"
           d="m 24.021125,77.828443 c -0.274527,0 -2.058954,-0.411789 -3.706117,0.549056 -1.647163,0.960845 -3.294325,1.441267 -3.431589,2.470742 -0.137264,1.029478 -0.549054,0.754952 -0.06863,1.578534 0.480423,0.823579 -0.274527,1.57853 1.372636,2.127583 1.647163,0.549055 4.323802,1.166741 5.421911,1.098108 1.098108,-0.06863 3.568854,-0.343157 4.186539,-1.304002 0.617686,-0.960844 0.823582,-1.5099 0.343159,-2.470745 -0.480422,-0.960845 0,-1.57853 -1.715795,-2.333482 -1.715795,-0.754949 -2.402112,-1.715794 -2.402112,-1.715794 z"
           id="path5153" />
        <path
           style="fill:#c8ab37;stroke:#000000;stroke-width:1.1;stroke-linecap:butt;stroke-linejoin:miter;stroke-miterlimit:4;stroke-dasharray:none;stroke-opacity:1"
           d="m 22.168066,80.573715 c -0.274527,-0.06863 -1.578531,-0.480423 -1.921689,0.343159 -0.34316,0.823582 -1.715795,0.960845 -0.480423,1.372635 1.235372,0.411792 1.647163,0.823581 2.127585,0.411792 0.480423,-0.411792 0.892214,-0.892215 0.892214,-0.892215 z"
           id="path5155" />
        <path
           style="fill:#7fff2a;stroke:#000000;stroke-width:1.1;stroke-linecap:butt;stroke-linejoin:miter;stroke-miterlimit:4;stroke-dasharray:none;stroke-opacity:1"
           d="m 12.353721,119.4193 c -0.549054,0.89222 -2.5393757,3.36296 -2.9511666,4.46107 -0.4117906,1.09811 0.8922136,3.98065 0.8922136,3.98065 0,0 1.098108,0.68631 1.715794,-0.4118 0.617686,-1.0981 1.098109,-1.78442 1.441268,-2.74527 0.343159,-0.96084 0.41179,-1.92169 0.549054,-2.67664 0.137264,-0.75495 -0.137264,-1.85306 -0.137264,-1.85306 z"
           id="path5157" />
        <path
           style="fill:#7fff2a;stroke:#000000;stroke-width:1.1;stroke-linecap:butt;stroke-linejoin:miter;stroke-miterlimit:4;stroke-dasharray:none;stroke-opacity:1"
           d="m -4.804225,123.53721 -3.6374845,4.7356 c 0,0 0.617686,1.71579 1.1667403,1.92169 0.5490543,0.20589 0.4117909,0.61768 1.5098993,-0.2059 1.0981086,-0.82358 1.0294768,-0.89221 1.9903217,-1.99032 0.960845,-1.09811 1.4412675,-1.02948 1.7844265,-2.12759 0.3431589,-1.0981 0.5490542,-1.44126 0.4117906,-1.85306 -0.1372635,-0.41179 -1.0981084,-0.89221 -1.3726356,-0.89221 -0.2745272,0 -0.7549496,-0.27452 -1.0981087,-0.0686 -0.3431587,0.20589 -1.0294768,0.96084 -1.0294768,0.96084"
           id="path5159" />
        <path
           style="fill:#7fff2a;stroke:#000000;stroke-width:1.1;stroke-linecap:butt;stroke-linejoin:miter;stroke-miterlimit:4;stroke-dasharray:none;stroke-opacity:1"
           d="m -7.8926551,143.98948 -3.8433799,3.15707 c 0,0 -1.029477,0.54905 -0.75495,1.304 0.274527,0.75495 0.960845,1.16674 1.509899,1.23537 0.549055,0.0686 -0.06863,0.68632 1.715795,-0.68632 1.7844265,-1.37263 3.4315892,-2.88253 3.4315892,-2.88253 0,0 0.4804225,-1.64716 0.4804225,-1.99032 0,-0.34316 -0.068632,-0.68632 -0.3431588,-0.68632 -0.2745271,0 -2.196217,0.54905 -2.196217,0.54905 z"
           id="path5161" />
        <path
           style="fill:#7fff2a;stroke:#000000;stroke-width:1.1;stroke-linecap:butt;stroke-linejoin:miter;stroke-miterlimit:4;stroke-dasharray:none;stroke-opacity:1"
           d="m 10.294768,159.29437 c 0,0 1.029477,3.29433 1.098108,3.77475 0.06863,0.48042 0.480423,1.64716 0.960845,1.99032 0.480423,0.34316 1.029477,0.68632 1.578531,0.48043 0.549055,-0.2059 0.892214,0 1.098109,-0.96085 0.205895,-0.96084 0.343159,-1.85306 0,-2.88253 -0.343159,-1.02948 -1.647163,-2.81391 -1.990322,-3.29433 -0.343159,-0.48042 -0.823581,-0.96085 -1.509899,-0.61769 -0.686318,0.34316 -1.235372,1.5099 -1.235372,1.5099 z"
           id="path5163" />
        <path
           style="fill:#80ffe6;stroke:#000000;stroke-width:1.1;stroke-linecap:butt;stroke-linejoin:miter;stroke-miterlimit:4;stroke-dasharray:none;stroke-opacity:1"
           d="m -1.5098993,152.77435 c -0.3431589,0.0686 -3.6374845,0.61769 -4.3924341,3.36296 -0.7549496,2.74527 -1.7157946,3.77475 -1.1667405,6.17686 0.5490543,2.40211 0.4804225,4.04928 1.4412677,6.45139 0.9608449,2.40211 4.0492751,6.10823 4.2551705,6.38275 0.2058954,0.27453 2.19621712,2.47075 3.1570621,2.88254 0.960845,0.41179 6.3141243,3.63748 6.3141243,3.63748 0,0 3.0197983,-0.82358 3.5688523,-1.99032 0.549055,-1.16674 0.823582,0.2059 0.823582,-3.36295 0,-3.56886 0.480422,-5.14739 -0.343159,-6.58866 -0.823581,-1.44126 -3.6374847,-5.07875 -3.9806437,-6.10822 -0.3431588,-1.02948 -1.5785309,-3.50023 -1.853058,-4.66697 -0.2745272,-1.16674 -2.608008,-5.90233 -3.0197986,-5.97096 -0.4117909,-0.0686 -2.2648489,-0.54906 -3.22569392,-0.61769 -0.96084497,-0.0686 -1.92168998,0.75495 -1.92168998,0.75495"
           id="path5165" />
        <path
           style="fill:#66ff00;stroke:#000000;stroke-width:1.1;stroke-linecap:butt;stroke-linejoin:miter;stroke-miterlimit:4;stroke-dasharray:none;stroke-opacity:1"
           d="m 42.27718,171.78536 c 0,0 -1.166741,1.02947 -2.058955,1.71579 -0.892212,0.68632 -1.92169,0.82358 -1.029476,1.57853 0.892212,0.75495 0.617686,1.16674 1.372635,1.02948 0.754951,-0.13726 2.402112,-0.82358 3.157064,-1.37264 0.754949,-0.54905 0.960845,-0.82358 1.304004,-1.304 0.343157,-0.48042 0.549053,-1.44127 0.549053,-1.44127 0,0 0.480422,-1.09811 -0.41179,-1.09811 -0.892215,0 -2.882535,0.89222 -2.882535,0.89222 z"
           id="path5167" />
        <path
           style="fill:none;stroke:#000000;stroke-width:1.1;stroke-linecap:butt;stroke-linejoin:miter;stroke-miterlimit:4;stroke-dasharray:none;stroke-opacity:1"
           d="M 42.27718,171.78536 Z"
           id="path5169" />
        <path
           style="fill:#66ff00;stroke:#000000;stroke-width:1.1;stroke-linecap:butt;stroke-linejoin:miter;stroke-miterlimit:4;stroke-dasharray:none;stroke-opacity:1"
           d="m 34.864947,161.62785 c -0.343159,0.96085 -1.235371,3.2257 -1.235371,3.91202 0,0.68631 -0.960848,2.05895 0.137263,2.12758 1.098108,0.0686 1.92169,0.75495 2.402112,0 0.480423,-0.75495 1.098108,-2.74527 1.235372,-3.22569 0.137263,-0.48043 0.274526,-1.85306 0.274526,-2.26485 0,-0.41179 -0.274526,-1.23538 -0.617686,-1.37264 -0.343159,-0.13726 -0.892212,-0.54905 -1.372634,-0.34316 -0.480423,0.2059 -0.823582,1.44127 -0.823582,1.44127"
           id="path5171" />
        <path
           style="fill:#66ff00;stroke:#000000;stroke-width:1.1;stroke-linecap:butt;stroke-linejoin:miter;stroke-miterlimit:4;stroke-dasharray:none;stroke-opacity:1"
           d="m 58.542911,140.96969 c 0,0 -3.774746,3.36295 -3.980643,3.63748 -0.205896,0.27453 1.029478,2.33348 1.304005,2.19622 0.274526,-0.13727 0.754949,-0.75495 1.372634,-1.23538 0.617689,-0.48042 1.715797,-1.57853 1.990323,-1.85305 0.274526,-0.27453 0.549055,-0.68632 0.823582,-1.16674 0.274526,-0.48043 0.549053,-1.02948 0.205896,-1.57853 -0.343159,-0.54906 -0.754952,-0.82359 -0.754952,-0.82359 z"
           id="path5173" />
        <path
           style="fill:#66ff00;stroke:#000000;stroke-width:1.1;stroke-linecap:butt;stroke-linejoin:miter;stroke-miterlimit:4;stroke-dasharray:none;stroke-opacity:1"
           d="m 53.670056,155.0392 -0.754951,4.59833 c 0,0 -0.549053,0.96085 -0.205893,1.304 0.343159,0.34316 0.137263,1.23538 1.029475,0.4118 0.892214,-0.82359 1.5099,-1.37264 1.784426,-2.26485 0.274527,-0.89222 0.754949,-2.19622 0.754949,-2.81391 0,-0.61768 -0.274526,-1.16674 -0.480422,-1.5099 -0.205894,-0.34315 -1.509898,-0.13726 -1.509898,-0.13726 z"
           id="path5175" />
        <path
           style="fill:#66ff00;stroke:#000000;stroke-width:1.1;stroke-linecap:butt;stroke-linejoin:miter;stroke-miterlimit:4;stroke-dasharray:none;stroke-opacity:1"
           d="m 32.256939,108.30096 -2.127586,3.63748 c 0,0 -0.617686,0.82358 -0.480423,1.5099 0.137263,0.68632 0.686319,1.64716 1.235374,1.78443 0.549053,0.13726 1.853057,-0.2059 2.127583,-0.82359 0.274529,-0.61768 0.137266,-1.64716 0.686319,-2.33348 0.549055,-0.68631 0.960845,-1.37263 1.029478,-2.05895 0.06863,-0.68632 -0.823582,-1.92169 -0.823582,-1.92169 0,0 -1.647163,0.0686 -1.647163,0.2059 z"
           id="path5177" />
        <path
           style="fill:#80ffe6;stroke:#000000;stroke-width:1.1;stroke-linecap:butt;stroke-linejoin:miter;stroke-miterlimit:4;stroke-dasharray:none;stroke-opacity:1"
           d="m 38.365168,114.34055 c 0,0 -2.402113,1.16674 -1.990323,3.2257 0.411792,2.05895 -0.137263,4.80422 0.411792,5.8337 0.549053,1.02948 2.402112,4.39243 3.019798,5.07875 0.617686,0.68632 1.441267,-0.75495 2.333479,3.08843 0.892215,3.84338 0.205897,3.15706 1.235374,5.01012 1.029476,1.85306 1.441268,2.40211 2.26485,3.15706 0.823581,0.75495 1.441267,1.09811 2.470742,1.37264 1.029478,0.27453 2.058953,1.16674 4.186539,0.0686 2.127586,-1.09811 3.157064,-1.57853 3.362958,-2.88253 0.205896,-1.30401 0.411792,-4.5297 0.480422,-6.31413 0.06863,-1.78442 0.411792,-3.91201 -0.137263,-5.28464 -0.549053,-1.37264 -1.784427,-2.26485 -2.264849,-4.32381 -0.480423,-2.05895 -0.686316,-3.43159 -1.509898,-4.59833 -0.823582,-1.16674 -3.157064,-2.8139 -3.84338,-3.22569 -0.686318,-0.41179 -2.676641,-1.16674 -3.225694,-1.37264 -0.549055,-0.20589 -2.196219,-0.48042 -3.019801,-0.34316 -0.823579,0.13727 -3.774746,1.5099 -3.774746,1.5099 z"
           id="path5179" />
        <path
           style="fill:#677821;stroke:#000000;stroke-width:1.1;stroke-linecap:butt;stroke-linejoin:miter;stroke-miterlimit:4;stroke-dasharray:none;stroke-opacity:1"
           d="M 67.844942,152.77244 70.3685,148.5018 c 0,0 0.09706,-0.58236 1.35884,-0.77648 1.261782,-0.19412 2.03826,-0.38824 4.270642,-0.38824 2.232379,0 4.367699,0 6.988318,0.0971 2.620621,0.0971 6.211839,-0.29118 7.86186,0.19412 1.650021,0.4853 3.591222,1.4559 3.785341,3.3971 0.19412,1.9412 0.388239,4.17358 0.388239,6.3089 0,2.13532 -0.679418,6.21184 -1.06766,8.63834 -0.388239,2.4265 -10.09424,18.63552 -10.28836,19.21788 -0.194119,0.58236 -6.600078,9.90012 -7.18244,10.28836 -0.582361,0.38824 -3.00886,2.13532 -4.270639,2.52356 -1.261779,0.38824 -3.00886,0.38824 -4.464762,0.38824 -1.455899,0 -3.300039,-1.74708 -4.464759,-2.81474 -1.164719,-1.06766 -2.523559,-1.74708 -3.300039,-2.62062 -0.776481,-0.87354 -1.16472,-1.35884 -3.30004,-4.17358 -2.135322,-2.81474 -2.9118,-3.20298 -3.00886,-4.56182 -0.09706,-1.35884 -0.87354,-1.55296 0.19412,-4.17358 1.06766,-2.62062 0.9706,-2.71768 2.232379,-4.17358 1.26178,-1.4559 3.882401,-4.17358 4.853001,-5.53242 0.9706,-1.35884 2.9118,-3.3971 3.20298,-4.27064 0.291179,-0.87354 0.388239,-2.03826 1.358839,-4.07652 0.9706,-2.03826 1.06766,-2.71768 1.261779,-3.68828 0.194122,-0.9706 1.067663,-5.53242 1.067663,-5.53242 z"
           id="path5181" />
        <path
           style="fill:#ddff55;stroke:#000000;stroke-width:1.1;stroke-linecap:butt;stroke-linejoin:miter;stroke-miterlimit:4;stroke-dasharray:none;stroke-opacity:1"
           d="m 58.624239,181.30808 c 0.09706,-1.06766 0.485301,-2.71768 1.747081,-4.46476 1.261779,-1.74708 2.03826,-2.13532 3.591221,-4.27064 1.552959,-2.13532 2.13532,-3.10592 2.814738,-4.853 0.679421,-1.74708 0.485302,-2.23238 0.9706,-3.30004 0.485302,-1.06766 1.164723,-3.30004 1.941201,-5.24124 0.77648,-1.9412 1.358841,-4.17358 2.03826,-5.04712 0.67942,-0.87354 1.164719,-2.23238 2.135319,-2.62062 0.9706,-0.38824 -0.679418,-0.77648 3.300042,-0.4853 3.979461,0.29118 5.726539,0.67942 8.541279,0.9706 2.814741,0.29118 3.785341,0.77648 4.561822,2.4265 0.776478,1.65002 0.873538,4.46476 0.873538,6.89126 0,2.4265 -7.667739,19.12082 -8.15304,19.60612 -0.485299,0.4853 -5.3383,7.7648 -6.21184,9.02658 -0.873541,1.26178 -3.591219,3.30004 -4.852998,3.49416 -1.261782,0.19412 -3.397102,0.38824 -4.561822,-0.9706 -1.164719,-1.35884 -1.06766,-1.65002 -2.717681,-2.9118 -1.650018,-1.26178 -3.00886,-1.4559 -4.270639,-3.3971 -1.26178,-1.9412 -1.650019,-3.68828 -1.650019,-3.68828 z"
           id="path5183" />
        <path
           style="fill:#806600;stroke:#000000;stroke-width:1.1;stroke-linecap:butt;stroke-linejoin:miter;stroke-miterlimit:4;stroke-dasharray:none;stroke-opacity:1"
           d="m 77.74506,166.9432 c 0,0 -0.776481,1.35884 -1.358839,2.4265 -0.582361,1.06766 -1.455902,2.03826 -1.358839,3.10592 0.09706,1.06766 1.650018,3.00886 1.650018,3.00886 l 3.10592,-0.38824 c 0,0 2.329442,-1.65002 2.717681,-2.23238 0.388239,-0.58236 0.9706,-1.84414 0.9706,-2.62062 0,-0.77648 -0.388242,-1.9412 -0.776481,-2.81474 -0.388239,-0.87354 -0.485298,-1.4559 -0.9706,-1.4559 -0.485299,0 -2.426499,0.19412 -2.426499,0.19412 z"
           id="path5185" />
        <path
           style="fill:#c8ab37;stroke:#000000;stroke-width:1.1;stroke-linecap:butt;stroke-linejoin:miter;stroke-miterlimit:4;stroke-dasharray:none;stroke-opacity:1"
           d="m 79.298021,168.8844 c 0,0 -0.388242,0.19412 -0.388242,0.77648 0,0.58236 -0.194119,2.13532 -0.194119,2.13532 0,0 0.09706,0.58236 0.776481,0.58236 0.679421,0 0.194119,0.38824 1.06766,-0.19412 0.87354,-0.58236 1.067659,-0.0971 1.067659,-1.16472 0,-1.06766 0.09706,-1.65002 -0.194119,-2.03826 -0.291179,-0.38824 -1.455902,-0.58236 -1.455902,-0.58236 z"
           id="path5187" />
      </g>
      <text
         xml:space="preserve"
         style="font-size:10.5833px;line-height:1.25;font-family:sans-serif;letter-spacing:0px;word-spacing:0px;stroke-width:0.264583"
         x="3.8433802"
         y="247.62347"
         id="text5238"><tspan
           sodipodi:role="line"
           id="tspan5236"
           x="3.8433802"
           y="247.62347"
           style="stroke-width:0.264583">stomata pore</tspan></text>
      <g
         id="g5246">
        <path
           style="fill:none;stroke:#000000;stroke-width:1.265;stroke-linecap:butt;stroke-linejoin:miter;stroke-opacity:1;stroke-miterlimit:4;stroke-dasharray:none"
           d="M 98.555243,159.22574 39.25738,234.17165"
           id="path5240" />
        <path
           sodipodi:type="star"
           style="opacity:1;fill:#000000;stroke:#000000;stroke-width:1.1;stroke-linecap:round;stroke-linejoin:round;stroke-miterlimit:4;stroke-dasharray:none;paint-order:markers fill stroke"
           id="path5242"
           sodipodi:sides="3"
           sodipodi:cx="39.806439"
           sodipodi:cy="234.17165"
           sodipodi:r1="4.0533447"
           sodipodi:r2="2.0266724"
           sodipodi:arg1="-2.0647377"
           sodipodi:arg2="-1.0175401"
           inkscape:flatsided="true"
           inkscape:rounded="0"
           inkscape:randomized="0"
           d="m 37.884748,230.60279 5.973253,3.68905 -6.181435,3.32846 z"
           inkscape:transform-center-x="-0.96084451"
           inkscape:transform-center-y="-0.060099945" />
      </g>
      <text
         xml:space="preserve"
         style="font-size:10.5833px;line-height:1.25;font-family:sans-serif;letter-spacing:0px;word-spacing:0px;stroke-width:0.264583"
         x="138.98991"
         y="246.92064"
         id="text5250"><tspan
           sodipodi:role="line"
           id="tspan5248"
           x="138.98991"
           y="246.92064"
           style="stroke-width:0.264583">guard </tspan><tspan
           sodipodi:role="line"
           x="138.98991"
           y="260.14978"
           style="stroke-width:0.264583"
           id="tspan5252">cells</tspan></text>
      <g
         id="g5260">
        <path
           style="fill:none;stroke:#000000;stroke-width:1.17872;stroke-linecap:butt;stroke-linejoin:miter;stroke-miterlimit:4;stroke-dasharray:none;stroke-opacity:1"
           d="m 89.840594,190.16213 47.477676,41.95862 -15.27382,-55.47072"
           id="path5254" />
        <path
           sodipodi:type="star"
           style="opacity:1;fill:#000000;stroke:#000000;stroke-width:1.265;stroke-linecap:round;stroke-linejoin:round;stroke-miterlimit:4;stroke-dasharray:none;paint-order:markers fill stroke"
           id="path5256"
           sodipodi:sides="3"
           sodipodi:cx="136.07812"
           sodipodi:cy="236.04991"
           sodipodi:r1="24.071663"
           sodipodi:r2="12.035832"
           sodipodi:arg1="-3.1335283"
           sodipodi:arg2="-2.0863308"
           inkscape:flatsided="true"
           inkscape:rounded="0"
           inkscape:randomized="0"
           d="m 112.00724,235.85579 36.27444,-20.55481 -0.33623,41.69199 z"
           inkscape:transform-center-x="1.2973822"
           inkscape:transform-center-y="0.024299132"
           transform="matrix(0.21864737,0,0,0.25033687,107.61264,172.87983)" />
      </g>
    </g>
  </g>
</svg>
