<?xml version="1.0" encoding="UTF-8" standalone="no"?>
<svg
   xmlns:dc="http://purl.org/dc/elements/1.1/"
   xmlns:cc="http://creativecommons.org/ns#"
   xmlns:rdf="http://www.w3.org/1999/02/22-rdf-syntax-ns#"
   xmlns:svg="http://www.w3.org/2000/svg"
   xmlns="http://www.w3.org/2000/svg"
   xmlns:sodipodi="http://sodipodi.sourceforge.net/DTD/sodipodi-0.dtd"
   xmlns:inkscape="http://www.inkscape.org/namespaces/inkscape"
   width="210mm"
   height="297mm"
   viewBox="0 0 210 297"
   version="1.1"
   id="svg8"
   inkscape:version="1.0.2 (e86c870879, 2021-01-15, custom)"
   sodipodi:docname="synapse.svg">
  <defs
     id="defs2" />
  <sodipodi:namedview
     id="base"
     pagecolor="#ffffff"
     bordercolor="#666666"
     borderopacity="1.0"
     inkscape:pageopacity="0.0"
     inkscape:pageshadow="2"
     inkscape:zoom="0.2409446"
     inkscape:cx="244.95541"
     inkscape:cy="507.03719"
     inkscape:document-units="mm"
     inkscape:current-layer="layer1"
     inkscape:document-rotation="0"
     showgrid="false"
     inkscape:window-width="1920"
     inkscape:window-height="1017"
     inkscape:window-x="-8"
     inkscape:window-y="-8"
     inkscape:window-maximized="1" />
  <metadata
     id="metadata5">
    <rdf:RDF>
      <cc:Work
         rdf:about="">
        <dc:format>image/svg+xml</dc:format>
        <dc:type
           rdf:resource="http://purl.org/dc/dcmitype/StillImage" />
        <dc:title></dc:title>
      </cc:Work>
    </rdf:RDF>
  </metadata>
  <g
     inkscape:label="Layer 1"
     inkscape:groupmode="layer"
     id="layer1">
    <g
       id="g1603"
       transform="matrix(0.46152979,0,0,0.5760984,-2.992868,76.120821)">
      <path
         style="fill:#d5f6ff;stroke:#000000;stroke-width:0.865;stroke-linecap:butt;stroke-linejoin:miter;stroke-miterlimit:4;stroke-dasharray:none;stroke-opacity:1"
         d="m 27.6621,112.49254 4.853001,3.97946 7.570678,-0.87354 9.608942,-4.27064 2.717678,-4.75594 -1.747078,-6.794199 -4.17358,-7.667741 c 0,0 -0.77648,-2.620619 -2.135322,-2.814738 -1.358839,-0.194122 -3.882398,-0.388242 -4.076517,0 -0.194123,0.388239 -1.552962,1.552958 -1.844141,2.329439 -0.291182,0.776481 0,2.717681 0.19412,3.397099 0.194119,0.679421 0.388239,1.16472 0.388239,1.16472 l -1.455899,-4.17358 0.09706,-1.455899 c 0,0 -1.358839,-0.582361 -2.232379,-0.388242 -0.87354,0.194123 -3.300039,-0.776478 -3.300039,-0.776478 l 4.561818,0.09706 5.435359,-1.747081 c 0,0 0.970601,-0.388239 -0.388239,-1.261779 -1.358839,-0.87354 -2.71768,-2.03826 -3.300039,-2.426502 -0.582361,-0.388239 -5.04712,-5.04712 -5.04712,-5.04712 l 0.09706,-1.358839 2.717681,2.620621 1.844137,1.552959 c 0,0 1.747081,-0.291179 1.747081,-0.9706 0,-0.679418 0.19412,-3.979461 0.19412,-3.979461 L 39.21224,74.056781 c 0,0 1.358842,1.552959 1.455902,2.13532 0.09706,0.582359 0.09706,3.397099 0.09706,3.979461 0,0.582358 0.29118,2.814738 0.29118,2.814738 l 2.135319,2.9118 c 0,0 1.650021,0.09706 1.650021,-0.291179 0,-0.388239 0.19412,-4.07652 0.09706,-4.658881 -0.09706,-0.582359 -0.291179,-5.43536 -0.291179,-5.43536 l -1.06766,-2.329439 c 0,0 1.358839,2.13532 1.358839,2.814741 0,0.679418 0.582361,3.979457 0.582361,3.979457 l 2.717678,-1.164719 3.008861,0.87354 -3.591219,0.485302 c 0,0 -0.9706,2.329439 -1.06766,3.00886 -0.09706,0.679418 -0.388242,3.882398 -0.388242,3.882398 l 7.473622,11.550141 c 0,0 2.717679,2.038259 3.494159,1.650019 0.776481,-0.388239 3.10592,-0.679418 3.494159,-2.13532 0.388242,-1.455899 1.067663,-6.01772 1.067663,-6.01772 l 0.194119,-10.48248 -1.9412,-4.95006 -4.853001,-6.11478 6.11478,6.21184 c 0,0 2.13532,1.455901 2.426499,0.9706 0.291182,-0.485299 1.164723,-3.785338 1.164723,-3.785338 0,0 -0.873541,-1.164723 -1.455902,-1.261782 -0.582358,-0.09706 -2.717681,-3.785338 -2.717681,-3.785338 v -0.776481 l 3.202982,3.688278 c 0,0 1.747079,0.388242 1.941201,-0.485298 0.194119,-0.873541 0.873537,-4.27064 0.873537,-4.27064 l 0.388242,5.823598 -1.261779,3.97946 -0.388242,1.455902 5.338299,-4.658881 4.658882,-1.650019 -1.455899,0.776478 -2.717681,1.844141 1.650018,1.06766 2.523562,3.397102 c 0,0 -2.523562,-2.523562 -3.30004,-2.814741 -0.77648,-0.291179 -2.426501,-0.87354 -3.00886,-0.291179 C 68.52436,76.58034 65.61256,81.72452 65.61256,81.72452 l 0.09706,5.435359 1.844141,4.464762 2.81474,6.11478 5.3383,-0.09706 c 0,0 5.629481,-3.00886 6.01772,-3.591221 0.388242,-0.582359 4.464762,-3.591219 4.464762,-3.591219 l 1.844138,-3.300042 0.194122,-5.920658 -2.03826,-6.405962 -0.9706,-1.747078 c 0,0 2.232379,1.455899 2.426499,1.844138 0.194119,0.388242 0.77648,2.329442 0.77648,2.329442 l 2.13532,-0.9706 2.523559,-1.844141 0.291182,-0.9706 -2.329442,3.688281 c 0,0 -1.26178,0.9706 -1.455899,2.03826 -0.19412,1.06766 -0.19412,4.3677 -0.19412,4.3677 0,0 1.650019,0.9706 1.747079,0.582361 0.09706,-0.388242 2.232382,-2.620621 2.232382,-2.620621 l 0.9706,-1.747081 0.388239,-3.397099 1.9412,-1.650021 -0.388242,1.358841 -0.873537,2.911798 0.388239,3.00886 6.017718,-3.202979 1.06766,0.09706 -5.53242,3.688282 c 0,0 -3.785338,1.650021 -4.270639,2.232379 -0.485299,0.582361 -1.747078,2.13532 -1.747078,2.13532 0,0 1.358839,0 2.911797,0.09706 1.552962,0.09706 5.338303,0.09706 6.11478,0 0.77648,-0.09706 3.59122,0.194122 3.97946,0.291181 0.38824,0.09706 2.13532,2.13532 2.13532,2.13532 0,0 -3.68828,-0.582361 -4.17358,-0.582361 -0.4853,0 -2.329438,-0.388239 -2.523558,0 -0.194119,0.388242 -0.388242,0.87354 -0.194119,1.9412 0.194119,1.06766 1.164717,2.620621 1.650017,3.30004 0.4853,0.679421 1.4559,2.135319 1.4559,2.135319 0,0 -3.979458,-3.494158 -3.979458,-3.882397 0,-0.388242 -0.388241,-2.911801 -0.679421,-3.494162 -0.291179,-0.582358 -2.717681,-1.06766 -3.10592,-0.776481 -0.388239,0.291182 -4.464759,0.679421 -6.405959,2.426502 -1.9412,1.747081 -3.300039,5.24124 -3.397102,5.629479 -0.09706,0.388241 -1.844138,6.405959 -1.844138,6.891259 0,0.4853 -0.194122,3.49416 0.388239,4.95006 0.582362,1.4559 3.3971,2.9118 4.07652,3.20298 0.679421,0.29118 8.929521,0.38824 9.706002,0.29118 0.776478,-0.0971 14.656057,-2.13532 14.656057,-2.13532 l 15.0443,-1.65002 5.53242,-0.29118 14.85018,-0.0971 16.0149,-0.67942 c 0,0 7.86186,1.9412 9.706,2.03826 1.84414,0.0971 21.93556,1.9412 21.93556,1.9412 l 20.67378,0.77648 5.43536,-3.8824 3.78534,-8.055977 5.53242,-1.9412 6.89126,-0.291182 2.71768,0.582361 1.4559,-0.291179 c 0,0 0.77648,-0.582362 0.87354,0 0.0971,0.582358 0.0971,1.164719 -0.0971,1.552958 -0.19412,0.388242 -0.38824,1.941199 -0.38824,1.941199 0,0 0.0971,1.16472 -0.58236,0.58236 -0.67942,-0.58236 -0.9706,-1.16472 -0.9706,-1.16472 l -0.8868,-1.043958 c 0,0 -5.07876,-0.17158 -5.3876,-0.17158 -0.30884,0 -4.9758,0.514739 -4.9758,0.514739 0,0 -1.20106,0.06863 -1.78443,0.651999 -0.58337,0.58337 -1.92169,2.57369 -2.12759,2.91685 -0.20589,0.34316 -0.68631,2.19622 -0.89221,2.64233 -0.20589,0.4461 -0.51474,1.64716 -0.51474,1.64716 0,0 1.06379,-0.34316 1.5099,-0.72064 0.44611,-0.37747 1.75011,-1.50989 2.26485,-1.81874 0.51474,-0.30884 2.40212,-1.06379 2.57369,-1.06379 0.17158,0 2.09327,-0.17158 2.09327,-0.17158 l 0.72064,-0.48042 c 0,0 -0.0343,-1.06379 0.30884,-1.09811 0.34316,-0.0343 1.06379,-0.0343 1.09811,0.27453 0.0343,0.30884 0,0.72063 -0.0343,1.06379 -0.0343,0.34316 -0.13726,0.8579 0,1.09811 0.13727,0.24021 0.2059,-0.0343 0.27453,0.4461 0.0686,0.48043 -0.27453,0.82359 -0.54906,0.78927 -0.27452,-0.0343 -0.17157,-0.44611 -1.26968,-0.41179 -1.09811,0.0343 -3.56886,0.37747 -4.25517,0.72063 -0.68632,0.34316 -3.26001,2.05896 -3.26001,2.05896 0,0 -2.16191,2.67664 -2.3678,2.84822 -0.20589,0.17158 2.91685,0.61768 2.91685,0.61768 0,0 1.54422,0 2.02464,0 0.48042,0 1.09811,0 1.37263,-0.0343 0.27453,-0.0343 0.65201,-0.34316 0.65201,-0.34316 0,0 0.72063,-0.82359 0.89221,-0.37748 0.17158,0.44611 0.13726,1.26969 0.10295,1.44127 -0.0343,0.17158 -0.2059,0.72063 -0.27453,1.02948 -0.0686,0.30884 0.27453,1.13242 0.0686,1.304 -0.20589,0.17158 -0.61768,0.24021 -1.23537,-0.10295 -0.61769,-0.34316 -0.48042,-0.44611 -1.26969,-0.54905 -0.78926,-0.10295 -4.3238,-0.17158 -4.5297,-0.17158 -0.20589,0 -1.5099,-0.51474 -1.5099,-0.51474 l 0.96085,0.99516 c 0,0 3.12275,1.95601 3.6718,2.19622 0.54905,0.24021 2.43643,0.82358 2.84822,0.82358 0.41179,0 1.06379,-0.0343 1.40695,-0.20589 0.34316,-0.17158 0.99516,-0.51474 1.20106,-0.54906 0.20589,-0.0343 0.68631,-0.27453 0.78926,0.0343 0.10295,0.30884 -0.10295,0.75495 -0.13726,0.89221 -0.0343,0.13726 -0.0343,0.96084 0.0686,1.13242 0.10295,0.17158 0.82358,0.44611 0.2059,0.78927 -0.61769,0.34316 -0.72064,0.58337 -1.68148,0.4461 -0.96085,-0.13726 -3.6718,-1.02947 -3.6718,-1.02947 0,0 -3.29433,-1.23537 -4.08359,-1.68148 -0.78927,-0.44611 -2.40212,-1.44127 -2.40212,-1.44127 0,0 -0.30884,-0.24021 -0.17158,0.0686 0.13727,0.30885 1.0638,1.40696 1.20106,1.68148 0.13726,0.27453 2.43643,1.99032 2.74527,2.1619 0.30884,0.17158 2.88254,1.16675 3.12275,1.23538 0.24021,0.0686 1.85306,0.0343 2.29916,0.13726 0.44611,0.10295 0.96085,0.0686 1.16674,0.0686 0.2059,0 0.78927,0.0343 1.06379,-0.0686 0.27453,-0.10295 1.23538,-0.30884 1.37264,-0.37747 0.13726,-0.0686 0.54905,-0.0343 0.54905,-0.0343 0,0 0.10295,0.54905 0.0686,0.75495 -0.0343,0.20589 -0.10295,1.23537 -0.0686,1.37264 0.0343,0.13726 0.75496,0.89221 0.10295,0.89221 -0.652,0 -1.304,-0.37748 -1.57853,-0.44611 -0.27453,-0.0686 -3.0198,-0.13726 -3.15706,-0.13726 -0.13726,0 -4.04927,-0.48042 -4.94149,-0.8579 -0.89221,-0.37747 -3.26001,-1.26969 -3.77475,-1.75011 -0.51473,-0.48042 -1.40695,-1.64716 -1.64716,-2.02464 -0.24021,-0.37747 -1.20106,-1.88737 -1.47558,-1.99032 -0.27453,-0.10295 -2.74527,-0.89221 -2.95117,-0.89221 -0.20589,0 -38.4338,-1.40696 -38.4338,-1.40696 0,0 -8.68192,-0.652 -9.02508,-0.82357 -0.34316,-0.17158 -7.92697,-0.99517 -8.61329,-0.99517 -0.68632,0 -7.9956,-0.10295 -8.30444,-0.10295 -0.30885,0 -30.12936,-0.58336 -30.12936,-0.58336 l -13.1773,2.608 c 0,0 -7.41223,1.5099 -8.167182,1.61285 -0.754948,0.10295 -5.696436,0.48042 -6.245492,0.51474 -0.549055,0.0343 -3.225694,0.0343 -3.706116,0.13726 -0.480423,0.10295 -3.260011,0.82358 -3.500221,1.13243 -0.240212,0.30884 -1.670587,2.51951 -1.670587,2.51951 0,0 -0.339712,3.78534 -0.339712,3.97946 0,0.19412 0,3.49416 0,3.49416 l 0.776481,3.34857 2.13532,4.41623 2.96033,2.37797 c 0,0 2.426502,0.87354 2.814741,0.92207 0.388239,0.0485 3.494159,0.0971 3.8824,0.0485 0.388239,-0.0485 3.34857,-0.43677 3.785338,-0.58236 0.43677,-0.14559 0.9706,-0.43677 0.9706,-0.43677 l -6.648608,1.98973 -3.00886,0.0485 c 0,0 -0.630891,0.82501 -0.485302,1.4559 0.145593,0.63089 2.766211,4.02799 3.00886,4.17358 0.242652,0.14559 3.445632,2.32944 3.445632,2.32944 0,0 3.688278,0.19412 4.173578,0.29118 0.4853,0.0971 1.69855,0.0971 1.69855,0.0971 0,0 -4.513289,0.4853 -4.804468,0.4853 -0.291179,0 -2.03826,-0.19412 -2.232379,-0.0485 -0.194123,0.14559 -0.09706,0.67942 0.09706,1.35884 0.19412,0.67942 0.388239,2.52356 0.339709,3.15445 -0.04853,0.63089 -0.630891,1.40737 -0.630891,1.06766 0,-0.33971 -0.388239,-3.00886 -0.388239,-3.00886 0,0 -1.358839,-3.25151 -1.79561,-3.8824 -0.436769,-0.63089 -2.669149,-3.44563 -3.10592,-3.3971 -0.436769,0.0485 -1.26178,0.29118 -1.698548,1.21325 -0.436772,0.92207 -1.407372,4.51329 -1.552962,4.99859 -0.145589,0.4853 -1.310309,2.62062 -2.183849,3.15445 -0.873541,0.53383 -3.15445,1.35884 -3.15445,1.35884 l 3.736811,-3.34857 c 0,0 0.922067,-1.35884 0.873538,-1.55296 -0.04853,-0.19412 -0.24265,-0.87354 -0.533829,-0.87354 -0.291179,0 -0.9706,0.19412 -1.98973,0.43677 -1.01913,0.24265 -1.601491,0.53383 -3.10592,0.24265 -1.504432,-0.29118 -1.9412,-1.35884 -1.9412,-1.35884 0,0 2.03826,0.4853 2.620621,0.63089 0.582358,0.14559 3.202979,-0.43677 3.397099,-0.4853 0.194119,-0.0485 1.84414,-0.19412 1.9412,-0.58236 0.09706,-0.38824 0.630889,-1.89267 0.630889,-1.89267 l -0.485299,-5.53242 -6.21184,-6.50302 -6.503022,-4.75594 c 0,0 -4.416229,-0.58236 -4.610348,-0.63089 -0.19412,-0.0485 -7.2795,0.38824 -7.2795,0.38824 l -6.357429,3.20298 -3.736811,3.78534 c 0,0 -2.08679,3.78534 -2.08679,4.02799 0,0.24265 -0.09706,1.50443 0.194119,1.84414 0.29118,0.33971 1.552962,1.79561 1.98973,2.4265 0.436769,0.63089 1.795611,4.61035 1.795611,4.61035 v 1.21325 c 0,0 -2.18385,-3.59122 -2.523561,-4.07652 -0.339709,-0.4853 -1.892671,-2.18385 -2.426499,-2.13532 -0.533832,0.0485 -1.941201,0.67942 -1.941201,1.35884 0,0.67942 0.339709,2.76621 0.533832,3.73681 0.194119,0.9706 0.339709,6.01772 0.485298,6.26037 0.14559,0.24265 0.24265,0.9706 0.24265,0.9706 0,0 -1.11619,-3.8824 -1.310309,-3.97946 -0.19412,-0.0971 -1.892671,0 -2.37797,0.29118 -0.485301,0.29118 -2.86327,2.13532 -2.86327,2.13532 l 2.183849,-2.76621 2.523559,-0.63089 c 0,0 -0.09706,-2.86327 -0.09706,-3.30004 0,-0.43677 -1.164719,-4.99859 -1.164719,-4.99859 0,0 -3.882401,-0.72795 -4.22211,-0.58236 -0.339709,0.14559 -1.407369,0.92207 -2.329439,1.98973 -0.92207,1.06766 -1.747081,3.3971 -1.89267,4.41623 -0.14559,1.01913 -0.19412,1.16472 -0.19412,1.16472 l 1.06766,-5.09565 0.92207,-1.55296 c 0,0 -1.747081,-0.0971 -3.300042,-0.72795 -1.552958,-0.63089 -3.882398,-2.62062 -3.882398,-2.62062 l 4.416229,2.4265 c 0,0 2.32944,0.29118 2.717681,0.33971 0.388239,0.0485 6.21184,-1.55296 6.21184,-1.55296 l 5.24124,-6.40596 4.755941,-6.84273 c 0,0 1.407369,-5.53242 1.164719,-5.67801 -0.242652,-0.14559 -2.475031,-2.52356 -3.397101,-3.20298 -0.922071,-0.67942 -7.036851,-2.23238 -9.172171,-2.57209 -2.135319,-0.33971 -9.12364,2.9118 -9.12364,2.9118 l -5.289769,2.37797 -1.358839,3.59122 c 0,0 -2.863271,4.17358 -2.863271,4.3677 0,0.19412 2.523561,-5.87213 2.523561,-5.87213 0,0 0.14559,-1.55296 0.14559,-1.74708 0,-0.19412 -0.14559,-1.89267 -0.82501,-1.89267 -0.679421,0 -4.319171,1.40737 -4.319171,1.40737 0,0 -0.09706,2.37797 -0.09706,2.57209 0,0.19412 -1.69855,2.4265 -1.69855,2.4265 l 1.16472,-3.00886 c 0,0 -0.29118,-2.62062 -0.4853,-2.62062 -0.19412,0 -1.55296,-0.63089 -1.55296,-0.63089 l 3.15445,-0.43677 6.308899,-1.06766 1.01913,-0.9706 c 0,0 -3.154449,-3.59122 -3.348569,-3.63975 -0.194119,-0.0485 -3.10592,-1.84414 -3.59122,-1.84414 -0.4853,0 -3.10592,-0.38824 -3.10592,-0.38824 l 4.75594,-0.24265 0.14559,-1.50443 1.98973,-2.57209 -0.14559,-1.35884 c 0,0 -0.630891,3.44563 -0.727951,3.63975 -0.09706,0.19412 0.776481,2.96033 0.776481,2.96033"
         id="path849" />
      <path
         style="fill:#00aad4;stroke:#000000;stroke-width:0.765;stroke-linecap:butt;stroke-linejoin:miter;stroke-miterlimit:4;stroke-dasharray:none;stroke-opacity:1"
         d="m 66.29198,108.85279 c 0,0 -3.202979,0 -3.542688,0.63089 -0.339712,0.63089 -0.873541,1.11619 -0.873541,1.65002 0,0.53383 0.485299,1.98973 0.922071,2.86327 0.436768,0.87354 1.9412,2.81474 2.523558,3.00886 0.582361,0.19412 3.25151,1.50443 3.494159,1.60149 0.242652,0.0971 4.270642,-0.0485 4.707411,-0.4853 0.436772,-0.43677 1.21325,-0.38824 1.06766,-1.60149 -0.14559,-1.21325 0.04853,-1.9412 -0.291179,-2.71768 -0.339709,-0.77648 -1.552961,-2.66915 -2.329439,-3.00886 -0.776481,-0.33971 -2.232383,-1.31031 -2.960331,-1.40737 -0.72795,-0.0971 -3.00886,-0.4853 -3.00886,-0.4853"
         id="path851" />
      <path
         style="fill:#ffe680;fill-opacity:1;stroke:#000000;stroke-width:0.865;stroke-linecap:butt;stroke-linejoin:miter;stroke-miterlimit:4;stroke-dasharray:none;stroke-opacity:1"
         d="m 242.01899,105.98957 4.853,3.97946 7.57068,-0.87354 9.60894,-4.27064 2.71768,-4.75594 -1.74708,-6.7942 -4.17358,-7.667743 c 0,0 -0.77648,-2.620619 -2.13532,-2.814738 -1.35884,-0.194122 -3.8824,-0.388242 -4.07652,0 -0.19412,0.388239 -1.55296,1.552958 -1.84414,2.329439 -0.29118,0.776481 0,2.717681 0.19412,3.397099 0.19412,0.679421 0.38824,1.16472 0.38824,1.16472 l -1.4559,-4.17358 0.0971,-1.455899 c 0,0 -1.35884,-0.582361 -2.23238,-0.388242 -0.87354,0.194123 -3.30004,-0.776478 -3.30004,-0.776478 l 4.56182,0.09706 5.43536,-1.747081 c 0,0 0.9706,-0.388239 -0.38824,-1.261779 -1.35884,-0.87354 -2.71768,-2.03826 -3.30004,-2.426502 -0.58236,-0.388239 -5.04712,-5.04712 -5.04712,-5.04712 l 0.0971,-1.358839 2.71768,2.620621 1.84414,1.552959 c 0,0 1.74708,-0.291179 1.74708,-0.9706 0,-0.679418 0.19412,-3.979461 0.19412,-3.979461 l -0.77648,-2.814738 c 0,0 1.35884,1.552959 1.4559,2.13532 0.0971,0.582359 0.0971,3.397099 0.0971,3.979461 0,0.582358 0.29118,2.814738 0.29118,2.814738 l 2.13532,2.9118 c 0,0 1.65002,0.09706 1.65002,-0.291179 0,-0.388239 0.19412,-4.07652 0.0971,-4.658881 -0.0971,-0.582359 -0.29118,-5.43536 -0.29118,-5.43536 l -1.06766,-2.329439 c 0,0 1.35884,2.13532 1.35884,2.814741 0,0.679418 0.58236,3.979457 0.58236,3.979457 l 2.71768,-1.164719 3.00886,0.87354 -3.59122,0.485302 c 0,0 -0.9706,2.329439 -1.06766,3.00886 -0.0971,0.679418 -0.38824,3.882398 -0.38824,3.882398 l 7.47362,11.550143 c 0,0 2.71768,2.03826 3.49416,1.65002 0.77648,-0.38824 3.10592,-0.67942 3.49416,-2.13532 0.38824,-1.4559 1.06766,-6.017723 1.06766,-6.017723 l 0.19412,-10.48248 -1.9412,-4.95006 -4.853,-6.11478 6.11478,6.21184 c 0,0 2.13532,1.455901 2.4265,0.9706 0.29118,-0.485299 1.16472,-3.785338 1.16472,-3.785338 0,0 -0.87354,-1.164723 -1.4559,-1.261782 -0.58236,-0.09706 -2.71768,-3.785338 -2.71768,-3.785338 v -0.776481 l 3.20298,3.688278 c 0,0 1.74708,0.388242 1.9412,-0.485298 0.19412,-0.873541 0.87354,-4.27064 0.87354,-4.27064 l 0.38824,5.823598 -1.26178,3.97946 -0.38824,1.455902 5.3383,-4.658881 4.65888,-1.650019 -1.4559,0.776478 -2.71768,1.844141 1.65002,1.06766 2.52356,3.397102 c 0,0 -2.52356,-2.523562 -3.30004,-2.814741 -0.77648,-0.291179 -2.4265,-0.87354 -3.00886,-0.291179 -0.58236,0.582358 -3.49416,5.726538 -3.49416,5.726538 l 0.0971,5.435359 1.84414,4.464762 2.81474,6.114782 5.3383,-0.0971 c 0,0 5.62948,-3.008862 6.01772,-3.591223 0.38824,-0.582359 4.46476,-3.591219 4.46476,-3.591219 l 1.84414,-3.300042 0.19412,-5.920658 -2.03826,-6.405962 -0.9706,-1.747078 c 0,0 2.23238,1.455899 2.4265,1.844138 0.19412,0.388242 0.77648,2.329442 0.77648,2.329442 l 2.13532,-0.9706 2.52356,-1.844141 0.29118,-0.9706 -2.32944,3.688281 c 0,0 -1.26178,0.9706 -1.4559,2.03826 -0.19412,1.06766 -0.19412,4.3677 -0.19412,4.3677 0,0 1.65002,0.9706 1.74708,0.582361 0.0971,-0.388242 2.23238,-2.620621 2.23238,-2.620621 l 0.9706,-1.747081 0.38824,-3.397099 1.9412,-1.650021 -0.38824,1.358841 -0.87354,2.911798 0.38824,3.00886 6.01772,-3.202979 1.06766,0.09706 -5.53242,3.688282 c 0,0 -3.78534,1.650021 -4.27064,2.232379 -0.4853,0.582361 -1.74708,2.13532 -1.74708,2.13532 0,0 1.35884,0 2.9118,0.09706 1.55296,0.09706 5.3383,0.09706 6.11478,0 0.77648,-0.09706 3.59122,0.194122 3.97946,0.291181 0.38824,0.09706 2.13532,2.13532 2.13532,2.13532 0,0 -3.68828,-0.582361 -4.17358,-0.582361 -0.4853,0 -2.32944,-0.388239 -2.52356,0 -0.19412,0.388242 -0.38824,0.87354 -0.19412,1.9412 0.19412,1.06766 1.16472,2.620621 1.65002,3.30004 0.4853,0.679421 1.4559,2.135319 1.4559,2.135319 0,0 -3.97946,-3.494158 -3.97946,-3.882397 0,-0.388242 -0.38824,-2.911801 -0.67942,-3.494162 -0.29118,-0.582358 -2.71768,-1.06766 -3.10592,-0.776481 -0.38824,0.291182 -4.46476,0.679421 -6.40596,2.426502 -1.9412,1.747081 -3.30004,5.24124 -3.3971,5.629479 -0.0971,0.388241 -1.84414,6.405962 -1.84414,6.891262 0,0.4853 -0.19412,3.49416 0.38824,4.95006 0.58236,1.4559 3.3971,2.9118 4.07652,3.20298 0.67942,0.29118 8.92952,0.38824 9.706,0.29118 0.77648,-0.0971 14.65606,-2.13532 14.65606,-2.13532 l 15.0443,-1.65002 5.53242,-0.29118 14.85018,-0.0971 16.0149,-0.67942 c 0,0 7.86186,1.9412 9.706,2.03826 1.84414,0.0971 21.93556,1.9412 21.93556,1.9412 l 20.67378,0.77648 5.43536,-3.8824 3.78534,-8.05598 5.53242,-1.9412 6.89126,-0.29118 2.71768,0.58236 1.4559,-0.29118 c 0,0 0.77648,-0.58236 0.87354,0 0.0971,0.58236 0.0971,1.16472 -0.0971,1.55296 -0.19412,0.38824 -0.38824,1.9412 -0.38824,1.9412 0,0 0.0971,1.16472 -0.58236,0.58236 -0.67942,-0.58236 -0.9706,-1.16472 -0.9706,-1.16472 l -0.8868,-1.04396 c 0,0 -5.07876,-0.17158 -5.3876,-0.17158 -0.30884,0 -4.9758,0.51474 -4.9758,0.51474 0,0 -1.20106,0.0686 -1.78443,0.652 -0.58337,0.58337 -1.92169,2.57369 -2.12759,2.91685 -0.20589,0.34316 -0.68631,2.19622 -0.89221,2.64233 -0.20589,0.4461 -0.51474,1.64716 -0.51474,1.64716 0,0 1.06379,-0.34316 1.5099,-0.72064 0.44611,-0.37747 1.75011,-1.50989 2.26485,-1.81874 0.51474,-0.30884 2.40212,-1.06379 2.57369,-1.06379 0.17158,0 2.09327,-0.17158 2.09327,-0.17158 l 0.72064,-0.48042 c 0,0 -0.0343,-1.06379 0.30884,-1.09811 0.34316,-0.0343 1.06379,-0.0343 1.09811,0.27453 0.0343,0.30884 0,0.72063 -0.0343,1.06379 -0.0343,0.34316 -0.13726,0.8579 0,1.09811 0.13727,0.24021 0.2059,-0.0343 0.27453,0.4461 0.0686,0.48043 -0.27453,0.82359 -0.54906,0.78927 -0.27452,-0.0343 -0.17157,-0.44611 -1.26968,-0.41179 -1.09811,0.0343 -3.56886,0.37747 -4.25517,0.72063 -0.68632,0.34316 -3.26001,2.05896 -3.26001,2.05896 0,0 -2.16191,2.67664 -2.3678,2.84822 -0.20589,0.17158 2.91685,0.61768 2.91685,0.61768 h 2.02464 c 0.48042,0 1.09811,0 1.37263,-0.0343 0.27453,-0.0343 0.65201,-0.34316 0.65201,-0.34316 0,0 0.72063,-0.82359 0.89221,-0.37748 0.17158,0.44611 0.13726,1.26969 0.10295,1.44127 -0.0343,0.17158 -0.2059,0.72063 -0.27453,1.02948 -0.0686,0.30884 0.27453,1.13242 0.0686,1.304 -0.20589,0.17158 -0.61768,0.24021 -1.23537,-0.10295 -0.61769,-0.34316 -0.48042,-0.44611 -1.26969,-0.54905 -0.78926,-0.10295 -4.3238,-0.17158 -4.5297,-0.17158 -0.20589,0 -1.5099,-0.51474 -1.5099,-0.51474 l 0.96085,0.99516 c 0,0 3.12275,1.95601 3.6718,2.19622 0.54905,0.24021 2.43643,0.82358 2.84822,0.82358 0.41179,0 1.06379,-0.0343 1.40695,-0.20589 0.34316,-0.17158 0.99516,-0.51474 1.20106,-0.54906 0.20589,-0.0343 0.68631,-0.27453 0.78926,0.0343 0.10295,0.30884 -0.10295,0.75495 -0.13726,0.89221 -0.0343,0.13726 -0.0343,0.96084 0.0686,1.13242 0.10295,0.17158 0.82358,0.44611 0.2059,0.78927 -0.61769,0.34316 -0.72064,0.58337 -1.68148,0.4461 -0.96085,-0.13726 -3.6718,-1.02947 -3.6718,-1.02947 0,0 -3.29433,-1.23537 -4.08359,-1.68148 -0.78927,-0.44611 -2.40212,-1.44127 -2.40212,-1.44127 0,0 -0.30884,-0.24021 -0.17158,0.0686 0.13727,0.30885 1.0638,1.40696 1.20106,1.68148 0.13726,0.27453 2.43643,1.99032 2.74527,2.1619 0.30884,0.17158 2.88254,1.16675 3.12275,1.23538 0.24021,0.0686 1.85306,0.0343 2.29916,0.13726 0.44611,0.10295 0.96085,0.0686 1.16674,0.0686 0.2059,0 0.78927,0.0343 1.06379,-0.0686 0.27453,-0.10295 1.23538,-0.30884 1.37264,-0.37747 0.13726,-0.0686 0.54905,-0.0343 0.54905,-0.0343 0,0 0.10295,0.54905 0.0686,0.75495 -0.0343,0.20589 -0.10295,1.23537 -0.0686,1.37264 0.0343,0.13726 0.75496,0.89221 0.10295,0.89221 -0.652,0 -1.304,-0.37748 -1.57853,-0.44611 -0.27453,-0.0686 -3.0198,-0.13726 -3.15706,-0.13726 -0.13726,0 -4.04927,-0.48042 -4.94149,-0.8579 -0.89221,-0.37747 -3.26001,-1.26969 -3.77475,-1.75011 -0.51473,-0.48042 -1.40695,-1.64716 -1.64716,-2.02464 -0.24021,-0.37747 -1.20106,-1.88737 -1.47558,-1.99032 -0.27453,-0.10295 -2.74527,-0.89221 -2.95117,-0.89221 -0.20589,0 -38.4338,-1.40696 -38.4338,-1.40696 0,0 -8.68192,-0.652 -9.02508,-0.82357 -0.34316,-0.17158 -7.92697,-0.99517 -8.61329,-0.99517 -0.68632,0 -7.9956,-0.10295 -8.30444,-0.10295 -0.30885,0 -30.12936,-0.58336 -30.12936,-0.58336 l -13.1773,2.608 c 0,0 -7.41223,1.5099 -8.16718,1.61285 -0.75495,0.10295 -5.69644,0.48042 -6.24549,0.51474 -0.54906,0.0343 -3.2257,0.0343 -3.70612,0.13726 -0.48042,0.10295 -3.26001,0.82358 -3.50022,1.13243 -0.24021,0.30884 -1.67059,2.51951 -1.67059,2.51951 0,0 -0.33971,3.78534 -0.33971,3.97946 v 3.49416 l 0.77648,3.34857 2.13532,4.41623 2.96033,2.37797 c 0,0 2.4265,0.87354 2.81474,0.92207 0.38824,0.0485 3.49416,0.0971 3.8824,0.0485 0.38824,-0.0485 3.34857,-0.43677 3.78534,-0.58236 0.43677,-0.14559 0.9706,-0.43677 0.9706,-0.43677 l -6.64861,1.98973 -3.00886,0.0485 c 0,0 -0.63089,0.82501 -0.4853,1.4559 0.14559,0.63089 2.76621,4.02799 3.00886,4.17358 0.24265,0.14559 3.44563,2.32944 3.44563,2.32944 0,0 3.68828,0.19412 4.17358,0.29118 0.4853,0.0971 1.69855,0.0971 1.69855,0.0971 0,0 -4.51329,0.4853 -4.80447,0.4853 -0.29118,0 -2.03826,-0.19412 -2.23238,-0.0485 -0.19412,0.14559 -0.0971,0.67942 0.0971,1.35884 0.19412,0.67942 0.38824,2.52356 0.33971,3.15445 -0.0485,0.63089 -0.63089,1.40737 -0.63089,1.06766 0,-0.33971 -0.38824,-3.00886 -0.38824,-3.00886 0,0 -1.35884,-3.25151 -1.79561,-3.8824 -0.43677,-0.63089 -2.66915,-3.44563 -3.10592,-3.3971 -0.43677,0.0485 -1.26178,0.29118 -1.69855,1.21325 -0.43677,0.92207 -1.40737,4.51329 -1.55296,4.99859 -0.14559,0.4853 -1.31031,2.62062 -2.18385,3.15445 -0.87354,0.53383 -3.15445,1.35884 -3.15445,1.35884 l 3.73681,-3.34857 c 0,0 0.92207,-1.35884 0.87354,-1.55296 -0.0485,-0.19412 -0.24265,-0.87354 -0.53383,-0.87354 -0.29118,0 -0.9706,0.19412 -1.98973,0.43677 -1.01913,0.24265 -1.60149,0.53383 -3.10592,0.24265 -1.50443,-0.29118 -1.9412,-1.35884 -1.9412,-1.35884 0,0 2.03826,0.4853 2.62062,0.63089 0.58236,0.14559 3.20298,-0.43677 3.3971,-0.4853 0.19412,-0.0485 1.84414,-0.19412 1.9412,-0.58236 0.0971,-0.38824 0.63089,-1.89267 0.63089,-1.89267 l -0.4853,-5.53242 -6.21184,-6.50302 -6.50302,-4.75594 c 0,0 -4.41623,-0.58236 -4.61035,-0.63089 -0.19412,-0.0485 -7.2795,0.38824 -7.2795,0.38824 l -6.35743,3.20298 -3.73681,3.78534 c 0,0 -2.08679,3.78534 -2.08679,4.02799 0,0.24265 -0.0971,1.50443 0.19412,1.84414 0.29118,0.33971 1.55296,1.79561 1.98973,2.4265 0.43677,0.63089 1.79561,4.61035 1.79561,4.61035 v 1.21325 c 0,0 -2.18385,-3.59122 -2.52356,-4.07652 -0.33971,-0.4853 -1.89267,-2.18385 -2.4265,-2.13532 -0.53383,0.0485 -1.9412,0.67942 -1.9412,1.35884 0,0.67942 0.33971,2.76621 0.53383,3.73681 0.19412,0.9706 0.33971,6.01772 0.4853,6.26037 0.14559,0.24265 0.24265,0.9706 0.24265,0.9706 0,0 -1.11619,-3.8824 -1.31031,-3.97946 -0.19412,-0.0971 -1.89267,0 -2.37797,0.29118 -0.4853,0.29118 -2.86327,2.13532 -2.86327,2.13532 l 2.18385,-2.76621 2.52356,-0.63089 c 0,0 -0.0971,-2.86327 -0.0971,-3.30004 0,-0.43677 -1.16472,-4.99859 -1.16472,-4.99859 0,0 -3.8824,-0.72795 -4.22211,-0.58236 -0.33971,0.14559 -1.40737,0.92207 -2.32944,1.98973 -0.92207,1.06766 -1.74708,3.3971 -1.89267,4.41623 -0.14559,1.01913 -0.19412,1.16472 -0.19412,1.16472 l 1.06766,-5.09565 0.92207,-1.55296 c 0,0 -1.74708,-0.0971 -3.30004,-0.72795 -1.55296,-0.63089 -3.8824,-2.62062 -3.8824,-2.62062 l 4.41623,2.4265 2.71768,0.33971 c 0.38824,0.0485 6.21184,-1.55296 6.21184,-1.55296 l 5.24124,-6.40596 4.75594,-6.84273 c 0,0 1.40737,-5.53242 1.16472,-5.67801 -0.24265,-0.14559 -2.47503,-2.52356 -3.3971,-3.20298 -0.92207,-0.67942 -7.03685,-2.23238 -9.17217,-2.57209 -2.13532,-0.33971 -9.12364,2.9118 -9.12364,2.9118 l -5.28977,2.37797 -1.35884,3.59122 c 0.0141,0.0984 -5.54555,4.33514 -6.28078,4.50068 -1.21546,0.27366 -0.8695,-0.76169 -0.97492,-1.53993 -0.0261,-0.19236 6.91599,-4.46518 6.91599,-4.46518 0,0 0.14559,-1.55296 0.14559,-1.74708 0,-0.19412 -0.14559,-1.89267 -0.82501,-1.89267 -0.67942,0 -2.15727,2.128 -2.15727,2.128 0,0 -2.26042,1.65735 -2.259,1.85146 0.001,0.19692 -1.6006,2.36369 -3.62024,0.74502 l 2.50304,-1.32738 c 2.85324,-1.56648 -4.45098,-4.79943 -4.8091,-2.99809 -0.19275,0.96952 1.90546,-1.44883 0.0942,-2.10648 l 6.41446,1.41629 6.3089,-1.06766 1.01913,-0.9706 c 0,0 -3.15445,-3.59122 -3.34857,-3.63975 -0.19412,-0.0485 -3.10592,-1.84414 -3.59122,-1.84414 -0.4853,0 -3.10592,-0.38824 -3.10592,-0.38824 l 4.75594,-0.24265 0.14559,-1.50443 1.98973,-2.57209 -0.14559,-1.35884 c 0,0 -0.63089,3.44563 -0.72795,3.63975 -0.0971,0.19412 0.77648,2.96033 0.77648,2.96033"
         id="path849-7"
         sodipodi:nodetypes="cccccccsssscccscccssccccsccssccscccsccccsccsscccccscscccsccccccccccsscccccscccccscccccscsccccccccccscssscsssscssssssssscccccsccccccccsscsccscssscsssccsssssssscscsscsssssssccssssssssscscsssssssscsssssssssscsssccsssscsccccscscccsscscsscsscsssssccsssscsssccccscccsssccssssscsscccscssscccsccccccssscccsscsscsccsccccsscccccsc" />
      <path
         style="fill:#ffcc00;stroke:#000000;stroke-width:0.765;stroke-linecap:butt;stroke-linejoin:miter;stroke-miterlimit:4;stroke-dasharray:none;stroke-opacity:1"
         d="m 280.64887,102.34982 c 0,0 -3.20298,0 -3.54269,0.63089 -0.33971,0.63089 -0.87354,1.11619 -0.87354,1.65002 0,0.53383 0.4853,1.98973 0.92207,2.86327 0.43677,0.87354 1.9412,2.81474 2.52356,3.00886 0.58236,0.19412 3.25151,1.50443 3.49416,1.60149 0.24265,0.0971 4.27064,-0.0485 4.70741,-0.4853 0.43677,-0.43677 1.21325,-0.38824 1.06766,-1.60149 -0.14559,-1.21325 0.0485,-1.9412 -0.29118,-2.71768 -0.33971,-0.77648 -1.55296,-2.66915 -2.32944,-3.00886 -0.77648,-0.33971 -2.23238,-1.31031 -2.96033,-1.40737 -0.72795,-0.0971 -3.00886,-0.4853 -3.00886,-0.4853"
         id="path851-8" />
    </g>
  </g>
</svg>
